<?xml version="1.0" encoding="UTF-8"?>
<svg id="Calque_2" xmlns="http://www.w3.org/2000/svg" viewBox="0 0 817.27 733.21">
  <defs>
    <style>
      .cls-1 {
        fill: #fb5607;
      }

      .cls-1, .cls-2, .cls-3, .cls-4, .cls-5, .cls-6, .cls-7, .cls-8, .cls-9, .cls-10, .cls-11, .cls-12, .cls-13 {
        stroke: #000;
        stroke-miterlimit: 10;
      }

      .cls-2 {
        fill: none;
      }

      .cls-3 {
        fill: #ffcce2;
      }

      .cls-4 {
        fill: #fff;
      }

      .cls-5 {
        fill: #ffbe0b;
      }

      .cls-6 {
        fill: #3a86ff;
      }

      .cls-7 {
        fill: #e6d7fb;
      }

      .cls-8 {
        fill: #feddcd;
      }

      .cls-9 {
        fill: #fff2ce;
      }

      .cls-10 {
        fill: #1d1d1b;
      }

      .cls-11 {
        fill: #d8e7ff;
      }

      .cls-12 {
        fill: #ff006e;
      }

      .cls-13 {
        fill: #8338ec;
      }
    </style>
  </defs>
  <g id="licorne">
    <g>
      <path class="cls-4" d="M701.09,479.54c-.1,5.73,1.93,11.28,5.72,15.62l17.35,19.87c.82.93,1.52,1.93,2.13,2.98,1.7,2.93,2.58,6.28,2.53,9.7-.12,11.27-.18,34.52-.27,59.57v.1c-.12,37.55-.28,79.11-.8,90.26-.1,2.08-3.48,12.08-5.28,17.28l9.8,5.58,1.28.73,7.48-10.18c2.73-3.73,4.32-8.17,4.53-12.78,1.05-21.92,4.1-89.92,4.1-134.55,0-9.98-.15-18.8-.52-25.67-.25-4.88-2.3-9.57-5.93-12.85-11-9.95-16.55-34.14-19.29-58.77l-2.25-68.44s-.02.03-.02.05c-.9,2.52-1.95,5-3.12,7.43-3,6.25-7.03,13.7-12.42,22.02-3.12,4.82-5.17,10.25-5.92,15.93-3.07,23.29.87,56.11.87,56.11Z"/>
      <path class="cls-4" d="M282.53,674.72l3.63,2.27.2.12,6.78,3.78s.12.12.33.35l14.97-10.67c3.73-2.65,5.93-6.97,5.88-11.53l-2.12-31.77c-.05-3.37-.7-11.57-1.07-14.9-1.2-10.77-.42-21.4-1.07-33.32-.12-2.17.13-4.37.73-6.45,2.07-7.23,3.67-5.97,4.87-10.1,7.38-25.24,11.67-118.61,11.67-118.61h-.05c-1.5.02-2.52.05-2.97.12-.03,0-.05,0-.07.02-2.8,1.57-22.79,5.07-22.94,11.47-.28,11.17,0,57.91-3.42,114.28-.75,12.38-8.12,18.92-9.35,30.2-2,18.28,2.4,54.84-1.28,66.19-.67,2.03-2.63,5.33-4.75,8.57Z"/>
      <path class="cls-4" d="M18.04,217.75c14.18,6.52,24.79-.22,30.89-5.12,24.72-19.85,59.02-30.7,80.19-37.02,12.63-3.77,22.84-2.98,26.29-2.85,9.92.35,11.43,19.39,18.97,37.32l36.84,91.02s.03.07.03.1c-.15,2.65-5.2,103.43,30.37,118.54,10,4.25,23.75,163.15,22.84,226.97-.12,7.3-7.98,25.39-10.63,31.29l23.6,6c-.05-.08-.05-.17.02-.23.53-.72,3.43-4.67,6.2-8.85.1-.17.22-.32.32-.48,2.12-3.23,4.08-6.53,4.75-8.57,3.68-11.35-.72-47.9,1.28-66.19,1.23-11.28,8.6-17.82,9.35-30.2,3.42-56.37,3.13-103.11,3.42-114.28.15-6.4,20.14-9.9,22.94-11.47.02-.02.03-.02.07-.02.45-.07,1.47-.1,2.97-.12h.05c23.65-.25,168.3,2.97,215.07-32.49,3.42-2.6,7.37-4.42,11.52-5.57,31.97-8.83,44.24,4.18,44.55,4.53t.02.03l107.79,167.6c.02.05.03.08.03.12.15,2.52,5.17,81.27-.43,114.94l15.52,5.1c-.03-.07-.05-.12-.02-.18.12-.32.52-1.45,1.07-3.05,1.8-5.2,5.18-15.2,5.28-17.28.52-11.15.68-52.7.8-90.26v-.1c.08-25.05.15-48.3.27-59.57.05-3.42-.83-6.77-2.53-9.7-.62-1.05-1.32-2.05-2.13-2.98l-17.35-19.87c-3.78-4.33-5.82-9.88-5.72-15.62,0,0-3.93-32.82-.87-56.11.75-5.68,2.8-11.12,5.92-15.93,5.38-8.32,9.42-15.77,12.42-22.02,1.17-2.43,2.22-4.92,3.12-7.43,0-.02.02-.03.02-.05.48-1.3.92-2.6,1.32-3.92v-.02c1.05-3.42,1.88-6.9,2.48-10.42v-.02c.83-4.73,1.25-9.55,1.27-14.4.07-13.45-.28-33.77-2.25-53.59-.05-.6-.12-1.18-.18-1.78-.05-.45-.1-.9-.15-1.37-.17-1.48-.35-2.97-.53-4.45-.07-.73-.17-1.47-.27-2.2-.28-2.2-.6-4.38-.95-6.53-.12-.77-.23-1.53-.37-2.28-.12-.77-.25-1.52-.4-2.25-.2-1.03-.38-2.07-.58-3.08-.38-1.9-.78-3.78-1.2-5.6-.1-.5-.22-1-.35-1.47-.1-.38-.2-.77-.3-1.13-.17-.68-.35-1.35-.52-2-.38-1.38-.77-2.72-1.18-4.03-.55-1.75-1.13-3.42-1.73-5.02-.32-.78-.63-1.57-.95-2.32-.15-.37-.3-.73-.47-1.08l-.02-.02-.02-.03-.02-.02c-1.2-2.67-2.53-5.03-3.98-7.03-.95-1.32-1.95-2.48-3.02-3.48-41.57-38.87-82.17-37.65-109.79-30.64-136.08,34.55-193.4,12.62-211.14,2.33l-1.78-1.6v.02c.13.68.23,1.38.28,2.07.35,3.9-.4,7.85-2.23,11.42-.1.22-.22.43-.33.65l-3.08,5.55c-1.43,2.63-2.13,4.5-4.62,6-.33.25-.68.47-1.03.68-.03.02-.05.03-.08.03v.02c-1.72,1-3.68,1.62-5.73,1.73-.45.07-.93.15-1.4.2-.67.08-1.33.12-2.02.12h-19.54c-.62,0-1.22-.1-1.8-.28h-.68l-1.5.27s-.08.02-.12.03c-1.95.6-4.95,2.35-8.4,4.73-.03.02-.07.05-.1.07-5.42,4.1-11.78,9.88-16.55,14.38-1.53,1.47-3.32,2.6-5.22,3.37-.68.32-1.47.57-2.2.72-.07.02-.12.05-.17.07-2.13,1.07-4.88,1.78-7.38,1.02l-3.23-1.02-22.12-6.9c-.05-.02-.08-.03-.13-.05-5.6-1.8-9.98-6.13-11.85-11.72-.02-.03-.02-.05-.03-.08l-15.08-45.9c-1.25-3.78-4.02-6.87-7.63-8.52l-14.95-6.8c-4.77-2.17-8.57-6.07-10.6-10.9,0-.02-.02-.02-.02-.03l-26.64-63.52-.02-.02-16.22-31c-.07-.12-.12-.23-.2-.35l-1.93-3.72c-.23-.33-.62-.88-.85-1.22l-2.22-2.4c-.3-.33-.58-.67-.88-1-.35-.38-.72-.77-1.08-1.18l-2.43-2.65c-.53-.58-1.08-1.18-1.63-1.78l-5.02-5.5-1.37-1.48c-.22-.25-.43-.48-.65-.72l-1.25-1.37c-.2-.23-.4-.43-.6-.65l-1.08-1.18c-1.05-1.13-1.87-2.03-2.37-2.58l-.37-.4-.12-.12c-4.43-.6-7.02-.78-10.17.3-.03,0-.08.02-.12,0-6.78-1.25-13.67-11.32-21.77-16.43-10.85-6.85-21.62-10.13-24.01-10.81-.08-.02-.54.34-.26.7,10.7,6.77,19.15,29.31,19.58,30.53.03.03.03.05.03.05l3.18,5.82c.4.47.77.97,1.08,1.52.05.07.1.15.13.22l1.1,2c.1.2.2.38.3.58.73,1.57,1.05,3.25.93,4.92-.05,1.32-.38,2.62-.95,3.82-.15.33-.32.63-.5.95l-5.02,8.32c-.67,1.1-1.12,2.28-1.33,3.53l-3.05,17.28c-.05.25-.1.5-.17.73-.6,2.43-2.07,4.55-4.12,5.95-.33.23-.67.43-1.02.62l-9.77,5.18c-.33.18-.68.33-1.03.47-.9.37-1.87.6-2.85.68-.3.03-.62.05-.93.05h-3.05c-.32,0-.65-.02-.97-.05-1.82-.17-3.53-.82-4.98-1.85-.23-.15-.45-.32-.67-.5-1.13-.82-2.07-1.88-2.77-3.15l-.28-.52s-.03-.07-.07-.1l-2.27-4.07-4.13-.65-3.55-.57c-.05-.02-.1,0-.15.02-.18-.03-.38-.07-.57-.12-3.15,3.73-6.43,7.55-9.73,11.4h-.02c-18.98,22.05-38.95,44.7-49.07,56.04-.02,0-.03.02-.03.03-16.57,27.22,5.67,45.8,11.52,48.5Z"/>
      <path class="cls-5" d="M714.32,248.94v.03l.02.02.02.03.02.02c.17.35.32.72.47,1.08.33.75.65,1.52.95,2.32.62,1.58,1.2,3.27,1.73,5.02.43,1.3.82,2.65,1.18,4.03.2.67.37,1.33.55,2.02l20.9,16.15c6,4.65,9.52,11.8,9.52,19.4v4.75c0,14.5,4.82,28.59,13.7,40.04l2.03,2.63c6.27,8.07,9.93,17.83,10.55,28.04l3.85,64.09c.22,3.5.97,6.95,2.25,10.22l15.35,39.35c.95,2.45,1.55,5.02,1.75,7.63l1.92,24.04c.4,5.13-.07,10.3-1.42,15.28l-3.15,11.68c-1.82,6.78-2.05,13.88-.7,20.77l3.77,19.1,2.42-1.78c4.8-3.55,7.58-9.18,7.52-15.13-.13-9.07-.3-22.25-.4-28.7-.03-2.35.12-4.68.45-7.02,1.23-8.68,4.43-32.89,6.57-49,1.33-10.1.58-20.37-2.2-30.17l-30.39-107.08s-.02-.08-.03-.13l-10.38-46.89c-3.85-17.4-14.98-32.32-30.57-40.95l-25-13.85c-1.95-1.08-4.15.93-3.23,2.97Z"/>
      <path class="cls-1" d="M719.26,263.5c.08.37.18.73.27,1.12.13.47.25.97.35,1.47.43,1.82.83,3.68,1.2,5.6.22,1.02.4,2.05.58,3.08.15.73.28,1.48.4,2.25.13.75.25,1.52.37,2.28.35,2.15.67,4.33.95,6.53.1.73.2,1.47.27,2.2.2,1.48.38,2.97.53,4.45.05.47.1.92.15,1.37.07.6.13,1.18.18,1.78.1.92.2,1.83.28,2.75l.95.55c5.47,3.1,8.62,9.13,8.02,15.4l-1.08,11.33c-.05.55-.08,1.12-.08,1.67,0,7.57,4.93,14.35,12.3,16.62,2.9.88,4.63,3.53,4.63,6.28,0,1.27-.38,2.57-1.18,3.72-5.72,8.23-7.25,18.65-4.15,28.19l9.83,30.27,24.1,62.26c2.05,5.32,2.68,11.07,1.82,16.7l-4.55,29.54c-.62,4.03-.33,8.15.83,12.07l8.82,29.35c1.98,6.62,2.13,13.63.43,20.34l-4.5,17.77,18.6-13.75-3.77-19.1c-1.35-6.88-1.12-13.98.7-20.77l3.15-11.68c1.35-4.98,1.82-10.15,1.42-15.28l-1.92-24.04c-.2-2.62-.8-5.18-1.75-7.63l-15.35-39.35c-1.28-3.27-2.03-6.72-2.25-10.22l-3.85-64.09c-.62-10.2-4.28-19.97-10.55-28.04l-2.03-2.63c-8.88-11.45-13.7-25.54-13.7-40.04v-4.75c0-7.6-3.52-14.75-9.52-19.4l-20.9-16.15Z"/>
      <path class="cls-12" d="M725.52,363.7l-.45,23.19v.02l14.02,22.8c3.87,6.28,6.33,13.3,7.28,20.62l2.08,16.28c.8,6.23,3.18,12.15,6.93,17.2l1.92,2.58c7.52,10.1,12.63,11.9,5.28,22.1l-.33.37c-3.8,4.12-5.85,9.53-5.83,15.13v32.54c0,5,.73,9.97,2.17,14.75l5.07,16.93c1.17,3.88,1.32,8,.42,11.95l-3.57,15.82c4.08,7.37,13.7,9.45,20.47,4.45l4.5-17.77c1.7-6.7,1.55-13.72-.43-20.34l-8.82-29.35c-1.17-3.92-1.45-8.03-.83-12.07l4.55-29.54c.87-5.63.23-11.38-1.82-16.7l-24.1-62.26-9.83-30.27c-3.1-9.53-1.57-19.95,4.15-28.19.8-1.15,1.18-2.45,1.18-3.72,0-2.75-1.73-5.4-4.63-6.28-7.37-2.27-12.3-9.05-12.3-16.62,0-.55.03-1.12.08-1.67l1.08-11.33c.6-6.27-2.55-12.3-8.02-15.4l-.95-.55c1.75,18.95,2.07,38.05,2,50.89-.02,4.85-.43,9.67-1.27,14.4v.02Z"/>
      <path class="cls-10" d="M276,684.29c.55.92,4.08,6.97,6.08,15.9h21.84c2.55-4.33-8.42-16.72-10.43-18.95-.22-.23-.33-.35-.33-.35l-6.78-3.78-.2-.12-3.63-2.27c-.1.17-.22.32-.32.48-2.77,4.18-5.67,8.13-6.2,8.85-.07.07-.07.15-.02.23Z"/>
      <path class="cls-6" d="M188.49,52.18s.03.02.03.03c.88.5,1.62,1.23,2.13,2.1.03.03.05.05.07.08l7.27,12.55c2.77,4.77,6.73,8.73,11.5,11.5l33.19,19.24.67.38.47.47s.05.05.08.07l33.42,33.02.92.9.45,1.15s.02.03.02.05l14.12,36.55c.65,1.7,2.05,3,3.78,3.53l61.04,18.97s.05.02.07.02c1.78.58,3.18,1.95,3.8,3.73l.48,1.35,12.07,34.72.65,1.58.22.5s.05-.02.08-.03c.35-.22.7-.43,1.03-.68,2.48-1.5,3.18-3.37,4.62-6l3.08-5.55c.12-.22.23-.43.33-.65,1.83-3.57,2.58-7.52,2.23-11.42-.05-.68-.15-1.38-.28-2.07v-.02c-.3-1.7-.82-3.37-1.57-4.97l-8.78-19.19c-2.95-6.43-7.92-11.75-14.13-15.13l-28.27-15.38c-3.4-1.87-6.58-4.12-9.45-6.75l-27.7-25.24c-1.07-.98-2.03-2.05-2.9-3.2l-15.8-21.07c-3.82-5.08-9.18-8.8-15.28-10.58l-24.99-7.32c-5.13-1.5-9.98-3.8-14.38-6.8l-23.94-16.33c-2.88-1.97-6.97-3.3-10.33-4.12Z"/>
      <path class="cls-13" d="M183.19,51.37c5.08,2.7,3.25,18.03,3.98,19.75.85,1.98,26.67,18.15,28.09,18.44.03,0,.07.02.1.07.03.03.08.08.13.15v.02c.05.07.1.15.15.23,2.37,3.73,12.08,28.85,14.52,36.24.02.05.02.08.03.12.4,1.2,1.28,2.17,2.45,2.67l.45.2,30.94,14.48c1.27.55,2.22,1.65,2.55,3l.18.73,9.62,38.52.25,1.02c.45,1.8,1.97,3.12,3.8,3.33l1.05.12,9.62,1.12,29.27,3.4c3.18.37,5.48,3.18,5.27,6.35v.03l-.05.4-2.23,15.18c-.17,1.25.3,2.5,1.25,3.3l.83.7.15.13,16.8,14.27c.43.37.9.67,1.42.9.2.08.42.17.63.23.58.18,1.18.28,1.8.28h19.54c.68,0,1.35-.03,2.02-.12.47-.05.95-.13,1.4-.2,2.05-.12,4.02-.73,5.73-1.73v-.02l-.22-.5-.65-1.58-12.07-34.72-.48-1.35c-.62-1.78-2.02-3.15-3.8-3.73-.02,0-.05-.02-.07-.02l-61.04-18.97c-1.73-.53-3.13-1.83-3.78-3.53l-14.12-36.55s-.02-.03-.02-.05c-.32-.78-.78-1.47-1.37-2.05l-33.42-33.02s-.05-.05-.08-.07c-.33-.33-.72-.62-1.13-.85l-33.19-19.24c-4.77-2.77-8.73-6.73-11.5-11.5l-7.27-12.55s-.03-.05-.07-.08c-.52-.87-1.25-1.6-2.13-2.1,0-.02-.02-.02-.03-.03-.58-.32-1.22-.55-1.9-.65h-.03l-1.47-.2c-.67-.1-1.3-.08-1.9.03Z"/>
      <path class="cls-4" d="M374.92,234.68v.02s.05-.03.08-.05c-.03.02-.05.03-.08.03Z"/>
      <path class="cls-12" d="M160.37,48.1v.02c.88.43,1.65,1.12,2.17,1.98l2.38,3.98.13.18,1.68,2.82c.38.62.87,1.15,1.45,1.57l9.68,6.95.22.15c.73.53,1.3,1.28,1.6,2.13l.08.25,7.78,22.07c.08.25.18.48.3.72.13.22.27.43.42.65.1.13.22.27.33.4.15.17.32.33.5.48l20.94,17.85.03.03c.15.13.3.28.43.42.38.37.68.83.9,1.33l.07.18,8.52,20.2,11.52,27.34c.48,1.15,1.43,2.03,2.62,2.45l.15.05c.07.03.13.07.2.08l20.15,7.13.4.13c1.33.47,2.35,1.55,2.77,2.9l.12.42,13.3,44.07s.02.05.02.07,0,.03.02.05c.07.22.12.45.13.68.03.2.05.4.05.6v4.83c0,2.45,1.98,4.43,4.43,4.43h19.45c1.85,0,3.5,1.13,4.15,2.87l.2.53.05.12,8.82,23.29c.63,1.68,2.15,2.73,3.75,2.88,1.17.13,2.38-.22,3.33-1.12.02-.02.03-.03.05-.05,5.33-5.05,12.25-10.72,17.97-14.67.03-.02.07-.05.1-.07,3.45-2.38,6.45-4.13,8.4-4.73.03-.02.07-.02.12-.03l1.5-.27.28-.05-.23-.18c-.52-.23-.98-.53-1.42-.9l-16.8-14.27-.15-.13-.83-.7c-.95-.8-1.42-2.05-1.25-3.3l2.23-15.18.05-.4v-.03c.22-3.17-2.08-5.98-5.27-6.35l-29.27-3.4-9.62-1.12-1.05-.12c-1.83-.22-3.35-1.53-3.8-3.33l-.25-1.02-9.62-38.52-.18-.73c-.33-1.35-1.28-2.45-2.55-3l-30.94-14.48-.45-.2c-1.17-.5-2.05-1.47-2.45-2.67-.02-.03-.02-.07-.03-.12-2.43-7.38-12.15-32.5-14.52-36.24-.05-.08-.1-.17-.15-.23v-.02c-.05-.07-.1-.12-.13-.15-.03-.05-.07-.07-.1-.07-1.42-.28-27.24-16.45-28.09-18.44-.73-1.72,1.1-17.05-3.98-19.75,0-.02-.02-.02-.02-.02-.82-.43-13.45-2.2-14.37-2.33l-7.57-1.07c-.5-.07-.77-.02-.87.15Z"/>
      <path class="cls-12" d="M187.56,90.2l.07.2c.07.17.13.35.23.52-.12-.23-.22-.47-.3-.72Z"/>
      <path class="cls-1" d="M149.49,46.28l.05.07.12.12.37.4c.5.55,1.32,1.45,2.37,2.58l1.08,1.18c.2.22.4.42.6.65l1.25,1.37c.22.23.43.47.65.72l1.37,1.48,5.02,5.5c.55.6,1.1,1.2,1.63,1.78l2.43,2.65c.37.42.73.8,1.08,1.18.3.33.58.67.88,1l2.22,2.4c.23.33.62.88.85,1.22l1.93,3.72c.08.12.13.23.2.35l16.22,31,.02.02,26.64,63.52s.02.02.02.03c2.03,4.83,5.83,8.73,10.6,10.9l14.95,6.8c3.62,1.65,6.38,4.73,7.63,8.52l15.08,45.9s.02.05.03.08c1.87,5.58,6.25,9.92,11.85,11.72.05.02.08.03.13.05l22.12,6.9,3.23,1.02c2.5.77,5.25.05,7.38-1.02.05-.02.1-.05.17-.07.73-.15,1.52-.4,2.2-.72,1.9-.77,3.68-1.9,5.22-3.37,4.77-4.5,11.13-10.28,16.55-14.38-5.72,3.95-12.63,9.62-17.97,14.67-.02.02-.03.03-.05.05-.95.9-2.17,1.25-3.33,1.12-1.6-.15-3.12-1.2-3.75-2.88l-8.82-23.29-.05-.12-.2-.53c-.65-1.73-2.3-2.87-4.15-2.87h-19.45c-2.45,0-4.43-1.98-4.43-4.43v-4.7c0-.25-.02-.5-.05-.73-.03-.23-.08-.47-.13-.68-.02-.02-.02-.03-.02-.05s-.02-.05-.02-.07l-13.3-44.07-.12-.42c-.42-1.35-1.43-2.43-2.77-2.9l-.4-.13-20.15-7.13c-.07-.02-.13-.05-.2-.08l-.15-.05c-1.18-.42-2.13-1.3-2.62-2.45l-11.52-27.34-8.52-20.2c-.23-.55-.57-1.07-.97-1.52-.13-.13-.28-.28-.43-.42l-.03-.03-20.94-17.85c-.18-.15-.35-.32-.5-.48-.13-.12-.25-.25-.33-.4-.17-.2-.3-.42-.42-.65-.1-.17-.17-.35-.23-.52l-.07-.2-7.78-22.07c-.35-1.02-1.02-1.9-1.9-2.53l-9.68-6.95c-.58-.42-1.07-.95-1.45-1.57l-1.68-2.82-.13-.18-2.38-3.98c-.52-.87-1.28-1.55-2.17-1.98v-.02c-.5-.25-1.05-.42-1.62-.5l-7.33-1.03-1.15-.17-.78-.12Z"/>
      <path class="cls-1" d="M187.56,90.2l.07.2c.07.17.13.35.23.52-.12-.23-.22-.47-.3-.72Z"/>
      <path class="cls-4" d="M87.75,126.06l1.87,5.03c.58,1.6,2.67,2,3.8.75l2.7-2.98s1.32-5.02,1.05-9.63c-.32,2.12-2.15,3.73-4.35,3.73-2.35,0-4.25-1.85-4.37-4.17l-.58,1.43c-.78,1.85-.82,3.93-.12,5.83Z"/>
      <path class="cls-4" d="M87.71,126.01l1.87,5.03c.58,1.6,2.67,2,3.8.75l2.7-2.98.07-.08s-.02.07-.02.1l11.37-12.52-.35-.07s-.07-.07-.12-.08l-11.4-2.33-2.1-.43c-.18-.03-.37-.05-.53-.05-.2-.02-.38-.02-.58,0-.68.07-1.33.37-1.8.87-.08.05-.13.12-.18.18-.1.1-.18.23-.27.35-.13.17-.23.33-.32.53l-1.43,3.47-.58,1.43c-.78,1.85-.82,3.93-.12,5.83Z"/>
      <path class="cls-10" d="M231.33,714.28c-.1.17.03.38.22.38h51.65c.13,0,.25-.12.25-.25.2-5.03-.37-9.7-1.27-13.78-.03-.15-.07-.3-.1-.43-2-8.93-5.53-14.98-6.08-15.9l-23.6-6c-.53,1.17-.85,1.85-.87,1.9h-.02l-20.19,34.09Z"/>
      <path class="cls-10" d="M684.84,732.55l47.45.17c.1,0,.18-.05.23-.12,1.22-1.78,1.22-4.68.53-8.07-.02-.02-.02-.03-.02-.05-2.17-10.33-10.88-25.1-11.62-26.32l-15.52-5.1c-.38,2.27-.8,4.33-1.28,6.15-2.28,8.72-17.67,29.77-20,32.94-.12.17,0,.4.22.4Z"/>
      <path class="cls-4" d="M88.45,118.79c.12,2.32,2.02,4.17,4.37,4.17,2.2,0,4.03-1.62,4.35-3.73v-.03c-.05-.78-.13-1.55-.3-2.27,0-.02,0-.03-.02-.05-.22-1.13-.6-2.17-1.18-3l-2.37-.48c-.1-.02-.2-.03-.3-.05-.2-.02-.38-.02-.58,0-.68.07-1.33.37-1.8.87-.08.05-.13.12-.18.18-.1.1-.18.23-.27.35-.07.13-.15.27-.2.4l-.08.18-1.43,3.47Z"/>
      <path class="cls-4" d="M96.15,128.72s-.02.07-.02.1l11.37-12.52-.35-.07-11.48-2.37c.58.83.97,1.87,1.18,3,.02.02.02.03.02.05.17.72.25,1.48.3,2.27v.03c.23,4.17-.82,8.67-1.02,9.5Z"/>
      <polygon class="cls-9" points="49.06 2.71 58.68 20.86 65.35 19.01 49.06 2.71"/>
      <polygon class="cls-8" points="58.68 20.86 63.33 29.63 73.36 27.03 65.35 19.01 58.68 20.86"/>
      <polygon class="cls-3" points="63.33 29.63 69.65 41.57 83.36 37.03 73.36 27.03 63.33 29.63"/>
      <polygon class="cls-7" points="69.65 41.57 75.66 52.9 94 47.67 83.36 37.03 69.65 41.57"/>
      <path class="cls-11" d="M75.66,52.9l3.97,7.5,2.2-.65s.05-.02.08-.03l17.38-5.15-.23-1.83-5.07-5.07-18.34,5.23Z"/>
      <path class="cls-10" d="M92.84,20.12c.03.17.46.72.55,1.01,1.15,4.52,5.3,22.49,6.95,31.6.12.67.22,1.27.3,1.82l4.1-1.22c1.3-.38,2.62-.5,3.9-.38,1.48-.13,2.95.07,4.32.55.52.18,1.02.42,1.5.68l-.7-1.28-1.07-1.93s0-.02-.03-.05c-.43-1.22-9.01-24.23-19.71-30.99-.07.07-.1.13-.1.2Z"/>
      <path class="cls-12" d="M73.78,103.09l2.27,4.07s.05.07.07.1l.28.52c.7,1.27,1.63,2.33,2.77,3.15.22.18.43.35.67.5,1.45,1.03,3.17,1.68,4.98,1.85.32.03.65.05.97.05h3.05c.32,0,.63-.02.93-.05.98-.08,1.95-.32,2.85-.68v-.45l.17-13.08c.02-1.75.53-3.47,1.52-4.93l6.65-10.05c.42-.63.7-1.35.82-2.08l.93-5.65c.38-2.37,1.97-4.37,4.18-5.3l12.25-5.12.43-.18c.12-1.67-.2-3.35-.93-4.92-.1-.2-.2-.38-.3-.58l-1.1-2c-.03-.07-.08-.15-.13-.22-.32-.55-.68-1.05-1.08-1.52-.8-.95-1.77-1.73-2.83-2.32-.48-.27-.98-.5-1.5-.68l-.67.52-14.15,10.78c-.78.6-1.33,1.43-1.6,2.37l-2.52,9.15c-.33,1.22-1.12,2.25-2.18,2.92l-6.2,3.9c-1.58,1-2.53,2.73-2.53,4.58v7.28c0,1.73-.87,3.35-2.3,4.32l-5.62,3.78-.13-.02Z"/>
      <path class="cls-5" d="M92.62,112.14v.45c.35-.13.7-.28,1.03-.47l9.77-5.18c.35-.18.68-.38,1.02-.62,2.05-1.4,3.52-3.52,4.12-5.95.07-.23.12-.48.17-.73l3.05-17.28c.22-1.25.67-2.43,1.33-3.53l5.02-8.32c.18-.32.35-.62.5-.95.57-1.2.9-2.5.95-3.82l-.43.18-12.25,5.12c-2.22.93-3.8,2.93-4.18,5.3l-.93,5.65c-.12.73-.4,1.45-.82,2.08l-6.65,10.05c-.98,1.47-1.5,3.18-1.52,4.93l-.17,13.08Z"/>
      <path class="cls-6" d="M65.38,101.77c.18.05.38.08.57.12.05-.02.1-.03.15-.02l3.55.57-.07-.23-3.13-11.47c-.28-1.03-.27-2.13.03-3.17l2.13-7.47c.62-2.17,2.52-3.73,4.75-3.95l4.78-.43c1.98-.2,3.38-2.03,3.05-4l-.5-2.85c-.13-.77-.13-1.55-.02-2.32l1-5.97c-.72.38-1.37.87-1.98,1.43l-8.5,7.8c-.53.48-1.12.92-1.73,1.28l-5.88,3.47c-2.68,1.58-4.52,4.3-4.97,7.37l-1.22,8.32c-.78,5.37,2.75,10.4,7.98,11.52Z"/>
      <circle cx="9.79" cy="194.19" r="3.13"/>
      <path class="cls-10" d="M721.41,697.98c-.03.07-.02.12.02.18.73,1.22,9.45,15.98,11.62,26.32,0,.02,0,.03.02.05l13.55.27c0-9.93-13.05-23.55-13.05-23.55l-1.28-.73-9.8-5.58c-.55,1.6-.95,2.73-1.07,3.05Z"/>
      <path class="cls-6" d="M87.75,126.06l1.87,5.03c.58,1.6,2.67,2,3.8.75l2.7-2.98s1.32-5.02,1.05-9.63c-.32,2.12-2.15,3.73-4.35,3.73-2.35,0-4.25-1.85-4.37-4.17l-.58,1.43c-.78,1.85-.82,3.93-.12,5.83Z"/>
      <polyline class="cls-2" points="719.26 263.5 719.22 263.49 718.84 263.19"/>
      <line class="cls-2" x1="724.77" y1="298.39" x2="724.79" y2="298.39"/>
      <path class="cls-13" d="M724.82,399.18c-.2,9.78,2.17,19.45,6.85,28.05l4.33,7.95c1.4,2.55,2.03,5.43,1.87,8.33l-1.83,29.92c-.32,5.28,1.3,10.5,4.55,14.68l2.6,3.35c4.2,5.4,6.48,12.05,6.48,18.9v65.42c0,.4.1.78.28,1.13l10.55,19.05,3.57-15.82c.9-3.95.75-8.07-.42-11.95l-5.07-16.93c-1.43-4.78-2.17-9.75-2.17-14.75v-32.54c-.02-5.6,2.03-11.02,5.83-15.13l.33-.37c7.35-10.2,2.23-12-5.28-22.1l-1.92-2.58c-3.75-5.05-6.13-10.97-6.93-17.2l-2.08-16.28c-.95-7.32-3.42-14.33-7.28-20.62l-14.02-22.8-.25,12.28Z"/>
      <line class="cls-2" x1="725.06" y1="386.86" x2="725.07" y2="386.88"/>
      <line class="cls-2" x1="161.07" y1="47.67" x2="161.24" y2="47.95"/>
      <line class="cls-2" x1="119.57" y1="65.74" x2="119.6" y2="65.72"/>
      <path class="cls-13" d="M66.45,90.74l3.13,11.47.07.23,4.13.65.13.02,5.62-3.78c1.43-.97,2.3-2.58,2.3-4.32v-7.28c0-1.85.95-3.58,2.53-4.58l6.2-3.9c1.07-.67,1.85-1.7,2.18-2.92l2.52-9.15c.27-.93.82-1.77,1.6-2.37l14.15-10.78.67-.52c-1.37-.48-2.83-.68-4.32-.55-1.28-.12-2.6,0-3.9.38l-4.1,1.22c-.08-.55-.18-1.15-.3-1.82l.23,1.83-17.38,5.15s-.05.02-.08.03l-.13.83h-.02l-1,5.97c-.12.77-.12,1.55.02,2.32l.5,2.85c.33,1.97-1.07,3.8-3.05,4l-4.78.43c-2.23.22-4.13,1.78-4.75,3.95l-2.13,7.47c-.3,1.03-.32,2.13-.03,3.17Z"/>
    </g>
  </g>
</svg>