<?xml version="1.0" encoding="UTF-8"?>
<svg id="Calque_2" xmlns="http://www.w3.org/2000/svg" viewBox="0 0 187.75 321.14">
  <defs>
    <style>
      .cls-1 {
        fill: none;
      }

      .cls-1, .cls-2, .cls-3, .cls-4, .cls-5, .cls-6, .cls-7, .cls-8, .cls-9 {
        stroke: #000;
        stroke-miterlimit: 10;
      }

      .cls-2 {
        fill: #fff;
      }

      .cls-3 {
        fill: #bf7394;
      }

      .cls-4 {
        fill: #864d66;
      }

      .cls-5 {
        fill: #1a1a1a;
      }

      .cls-6 {
        fill: #999;
      }

      .cls-7 {
        fill: #4497ba;
      }

      .cls-8 {
        fill: #1d1d1b;
      }

      .cls-9 {
        fill: #ffadd1;
      }
    </style>
  </defs>
  <g id="grodoudou_pied_gauche">
    <g>
      <path class="cls-9" d="M42.81,202.68s16.34,48.08,20.43,42.46c4.08-5.61,15.39-42.46,15.39-42.46h-35.82ZM92.22,105.03c-.04-1.99-.38-6.26-.91-11.98h0c-.04-.3-.06-.59-.09-.89,0-.05,0-.11-.02-.16-.03-.02-.07-.02-.1-.03.02.16.04.32.05.47.03.24.05.48.07.72.03.31.05.6.09.89h0c.44,4.87.75,8.69.87,10.97.01.14.01.27.02.39h.03c0-.12,0-.24-.01-.38ZM125.65,281.77s0,.01,0,.02c.04-.04.08-.08.12-.12-.03.03-.07.06-.11.1ZM136.44,217.34s.02.04.03.06c.03.05.06.12.09.2.13.28.33.73.61,1.27.05.1.11.2.17.31.15.25.31.52.49.8.06.08.11.15.17.23.19.27.4.53.63.79.07.08.15.17.23.25.09.08.17.17.26.25.08.08.17.16.26.23.1.08.19.16.29.23.09.07.19.15.29.21.11.08.21.14.32.2.07.05.15.09.23.13.61.33,1.3.57,2.09.67.25.03.52.05.8.05,2.09.01,4.77-.95,8.18-3.66.53-.42,1.07-.88,1.63-1.38.28-.24.56-.5.85-.78.02-.02.05-.04.07-.06h-17.69ZM115.08,146.05c-12.51,0-22.65,10.89-22.65,24.33s10.14,24.33,22.65,24.33,22.64-10.9,22.64-24.33-10.14-24.33-22.64-24.33ZM156.09,210.73c-.02.25-.04.5-.06.75.03-.27.05-.54.08-.81.06-.59.11-1.19.15-1.79-.06.62-.11,1.24-.17,1.85ZM156.48,205.68c-.07,1.07-.15,2.14-.22,3.2.01-.02.01-.04.01-.06.08-1.06.16-2.13.23-3.2.02-.28.03-.57.04-.85-.02.31-.04.61-.06.91ZM106.05,239.48h.01c.32-.48.64-.95.97-1.42-.34.47-.66.94-.98,1.42ZM156.59,203.68c-.15.06-.34.13-.56.22-3.3,1.27-14.52,5.86-26.09,13.37-.9.57-1.8,1.17-2.7,1.79-.05.03-.09.06-.14.1-.22.16-.44.31-.66.46-.45.3-.89.61-1.33.94-.4.28-.8.57-1.2.87-.04.03-.08.06-.12.09-.4.3-.8.6-1.2.9-.66.5-1.31,1.02-1.96,1.54-.21.17-.43.35-.64.52-.04.03-.08.06-.11.09-.35.29-.69.57-1.04.86-.68.59-1.36,1.18-2.03,1.78-1.01.91-1.99,1.84-2.94,2.79-.42.42-.83.84-1.24,1.27-.27.29-.54.58-.81.87-.22.23-.43.47-.63.7-.03.02-.05.04-.06.06-.68.76-1.34,1.54-1.97,2.32-.03.04-.06.08-.08.11-.17.21-.33.42-.49.63,1.62-2.05,3.38-4.03,5.26-5.9.96-.95,1.93-1.88,2.94-2.79.67-.6,1.35-1.19,2.03-1.78.35-.29.69-.57,1.04-.86.03-.03.08-.06.11-.09.22-.17.43-.35.64-.52.65-.52,1.3-1.04,1.96-1.54.4-.3.81-.6,1.2-.9.05-.03.08-.06.12-.09.4-.3.81-.59,1.2-.87.44-.33.88-.64,1.33-.94.22-.15.44-.3.66-.46.05-.04.09-.07.14-.1.91-.62,1.8-1.22,2.7-1.79,11.59-7.51,22.81-12.1,26.1-13.37.22-.09.41-.16.56-.22,0,0,.02-.01.02-.02v-.04h-.01ZM107.03,238.05c.25-.35.51-.7.77-1.05.26-.35.52-.69.79-1.04-.18.22-.36.45-.53.68-.36.46-.7.93-1.03,1.41Z"/>
      <path class="cls-9" d="M125.65,281.77s0,.01,0,.02c.04-.04.08-.08.12-.12-.03.03-.07.06-.11.1Z"/>
      <path class="cls-9" d="M63.24,245.14c-4.09,5.62-20.43-42.46-20.43-42.46h35.82s-11.31,36.85-15.39,42.46ZM85.3,100.49h-17.54c-.37-.94-.31-4.18.05-8.85,1.59-20.83,8.95-70.11,8.95-70.11,0,0,8.24,48.5,9.27,69.56.26,5.11.09,8.6-.73,9.4ZM120.18,286.87c-.14.12-.28.24-.42.36-.47.39-.93.77-1.4,1.14-.26.22-.53.43-.8.63-.34.27-.68.53-1.02.78-.3.23-.59.45-.89.66-.52.39-1.05.76-1.58,1.13-.28-.3-.55-.61-.81-.91-3.23-3.66-5.82-7.22-7.84-10.67-.39-.67-.76-1.34-1.11-2-.54-1.02-1.03-2.03-1.48-3.03-.44-.99-.83-1.97-1.18-2.95-.22-.64-.43-1.28-.63-1.91,0-.01-.01-.02-.01-.02-1.3-4.32-1.73-8.47-1.45-12.42-.29,3.97.13,8.13,1.44,12.48,0,0,.01.01.01.02.19.63.4,1.27.62,1.91.35.98.75,1.96,1.19,2.95.44,1,.94,2.01,1.47,3.03.35.66.72,1.33,1.11,2,2.02,3.45,4.6,6.99,7.82,10.64.27.31.55.63.83.94.53-.37,1.06-.74,1.58-1.13.31-.21.59-.43.89-.66.34-.25.68-.51,1.02-.78.28-.2.54-.41.8-.63.21-.16.41-.32.61-.48.03-.03.06-.06.1-.08.66-.56,1.32-1.13,1.97-1.72-.28.24-.56.48-.84.72ZM115.08,146.05c-12.51,0-22.65,10.89-22.65,24.33s10.14,24.33,22.65,24.33,22.64-10.9,22.64-24.33-10.14-24.33-22.64-24.33Z"/>
      <path class="cls-9" d="M137.5,127.03c-1.48.93-3.15,1.58-4.93,1.86l-3.14.5c-3.41.55-6.9,0-9.98-1.57-2.12-1.09-3.93-2.64-5.3-4.51-1.37-1.88-2.31-4.06-2.7-6.42l-.47-2.84c-.55-3.32-.26-6.72.85-9.9l.61-1.75-19.96-9.83-1.06-.53h-.01c-.07-.02-.14-.03-.21-.04.01.05.02.11.02.16.03.3.05.59.09.88h0c.53,5.73.87,10,.91,11.99.01.14.01.26.01.38h-.03c-.01-.12-.01-.25-.02-.39-.12-2.28-.43-6.1-.87-10.96h0c-.04-.3-.06-.59-.09-.9-.02-.24-.04-.48-.07-.72,0-.15-.03-.31-.05-.47v-.09h-.01c-.03-.33-.06-.66-.09-.99,0-.03-.01-.06-.01-.09-.39-4.11-.87-8.78-1.39-13.78-.24-2.31-.49-4.69-.74-7.12-5.02-30.01-11.93-67.77-11.93-67.77,0,0-21.25,70.88-20.86,93.03C24.19,108.36.79,148.74.5,196.03c-.26,43.99,19.11,81.87,46.91,98.36l1.34,4.94c1.86,6.83,5.81,12.22,10.83,14.75l9.53,4.82c2.22,1.15,4.59,1.74,6.98,1.74h30.17c3.3,0,6.01-3.42,6.33-7.8,0-2.95-.97-5.75-2.65-7.63l-1.73-1.95c-1.16-1.29-2.48-2.28-3.9-2.94l-7.96-3.66c.37.13,3.56,1.06,13.32-2.99h.01c1.29-.54,2.69-1.16,4.22-1.88,1.73-1.19,3.41-2.47,5.05-3.84-.2.16-.4.32-.61.48-.26.22-.52.43-.8.63-.34.27-.68.53-1.02.78-.3.23-.58.45-.89.66-.52.39-1.05.76-1.58,1.13-.28-.31-.56-.63-.83-.94-3.22-3.65-5.8-7.19-7.82-10.64-.39-.67-.76-1.34-1.11-2-.53-1.02-1.03-2.03-1.47-3.03-.44-.99-.84-1.97-1.19-2.95-.22-.64-.43-1.28-.62-1.91,0-.01-.01-.02-.01-.02-1.31-4.35-1.73-8.51-1.44-12.48.02-.32.05-.63.08-.95.24-2.46.75-4.84,1.5-7.15.21-.66.44-1.32.7-1.97.51-1.32,1.09-2.61,1.74-3.88.48-.94,1-1.86,1.55-2.77.3-.49.61-.97.92-1.45h0c.32-.49.64-.96.98-1.43h0c.25-.37.5-.72.77-1.06.08-.12.17-.24.26-.36.17-.23.35-.46.53-.68.16-.21.32-.42.49-.63.02-.03.05-.07.08-.11.63-.78,1.29-1.56,1.97-2.32.01-.02.03-.04.06-.06.2-.23.41-.47.63-.7.27-.29.54-.58.81-.87.41-.43.82-.85,1.24-1.27.95-.95,1.93-1.88,2.94-2.79.67-.6,1.35-1.19,2.03-1.78.35-.29.69-.57,1.04-.86.03-.03.07-.06.11-.09.21-.17.43-.35.64-.52.65-.52,1.3-1.04,1.96-1.54.4-.3.8-.6,1.2-.9.04-.03.08-.06.12-.09.4-.3.8-.59,1.2-.87.44-.33.88-.64,1.33-.94.22-.15.44-.3.66-.46.05-.04.09-.07.14-.1.9-.62,1.8-1.22,2.7-1.79,11.57-7.51,22.79-12.1,26.09-13.37.22-.09.41-.16.56-.22,0-.01,0-.02,0-.03-.01-.01,0-.02,0-.03v.06s.01-.09.01-.09c-.01-.01,0-.02.01-.03.1-2.19.15-4.4.15-6.63,0-26.76-7.27-51.21-19.26-69.9ZM115.08,194.71c-12.51,0-22.65-10.9-22.65-24.33s10.14-24.33,22.65-24.33,22.64,10.89,22.64,24.33-10.14,24.33-22.64,24.33Z"/>
      <path class="cls-9" d="M107.03,238.06c-.33.47-.65.94-.97,1.42,0,.01-.01.01-.01.01h0c.32-.49.64-.96.98-1.43Z"/>
      <path class="cls-9" d="M137.72,170.38c0,13.43-10.14,24.33-22.64,24.33s-22.65-10.9-22.65-24.33,10.14-24.33,22.65-24.33,22.64,10.89,22.64,24.33Z"/>
      <path class="cls-9" d="M156.6,203.68h-.01s0-.02,0-.03c-.01-.01,0-.02,0-.03v.06Z"/>
      <path class="cls-9" d="M92.22,105.03h-.04c-.12-2.29-.43-6.11-.87-10.97h0c-.04-.3-.06-.59-.09-.9-.02-.24-.04-.48-.07-.72,0-.15-.03-.31-.05-.47v-.09h-.01c-.03-.33-.06-.66-.09-.99l.09-.07c.02.21.04.41.06.62.02.16.04.33.05.49l.21.11c-.07-.02-.14-.03-.21-.04.01.05.02.11.02.16.03.3.05.59.09.88h0c.53,5.73.87,10,.91,11.99Z"/>
      <path class="cls-8" d="M85.3,100.49h-17.54c-.37-.94-.31-4.18.05-8.85,1.59-20.83,8.95-70.11,8.95-70.11,0,0,8.24,48.5,9.27,69.56.26,5.11.09,8.6-.73,9.4Z"/>
      <path class="cls-9" d="M91.2,91.93l-.1-.05h-.01c-.03-.33-.06-.66-.09-.99l.09-.07c.02.21.04.41.06.62.02.16.04.33.05.49Z"/>
      <path class="cls-2" d="M137.72,170.38c0,13.43-10.14,24.33-22.64,24.33s-22.65-10.9-22.65-24.33,10.14-24.33,22.65-24.33,22.64,10.89,22.64,24.33Z"/>
      <circle class="cls-7" cx="117.27" cy="170.38" r="16.95"/>
      <circle class="cls-2" cx="119.91" cy="162.59" r="6.04"/>
      <path class="cls-9" d="M78.63,202.68s-11.31,36.85-15.39,42.46c-4.09,5.62-20.43-42.46-20.43-42.46"/>
      <path class="cls-2" d="M136.42,217.4c.52.79,4.16,12.83,17.69,0h-17.69ZM156.59,203.62s-.02.02,0,.03c0,.01,0,.02,0,.03s.01.03.01.04v-.1ZM156.6,203.72c-.02.35-.03.7-.06,1.05.02-.22.03-.44.05-.66,0-.01.01-.18.02-.29v-.1ZM153.6,226.94c-1.82,8.44-4.4,16.45-7.61,23.87-.27.63-.55,1.25-.83,1.87-.09.21-.19.41-.28.61-.14.31-.29.62-.44.93-.25.56-.52,1.11-.79,1.66-.11.24-.23.49-.36.73-.29.58-.59,1.16-.89,1.73-.15.29-.3.58-.46.87-.19.38-.39.75-.6,1.12-.2.37-.4.74-.61,1.11-.25.45-.51.89-.76,1.33-.29.51-.59,1.02-.9,1.52-.32.55-.66,1.09-1,1.62-.34.56-.7,1.12-1.06,1.67-.96,1.48-1.96,2.91-2.99,4.31-.43.59-.86,1.16-1.3,1.73-.02.02-.04.05-.05.07-.45.58-.9,1.15-1.35,1.71-.06.06-.11.12-.15.18-.04.05-.08.09-.12.14-.29.35-.57.71-.86,1.05-.33.39-.66.78-.99,1.16-.59.67-1.18,1.34-1.77,1.99-.3.31-.59.63-.89.94-.23.24-.46.48-.68.71-.03.03-.07.07-.1.1-.03.03-.07.06-.11.1,0,0,0,.01,0,.02-.3.31-.61.61-.91.91-.06.06-.12.11-.18.17-.12.12-.25.24-.37.36-.12.13-.24.24-.37.36-.18.17-.36.35-.54.51-.18.18-.37.35-.55.51-.29.28-.57.54-.86.79-.28.25-.56.51-.84.75-.28.24-.56.48-.84.72-.14.12-.28.24-.42.36-.47.39-.93.77-1.4,1.14-.26.22-.53.43-.8.63-.34.27-.68.53-1.02.78-.3.23-.59.45-.89.66-.52.39-1.05.76-1.58,1.13-.28-.3-.55-.61-.81-.91-3.23-3.66-5.82-7.22-7.84-10.67-.39-.67-.76-1.34-1.11-2-.54-1.02-1.03-2.03-1.48-3.03-.44-.99-.83-1.97-1.18-2.95-.22-.64-.43-1.28-.63-1.91,0-.01-.01-.02-.01-.02-1.3-4.32-1.73-8.47-1.45-12.42-.29,3.97.13,8.13,1.44,12.48,0,0,.01.01.01.02.19.63.4,1.27.62,1.91.35.98.75,1.96,1.19,2.95.44,1,.94,2.01,1.47,3.03.35.66.72,1.33,1.11,2,2.02,3.45,4.6,6.99,7.82,10.64.27.31.55.63.83.94.53-.37,1.06-.74,1.58-1.13.31-.21.59-.43.89-.66.34-.25.68-.51,1.02-.78.28-.2.54-.41.8-.63.21-.16.41-.32.61-.48.03-.03.06-.06.1-.08.23-.19.46-.38.7-.58.13-.12.27-.24.41-.36.56-.47,1.12-.96,1.68-1.47.29-.25.57-.51.86-.79.18-.16.37-.33.56-.51.18-.16.35-.34.53-.51.13-.12.25-.23.37-.36.49-.47.98-.96,1.47-1.46.6-.6,1.19-1.22,1.78-1.85.6-.65,1.18-1.32,1.78-1.99.32-.38.65-.77.98-1.16.34-.39.65-.79.98-1.19.05-.06.1-.12.16-.18.45-.56.89-1.13,1.34-1.71.01-.02.04-.05.05-.07.44-.57.87-1.14,1.31-1.73,1.02-1.4,2.02-2.83,2.99-4.31.35-.55.71-1.11,1.05-1.67.34-.53.68-1.07,1-1.62.31-.5.61-1.01.9-1.52.25-.44.51-.88.76-1.33.21-.37.42-.74.61-1.11.21-.37.41-.74.6-1.12.16-.29.31-.58.46-.87.31-.57.6-1.15.89-1.73.13-.24.25-.49.36-.73.42-.85.83-1.72,1.24-2.59,3.8-8.14,6.8-17.01,8.85-26.44.29-1.37.57-2.75.83-4.14.69-3.7,1.14-7.46,1.48-11.29-.53,5.29-1.35,10.45-2.43,15.46Z"/>
      <path class="cls-2" d="M156.58,203.74c-.15.06-.34.13-.56.22-3.29,1.27-14.51,5.86-26.1,13.37-.9.57-1.79,1.17-2.7,1.79-.05.03-.09.06-.14.1-.22.16-.44.31-.66.46-.45.3-.89.61-1.33.94-.39.28-.8.57-1.2.87-.04.03-.07.06-.12.09-.39.3-.8.6-1.2.9-.66.5-1.31,1.02-1.96,1.54-.21.17-.42.35-.64.52-.03.03-.08.06-.11.09-.35.29-.69.57-1.04.86-.68.59-1.36,1.18-2.03,1.78-1.01.91-1.98,1.84-2.94,2.79-1.88,1.87-3.64,3.85-5.26,5.9-.27.35-.53.69-.79,1.04-.26.35-.52.7-.77,1.05h0c-.33.48-.65.95-.97,1.43,0,.01-.01.01-.01.01-.31.48-.62.96-.92,1.45-.55.91-1.07,1.83-1.55,2.77-.65,1.27-1.23,2.56-1.74,3.88-.25.65-.48,1.3-.7,1.97-.75,2.31-1.26,4.69-1.5,7.15-.03.32-.06.63-.08.95-.28,3.95.15,8.1,1.45,12.42,0,0,.01.01.01.02.2.63.41,1.27.63,1.91.35.98.74,1.96,1.18,2.95.45,1,.94,2.01,1.48,3.03.35.66.72,1.33,1.11,2,2.02,3.45,4.61,7.01,7.84,10.67.26.3.53.61.81.91.53-.37,1.06-.74,1.58-1.13.3-.21.59-.43.89-.66.34-.25.68-.51,1.02-.78.27-.2.54-.41.8-.63.47-.37.93-.75,1.4-1.14.14-.12.28-.24.42-.36.28-.24.56-.48.84-.72.28-.24.56-.5.84-.75.29-.25.57-.51.86-.79.18-.16.37-.33.55-.51.18-.16.36-.34.54-.51.13-.12.25-.23.37-.36.12-.12.25-.24.37-.36.06-.06.12-.11.18-.17.3-.3.61-.6.91-.91,0-.01,0-.02,0-.02.04-.04.08-.07.11-.1.03-.03.07-.07.1-.1.22-.23.45-.47.68-.71.3-.31.59-.63.89-.94.59-.65,1.18-1.32,1.77-1.99.33-.38.66-.77.99-1.16.29-.34.57-.7.86-1.05.04-.05.08-.09.12-.14.04-.06.09-.12.15-.18.45-.56.9-1.13,1.35-1.71.01-.02.03-.05.05-.07.44-.57.87-1.14,1.3-1.73,1.03-1.4,2.03-2.83,2.99-4.31.36-.55.72-1.11,1.06-1.67.34-.53.68-1.07,1-1.62.31-.5.61-1.01.9-1.52.25-.44.51-.88.76-1.33.21-.37.41-.74.61-1.11.21-.37.41-.74.6-1.12.16-.29.31-.58.46-.87.3-.57.6-1.15.89-1.73.13-.24.25-.49.36-.73.27-.55.54-1.1.79-1.66.15-.31.3-.62.44-.93.09-.2.19-.4.28-.61.28-.62.56-1.24.83-1.87,3.21-7.42,5.79-15.43,7.61-23.87,1.08-5.01,1.9-10.17,2.43-15.46.02-.25.04-.5.06-.75.06-.61.11-1.23.17-1.85.07-1.06.15-2.13.22-3.2.02-.3.04-.6.06-.91.03-.35.04-.7.06-1.05,0,.01-.01.02-.02.02ZM136.42,217.4h.05s-.02-.04-.03-.06h-.06c.01-.06.03-.05.06,0h17.69s-.05.04-.07.06h.05c-13.53,12.83-17.17.79-17.69,0Z"/>
      <path class="cls-2" d="M106.05,239.48h.01s-.01.01-.01.01h0Z"/>
      <path class="cls-2" d="M136.44,217.34h-.06c.01-.06.03-.05.06,0Z"/>
      <path class="cls-2" d="M154.06,217.4h.05c-13.53,12.83-17.17.79-17.69,0h.05s-.02-.04-.03-.06h17.69s-.05.04-.07.06Z"/>
      <path class="cls-4" d="M154.13,217.34s-.05.04-.07.06c-.29.28-.57.54-.85.78-.56.51-1.11.97-1.63,1.38-3.41,2.71-6.09,3.67-8.18,3.66-.28,0-.55-.02-.8-.05-.79-.1-1.48-.34-2.09-.67-.08-.04-.16-.08-.23-.13-.11-.06-.21-.12-.32-.2-.1-.06-.2-.14-.29-.21-.1-.07-.19-.15-.29-.23-.09-.07-.18-.15-.26-.23-.09-.08-.17-.17-.26-.25-.08-.08-.16-.17-.23-.25-.23-.26-.44-.52-.63-.79-.06-.08-.11-.15-.17-.23-.18-.28-.34-.55-.49-.8-.06-.11-.11-.21-.17-.31-.28-.54-.48-.99-.61-1.27-.03-.08-.06-.15-.09-.2,0-.02-.02-.04-.03-.06h17.69Z"/>
      <path class="cls-2" d="M136.44,217.34h-.06c.01-.06.03-.05.06,0Z"/>
      <path class="cls-3" d="M186.58,215.56c1.06.66.82,2.27-.39,2.6l-32.47,8.76-.12.03c1.08-5.01,1.9-10.17,2.43-15.46.02-.25.04-.5.06-.75.06-.61.11-1.23.17-1.85.07-1.06.15-2.13.22-3.2.02-.3.04-.6.06-.91.03-.35.04-.7.06-1.05,0,.01-.01.02-.02.02-.15.06-.34.13-.56.22v-.06c.23-.09.42-.16.57-.22,0-.01,0-.02,0-.03-.01-.01,0-.02,0-.03v.06s.01-.09.01-.09c-.01-.01,0-.02.01-.03.1-2.19.15-4.4.15-6.63l29.82,18.63Z"/>
      <path class="cls-5" d="M172,197.79l-.59,27.85c-.03,1.21.78,2.28,1.95,2.58h0c1.52.4,3.04-.62,3.25-2.18l3.69-27.38-8.3-.88Z"/>
      <circle class="cls-6" cx="176.59" cy="196.86" r="7.4"/>
      <path class="cls-3" d="M110.72,80.61l-.85.16c-1.07.15-2.07.25-3.12.5l-11.59-56.5-4.39,56.8h0s-.26,3.39-.26,3.39l-.03.41.51,4.45c.03.34.07.67.1,1l-.09.07s-.01-.06-.01-.09c-.39-4.11-.87-8.78-1.39-13.78-.24-2.31-.49-4.69-.74-7.12-.31-2.84-.62-5.75-.94-8.69-.07-.6-.13-1.22-.2-1.84-.02-.14-.03-.29-.05-.43-.01-.06-.01-.12-.02-.18v-.03c.87-21.13,7.93-49.19,7.93-49.96.21-.01,15.14,71.84,15.14,71.84Z"/>
      <path class="cls-9" d="M92.23,105.41h-.03c-.01-.12-.01-.25-.02-.39-.12-2.28-.43-6.1-.87-10.96h0c-.04-.3-.06-.59-.09-.9-.02-.24-.04-.48-.07-.72,0-.15-.03-.31-.05-.47v-.09h-.01c-.03-.33-.06-.66-.09-.99l.09-.07c.02.21.04.41.06.62.02.16.04.33.05.49v.07s.02.11.02.16c.03.3.05.59.09.88h0c.53,5.73.87,10,.91,11.99.01.14.01.26.01.38Z"/>
      <path class="cls-9" d="M143.71,118.67l-1.29,2.78c-1.08,2.33-2.8,4.25-4.92,5.58-1.48.93-3.15,1.58-4.93,1.86l-3.14.5c-3.41.55-6.9,0-9.98-1.57-2.12-1.09-3.93-2.64-5.3-4.51-1.37-1.88-2.31-4.06-2.7-6.42l-.47-2.84c-.55-3.32-.26-6.72.85-9.9l.61-1.75-19.96-9.83-1.06-.53h-.01l-.21-.11c-.01-.16-.03-.33-.05-.49-.02-.21-.04-.41-.06-.62-.03-.33-.07-.66-.1-1l.97-.71h0s3.55-2.61,3.55-2.61c3.37-2.49,7.19-4.25,11.21-5.22h.03c1.05-.26,2.05-.36,3.12-.51,1.96-.38,3.96-.58,5.98-.58h5.73c5.64,0,11.11,1.97,15.46,5.57,1.56,1.29,2.93,2.78,4.07,4.43,1.15,1.64,2.08,3.44,2.75,5.35l.85,2.39c2.39,6.78,2.03,14.23-1,20.74Z"/>
      <path class="cls-8" d="M106.75,81.27h-.03c-4.02.98-7.84,2.74-11.21,5.23l-3.55,2.6h0s-.97.72-.97.72l-.51-4.45.03-.41.26-3.38h0s4.39-56.81,4.39-56.81l11.59,56.5Z"/>
      <path class="cls-1" d="M56.07,95.16l.4,2.55c.42,2.68,1.82,5.1,3.92,6.8l2.84,2.29"/>
      <path class="cls-3" d="M142.46,286.47l-.06.72c-.32,3.67-3.39,6.49-7.07,6.49h-25.64c1.29-.54,2.69-1.16,4.22-1.88,1.73-1.19,3.41-2.47,5.05-3.84.03-.03.06-.06.1-.08.23-.19.46-.38.7-.58.13-.12.27-.24.41-.36.56-.47,1.12-.96,1.68-1.47.29-.25.57-.51.86-.79.18-.16.37-.33.56-.51.18-.16.35-.34.53-.51.13-.12.25-.23.37-.36.49-.47.98-.96,1.47-1.46.6-.6,1.19-1.22,1.78-1.85.6-.65,1.18-1.32,1.78-1.99.32-.38.65-.77.98-1.16.34-.39.65-.79.98-1.19l3.82,1.97,3.74,1.98c2.51,1.33,3.99,4.04,3.75,6.87Z"/>
      <path class="cls-9" d="M131.15,275.64c-.33.4-.64.8-.98,1.19-.33.39-.66.78-.98,1.16-.6.67-1.18,1.34-1.78,1.99-.59.63-1.18,1.25-1.78,1.85-.49.5-.98.99-1.47,1.46-.12.13-.24.24-.37.36-.18.17-.35.35-.53.51-.19.18-.38.35-.56.51-.29.28-.57.54-.86.79-.56.51-1.12,1-1.68,1.47-.14.12-.28.24-.41.36-.24.2-.47.39-.7.58-.04.02-.07.05-.1.08-.2.16-.4.32-.61.48-.26.22-.52.43-.8.63-.34.27-.68.53-1.02.78-.3.23-.58.45-.89.66-.52.39-1.05.76-1.58,1.13-.28-.31-.56-.63-.83-.94l.04-.03c.26.3.53.61.81.91.53-.37,1.06-.74,1.58-1.13.3-.21.59-.43.89-.66.34-.25.68-.51,1.02-.78.27-.2.54-.41.8-.63.47-.37.93-.75,1.4-1.14.14-.12.28-.24.42-.36.28-.24.56-.48.84-.72.28-.24.56-.5.84-.75.29-.25.57-.51.86-.79.18-.16.37-.33.55-.51.18-.16.36-.34.54-.51.13-.12.25-.23.37-.36.12-.12.25-.24.37-.36.06-.06.12-.11.18-.17.3-.3.61-.6.91-.91,0-.01,0-.02,0-.02.04-.04.08-.07.11-.1.03-.03.07-.07.1-.1.22-.23.45-.47.68-.71.3-.31.59-.63.89-.94.59-.65,1.18-1.32,1.77-1.99.33-.38.66-.77.99-1.16.29-.34.57-.7.86-1.05l.1-.08Z"/>
      <path class="cls-9" d="M112.44,102.4l1.71,1.87c2.62,2.86,4.69,6.18,6.08,9.8h0c1.04,2.7.92,5.7-.33,8.31h0"/>
    </g>
  </g>
</svg>