<?xml version="1.0" encoding="UTF-8"?>
<svg id="Calque_2" xmlns="http://www.w3.org/2000/svg" viewBox="0 0 157.26 321.27">
  <defs>
    <style>
      .cls-1 {
        fill: #fff;
      }

      .cls-1, .cls-2, .cls-3, .cls-4, .cls-5, .cls-6, .cls-7 {
        stroke: #000;
        stroke-miterlimit: 10;
      }

      .cls-2 {
        fill: #bf7394;
      }

      .cls-3 {
        fill: #864d66;
      }

      .cls-4 {
        fill: #1a1a1a;
      }

      .cls-5 {
        fill: #4497ba;
      }

      .cls-6 {
        fill: #1d1d1b;
      }

      .cls-7 {
        fill: #ffadd1;
      }
    </style>
  </defs>
  <g id="grodoudou_pied_droit">
    <g>
      <path class="cls-7" d="M90.59,295.74c4.29-.25,8.96-.98,12.99-1.75l-12.99,1.75ZM82.36,294.63c-.33-.1-.65-.21-.96-.34,1.32.58,2.92,1.08,4.99,1.52l-3.95-1.16-.08-.02ZM80.51,293.89c.25.13.5.25.76.35-.12-.05-.24-.11-.36-.17-.14-.05-.27-.11-.4-.18ZM79.74,293.45c.25.16.5.31.77.44-.14-.07-.27-.14-.4-.23-.13-.07-.25-.14-.37-.21Z"/>
      <path class="cls-7" d="M156.76,196.99c0,2.25-.05,4.49-.15,6.7-1.92.71-14.14,5.43-26.8,13.64-.9.57-1.8,1.17-2.7,1.79-.05.03-.09.06-.14.1-.22.16-.44.31-.66.46-.45.3-.89.61-1.33.94-.4.28-.8.57-1.2.87-.04.03-.08.06-.12.09-.4.3-.8.6-1.2.9-.66.5-1.31,1.02-1.96,1.54-.21.17-.43.35-.64.52-.04.03-.08.06-.11.09-.35.29-.69.57-1.04.86-.68.59-1.36,1.18-2.03,1.78-1.01.91-1.99,1.84-2.94,2.79-10.58,10.58-17.66,24.08-12.86,40.08,0,0,.01.01.01.02.2.63.41,1.27.63,1.91.35.98.74,1.96,1.18,2.95.45,1,.94,2.01,1.48,3.03.35.66.72,1.33,1.11,2,2.19,3.74,5.04,7.6,8.65,11.58,0,0-.34.09-.96.26-1.62.41-5.15,1.28-9.39,2.1h-.01l-12.99,1.75h-.02c-1.45.09-2.86.12-4.18.07l-3.95-1.16c-1.32-.54-2.83-1.32-4.32-2.44.46.44.96.83,1.5,1.17,0,0,.01.01.02.01.03.02.06.04.1.06.25.16.5.31.77.44.25.13.5.25.76.35.04.02.09.04.13.05,1.32.58,2.92,1.08,4.99,1.52l1.59.28,4.38.92c1.96.4,3.65,1.45,4.87,2.88.06.06.11.12.16.18,1.23,1.52,1.96,3.46,1.96,5.54,0,1-.17,1.99-.5,2.92l-.44,1.25c-1.24,3.52-4.57,5.88-8.31,5.87-3.63,0-7.48-.02-7.48-.02,0,0-.89-.01-2.3-.04-2.8-.05-7.63-.15-11.48-.34-4.26-.2-12.89-1.61-15.84-4.69l-.03-.03c-3.48-3.55-5.55-13.27-5.55-13.27l-.19-1.67-.21-1.38.3-5.65c.04-.85.01-1.7-.1-2.54l-.6-4.61.4,12.8C19.43,277.6.24,239.87.5,196.09c.29-47.58,23.98-88.17,56.16-101.11,3.77-1.52,7.65-2.66,11.63-3.37,2.78-.51,5.6-.82,8.46-.91,3.3-.1,6.55.07,9.74.51,1.44.19,2.87.44,4.28.75.72.14,1.43.31,2.14.49,17.77,4.46,33.43,17.11,44.79,34.95,11.88,18.65,19.06,42.98,19.06,69.59Z"/>
      <path class="cls-7" d="M47.22,286.02c.11.84.14,1.69.1,2.54l-.3,5.65-.4-12.8.6,4.61Z"/>
      <path class="cls-1" d="M80.91,294.07c.12.06.24.12.36.17-.26-.1-.51-.22-.76-.35-.27-.13-.52-.28-.77-.44.12.07.24.14.37.21.26.14.52.28.8.41Z"/>
      <path class="cls-1" d="M86.39,295.81c-2.07-.44-3.67-.94-4.99-1.52.31.13.63.24.96.34l.08.02,3.95,1.16Z"/>
      <path class="cls-7" d="M134.53,218.32h17.69c-13.53,12.83-17.18.79-17.69,0ZM129.81,217.33c-.9.57-1.8,1.17-2.7,1.79-.05.03-.09.06-.14.1-.22.16-.44.31-.66.46-.45.3-.89.61-1.33.94-.4.28-.8.57-1.2.87-.04.03-.08.06-.12.09-.4.3-.8.6-1.2.9-.66.5-1.31,1.02-1.96,1.54-.21.17-.43.35-.64.52-.04.03-.08.06-.11.09-.35.29-.69.57-1.04.86-.68.59-1.36,1.18-2.03,1.78-1.01.91-1.99,1.84-2.94,2.79-10.58,10.58-17.66,24.08-12.86,40.08,0,0,.01.01.01.02.2.63.41,1.27.63,1.91.35.98.74,1.96,1.18,2.95.45,1,.94,2.01,1.48,3.03.35.66.72,1.33,1.11,2,2.19,3.74,5.04,7.6,8.65,11.58,0,0-.34.09-.96.26l.92-.04c18.75-12.91,33.15-35.82,39.41-63.56.2-.89.39-1.8.58-2.7.19-.94.38-1.88.55-2.82.12-.66.24-1.31.35-1.97.07-.39.13-.79.19-1.18.21-1.3.4-2.6.57-3.91.13-.99.25-1.98.36-2.97.32-2.98.56-6,.7-9.05-1.92.71-14.14,5.43-26.8,13.64Z"/>
      <path class="cls-7" d="M57.89,101.96c-8.05-6.5,24.63-99.78,24.63-99.78,0,0,11.46,93.57,11.46,103.52"/>
      <path class="cls-6" d="M67.76,100.98c-2.03-5.13,13.74-79.39,13.74-79.39,0,0,7.98,75.28,3.8,79.39h-17.54Z"/>
      <path class="cls-7" d="M93.29,91.14l3.96-4.35c5.39-3.97,11.9-6.11,18.6-6.11h5.73c5.65,0,11.11,1.97,15.46,5.57h0c3.12,2.58,5.48,5.96,6.82,9.78l.84,2.39c2.39,6.78,2.04,14.22-.99,20.74l-1.29,2.77c-1.84,3.96-5.54,6.75-9.85,7.44l-3.14.5c-3.41.54-6.91,0-9.99-1.58h0c-4.25-2.17-7.21-6.22-7.99-10.92l-.47-2.84c-.55-3.32-.26-6.73.85-9.91l.61-1.75-19.06-10.77c-.39-.19-.76-.38-.09-.99Z"/>
      <path class="cls-7" d="M112.44,102.9h0c3.84,2.58,5.26,7.71,6.04,12.06l.39,2.19c.3,1.7-.02,3.46-.92,4.94h0"/>
      <ellipse class="cls-1" cx="118.52" cy="170.44" rx="22.65" ry="24.33"/>
      <circle class="cls-5" cx="120.72" cy="170.44" r="16.95"/>
      <circle class="cls-1" cx="123.35" cy="162.64" r="6.04"/>
      <path class="cls-7" d="M39.98,205.3s16.34,48.08,20.43,42.46,15.39-42.46,15.39-42.46"/>
      <path class="cls-1" d="M134.53,218.32h17.69c-13.53,12.83-17.18.79-17.69,0ZM156.61,203.69c-1.92.71-14.14,5.43-26.8,13.64-.9.57-1.8,1.17-2.7,1.79-.05.03-.09.06-.14.1-.22.16-.44.31-.66.46-.45.3-.89.61-1.33.94-.4.28-.8.57-1.2.87-.04.03-.08.06-.12.09-.4.3-.8.6-1.2.9-.66.5-1.31,1.02-1.96,1.54-.21.17-.43.35-.64.52-.04.03-.08.06-.11.09-.35.29-.69.57-1.04.86-.68.59-1.36,1.18-2.03,1.78-1.01.91-1.99,1.84-2.94,2.79-10.58,10.58-17.66,24.08-12.86,40.08,0,0,.01.01.01.02.2.63.41,1.27.63,1.91.35.98.74,1.96,1.18,2.95.45,1,.94,2.01,1.48,3.03.35.66.72,1.33,1.11,2,2.19,3.74,5.04,7.6,8.65,11.58,18.69-12.88,33.05-35.7,39.37-63.34.2-.89.39-1.8.58-2.7.19-.94.38-1.88.55-2.82.12-.66.24-1.31.35-1.97.07-.39.13-.79.19-1.18.21-1.3.4-2.6.57-3.91.13-.99.25-1.98.36-2.97.32-2.85.56-5.74.7-8.65.01-.11.01-.21.02-.32v-.09s-.01,0-.02.01Z"/>
      <path class="cls-3" d="M152.22,218.32c-13.53,12.83-17.18.79-17.69,0h17.69Z"/>
      <path class="cls-1" d="M134.53,218.32h-.06c.01-.06.03-.05.06,0Z"/>
      <path class="cls-7" d="M47.32,288.56l-.3,5.65-.4-12.8.6,4.61c.11.84.14,1.69.1,2.54Z"/>
      <path class="cls-2" d="M112.01,81.1l-.51.29c-1.07.15-2.13.34-3.18.59l-11.59-56.5-4.65,60.19-.03.41.51,4.45c.05.55.11,1.09.16,1.62.03.24.05.48.07.72.03.3.05.59.09.88h0c.57,6.13.92,10.59.92,12.37h-.03c-.1-2.23-.42-6.21-.89-11.35h0c-.04-.3-.06-.59-.09-.9-.02-.24-.04-.48-.07-.72-.05-.54-.11-1.09-.16-1.64-.39-4.11-.87-8.78-1.39-13.78-.52-5.02-1.09-10.37-1.68-15.81-.07-.6-.13-1.22-.2-1.84-.02-.14-.03-.29-.05-.43-.01-.06-.01-.12-.02-.18v-.03c.87-21.13,7.93-49.19,7.93-49.96.21,0,14.86,71.62,14.86,71.62Z"/>
      <path class="cls-4" d="M108.32,81.98h-.03c-4.02.98-7.84,2.74-11.21,5.23l-4.52,3.32-.51-4.45.03-.41,4.65-60.19,11.59,56.5Z"/>
      <path class="cls-2" d="M126.58,311.06h0c0,5.37-4.35,9.72-9.72,9.72h-28.58c-1.28,0-2.52-.43-3.52-1.23l-4.59-3.64.07-.06c1.41.03,2.3.04,2.3.04,0,0,3.85.02,7.48.02,3.74,0,7.07-2.35,8.31-5.87l.44-1.25c.33-.93.5-1.92.5-2.92,0-2.08-.73-4.02-1.96-5.54-.05-.06-.1-.12-.16-.18-1.22-1.43-2.91-2.48-4.87-2.88l-4.38-.92-1.59-.28c1.32.05,2.73.02,4.18-.07h.02c4.29-.25,8.96-.98,12.99-1.75h.01l7.59,1.96c4.02,1.04,7.69,3.12,10.65,6.03l1.93,1.9c1.86,1.83,2.91,4.32,2.91,6.93Z"/>
      <path class="cls-1" d="M103.5,294.24c-4.03.77-8.7,1.5-12.99,1.75l12.99-1.75Z"/>
    </g>
  </g>
</svg>