<?xml version="1.0" encoding="UTF-8"?>
<svg id="Calque_2" xmlns="http://www.w3.org/2000/svg" viewBox="0 0 157.26 191.51">
  <defs>
    <style>
      .cls-1 {
        fill: #ff99c5;
      }

      .cls-1, .cls-2, .cls-3, .cls-4, .cls-5, .cls-6 {
        stroke: #000;
        stroke-miterlimit: 10;
      }

      .cls-2 {
        fill: #62c4f1;
      }

      .cls-3 {
        fill: #fff;
      }

      .cls-4 {
        fill: #bf7394;
      }

      .cls-5 {
        fill: #1d1d1b;
      }

      .cls-6 {
        fill: #ffadd1;
      }
    </style>
  </defs>
  <g id="rondoudou">
    <g>
      <path class="cls-4" d="M124.23,178.93c0,3.52-2.86,6.39-6.4,6.39l-5.24-.04c0-2.17-.97-4.23-2.65-5.61l-1.73-1.43c-1.16-.95-2.48-1.68-3.9-2.16l-7.96-2.69c.42.11,4.46.97,17.55-3.58l6.81,3.41c2.14,1.07,3.52,3.3,3.52,5.71Z"/>
      <path class="cls-6" d="M156.76,100.09c0,30.45-17.43,56.84-42.86,69.72-13.09,4.55-17.13,3.69-17.55,3.58l7.96,2.69c1.42.48,2.74,1.21,3.9,2.16l1.73,1.43c1.68,1.38,2.65,3.44,2.65,5.61-.32,3.22-3.03,5.73-6.33,5.73h-30.17c-2.39,0-4.76-.43-6.98-1.28l-9.53-3.54c-5.02-1.86-8.97-5.82-10.83-10.84l-1.34-3.63C19.61,159.6.24,131.76.5,99.43.85,57.5,34.83,22.97,76.75,21.98c44.01-1.03,80.01,34.33,80.01,78.11Z"/>
      <path class="cls-6" d="M53.68,109.28l5.4,21.95c.94,3.35,4.41,13.41,7.8-1.83l4.01-21.15"/>
      <path class="cls-6" d="M138.89,118.3c5.83,8.21,15.73,0,15.73,0"/>
      <path class="cls-6" d="M89.44,170.36l5.62,2.53c.41.19.83.35,1.25.49,0,0,.01,0,.04.01l7.96,2.69c1.42.48,2.74,1.21,3.9,2.16l1.73,1.43c1.68,1.38,2.65,3.44,2.65,5.61"/>
      <ellipse class="cls-3" cx="124.11" cy="87.13" rx="22.65" ry="24.33"/>
      <circle class="cls-2" cx="126.3" cy="87.13" r="16.95"/>
      <circle class="cls-3" cx="128.94" cy="79.34" r="6.04"/>
      <path class="cls-6" d="M64.93,33.87c0-9.76,20.82-33.02,20.82-33.02,0,0,15.27,26.81,15.27,36.77"/>
      <path class="cls-5" d="M74.8,32.89c-2.03-5.13,11.62-21.66,11.62-21.66,0,0,10.1,17.55,5.91,21.66h-17.54Z"/>
      <path class="cls-6" d="M98.05,23.3l6.25-4.6c5.39-3.97,11.9-6.11,18.6-6.11h5.73c5.65,0,11.11,1.97,15.46,5.57h0c3.12,2.58,5.48,5.96,6.82,9.78l.84,2.39c2.39,6.78,2.04,14.22-.99,20.74l-1.29,2.77c-1.84,3.96-5.54,6.75-9.85,7.44l-3.14.5c-3.41.54-6.91,0-9.99-1.58h0c-4.25-2.17-7.21-6.22-7.99-10.92l-.47-2.84c-.55-3.32-.26-6.73.85-9.91l.61-1.75-21.35-10.52c-.39-.19-.44-.73-.09-.99Z"/>
      <path class="cls-6" d="M119.48,34.81h0c3.84,2.58,5.26,7.71,6.04,12.06l.39,2.19c.3,1.7-.02,3.46-.92,4.94h0"/>
      <path class="cls-1" d="M47.41,171.72s15.59,3.82,20.75,2.92"/>
      <path class="cls-1" d="M113.9,169.81c-13.09,4.55-17.13,3.69-17.55,3.58-.03-.01-.04-.01-.04-.01"/>
    </g>
  </g>
</svg>