<?xml version="1.0" encoding="UTF-8"?>
<svg id="Calque_2" xmlns="http://www.w3.org/2000/svg" viewBox="0 0 157.26 216.94">
  <defs>
    <style>
      .cls-1 {
        fill: #ff99c5;
      }

      .cls-1, .cls-2, .cls-3, .cls-4, .cls-5 {
        stroke: #000;
        stroke-miterlimit: 10;
      }

      .cls-2 {
        fill: #bf7394;
      }

      .cls-3 {
        fill: #1d1d1b;
      }

      .cls-4 {
        fill: #804d63;
      }

      .cls-5 {
        fill: #ffadd1;
      }
    </style>
  </defs>
  <g id="Rondoudou_saute">
    <g>
      <path class="cls-2" d="M78.93,150.05l-4.62,11.7c-1.67,4.23-2.04,8.87-1.07,13.32l.62,2.83c.86,3.91,3.28,7.3,6.71,9.37l5.6,3.39,20.21,12.24,4.89,2.96c3.54,2.15,8.16,1.01,10.3-2.53h0c1.71-2.83,1.37-6.44-.84-8.9l-6.97-7.76c-.7-.78-1.3-1.64-1.78-2.57l-9.12-17.44"/>
      <path class="cls-5" d="M47.41,171.72C19.61,159.6.24,131.76.5,99.43.83,59.98,30.92,27.09,69.39,22.51c2.42-.3,4.88-.47,7.36-.53.65-.02,1.3-.02,1.94-.02,4.51,0,8.94.39,13.24,1.13,1.81.31,3.59.68,5.35,1.12.47.11.94.23,1.41.35,19.54,5.18,36.07,17.73,46.44,34.49,7.37,11.93,11.63,25.98,11.63,41.04,0,6.27-.74,12.37-2.14,18.21-5.38,22.54-27.3,58-71.89,54.95"/>
      <path class="cls-5" d="M53.69,109.28l5.4,21.95c.94,3.35,4.41,13.41,7.8-1.83l4.01-21.15"/>
      <path class="cls-4" d="M154.62,118.3s-4.11-5.27-15.73,0c0,0,7.22,8.94,11.1,11.97"/>
      <path class="cls-5" d="M64.93,33.87c0-9.76,20.82-33.02,20.82-33.02,0,0,15.27,26.81,15.27,36.77"/>
      <path class="cls-3" d="M74.81,32.89c-2.03-5.13,11.62-21.66,11.62-21.66,0,0,10.1,17.55,5.91,21.66h-17.54Z"/>
      <path class="cls-5" d="M98.05,23.3l6.25-4.6c5.39-3.97,11.9-6.11,18.6-6.11h5.73c5.65,0,11.11,1.97,15.46,5.57h0c3.12,2.58,5.48,5.96,6.82,9.78l.84,2.39c2.39,6.78,2.04,14.22-.99,20.74l-1.29,2.77c-1.84,3.96-5.54,6.75-9.85,7.44l-3.14.5c-3.41.54-6.91,0-9.99-1.58h0c-4.25-2.17-7.21-6.22-7.99-10.92l-.47-2.84c-.55-3.32-.26-6.73.85-9.91l.61-1.75-21.35-10.52c-.39-.19-.44-.73-.09-.99Z"/>
      <path class="cls-5" d="M119.49,34.81h0c3.84,2.58,5.26,7.71,6.04,12.06l.39,2.19c.3,1.7-.02,3.46-.92,4.94h0"/>
      <path class="cls-1" d="M47.42,171.72s15.59,3.82,20.75,2.92"/>
      <path class="cls-5" d="M48.8,164.86c-3.2,5.54-3.36,8.24-3.65,13.85l-.19,3.58c-.26,4.94,1.41,9.1,4.62,11.5l5.24,3.93,18.9,14.18,4.57,3.43c3.31,2.49,8.85.7,12.37-3.99h0c2.81-3.74,3.55-8.34,1.84-11.33l-5.42-9.42c-.54-.94-.95-2-1.2-3.15l-3.77-16.97"/>
      <path class="cls-5" d="M101.02,94.94s21.73-26.21,32.43,0"/>
    </g>
  </g>
</svg>