<?xml version="1.0" encoding="UTF-8"?>
<svg id="Calque_2" data-name="Calque 2" xmlns="http://www.w3.org/2000/svg" viewBox="0 0 549.7 738.45">
  <defs>
    <style>
      .cls-1 {
        fill: #0b090a;
      }

      .cls-1, .cls-2, .cls-3, .cls-4, .cls-5 {
        stroke-width: 0px;
      }

      .cls-6 {
        stroke-width: 12px;
      }

      .cls-6, .cls-7, .cls-8, .cls-9, .cls-10, .cls-11 {
        stroke-miterlimit: 10;
      }

      .cls-6, .cls-8 {
        stroke: #e5383b;
      }

      .cls-6, .cls-8, .cls-9 {
        fill: none;
      }

      .cls-7, .cls-9, .cls-10, .cls-11 {
        stroke: #000;
      }

      .cls-7, .cls-4 {
        fill: #fff;
      }

      .cls-8 {
        stroke-width: 18px;
      }

      .cls-2 {
        fill: #ba181b;
      }

      .cls-10 {
        fill: #b1a7a6;
      }

      .cls-11, .cls-3 {
        fill: #e5383b;
      }

      .cls-5 {
        fill: #161a1d;
      }
    </style>
  </defs>
  <g id="Calque_1-2" data-name="Calque 1">
    <g>
      <path class="cls-6" d="M175.62,485.42s-34.77,53.29-66.9,58.96-27.97-51.4-51.02-66.9-39.69,10.2-39.69,10.2"/>
      <path class="cls-9" d="M102.84,538.56c-8.43.12-14.81-15.19-14.81-15.19l-12.4-30.95c-2.45-6.12-6.09-11.73-10.86-16.27-8.91-8.49-24.16-16.07-44.36-.24-33.43,26.2-15.71,26.37,8.59,8.29s36.49,13.24,36.49,13.24l12.05,31.61s8.54,24.95,31.27,20.91,2.46-11.51-5.97-11.39Z"/>
      <path class="cls-11" d="M.53,504.67c17.32-1.64,31.87-5.14,41.39-12.02-13.06-6.65-23.22-16.86-31.1-29.83-6.79,10.34-9.44,25.13-10.28,41.85Z"/>
      <path class="cls-11" d="M236.41,503.6c25.08,43.75,49.92,76.23,81.46,55.27,31.54-20.95,15.71-59.41-9.37-103.17-25.08-43.75-61.55-68.5-81.46-55.27s-15.71,59.41,9.37,103.17Z"/>
      <g>
        <path class="cls-8" d="M431.64,236.2s-42.29,55.78,9.03,90.54c51.32,34.77,87.75-24.98,87.75-24.98"/>
        <path class="cls-9" d="M438.88,241.11s-37.27,48.38,6.81,78.24c44.08,29.86,75.33-22.6,75.33-22.6l14.9,10.1s-41.58,66.87-100.17,27.17c-58.6-39.7-11.77-103.01-11.77-103.01l14.9,10.1Z"/>
        <polygon class="cls-11" points="494.36 264.5 487.77 274.23 453.98 324.11 448.9 331.6 443.93 338.95 413.15 384.38 391.36 416.54 331.64 504.69 330.84 505.88 291.16 564.45 290.17 565.91 204.37 692.57 188.88 682.08 274.66 555.45 323.29 483.67 428.41 328.49 433.39 321.14 438.46 313.66 472.28 263.74 478.87 254.01 494.36 264.5"/>
        <polygon class="cls-11" points="452.35 205.62 450.43 232.3 449.29 248.17 438.87 241.11 431.63 236.21 423.97 231.01 413.98 224.24 438.22 212.47 452.35 205.62"/>
        <polygon class="cls-11" points="500.59 238.3 498.83 262.75 497.53 280.84 487.77 274.23 472.28 263.74 462.21 256.92 474.15 251.13 500.59 238.3"/>
        <polygon class="cls-11" points="549.14 271.18 547.81 289.6 546.07 313.73 535.91 306.85 528.42 301.77 521.01 296.75 510.76 289.81 532.02 279.49 549.14 271.18"/>
      </g>
      <path class="cls-11" d="M331.69,505.49c-34.23,15.7-45.9,40.24-40.21,71.6"/>
      <path class="cls-11" d="M270.63,735.59c-4.01,1.38-7.77,2.14-11.3,2.31-19.37,1-31.95-15.22-41.75-39.61-2.08-5.17-4.04-10.7-5.9-16.51-2.07-6.43-4.02-13.21-5.93-20.21-.29-1.06-.57-2.11-.83-3.17-11.09-43.6-5.46-84.23,12.66-96.45,1.61-1.1,3.32-1.96,5.12-2.58,11.77-4.05,25.29,3,37.42,17.56,3.96,4.77,7.78,10.34,11.35,16.59,6.44,11.32,12.03,24.86,16.12,39.88,3.28,12.07,6.1,23.68,7.93,34.51,5.54,32.82,2.04,58.42-24.89,67.68Z"/>
      <path class="cls-11" d="M317.85,452.22c0,6.78-.08,13.45-.26,20.01-.99,36.31-5.21,68.79-17.62,93.12-14.22,27.88-39.19,45.05-82.4,45.05s-68.26-17.22-82.46-45.18c-4.19-8.25-7.45-17.43-9.96-27.38-4.71-18.68-6.79-40.06-7.52-63.04-.23-7.37-.33-14.91-.33-22.58,0-16.37,1.58-32.16,4.5-47.01,2.87-14.56,7.04-28.22,12.3-40.64.79-1.88,1.61-3.74,2.46-5.56.04-.11.09-.22.16-.33,8.49-18.26,19.43-33.54,32.04-44.64,14.44-12.74,31.09-19.99,48.81-19.99,21.04,0,40.57,10.23,56.7,27.7,9.31,10.08,17.49,22.58,24.16,36.92.06.11.11.21.15.32,12.12,26.14,19.27,58.37,19.27,93.23Z"/>
      <path class="cls-11" d="M317.85,452.22c0,6.78-.08,13.45-.26,20.01-.99,36.31-5.21,68.79-17.62,93.12-14.22,27.88-39.19,45.05-82.4,45.05-.87,0-1.73-.01-2.58-.02-41.7-.67-65.96-17.76-79.88-45.16-4.19-8.25-7.45-17.43-9.96-27.38-4.71-18.68-6.79-40.06-7.52-63.04-.23-7.37-.33-14.91-.33-22.58,0-16.37,1.58-32.16,4.5-47.01,2.87-14.56,7.04-28.22,12.3-40.64.79-1.88,1.61-3.74,2.46-5.56.04-.11.09-.22.16-.33,8.49-18.26,19.43-33.54,32.04-44.64,14.44-12.74,31.09-19.99,48.81-19.99,21.04,0,40.57,10.23,56.7,27.7,9.31,10.08,17.49,22.58,24.16,36.92.06.11.11.21.15.32,3.89,8.4,7.27,17.42,10.07,26.96,5.91,20.16,9.2,42.61,9.2,66.27Z"/>
      <path class="cls-11" d="M231.7,652.23c-.68,3.09-1.45,6.21-2.3,9.34-3.63,13.33-7.45,25.83-11.82,36.71h0c-3.54,8.81-7.44,16.54-11.9,22.79-10.12,14.23-23.1,20.74-41.16,14.52-16.87-5.8-24.54-18.02-26.56-34.4-2.27-18.4,2.6-42.05,9.6-67.79,13.24-48.66,42.29-81.81,64.89-74.03,1.81.62,3.52,1.49,5.13,2.58,11.44,7.73,17.89,26.77,18.31,50.73.21,12.19-1.14,25.65-4.19,39.55Z"/>
      <path class="cls-11" d="M200.16,503.6c-25.08,43.75-49.92,76.23-81.46,55.27-31.54-20.95-15.71-59.41,9.37-103.17,25.08-43.75,61.55-68.5,81.46-55.27s15.71,59.41-9.37,103.17Z"/>
      <path class="cls-10" d="M332.5,20.78c7.89,34.76,6.55,67.25-4.88,97.28-28.81-7.01-52.37-19.62-71.55-36.91,44.31-4.38,65.62-27.99,76.43-60.37Z"/>
      <path class="cls-11" d="M387.65,209.01c0,93.93-76.14,170.08-170.08,170.08S52.32,307.67,47.72,217.84c-.14-2.92-.22-5.87-.22-8.83s.07-5.77.21-8.63c2.34-46.68,23.49-88.4,56.02-117.72,30.14-27.18,70.05-43.73,113.84-43.73,5.23,0,10.4.24,15.5.7,8.48.76,16.78,2.15,24.86,4.12,15.31,3.72,29.81,9.52,43.19,17.09,1.28.72,2.55,1.45,3.81,2.21,11.18,6.71,21.53,14.66,30.85,23.68,31.98,30.92,51.87,74.28,51.87,122.28Z"/>
      <path class="cls-11" d="M387.65,209.42c0,72.38-45.21,134.2-108.94,158.75-18.97,7.32-39.59,11.33-61.14,11.33-8.07,0-16-.56-23.77-1.65-79.83-11.16-141.89-77.74-146.08-159.6-.14-2.92-.22-5.87-.22-8.83s.07-5.77.21-8.63c2.34-46.68,23.49-88.4,56.02-117.72,30.14-27.18,70.05-43.73,113.84-43.73,5.23,0,10.4.24,15.5.7,8.48.76,16.78,2.15,24.86,4.12,15.31,3.72,29.81,9.52,43.19,17.09,1.28.72,2.55,1.45,3.81,2.21,11.18,6.71,21.53,14.66,30.85,23.68,31.98,30.92,51.87,74.28,51.87,122.28Z"/>
      <path class="cls-10" d="M317.5,1.19c-32.47,14.69-57.57,35.38-74.6,62.62,22.98,18.74,47.26,29.91,72.62,34.76-23.26-37.97-17.3-69.21,1.98-97.38Z"/>
      <path class="cls-7" d="M271.09,262.58c4.88,35.31,17.61,65.23,38.91,89.29,22.84-15,41.97-34.2,55.6-59.03-43.01,11.54-72.96-3.78-94.51-30.26Z"/>
      <path class="cls-11" d="M39.77,209.01c28.97,34.05,68.5,58.5,121.86,70.36-15.32-47.98-16.88-94.99,0-140.71-50.1,11.31-90.77,34.71-121.86,70.36Z"/>
      <path class="cls-5" d="M63.57,209.01c22.06,25.93,52.16,44.54,92.78,53.57-8.27-36.52-9.87-72.31,0-107.14-38.15,8.61-69.11,26.42-92.78,53.57Z"/>
      <circle class="cls-1" cx="317.5" cy="185" r="46.35"/>
      <circle class="cls-4" cx="333.6" cy="174.09" r="18.65"/>
      <circle class="cls-4" cx="296.78" cy="201.08" r="8.34"/>
      <polyline class="cls-9" points="278.71 271.09 274.94 283.01 289.08 280.24 280.68 302.11 304.1 289.38 290.27 323.57 324.71 295.7 304.68 345.51 349.82 295.97 340.04 327.12"/>
      <path class="cls-2" d="M438.22,212.47l14.13-6.85-1.92,26.68c-6-6.44-10.35-13.22-12.21-19.83Z"/>
      <path class="cls-2" d="M474.15,251.13l26.44-12.83-1.76,24.45c-8.41-2.89-16.86-6.89-24.68-11.62Z"/>
      <path class="cls-2" d="M532.02,279.49l17.12-8.31-1.33,18.42c-5.56-3.02-10.89-6.43-15.79-10.11Z"/>
      <path class="cls-2" d="M205.68,721.07c-10.12,14.23-23.1,20.74-41.16,14.52-16.87-5.8-24.54-18.02-26.56-34.4,29.6,3.28,57.81,6.96,67.72,19.88Z"/>
      <path class="cls-2" d="M413.15,384.38l-21.79,32.16c-.81-4.1-1.15-8.21-.89-12.31.69-11.16,9.73-17.37,22.68-19.85Z"/>
      <path class="cls-2" d="M121.8,405.21c2.87-14.56,7.04-28.22,12.3-40.64,6.29,2.59,11.22,5.87,14.24,10.12,9.69,13.66-8.53,21.15-26.54,30.52Z"/>
      <path class="cls-2" d="M270.63,735.59c-4.01,1.38-7.77,2.14-11.3,2.31,14.2-18.77-3.51-9.74,8.48-50.18,5.23-17.66,15.82-21.36,27.71-19.81,5.54,32.82,2.04,58.42-24.89,67.68Z"/>
      <path class="cls-2" d="M273.93,370.01c-15.88,6.13-33.13,9.48-51.17,9.48-6.75,0-13.39-.47-19.89-1.38-4.05-14.07-36.16-43.34-34.4-71.62,2.13-34.16,97.5-12.81,105.34,13.52,7.33,24.67-18.62,33.73.13,50Z"/>
      <path class="cls-2" d="M233.07,39.63c-13.76,14.74-62.89,23.43-52.78,53.13,9.06,26.64-31.18,3-76.56-10.1,30.14-27.18,70.05-43.73,113.84-43.73,5.23,0,10.4.24,15.5.7Z"/>
      <polygon class="cls-3" points="159.39 278.37 162.62 279.03 158.09 262.87 155.49 262.39 159.39 278.37"/>
      <polygon class="cls-3" points="159.06 139.74 162.29 139.08 157.76 155.24 155.16 155.72 159.06 139.74"/>
    </g>
  </g>
</svg>