<?xml version="1.0" encoding="UTF-8"?>
<svg id="Calque_2" xmlns="http://www.w3.org/2000/svg" viewBox="0 0 174.83 191.51">
  <defs>
    <style>
      .cls-1 {
        fill: #ff99c5;
      }

      .cls-1, .cls-2, .cls-3, .cls-4, .cls-5 {
        stroke: #000;
        stroke-miterlimit: 10;
      }

      .cls-2 {
        fill: #62c4f1;
      }

      .cls-3 {
        fill: #fff;
      }

      .cls-4 {
        fill: #1d1d1b;
      }

      .cls-5 {
        fill: #804d63;
      }
    </style>
  </defs>
  <g id="rondoudou_pied_gauche">
    <g>
      <path class="cls-1" d="M131.4,153.26l7.81,1.73c4.19.93,7.23,4.58,7.38,8.87h0c.1,2.85-1.8,5.39-4.57,6.09h0c-.86.22-5.71.45-6.92.41l-31.7-2.88,28.01-14.22Z"/>
      <path class="cls-1" d="M172.36,130.32l-21.45-15.02-18.97-13.3-3.58-2.5-9.5-6.66,3,12.37,1.48,6.1,6.08,25.1,14.8-.18,25.65-.31c4.54-.59,6.04-3.1,2.49-5.6ZM150.62,116.92l-.73,3.44s-9.91,8.21-15.74,0l16.52-3.68-.05.24Z"/>
      <path class="cls-1" d="M155.35,114.86c-.21,1.16-.46,2.3-.73,3.44l.73-3.44Z"/>
      <path class="cls-1" d="M156.76,100.09c0,4.48-.38,8.88-1.12,13.15-.06.46-.15.92-.24,1.38l-16.52,3.68c5.83,8.21,15.74,0,15.74,0-1.32,5.54-3.24,10.86-5.67,15.87-3.57,7.36-8.27,14.07-13.87,19.91-5.51,5.77-11.9,10.69-18.96,14.56-.73.4-1.47.79-2.22,1.17-9.06,4.1-13.7,4.45-15.88,4.15l6.3,2.12c1.41.48,2.73,1.21,3.89,2.16l1.74,1.43c1.67,1.38,2.64,3.44,2.64,5.61-.32,3.22-3.03,5.73-6.33,5.73h-30.17c-2.39,0-4.76-.43-6.98-1.28l-9.53-3.54c-5.02-1.86-8.97-5.82-10.83-10.84l-1.34-3.63C19.61,159.6.24,131.76.5,99.43.83,59.99,30.92,27.09,69.38,22.51c2.42-.3,4.88-.47,7.37-.53.65-.02,1.29-.02,1.93-.02,4.52,0,8.95.39,13.25,1.13,1.81.31,3.6.68,5.36,1.12.48.11.96.23,1.44.37,19.52,5.17,36.04,17.72,46.4,34.47,7.37,11.93,11.63,25.98,11.63,41.04Z"/>
      <path class="cls-1" d="M53.68,109.28l5.4,21.95c.94,3.35,4.41,13.41,7.8-1.83l4.01-21.15"/>
      <path class="cls-1" d="M89.44,170.36l5.62,2.53c.41.19.83.35,1.25.49h.01s1.7.58,1.7.58l6.3,2.12c1.41.48,2.73,1.21,3.89,2.16l1.74,1.43c1.67,1.38,2.64,3.44,2.64,5.61"/>
      <ellipse class="cls-3" cx="116.52" cy="87.69" rx="23.16" ry="24.88"/>
      <circle class="cls-2" cx="118.76" cy="87.69" r="17.33"/>
      <circle class="cls-3" cx="121.46" cy="79.71" r="6.18"/>
      <path class="cls-1" d="M64.93,33.87c0-9.76,20.82-33.02,20.82-33.02,0,0,15.27,26.81,15.27,36.77"/>
      <path class="cls-4" d="M74.8,32.89c-2.03-5.13,11.62-21.66,11.62-21.66,0,0,10.1,17.55,5.91,21.66h-17.54Z"/>
      <path class="cls-1" d="M98.04,23.3l6.25-4.6c5.39-3.97,11.9-6.11,18.6-6.11h5.73c5.65,0,11.11,1.97,15.46,5.57h0c3.12,2.58,5.48,5.96,6.82,9.78l.84,2.39c2.39,6.78,2.04,14.22-.99,20.74l-1.29,2.77c-1.84,3.96-5.54,6.75-9.85,7.44l-3.14.5c-3.41.54-6.91,0-9.99-1.58h0c-4.25-2.17-7.21-6.22-7.99-10.92l-.47-2.84c-.55-3.32-.26-6.73.85-9.91l.61-1.75-21.35-10.52c-.39-.19-.44-.73-.09-.99Z"/>
      <path class="cls-1" d="M119.48,34.81h0c3.84,2.58,5.26,7.71,6.04,12.06l.39,2.19c.3,1.7-.02,3.46-.92,4.94h0"/>
      <path class="cls-1" d="M47.41,171.72s15.59,3.82,20.75,2.92"/>
      <path class="cls-5" d="M155.4,114.62l-.05.24-.73,3.44s-9.91,8.21-15.74,0l16.52-3.68Z"/>
    </g>
  </g>
</svg>