<?xml version="1.0" encoding="UTF-8"?>
<svg id="Calque_2" xmlns="http://www.w3.org/2000/svg" viewBox="0 0 157.26 321.02">
  <defs>
    <style>
      .cls-1 {
        fill: none;
      }

      .cls-1, .cls-2, .cls-3, .cls-4, .cls-5, .cls-6, .cls-7, .cls-8 {
        stroke-miterlimit: 10;
      }

      .cls-1, .cls-2, .cls-3, .cls-4, .cls-5, .cls-7, .cls-8 {
        stroke: #000;
      }

      .cls-2, .cls-6 {
        fill: #fff;
      }

      .cls-3 {
        fill: #bf7394;
      }

      .cls-4 {
        fill: #864d66;
      }

      .cls-5 {
        fill: #1a1a1a;
      }

      .cls-6 {
        stroke: #1d1d1b;
      }

      .cls-7 {
        fill: #4497ba;
      }

      .cls-8 {
        fill: #ffadd1;
      }
    </style>
  </defs>
  <g id="grodoudou">
    <g>
      <path class="cls-6" d="M134.9,218.15h17.69c-13.53,12.83-17.18.79-17.69,0ZM129.77,217.38c-.9.57-1.8,1.17-2.7,1.79-.05.03-.09.06-.14.1-.22.16-.44.31-.66.46-.45.3-.89.61-1.33.94-.4.28-.8.57-1.2.87-.04.03-.08.06-.12.09-.4.3-.8.6-1.2.9-.66.5-1.31,1.02-1.96,1.54-.21.17-.43.35-.64.52-.04.03-.08.06-.11.09-.35.29-.69.57-1.04.86-.68.59-1.36,1.18-2.03,1.78-1.01.91-1.99,1.84-2.94,2.79-.77.77-1.53,1.56-2.26,2.37-.24.26-.49.53-.73.8h0c-.08.1-.15.18-.22.27-.34.39-.68.78-1.01,1.18-.18.21-.35.43-.52.64-.11.14-.22.28-.33.42-.23.28-.45.56-.66.85-.22.28-.43.57-.64.86-.05.07-.11.15-.16.22-.26.36-.52.73-.77,1.09-.3.45-.59.89-.88,1.34-.19.3-.38.6-.56.9-.19.3-.37.61-.54.91-.18.3-.35.61-.52.91-.36.66-.7,1.33-1.02,2.01-.11.23-.22.46-.33.7-.31.68-.6,1.37-.86,2.06-.13.32-.24.63-.36.95-.13.37-.26.75-.38,1.13-.09.29-.19.6-.27.9-.2.67-.38,1.34-.53,2.03-.14.59-.26,1.2-.36,1.8-.04.22-.07.43-.1.64-.04.23-.07.45-.1.67-.05.35-.09.71-.12,1.06-.04.32-.07.65-.08.98-.01.03-.01.05-.01.08h0c-.02.37-.04.72-.05,1.08-.01.36-.02.73-.02,1.09,0,.42.01.85.02,1.29.02.34.04.68.06,1.02,0,.08.01.16.02.23.03.41.07.81.11,1.22.01.03.01.07.01.11l.15,1.11c.06.42.14.84.21,1.27.08.43.17.86.27,1.29.19.86.42,1.72.68,2.6,0,0,.01.01.01.02.2.63.41,1.27.63,1.91.35.98.74,1.96,1.18,2.95.45,1,.94,2.01,1.48,3.03.35.66.72,1.33,1.11,2,2.19,3.74,5.04,7.6,8.65,11.58,19.92-13.73,34.93-38.75,40.5-68.86,1.12-6.04,1.86-12.28,2.17-18.68.01-.11.01-.21.02-.32v-.09c-1.86.69-14.12,5.41-26.82,13.65Z"/>
      <path class="cls-8" d="M113.7,230.12c-10.58,10.58-17.66,24.08-12.86,40.08-4.85-16.03,2.26-29.54,12.86-40.08Z"/>
      <path class="cls-8" d="M113.7,230.12c.95-.97,1.93-1.89,2.94-2.79-1.01.91-1.99,1.84-2.94,2.79Z"/>
      <path class="cls-8" d="M156.76,196.81c0,2.32-.06,4.63-.17,6.92-1.86.69-14.12,5.41-26.82,13.65-.9.57-1.8,1.17-2.7,1.79-.05.03-.09.06-.14.1-.22.14-.44.3-.66.46-.45.3-.89.61-1.33.94-.4.28-.8.57-1.2.87-.04.03-.08.06-.12.09-.4.3-.8.6-1.2.9-.66.5-1.31,1.02-1.96,1.54-.21.17-.43.35-.64.52-.04.03-.08.06-.11.09-.35.29-.69.57-1.04.86-.68.58-1.36,1.17-2.03,1.78-1.01.91-1.99,1.84-2.94,2.79-.77.77-1.53,1.56-2.26,2.37-.24.26-.49.53-.73.8h0c-.08.1-.15.18-.22.27-.34.39-.68.78-1.01,1.18-.18.21-.35.43-.52.64-.11.14-.22.28-.33.42-.23.28-.45.56-.66.85-.22.28-.43.57-.64.86-.05.07-.11.15-.16.22-.27.36-.52.72-.77,1.09-.31.45-.6.89-.88,1.34-.2.3-.38.6-.56.9-.19.3-.37.6-.54.91-.18.3-.35.61-.52.91-.36.66-.7,1.33-1.02,2.01-.12.23-.23.47-.33.7-.31.68-.6,1.37-.86,2.06-.13.32-.24.63-.36.95-.13.37-.26.75-.38,1.13-.09.29-.19.6-.27.9-.2.67-.38,1.34-.53,2.03-.14.59-.26,1.19-.36,1.8-.04.22-.07.43-.1.64-.04.22-.07.44-.1.67-.05.35-.09.7-.12,1.06-.03.32-.06.65-.08.98-.01.03-.01.05-.01.08h0c-.02.36-.04.72-.05,1.08-.01.36-.02.72-.02,1.09,0,.42.01.85.02,1.29.02.34.04.68.06,1.02,0,.08.01.16.02.23.02.41.06.81.11,1.22.01.03.01.07.01.11.04.37.09.74.15,1.11.06.42.14.84.21,1.27.08.43.17.86.27,1.29.19.86.42,1.72.68,2.6,0,0,.01.01.01.02.2.63.41,1.27.63,1.91.35.98.74,1.96,1.18,2.95.45,1,.94,2.01,1.48,3.03.35.66.72,1.33,1.11,2,2.19,3.74,5.04,7.6,8.65,11.58-1.2.57-2.32,1.07-3.37,1.52h-.01c-10.42,4.46-13.79,3.49-14.17,3.35l7.96,3.66c1.42.65,2.74,1.64,3.9,2.94l1.73,1.94c.62.7,1.15,1.52,1.56,2.43.71,1.55,1.09,3.35,1.09,5.21-.07.97-.26,1.88-.55,2.73-.99,2.99-3.21,5.06-5.78,5.06h-30.17c-2.39,0-4.76-.58-6.98-1.74l-9.53-4.82c-5.02-2.53-8.97-7.91-10.83-14.74l-1.34-4.94C19.61,277.78.24,239.9.5,195.91c.29-46.91,23.31-87,54.79-100.52,0-.01.02-.02.03-.02.17,3.27.96,5.53,2.56,6.43l36.05,3.74h.03c0-1.78-.35-6.24-.92-12.36l2.84,1.4,16.55,8.15-.61,1.75c-.24.68-.44,1.37-.6,2.08-.6,2.56-.68,5.22-.25,7.83l.47,2.84c.39,2.35,1.33,4.54,2.7,6.41,1.37,1.87,3.17,3.42,5.3,4.51,3.07,1.57,6.57,2.12,9.98,1.57l3.14-.5c1.87-.29,3.61-.99,5.14-1.99,11.88,18.64,19.06,42.97,19.06,69.58Z"/>
      <path class="cls-8" d="M111.44,232.48c-.32.35-.64.71-.95,1.07.07-.09.14-.17.22-.26h0c.24-.28.49-.55.73-.81Z"/>
      <path class="cls-1" d="M156.57,204.15c.01-.11.01-.21.02-.32v-.09"/>
      <path class="cls-8" d="M93.93,106.4c-.1-2.25-.42-6.26-.89-11.44h0c-.04-.3-.06-.59-.09-.91-.02-.24-.04-.48-.07-.73-.05-.54-.11-1.1-.16-1.65-.39-4.14-.87-8.85-1.39-13.89-.52-5.06-1.09-10.46-1.68-15.94-.07-.6-.13-1.23-.2-1.86-.02-.14-.03-.29-.05-.43-.01-.06-.01-.12-.02-.18v-.03c-3-27.88-6.39-57.31-6.39-57.31,0,0-28.03,70.03-27.7,94.14,0-.01.02-.02.03-.02.17,3.3.96,5.58,2.56,6.48M86.55,91.78c.01.34,0,.68,0,1-.06,5.41-.43,9.13-1.26,9.97h-17.54c-.15-.37-.2-1.13-.16-2.19,0-.04-.01-.08,0-.12-.06-1.63.22-4.53.73-8.27,2.97-21.4,13.65-70.59,13.65-70.59,0,0,4.43,44.8,4.58,67.44.01.54.01,1.08.01,1.6,0,.39,0,.78-.01,1.15Z"/>
      <path class="cls-5" d="M86.56,89.9c0,.39,0,.77-.01,1.14.01.34,0,.67,0,.99-.06,5.37-.43,9.06-1.26,9.89h-17.54c-.15-.37-.2-1.12-.16-2.17,0-.04-.01-.08,0-.12-.06-1.62.22-4.49.73-8.2,2.97-21.22,13.65-70.01,13.65-70.01,0,0,4.43,44.43,4.58,66.89.01.54.01,1.07.01,1.59Z"/>
      <path class="cls-8" d="M143.7,119l-1.29,2.78c-1.05,2.25-2.69,4.12-4.71,5.45-1.53,1-3.27,1.7-5.14,1.99l-3.14.5c-3.41.55-6.91,0-9.98-1.57-2.13-1.09-3.93-2.64-5.3-4.51-1.37-1.87-2.31-4.06-2.7-6.41l-.47-2.84c-.43-2.61-.35-5.27.25-7.83.16-.71.36-1.4.6-2.08l.61-1.75-16.55-8.15-2.84-1.4h0c-.04-.3-.06-.59-.09-.89-.02-.24-.04-.48-.07-.72-.05-.53-.11-1.07-.16-1.62l4.52-3.32c3.37-2.49,7.19-4.25,11.21-5.22h.03c1.05-.26,2.11-.45,3.18-.6,1.38-.2,2.77-.29,4.17-.29h5.74c5.64,0,11.11,1.97,15.46,5.57,1.56,1.29,2.93,2.79,4.07,4.43,1.15,1.65,2.07,3.44,2.75,5.35l.85,2.39c2.39,6.78,2.03,14.23-1,20.74Z"/>
      <ellipse class="cls-2" cx="115.7" cy="172.03" rx="22.65" ry="24.33"/>
      <circle class="cls-7" cx="117.9" cy="172.03" r="16.95"/>
      <circle class="cls-2" cx="120.53" cy="164.23" r="6.04"/>
      <path class="cls-8" d="M40.1,205.52s16.34,48.08,20.43,42.46,15.39-42.46,15.39-42.46"/>
      <path class="cls-4" d="M152.59,218.15c-13.53,12.83-17.18.79-17.69,0h17.69Z"/>
      <path class="cls-2" d="M134.9,218.15h-.06c.01-.06.03-.05.06,0Z"/>
      <path class="cls-3" d="M124.18,299.36c2.34,2.41,3.48,5.73,3.22,9.08-.02.23-.03.46-.05.68-.23,3.56-3.18,6.34-6.75,6.34h-8.56c.29-.85.48-1.76.55-2.73,0-1.86-.38-3.66-1.09-5.21-.41-.91-.94-1.73-1.56-2.43l-1.73-1.94c-1.16-1.3-2.48-2.29-3.9-2.94l-7.96-3.66c.38.14,3.75,1.11,14.17-3.34h0s.01,0,.01,0l8.38,2.63c1.55.49,2.97,1.31,4.16,2.43.36.33.73.71,1.11,1.1Z"/>
      <path class="cls-5" d="M108.48,81.4h-.03c-4.02.98-7.84,2.74-11.21,5.23l-4.52,3.32-.51-4.45.03-.41,4.65-60.19,11.59,56.5Z"/>
      <path class="cls-8" d="M112.43,102.73l5.21,1.75c2.04.69,3.81,2.01,5.04,3.78h0c1.36,1.95,1.89,4.36,1.48,6.7l-1.33,7.51"/>
      <path class="cls-3" d="M112.17,80.52l-.51.29c-1.07.15-2.13.34-3.18.59l-11.59-56.5-4.65,60.19-.03.41.51,4.45c.05.55.11,1.09.16,1.62.03.24.05.48.07.72.03.3.05.59.09.88h0c.57,6.13.92,10.59.92,12.37h-.03c-.1-2.23-.42-6.21-.89-11.35h0c-.04-.3-.06-.59-.09-.9-.02-.24-.04-.48-.07-.72-.05-.54-.11-1.09-.16-1.64-.39-4.11-.87-8.78-1.39-13.78-.52-5.02-1.09-10.37-1.68-15.81-.07-.6-.13-1.22-.2-1.84-.02-.14-.03-.29-.05-.43-.01-.06-.01-.12-.02-.18v-.03c.87-21.13,7.93-49.19,7.93-49.96.21,0,14.86,71.62,14.86,71.62Z"/>
    </g>
  </g>
</svg>