<?xml version="1.0" encoding="UTF-8"?>
<svg id="Calque_2" xmlns="http://www.w3.org/2000/svg" xmlns:xlink="http://www.w3.org/1999/xlink" viewBox="0 0 78.04 69.74">
  <defs>
    <style>
      .cls-1 {
        fill: #1d1d1b;
      }

      .cls-1, .cls-2, .cls-3, .cls-4, .cls-5, .cls-6, .cls-7, .cls-8, .cls-9, .cls-10, .cls-11, .cls-12, .cls-13, .cls-14, .cls-15 {
        stroke: #000;
        stroke-miterlimit: 10;
        stroke-width: .25px;
      }

      .cls-2 {
        fill: #e6d7fb;
      }

      .cls-3 {
        fill: #8338ec;
      }

      .cls-4 {
        fill: url(#Dégradé_sans_nom_45);
      }

      .cls-5 {
        fill: #3a86ff;
      }

      .cls-6 {
        fill: #fb5607;
      }

      .cls-7 {
        fill: #feddcd;
      }

      .cls-8 {
        fill: none;
      }

      .cls-9 {
        fill: #ffbe0b;
      }

      .cls-10 {
        fill: #d8e7ff;
      }

      .cls-11 {
        fill: #ff006e;
      }

      .cls-12 {
        fill: #ffcce2;
      }

      .cls-13 {
        fill: url(#Dégradé_sans_nom_48);
      }

      .cls-14 {
        fill: #fff;
      }

      .cls-15 {
        fill: #fff2ce;
      }
    </style>
    <linearGradient id="Dégradé_sans_nom_48" data-name="Dégradé sans nom 48" x1=".12" y1="34.87" x2="77.92" y2="34.87" gradientUnits="userSpaceOnUse">
      <stop offset="0" stop-color="#3a86ff"/>
      <stop offset="1" stop-color="#fb5607"/>
    </linearGradient>
    <linearGradient id="Dégradé_sans_nom_45" data-name="Dégradé sans nom 45" x1="1.54" y1="32.17" x2="50.62" y2="32.17" gradientUnits="userSpaceOnUse">
      <stop offset="0" stop-color="#ff006e"/>
      <stop offset="1" stop-color="#8338ec"/>
    </linearGradient>
  </defs>
  <g id="licorne_piéce">
    <g>
      <ellipse class="cls-13" cx="39.02" cy="34.87" rx="38.9" ry="34.75"/>
      <circle class="cls-4" cx="26.08" cy="32.17" r="24.54"/>
      <path class="cls-14" d="M74.13,46.45h0c.02.12.04.24.05.35.06.66-.07,1.33-.38,1.93-.02.04-.04.07-.06.11l-.52.94c-.24.45-.36.76-.78,1.01-.06.04-.12.08-.17.12,0,0,0,0-.01,0h0c-.29.17-.62.28-.97.3-.08.01-.16.03-.24.03-.11.01-.23.02-.34.02h-3.3c-.1,0-.21-.02-.3-.05h-.12l-.25.05s-.01,0-.02,0c-.33.1-.84.4-1.42.8,0,0-.01,0-.02.01-.92.69-1.99,1.67-2.8,2.43-.26.25-.56.44-.88.57-.12.05-.25.1-.37.12-.01,0-.02,0-.03.01-.36.18-.83.3-1.25.17l-.55-.17-3.74-1.17s-.01,0-.02,0c-.95-.3-1.69-1.04-2-1.98,0,0,0,0,0-.01l-2.55-7.76c-.21-.64-.68-1.16-1.29-1.44l-2.53-1.15c-.81-.37-1.45-1.03-1.79-1.84,0,0,0,0,0,0l-4.51-10.74h0s-2.74-5.25-2.74-5.25c-.01-.02-.02-.04-.03-.06l-.33-.63c-.04-.06-.1-.15-.14-.21l-.37-.41c-.05-.06-.1-.11-.15-.17-.06-.06-.12-.13-.18-.2l-.41-.45c-.09-.1-.18-.2-.28-.3l-.85-.93-.23-.25s-.07-.08-.11-.12l-.21-.23s-.07-.07-.1-.11l-.18-.2c-.18-.19-.32-.34-.4-.44l-.06-.07-.02-.02c-.75-.1-1.19-.13-1.72.05,0,0-.01,0-.02,0-1.15-.21-2.31-1.91-3.68-2.78-1.84-1.16-3.66-1.71-4.06-1.83-.01,0-.09.06-.04.12,1.81,1.14,3.24,4.96,3.31,5.16,0,0,0,0,0,0l.54.98c.07.08.13.16.18.26,0,.01.02.03.02.04l.19.34s.03.06.05.1c.12.27.18.55.16.83,0,.22-.06.44-.16.65-.03.06-.05.11-.08.16l-.85,1.41c-.11.19-.19.39-.23.6l-.52,2.92s-.02.08-.03.12c-.1.41-.35.77-.7,1.01-.06.04-.11.07-.17.1l-1.65.88c-.06.03-.12.06-.17.08-.15.06-.32.1-.48.12-.05,0-.1,0-.16,0h-.52c-.05,0-.11,0-.16,0-.31-.03-.6-.14-.84-.31-.04-.03-.08-.05-.11-.08-.19-.14-.35-.32-.47-.53l-.05-.09s0-.01-.01-.02l-.38-.69-.7-.11-.6-.1s-.02,0-.03,0c-.03,0-.06-.01-.1-.02-.53.63-1.09,1.28-1.65,1.93h0c-3.21,3.73-6.59,7.56-8.3,9.48,0,0,0,0,0,0-2.8,4.6.96,7.75,1.95,8.2,2.4,1.1,4.19-.04,5.22-.87,4.18-3.36,9.98-5.19,13.56-6.26,2.14-.64,3.86-.5,4.45-.48,1.68.06,1.93,3.28,3.21,6.31l5.71,14.12.52,1.28"/>
      <path class="cls-5" d="M40.72,20.05s0,0,0,0c.15.08.27.21.36.36,0,0,0,0,.01.01l1.23,2.12c.47.81,1.14,1.48,1.95,1.95l5.61,3.25.11.06.08.08s0,0,.01.01l5.65,5.59.16.15.08.19s0,0,0,0l2.39,6.18c.11.29.35.51.64.6l10.32,3.21s0,0,.01,0c.3.1.54.33.64.63l.08.23,2.04,5.87.11.27.04.08s0,0,.01,0c.06-.04.12-.07.17-.12.42-.25.54-.57.78-1.01l.52-.94s.04-.07.06-.11c.31-.6.44-1.27.38-1.93,0-.12-.03-.23-.05-.35h0c-.05-.29-.14-.57-.27-.84l-1.49-3.25c-.5-1.09-1.34-1.99-2.39-2.56l-4.78-2.6c-.58-.32-1.11-.7-1.6-1.14l-4.69-4.27c-.18-.17-.34-.35-.49-.54l-2.67-3.56c-.65-.86-1.55-1.49-2.59-1.79l-4.23-1.24c-.87-.25-1.69-.64-2.43-1.15l-4.05-2.76c-.49-.33-1.18-.56-1.75-.7Z"/>
      <path class="cls-3" d="M39.82,19.91c.86.46.55,3.05.67,3.34.14.34,4.51,3.07,4.75,3.12,0,0,.01,0,.02.01,0,0,.01.01.02.03h0s.02.03.03.04c.4.63,2.04,4.88,2.46,6.13,0,0,0,.01,0,.02.07.2.22.37.41.45l.08.03,5.23,2.45c.21.09.37.28.43.51l.03.12,1.63,6.52.04.17c.08.3.33.53.64.56l.18.02,1.63.19,4.95.58c.54.06.93.54.89,1.07h0s0,.07,0,.07l-.38,2.57c-.03.21.05.42.21.56l.14.12.03.02,2.84,2.41c.07.06.15.11.24.15.03.01.07.03.11.04.1.03.2.05.3.05h3.3c.12,0,.23,0,.34-.02.08,0,.16-.02.24-.03.35-.02.68-.12.97-.29h0s-.04-.09-.04-.09l-.11-.27-2.04-5.87-.08-.23c-.1-.3-.34-.53-.64-.63,0,0,0,0-.01,0l-10.32-3.21c-.29-.09-.53-.31-.64-.6l-2.39-6.18s0,0,0,0c-.05-.13-.13-.25-.23-.35l-5.65-5.59s0,0-.01-.01c-.06-.06-.12-.1-.19-.14l-5.61-3.25c-.81-.47-1.48-1.14-1.95-1.95l-1.23-2.12s0,0-.01-.01c-.09-.15-.21-.27-.36-.36,0,0,0,0,0,0-.1-.05-.21-.09-.32-.11h0l-.25-.03c-.11-.02-.22-.01-.32,0Z"/>
      <path class="cls-14" d="M72.25,50.92h0s0,0,.01,0c0,0,0,0-.01,0Z"/>
      <path class="cls-11" d="M35.96,19.36h0c.15.08.28.19.37.34l.4.67.02.03.28.48c.06.1.15.19.25.27l1.64,1.18.04.03c.12.09.22.22.27.36v.04s1.33,3.73,1.33,3.73c.01.04.03.08.05.12.02.04.05.07.07.11.02.02.04.05.06.07.03.03.05.06.08.08l3.54,3.02h0s.05.05.07.08c.06.06.12.14.15.23v.03s1.45,3.42,1.45,3.42l1.95,4.62c.08.19.24.34.44.41h.03s.02.02.03.02l3.41,1.21.07.02c.23.08.4.26.47.49l.02.07,2.25,7.45s0,0,0,.01,0,0,0,0c.01.04.02.08.02.12,0,.03,0,.07,0,.1v.82c0,.41.34.75.75.75h3.29c.31,0,.59.19.7.48l.03.09v.02s1.5,3.94,1.5,3.94c.11.28.36.46.63.49.2.02.4-.04.56-.19,0,0,0,0,0,0,.9-.85,2.07-1.81,3.04-2.48,0,0,.01,0,.02-.01.58-.4,1.09-.7,1.42-.8,0,0,.01,0,.02,0l.25-.05h.05s-.04-.04-.04-.04c-.09-.04-.17-.09-.24-.15l-2.84-2.41-.03-.02-.14-.12c-.16-.14-.24-.35-.21-.56l.38-2.57v-.07s0,0,0,0c.04-.54-.35-1.01-.89-1.07l-4.95-.58-1.63-.19-.18-.02c-.31-.04-.57-.26-.64-.56l-.04-.17-1.63-6.52-.03-.12c-.06-.23-.22-.41-.43-.51l-5.23-2.45-.08-.03c-.2-.08-.35-.25-.41-.45,0,0,0-.01,0-.02-.41-1.25-2.06-5.5-2.46-6.13,0-.01-.02-.03-.03-.04h0s-.02-.02-.02-.03c0,0-.01-.01-.02-.01-.24-.05-4.61-2.78-4.75-3.12-.12-.29.19-2.88-.67-3.34,0,0,0,0,0,0-.14-.07-2.28-.37-2.43-.39l-1.28-.18c-.08-.01-.13,0-.15.03Z"/>
      <path class="cls-11" d="M40.56,26.48v.03s.03.06.05.09c-.02-.04-.04-.08-.05-.12Z"/>
      <path class="cls-6" d="M34.12,19.05h0s.02.03.02.03l.06.07c.08.09.22.25.4.44l.18.2s.07.07.1.11l.21.23s.07.08.11.12l.23.25.85.93c.09.1.19.2.28.3l.41.45c.06.07.12.14.18.2.05.06.1.11.15.17l.37.41c.04.06.1.15.14.21l.33.63s.02.04.03.06l2.74,5.24h0s4.51,10.75,4.51,10.75c0,0,0,0,0,0,.34.82.99,1.48,1.79,1.84l2.53,1.15c.61.28,1.08.8,1.29,1.44l2.55,7.76s0,0,0,.01c.32.94,1.06,1.68,2,1.98,0,0,.01,0,.02,0l3.74,1.17.55.17c.42.13.89,0,1.25-.17,0,0,.02,0,.03-.01.12-.03.26-.07.37-.12.32-.13.62-.32.88-.57.81-.76,1.88-1.74,2.8-2.43-.97.67-2.14,1.63-3.04,2.48,0,0,0,0,0,0-.16.15-.37.21-.56.19-.27-.03-.53-.2-.63-.49l-1.49-3.94v-.02s-.04-.09-.04-.09c-.11-.29-.39-.48-.7-.48h-3.29c-.41,0-.75-.34-.75-.75v-.8s0-.08,0-.12c0-.04-.01-.08-.02-.12,0,0,0,0,0,0s0,0,0-.01l-2.25-7.45-.02-.07c-.07-.23-.24-.41-.47-.49l-.07-.02-3.41-1.21s-.02,0-.03-.01h-.03c-.2-.08-.36-.23-.44-.42l-1.95-4.62-1.44-3.42c-.04-.09-.1-.18-.16-.26-.02-.02-.05-.05-.07-.07h0s-3.54-3.03-3.54-3.03c-.03-.03-.06-.05-.08-.08-.02-.02-.04-.04-.06-.07-.03-.03-.05-.07-.07-.11-.02-.03-.03-.06-.04-.09v-.03s-1.33-3.73-1.33-3.73c-.06-.17-.17-.32-.32-.43l-1.64-1.18c-.1-.07-.18-.16-.25-.27l-.28-.48-.02-.03-.4-.67c-.09-.15-.22-.26-.37-.34h0c-.08-.05-.18-.07-.27-.09l-1.24-.17-.19-.03-.13-.02Z"/>
      <path class="cls-6" d="M40.56,26.48v.03s.03.06.05.09c-.02-.04-.04-.08-.05-.12Z"/>
      <path class="cls-14" d="M23.68,32.55l.32.85c.1.27.45.34.64.13l.46-.5s.22-.85.18-1.63c-.05.36-.36.63-.74.63-.4,0-.72-.31-.74-.7l-.1.24c-.13.31-.14.67-.02.99Z"/>
      <path class="cls-14" d="M23.67,32.54l.32.85c.1.27.45.34.64.13l.46-.5h.01s0,0,0,0l1.92-2.12h-.06s-.01-.02-.02-.03l-1.93-.39-.36-.07s-.06,0-.09,0c-.03,0-.06,0-.1,0-.12.01-.23.06-.3.15-.01,0-.02.02-.03.03-.02.02-.03.04-.05.06-.02.03-.04.06-.05.09l-.24.59-.1.24c-.13.31-.14.67-.02.99Z"/>
      <path class="cls-14" d="M23.79,31.32c.02.39.34.7.74.7.37,0,.68-.27.74-.63h0c0-.14-.02-.27-.05-.39,0,0,0,0,0,0-.04-.19-.1-.37-.2-.51l-.4-.08s-.03,0-.05,0c-.03,0-.06,0-.1,0-.12.01-.23.06-.3.15-.01,0-.02.02-.03.03-.02.02-.03.04-.05.06-.01.02-.03.05-.03.07v.03s-.26.59-.26.59Z"/>
      <path class="cls-14" d="M25.1,33s0,.01,0,.02l1.92-2.12h-.06s-1.94-.41-1.94-.41c.1.14.16.32.2.51,0,0,0,0,0,0,.03.12.04.25.05.38h0c.04.71-.14,1.47-.17,1.61Z"/>
      <polygon class="cls-15" points="17.13 11.68 18.76 14.75 19.89 14.44 17.13 11.68"/>
      <polygon class="cls-7" points="18.76 14.75 19.55 16.24 21.24 15.8 19.89 14.44 18.76 14.75"/>
      <polygon class="cls-12" points="19.55 16.24 20.61 18.26 22.93 17.49 21.24 15.8 19.55 16.24"/>
      <polygon class="cls-2" points="20.61 18.26 21.63 20.17 24.73 19.29 22.93 17.49 20.61 18.26"/>
      <path class="cls-10" d="M21.63,20.17l.67,1.27.37-.11s0,0,.01,0l2.94-.87-.04-.31-.86-.86-3.1.89Z"/>
      <path class="cls-1" d="M24.54,14.63s.08.12.09.17c.19.76.9,3.8,1.18,5.35.02.11.04.21.05.31l.69-.21c.22-.06.44-.08.66-.06.25-.02.5.01.73.09.09.03.17.07.25.12l-.12-.22-.18-.33s0,0,0,0c-.07-.21-1.52-4.1-3.33-5.24-.01.01-.02.02-.02.03Z"/>
      <path class="cls-11" d="M21.31,28.66l.38.69s0,.01.01.02l.05.09c.12.21.28.39.47.53.04.03.07.06.11.08.25.17.54.28.84.31.05,0,.11,0,.16,0h.52c.05,0,.11,0,.16,0,.17-.01.33-.05.48-.12v-.08l.03-2.21c0-.3.09-.59.26-.83l1.12-1.7c.07-.11.12-.23.14-.35l.16-.96c.06-.4.33-.74.71-.9l2.07-.87.07-.03c.02-.28-.03-.57-.16-.83-.02-.03-.03-.06-.05-.1l-.19-.34s-.01-.03-.02-.04c-.05-.09-.12-.18-.18-.26-.14-.16-.3-.29-.48-.39-.08-.05-.17-.08-.25-.12l-.11.09-2.39,1.82c-.13.1-.23.24-.27.4l-.43,1.55c-.06.21-.19.38-.37.49l-1.05.66c-.27.17-.43.46-.43.78v1.23c0,.29-.15.57-.39.73l-.95.64h-.02Z"/>
      <path class="cls-9" d="M24.5,30.19v.08c.06-.02.12-.05.17-.08l1.65-.88c.06-.03.12-.06.17-.1.35-.24.59-.59.7-1.01.01-.04.02-.08.03-.12l.52-2.92c.04-.21.11-.41.23-.6l.85-1.41c.03-.05.06-.1.08-.16.1-.2.15-.42.16-.65l-.07.03-2.07.87c-.37.16-.64.5-.71.9l-.16.96c-.02.12-.07.25-.14.35l-1.12,1.7c-.17.25-.25.54-.26.83l-.03,2.21Z"/>
      <path class="cls-5" d="M19.89,28.44s.06.01.1.02c0,0,.02,0,.03,0l.6.1v-.04s-.54-1.94-.54-1.94c-.05-.17-.05-.36,0-.54l.36-1.26c.1-.37.43-.63.8-.67l.81-.07c.34-.03.57-.34.52-.68l-.08-.48c-.02-.13-.02-.26,0-.39l.17-1.01c-.12.06-.23.15-.34.24l-1.44,1.32c-.09.08-.19.16-.29.22l-1,.59c-.45.27-.76.73-.84,1.25l-.21,1.41c-.13.91.47,1.76,1.35,1.95Z"/>
      <circle cx="10.49" cy="44.07" r=".53"/>
      <path class="cls-5" d="M23.68,32.55l.32.85c.1.27.45.34.64.13l.46-.5s.22-.85.18-1.63c-.05.36-.36.63-.74.63-.4,0-.72-.31-.74-.7l-.1.24c-.13.31-.14.67-.02.99Z"/>
      <line class="cls-8" x1="36.08" y1="19.29" x2="36.11" y2="19.33"/>
      <line class="cls-8" x1="29.06" y1="22.34" x2="29.06" y2="22.34"/>
      <path class="cls-3" d="M20.07,26.57l.53,1.94v.04s.71.11.71.11h.02s.95-.64.95-.64c.24-.16.39-.44.39-.73v-1.23c0-.31.16-.61.43-.78l1.05-.66c.18-.11.31-.29.37-.49l.43-1.55c.05-.16.14-.3.27-.4l2.39-1.82.11-.09c-.23-.08-.48-.12-.73-.09-.22-.02-.44,0-.66.06l-.69.21c-.01-.09-.03-.19-.05-.31l.04.31-2.94.87s0,0-.01,0l-.02.14h0l-.17,1.01c-.02.13-.02.26,0,.39l.08.48c.06.33-.18.64-.52.68l-.81.07c-.38.04-.7.3-.8.67l-.36,1.26c-.05.17-.05.36,0,.54Z"/>
    </g>
  </g>
</svg>