<?xml version="1.0" encoding="UTF-8"?>
<svg id="Calque_2" xmlns="http://www.w3.org/2000/svg" viewBox="0 0 560.82 731">
  <defs>
    <style>
      .cls-1 {
        fill: #93855d;
      }

      .cls-1, .cls-2, .cls-3, .cls-4, .cls-5, .cls-6, .cls-7, .cls-8, .cls-9, .cls-10, .cls-11, .cls-12, .cls-13 {
        stroke-miterlimit: 10;
      }

      .cls-1, .cls-2, .cls-3, .cls-4, .cls-5, .cls-6, .cls-7, .cls-8, .cls-9, .cls-11, .cls-12, .cls-13 {
        stroke: #000;
      }

      .cls-2 {
        fill: none;
      }

      .cls-3 {
        fill: gray;
      }

      .cls-4 {
        fill: #333;
      }

      .cls-5, .cls-10 {
        fill: #fff;
      }

      .cls-6 {
        fill: #a49a79;
      }

      .cls-7 {
        fill: #2d2828;
      }

      .cls-8 {
        fill: #7498d1;
      }

      .cls-9 {
        fill: #e0d0a3;
      }

      .cls-10 {
        stroke: #1d1d1b;
      }

      .cls-11 {
        fill: #f2f2f2;
      }

      .cls-12 {
        fill: #607ba6;
      }

      .cls-13 {
        fill: #4d4d4d;
      }
    </style>
  </defs>
  <g id="berger_saute">
    <g>
      <path class="cls-3" d="M491.96,455.38c-6.88,12.5-14.82,24.38-23.59,35.5h-.04l-78.16-8.73v-48.52c9.55,3.22,18.91,5.94,27.95,8.06,1.49.35,2.99.71,4.48,1.02,2.12.47,4.25.9,6.33,1.3,1.42.24,2.87.51,4.29.75,1.73.28,3.46.55,5.15.79,1.73.24,3.42.47,5.11.67,11.68,1.3,22.73,1.38,32.91,0,.94-.12,1.93-.28,2.87-.43,1.34-.2,2.63-.43,3.93-.75.87-.16,1.73-.35,2.6-.59.79-.16,1.61-.35,2.4-.59l1.97,9.08,1.81,2.44Z"/>
      <path class="cls-3" d="M369.25,425.93v56.22h-99.59c.83-2.75,1.26-5.58,1.26-8.45,0-6.33-2.08-12.74-6.41-18.12l-.12-.16v-82.53c17.61,10.46,35.39,20.37,52.96,29.33,4.4,2.24,8.77,4.4,13.13,6.53.39.2.79.39,1.18.59,1.81.87,3.58,1.69,5.39,2.56,3.89,1.85,7.78,3.62,11.64,5.35.43.24.9.43,1.34.59,1.93.86,3.85,1.69,5.74,2.52,2.4,1.02,4.76,2.04,7.12,2.99,2.12.9,4.25,1.77,6.37,2.6Z"/>
      <path class="cls-6" d="M366.08,572.49l-14.39,30.34c-18.74,16.48-42.74-23.93-42.74-23.93l21.26-48.42c15.19,6.42,30.68,11.29,46.33,14.62.23.07-10.7,27.36-10.46,27.39Z"/>
      <path class="cls-4" d="M389.69,682.14c-5.16,1.82-10.8,1.52-15.75-.82l-75.92-48.96c-4.76-4.31-6.49-11.05-4.39-17.13l4.75-13.88,10.44-22.04s23.97,40.43,42.73,23.95c-1.84,3.9-.25,8.49,3.64,10.44l41.48,20.37c10.12,4.95,14.35,17.11,9.53,27.27l-4.85,10.24c-2.34,4.95-6.55,8.74-11.65,10.57Z"/>
      <path class="cls-3" d="M247.76,362.83v62.24l-44.74-55.36-73.13,43.68-.39.24,20.8,24.57s-1.77-.63-2.44-.9h-.04c-.47-.2-.98-.35-1.49-.55-1.02-.35-2.08-.75-3.18-1.18-.55-.2-1.14-.39-1.73-.63-1.14-.43-2.36-.86-3.62-1.34-1.22-.43-2.52-.9-3.85-1.42-1.53-.55-3.11-1.14-4.72-1.73-.79-.28-1.61-.59-2.44-.9-4.17-1.53-8.57-3.15-13.17-4.84-.9-.31-1.81-.67-2.75-1.02-1.85-.67-3.77-1.38-5.66-2.08-1.93-.67-3.85-1.38-5.78-2.12-1.97-.71-3.89-1.42-5.86-2.16-4.95-1.81-9.91-3.62-14.86-5.47-2.01-.71-3.97-1.45-5.94-2.2-2.01-.71-3.93-1.42-5.9-2.16l-5.78-2.12c-.98-.35-1.93-.71-2.87-1.06-2.83-1.02-5.62-2.08-8.34-3.07-1.81-.67-3.58-1.34-5.35-1.97-1.73-.63-3.46-1.3-5.11-1.89-1.65-.63-3.3-1.22-4.88-1.81-16.55-6.09-27.95-10.3-27.95-10.3v-.12c-4.01-18.16-6.09-37.04-6.09-56.42,0-44.9,11.28-87.17,31.18-124.08.28.2.55.47.94.79,2.56,2.2,7.86,6.68,15.41,12.9,1.34,1.06,2.71,2.24,4.21,3.46,3.97,3.22,8.41,6.84,13.33,10.81,2.36,1.89,4.84,3.85,7.43,5.94,3.03,2.4,6.21,4.91,9.51,7.51,1.1.86,2.2,1.73,3.34,2.63,1.85,1.49,3.77,2.99,5.7,4.48,9.24,7.16,19.3,14.9,30.04,22.96,1.69,1.26,3.42,2.56,5.15,3.85,3.46,2.56,7,5.19,10.58,7.82,2.16,1.57,4.32,3.18,6.53,4.8,13.64,9.95,28.11,20.21,43.09,30.51,2.67,1.85,5.39,3.7,8.1,5.54,14.19,9.63,28.86,19.23,43.76,28.58,2.16,1.38,4.32,2.71,6.49,4.05.83.51,1.65,1.02,2.48,1.53Z"/>
      <path class="cls-8" d="M247.78,502.07v93.77l-4.4-.63-38.81-5.54-.75-.12-8.92-1.42,1.06-2.04,1.77-3.38v-.04c-95.38-24.22-169.85-100.85-191.12-197.41,0,0,11.4,4.21,27.95,10.3,1.57.59,3.22,1.18,4.88,1.81,1.65.59,3.38,1.26,5.11,1.89,1.77.63,3.54,1.3,5.35,1.97,2.71.98,5.5,2.04,8.34,3.07.94.35,1.89.71,2.87,1.06l5.78,2.12c1.97.75,3.89,1.45,5.9,2.16,1.97.75,3.93,1.49,5.94,2.2,4.95,1.85,9.91,3.66,14.86,5.47,1.97.75,3.89,1.45,5.86,2.16,1.93.75,3.85,1.45,5.78,2.12,1.89.71,3.81,1.42,5.66,2.08.94.35,1.85.71,2.75,1.02,4.6,1.69,9,3.3,13.17,4.84.83.31,1.65.63,2.44.9,1.61.59,3.18,1.18,4.72,1.73,1.34.51,2.63.98,3.85,1.42,1.26.47,2.48.9,3.62,1.34.59.24,1.18.43,1.73.63,1.1.43,2.16.83,3.18,1.18.51.2,1.02.35,1.49.55.63.24,2.48.9,2.48.9l36.45,43.05.75.9,29.02-19.54-12.7,9.32,15.33,19.62c6.96,8.92,18.2,12.7,28.62,10.54Z"/>
      <path class="cls-9" d="M210.43,652.15c.16.08.35.12.59.12-.24,0-.43-.04-.63-.08-.31-.08-.67-.12-.94-.24-.51-.16-1.06-.31-1.57-.55-.55-.2-1.1-.43-1.65-.71-.39-.2-.79-.43-1.22-.67-.43-.24-.86-.51-1.3-.83-.35-.24-.71-.47-1.06-.75-11.83-8.65-24.18-28.62-24.18-28.62l16.43-31.69,8.92,1.42.75.12,38.81,5.54-32.95,56.93Z"/>
      <path class="cls-9" d="M445.33,193.8l-3.77-5.03c1.3,1.45,2.59,3.15,3.77,5.03Z"/>
      <path class="cls-9" d="M180.14,184.8c-1.1-2.48-2.67-4.64-4.52-6.45l58.03,20.29s14.19-19.74,14.11-18.71c0,1.22,16.63,47.69,16.63,47.69l41.52-27.29,33.46-14.74,15.73,17.97,24.45-13.96s20.72-13.37,22.73-13.37,10.34,15.92,10.34,15.92c4.17-5.86,9-9.48,14.19-10.14h.04c.51-.04,1.02-.08,1.57-.08,4.68,0,9.16,2.44,13.13,6.84l3.77,5.03.04.04,28.86,6.13-6.02-15.37,12.03-1.73c27.99,41.72,44.31,91.88,44.31,145.87,0,14.9-1.26,29.45-3.66,43.68l-28.27-7.16-40.5,6.05-5.66,20.05h9.36l-1.34,22.1h15.37l-6.68,26.77,22.76-6.61,2.24,10.22c-.79.24-1.61.43-2.4.59-.87.24-1.73.43-2.6.59-1.3.31-2.59.55-3.93.75-.94.16-1.93.31-2.87.43-10.18,1.38-21.23,1.3-32.91,0-1.69-.2-3.38-.43-5.11-.67-1.69-.24-3.42-.51-5.15-.79-1.42-.24-2.87-.51-4.29-.75-2.08-.39-4.21-.83-6.33-1.3-1.49-.31-2.99-.67-4.48-1.02-9.04-2.12-18.4-4.84-27.95-8.06v-.04l-20.52-7.51-.39-.16c-2.12-.83-4.25-1.69-6.37-2.6-2.36-.94-4.72-1.97-7.12-2.99-1.89-.83-3.81-1.65-5.74-2.52-.43-.16-.9-.35-1.34-.59-3.85-1.73-7.75-3.5-11.64-5.35-1.81-.87-3.58-1.69-5.39-2.56-.39-.2-.79-.39-1.18-.59-4.36-2.12-8.73-4.29-13.13-6.53-17.57-8.96-35.35-18.87-52.96-29.33v-44.39c0-4.52,1.18-8.89,3.46-12.94,2.2-4.01,5.5-7.63,9.67-10.58,4.84-3.38,10.65-5.03,16.4-5.03,7.55,0,14.98,2.79,20.05,8.18.43.47.83.98,1.1,1.53.24.39.43.79.63,1.1,4.44,7.59,10.73,14.35,18.24,20.01,1.53,1.18,3.97.16,3.74-1.57l-.9-5.9c-.94-6.37-2.16-13.41-4.52-19.62-.98-2.71-2.2-5.27-3.7-7.55-.87-1.3-2.04-2.4-3.3-3.38l-5.07-3.89c-.12-.08-.2-.16-.31-.24-3.42-2.63-7.39-4.76-11.83-5.9-3.89-.98-7.94-1.49-11.95-1.49-9.36,0-18.64,2.71-26.11,7.98-1.45,1.06-2.87,2.16-4.21,3.34v.04c-11.48,9.79-18.01,23-18.01,36.84v33.38c-.83-.51-1.65-1.02-2.48-1.53-2.16-1.34-4.32-2.67-6.49-4.05-14.9-9.36-29.57-18.95-43.76-28.58-2.71-1.85-5.43-3.7-8.1-5.54-14.98-10.3-29.45-20.56-43.09-30.51-2.2-1.61-4.36-3.22-6.53-4.8-3.58-2.63-7.12-5.27-10.58-7.82-1.73-1.3-3.46-2.6-5.15-3.85-10.73-8.06-20.8-15.81-30.04-22.96-1.93-1.53-3.85-3.03-5.7-4.48-1.14-.9-2.24-1.77-3.34-2.63-3.3-2.6-6.49-5.11-9.51-7.51-2.6-2.08-5.07-4.05-7.43-5.94-4.91-3.97-9.36-7.59-13.33-10.81-1.49-1.22-2.87-2.4-4.21-3.46-7.55-6.21-12.86-10.69-15.41-12.9-.39-.31-.67-.59-.94-.79.08-.08.12-.16.16-.24.12-.24.28-.47.39-.71l.2.2c.08-.08.12-.16.16-.24l-.28-.12c1.34-2.48,2.71-4.88,4.13-7.27l24.89-2.44,13.72,27.21,44.51-12.7,7.63,9.71,3.42-31.81,13.72-17.73,4.56,7.71c-.9.63-1.77,1.34-2.56,2.12-2.95,2.87-5.03,6.57-5.94,10.73l-6.33,30.16c-1.69,7.98-.35,16.32,3.66,23.39l25.12,44.31"/>
      <polygon class="cls-9" points="193.62 209.96 162.84 286.94 137.72 242.64 160.64 282.82 189.81 206.27 180.14 184.8 193.62 209.96"/>
      <path class="cls-9" d="M32.58,203.67c-.04.08-.08.16-.16.24l-.2-.2c.04-.08.04-.12.08-.16l.28.12Z"/>
      <path class="cls-9" d="M189.81,206.27l-29.17,76.55-22.92-40.18c-4.01-7.08-5.35-15.41-3.66-23.39l6.33-30.16c.9-4.17,2.99-7.86,5.94-10.73.79-.79,1.65-1.49,2.56-2.12,2.44-1.73,5.27-2.91,8.34-3.5,1.45-.28,2.91-.35,4.32-.31h.08c.67,0,1.3.04,1.97.16.63.08,1.26.2,1.89.31,1.81.39,3.58,1.06,5.23,1.93.51.28,1.06.55,1.53.9,1.18.75,2.32,1.65,3.34,2.63h.04c1.85,1.81,3.42,3.97,4.52,6.45l9.67,21.47Z"/>
      <path class="cls-9" d="M337.68,329.21c.24,1.73-2.2,2.75-3.74,1.57-7.51-5.66-13.8-12.42-18.24-20.01-.2-.31-.39-.71-.63-1.1-.28-.55-.67-1.06-1.1-1.53-5.07-5.39-12.5-8.18-20.05-8.18-5.74,0-11.56,1.65-16.4,5.03-4.17,2.95-7.47,6.57-9.67,10.58-2.28,4.05-3.46,8.41-3.46,12.94v-25.95c0-3.42.47-6.76,1.38-9.95v-.04c1.34-1.18,2.75-2.28,4.21-3.34,7.47-5.27,16.75-7.98,26.11-7.98,4.01,0,8.06.51,11.95,1.49,4.44,1.14,8.41,3.26,11.83,5.9,3.5,5.5,7.67,10.54,12.38,15.06,2.36,6.21,3.58,13.25,4.52,19.62l.9,5.9Z"/>
      <path class="cls-9" d="M390.17,433.6v.04c-6.72-2.28-13.56-4.8-20.52-7.55l20.52,7.51Z"/>
      <path class="cls-13" d="M248.37,634.65c-.2.08-.39.12-.59.16v-.04c.2,0,.39-.04.59-.12Z"/>
      <path class="cls-13" d="M251.08,730.11c-6.29,1.1-13.37-.16-19.78-3.46l-46.9-24.3-2.91-1.53-18.48-9.55c-5.86-3.03-9.04-9.55-7.82-16.12l1.97-10.26c.79-4.13,2.16-8.1,4.09-11.83l15.88-30.59s13.49,17.85,25.52,25.99c.35.28.71.51,1.06.75.43.31.86.59,1.3.83.43.24.83.47,1.22.67.55.28,1.1.51,1.61.75.55.24,1.06.43,1.57.59.31.12.63.16.94.24l-.87,1.69c-1.14,2.24-.39,4.95,1.77,6.25l5.47,3.34,31.06,12.42v54.14h3.3Z"/>
      <path class="cls-13" d="M269.99,710.77l-5.23,10.07c-.12.2-.2.39-.35.59v-34.72c6.96,7.19,9.44,16.63,5.58,24.06Z"/>
      <path class="cls-9" d="M32.58,203.67c-.04.08-.08.16-.16.24l-.2-.2c-.31-.28-.51-.43-.63-.51l.71.35.28.12Z"/>
      <path class="cls-1" d="M248.37,634.65c-.2.08-.39.12-.59.16v-.04c.2,0,.39-.04.59-.12Z"/>
      <path class="cls-1" d="M264.41,491.97v238.14h-16.63v-95.3c.2-.04.39-.08.59-.16-.2.08-.39.12-.59.12v-130.73c3.7-.9,7.27-2.67,10.58-5.35,2.32-1.93,4.36-4.17,6.05-6.72Z"/>
      <path class="cls-1" d="M248.37,634.65c-.2.08-.39.12-.59.16v-.04c.2,0,.39-.04.59-.12Z"/>
      <path class="cls-1" d="M337.68,329.21c.24,1.73-2.2,2.75-3.74,1.57-7.51-5.66-13.8-12.42-18.24-20.01-.2-.31-.39-.71-.63-1.1-.28-.55-.67-1.06-1.1-1.53-5.07-5.39-12.5-8.18-20.05-8.18-5.74,0-11.56,1.65-16.4,5.03-4.17,2.95-7.47,6.57-9.67,10.58-2.28,4.05-3.46,8.41-3.46,12.94v126.91l-11.09-11.4-3.07-3.18-2.48,1.49v-1.42l3.3-2.04,3.22-1.97-1.49-1.53-5.03-5.15v-100.77c0-13.84,6.53-27.05,18.01-36.84v-.04c1.34-1.18,2.75-2.28,4.21-3.34,7.47-5.27,16.75-7.98,26.11-7.98,4.01,0,8.06.51,11.95,1.49,4.44,1.14,8.41,3.26,11.83,5.9.12.08.2.16.31.24l5.07,3.89c1.26.98,2.44,2.08,3.3,3.38,1.49,2.28,2.71,4.84,3.7,7.55,2.36,6.21,3.58,13.25,4.52,19.62l.9,5.9Z"/>
      <path class="cls-9" d="M270.94,473.7c0,2.87-.43,5.7-1.26,8.45-1.06,3.54-2.83,6.88-5.27,9.83-1.69,2.12-3.74,4.01-6.05,5.62-3.3,2.24-6.88,3.74-10.58,4.48-10.42,2.16-21.66-1.61-28.62-10.54l-15.33-19.62,12.7-9.32,30.51-22.41.75-.55,2.48-1.81,3.07,3.81,11.09,13.76.12.16c4.32,5.39,6.41,11.8,6.41,18.12Z"/>
      <path class="cls-11" d="M445.33,193.8l-3.77-5.03c1.3,1.45,2.59,3.15,3.77,5.03Z"/>
      <path class="cls-7" d="M557.56,163.17H117.09c-11.8,0-23.59-1.1-35.23-3.3l-16.87-3.18-11.44-2.16-31.34-5.9,94.16-45.14c6.64-3.18,11.28-9.63,12.35-17.1l9.83-70.42c1.42-9.95,10.38-16.79,19.93-15.25l128.37,20.48c2.59.43,5.19.75,7.82.94,5.03.39,10.14.43,15.18.08l100.06-7.04c11.13-.79,20.84,7.78,21.82,19.27l7.23,82.84c.47,5.35,4.01,9.91,9,11.44l109.58,34.44Z"/>
      <path class="cls-2" d="M294.84,22.12s-52.72,19.51-66.7,10.07"/>
      <path class="cls-9" d="M165.21,290.59l-27.49-47.95c-4.01-7.08-5.35-15.41-3.66-23.39l6.33-30.16c.9-4.17,2.99-7.86,5.94-10.73.79-.79,1.65-1.49,2.56-2.12,2.44-1.73,5.27-2.91,8.34-3.5,1.45-.28,2.91-.35,4.32-.31h.08c.67,0,1.3.04,1.97.16.63.08,1.26.2,1.89.31,1.81.39,3.58,1.06,5.23,1.93.51.28,1.06.55,1.53.9,1.18.75,2.32,1.65,3.34,2.63h.04c1.85,1.81,3.42,3.97,4.52,6.45l15.95,29.75"/>
      <path class="cls-9" d="M154.95,193.84l7.35,2.51c3.37,1.15,5.64,4.33,5.64,7.89v57.96"/>
      <path class="cls-9" d="M167.93,233.48l-11.05-1.27c-2.8-.32-4.86-2.79-4.67-5.61l.65-9.54c.21-3.16,2.84-5.62,6.01-5.62h9.07v22.04Z"/>
      <polygon class="cls-8" points="6.49 384.21 7.36 384.41 7.36 384.53 6.49 384.21"/>
      <path class="cls-8" d="M468.33,490.88c-35.9,45.57-86.61,78.91-144.88,92.71-.04.04-.08.04-.12.04-.24.08-.51.16-.75.2-15.53,3.7-31.57,5.94-48.01,6.64h-.12c-.24,0-.51.04-.75.04-3.07.16-6.21.24-9.32.24v-98.76c2.44-2.95,4.21-6.29,5.27-9.83h99.59v-56.22l.39.16c6.96,2.75,13.8,5.27,20.52,7.55v48.52l78.16,8.73Z"/>
      <path class="cls-8" d="M390.17,433.6v.04c-6.72-2.28-13.56-4.8-20.52-7.55l20.52,7.51Z"/>
      <polyline class="cls-3" points="127.19 412.66 185.48 482.15 256.09 433.07 203.82 365.61"/>
      <polygon class="cls-10" points="543.82 447.24 518.62 457.3 516.38 487.74 491.96 455.38 490.15 452.94 488.19 443.86 485.94 433.64 463.18 440.24 469.86 413.47 454.49 413.47 455.83 391.37 446.47 391.37 452.13 371.32 492.63 365.26 520.9 372.42 528.45 374.31 530.1 384.53 524.55 401.75 531.79 419.84 543.82 447.24"/>
      <path class="cls-5" d="M480.24,182.87l-12.03,1.73,6.02,15.37-28.86-6.13-.04-.04c-1.18-1.89-2.48-3.58-3.77-5.03-3.97-4.4-8.45-6.84-13.13-6.84-.55,0-1.06.04-1.57.08h-.04c-5.19.67-10.03,4.29-14.19,10.14,0,0-8.34-15.92-10.34-15.92s-22.73,13.37-22.73,13.37l-24.45,13.96-15.73-17.97-33.46,14.74-41.52,27.29s-16.63-46.47-16.63-47.69c.08-1.02-14.11,18.71-14.11,18.71l-58.03-20.29h-.04c-1.02-.98-2.16-1.89-3.34-2.63-.47-.35-1.02-.63-1.53-.9-1.65-.87-3.42-1.53-5.23-1.93-.63-.16-1.26-.28-1.89-.31-.67-.12-1.3-.16-1.97-.16h-.08c-1.42-.08-2.87.04-4.32.31-3.07.59-5.9,1.77-8.34,3.5l-4.56-7.71-13.72,17.73-3.42,31.81-7.63-9.71-44.51,12.7-13.72-27.21-24.89,2.44-20.6,2.04,23.39-24.1-10.03-11.05,24.34-8.65,11.44,2.16,16.87,3.18c11.64,2.2,23.43,3.3,35.23,3.3h361.83l8.02,18.75-6.68.94Z"/>
      <circle class="cls-12" cx="404.06" cy="509.12" r="6.44"/>
      <ellipse cx="495.16" cy="390.97" rx="9.87" ry="12.05"/>
      <path class="cls-9" d="M398.6,282.82s35.57-48.95,69.73,1.75"/>
    </g>
  </g>
</svg>