<?xml version="1.0" encoding="UTF-8"?>
<svg id="Calque_2" xmlns="http://www.w3.org/2000/svg" viewBox="0 0 1900.7 1551">
  <defs>
    <style>
      .cls-1 {
        fill: #93855d;
      }

      .cls-1, .cls-2, .cls-3, .cls-4, .cls-5, .cls-6, .cls-7, .cls-8, .cls-9, .cls-10, .cls-11, .cls-12, .cls-13, .cls-14 {
        stroke-miterlimit: 10;
      }

      .cls-1, .cls-2, .cls-3, .cls-4, .cls-5, .cls-6, .cls-7, .cls-8, .cls-9, .cls-10, .cls-12, .cls-13, .cls-14 {
        stroke: #000;
      }

      .cls-2 {
        fill: none;
      }

      .cls-3 {
        fill: gray;
      }

      .cls-4 {
        fill: #333;
      }

      .cls-5, .cls-11 {
        fill: #fff;
      }

      .cls-6 {
        fill: #a49a79;
      }

      .cls-7 {
        fill: #2d2828;
      }

      .cls-9 {
        fill: #7498d1;
      }

      .cls-10 {
        fill: #e0d0a3;
      }

      .cls-11 {
        stroke: #1d1d1b;
      }

      .cls-12 {
        fill: #f2f2f2;
      }

      .cls-13 {
        fill: #607ba6;
      }

      .cls-14 {
        fill: #4d4d4d;
      }
    </style>
  </defs>
  <g id="personnages">
    <g id="berger">
      <g id="berger_évolué_saute">
        <g>
          <g>
            <path class="cls-3" d="M1735.12,1114.1v-41.66c8.2,2.77,16.24,5.1,24,6.92,1.28.3,2.57.61,3.85.88,1.82.41,3.65.78,5.44,1.11,1.22.2,2.46.44,3.68.64,1.49.24,2.97.47,4.42.68,1.49.2,2.94.41,4.39.57,10.03,1.11,19.51,1.18,28.26,0,.81-.1,1.65-.24,2.46-.37,1.15-.17,2.26-.37,3.38-.64.74-.13,1.33-.26,2.07-.46.68-.13,1.54-.35,2.22-.55l1.69,7.8-2.88,9.65c-5.66,15.44-5.03,17.09-10.45,28.48"/>
            <path class="cls-4" d="M1789.09,1477.5v28.97c0,5.51-1.67,10.89-4.79,15.44l-3.84,5.6c-4.27,6.21-11.32,9.92-18.85,9.92h-92.93c-8.74,0-16.51-5.55-19.34-13.82l-1.08-3.16c-.81-2.35-1.18-4.83-1.09-7.31l2.4-71.64c0,.09,23.69,27.49,42.33,6.46v12.24l76.37-2.77c2.89-.1,5.77.42,8.45,1.53h0c7.49,3.12,12.37,10.43,12.37,18.55Z"/>
            <path class="cls-3" d="M1717.16,1065.82v48.28h-85.52c.71-2.36,1.08-4.79,1.08-7.26,0-5.44-1.79-10.94-5.5-15.56l-.1-.13v-70.87c15.13,8.98,30.39,17.49,45.48,25.19,3.78,1.92,7.53,3.78,11.28,5.6.34.17.68.34,1.01.51,1.55.74,3.07,1.45,4.63,2.19,3.34,1.59,6.69,3.11,9.99,4.59.37.2.78.37,1.15.51,1.65.74,3.31,1.45,4.93,2.16,2.06.88,4.09,1.76,6.11,2.57,1.82.78,3.65,1.52,5.47,2.23Z"/>
            <path class="cls-3" d="M1612.83,1011.63v53.45l-38.42-47.54-62.8,37.51-.34.2,17.86,21.1-123.4-45.44v-.1c-3.44-15.6-5.23-31.8-5.23-48.45,0-38.56,9.69-74.85,26.77-106.55.24.17.47.41.81.68,2.19,1.89,6.75,5.74,13.23,11.07,1.15.91,2.33,1.92,3.61,2.97,3.41,2.77,7.23,5.87,11.45,9.28,2.03,1.62,4.15,3.31,6.38,5.1,2.6,2.06,5.33,4.22,8.17,6.45.95.74,1.89,1.49,2.87,2.26,1.59,1.28,3.24,2.57,4.9,3.85,7.93,6.14,16.58,12.8,25.79,19.72,1.45,1.08,2.94,2.19,4.42,3.31,2.97,2.19,6.01,4.46,9.08,6.72,1.86,1.35,3.71,2.73,5.6,4.12,11.72,8.54,24.14,17.35,37,26.2,2.3,1.59,4.63,3.17,6.95,4.76,12.19,8.27,24.78,16.51,37.58,24.54,1.86,1.18,3.71,2.33,5.57,3.48.71.44,1.42.88,2.13,1.32Z"/>
            <path class="cls-9" d="M1612.83,1131.23v193.64l-30.7-4.39-6.4-.92-.63-.09v-4.62c-84.41-19.33-150.73-199.27-169.37-283.93,0,0,5.69,2.1,14.73,5.43.95.37,1.92.72,2.96,1.09.52.2,1.03.4,1.55.57,1.06.4,2.15.8,3.27,1.21,4.48,1.64,9.42,3.48,14.68,5.4.78.29,1.55.57,2.35.86.78.29,1.58.6,2.38.92,1.61.57,3.22,1.18,4.88,1.78,1.64.6,3.3,1.21,4.94,1.81,1.69.66,3.36,1.26,5.08,1.87,1.69.63,3.36,1.29,5.08,1.9,4.25,1.58,8.5,3.13,12.78,4.68,1.67.66,3.33,1.26,5.03,1.87,1.64.63,3.3,1.23,4.97,1.81,1.61.63,3.27,1.23,4.85,1.81.8.29,1.58.6,2.36.86,1.98.75,3.91,1.44,5.8,2.13.95.34,1.9.69,2.81,1.03s1.81.69,2.7,1.01c.72.26,1.41.55,2.1.78,1.38.52,2.73,1.01,4.05,1.49.57.2,1.12.4,1.69.6.55.23,1.09.4,1.64.6,1.06.4,2.1.78,3.1,1.15,1.49.55,2.9,1.06,4.22,1.55.32.11.69.26,1.01.37.09,0,.14.03.2.06l.06.03c.55.2,2.13.78,2.13.78l31.31,36.99.63.78,24.9-16.8-10.89,8.01,13.15,16.86c5.97,7.64,15.62,10.89,24.59,9.05Z"/>
            <path class="cls-10" d="M1782.49,866.49l-3.24-4.32c1.11,1.25,2.23,2.7,3.24,4.32Z"/>
            <path class="cls-10" d="M1850.52,982.36c0,12.8-1.08,25.29-3.14,37.51l-24.27-6.14-34.77,5.2-4.86,17.22h8.04l-1.15,18.97h13.2l-5.74,22.99,19.55-5.67,1.92,8.78c-.68.2-1.38.37-2.06.51-.74.2-1.49.37-2.23.51-1.11.27-2.23.47-3.38.64-.81.13-1.65.27-2.46.37-8.74,1.18-18.23,1.11-28.26,0-1.45-.17-2.9-.37-4.39-.57-1.45-.2-2.94-.44-4.42-.68-1.22-.2-2.46-.44-3.68-.64-1.79-.34-3.61-.71-5.44-1.11-1.28-.27-2.57-.57-3.85-.88-7.77-1.82-15.8-4.15-24-6.92-5.77-1.96-11.65-4.12-17.62-6.48l-.34-.13c-1.82-.71-3.65-1.45-5.47-2.23-2.03-.81-4.05-1.69-6.11-2.57-1.62-.71-3.27-1.42-4.93-2.16-.37-.14-.78-.3-1.15-.51-3.31-1.49-6.65-3-9.99-4.59-1.55-.74-3.07-1.45-4.63-2.19-.34-.17-.68-.34-1.01-.51-3.75-1.82-7.5-3.68-11.28-5.6-15.09-7.7-30.35-16.21-45.48-25.19v-60.4c0-4.69,1.01-9.22,2.97-13.37,1.89-4.15,4.73-7.9,8.31-10.94,4.15-3.51,9.15-5.23,14.08-5.23,6.48,0,12.86,2.9,17.22,8.47.37.47.71,1.01.95,1.59.2.41.37.81.54,1.15,3.82,7.83,9.22,14.82,15.67,20.7,1.32,1.22,3.41.13,3.21-1.65l-.78-6.08c-1.18-9.49-2.8-20.39-7.06-28.12-.74-1.32-1.76-2.46-2.84-3.48l-4.36-4.05c-3-2.84-6.52-5.1-10.43-6.31-3.34-1.05-6.82-1.55-10.26-1.55-8.04,0-16,2.8-22.42,8.27-12.09,10.43-19.08,25.59-19.08,41.56v50.81c-.71-.44-1.42-.88-2.13-1.32-1.86-1.15-3.71-2.3-5.57-3.48-12.8-8.04-25.39-16.27-37.58-24.54-2.33-1.59-4.66-3.17-6.95-4.76-12.86-8.85-25.29-17.66-37-26.2-1.89-1.38-3.75-2.77-5.6-4.12-3.07-2.26-6.11-4.52-9.08-6.72-1.49-1.11-2.97-2.23-4.42-3.31-9.22-6.92-17.86-13.57-25.79-19.72-1.65-1.32-3.31-2.6-4.9-3.85-.98-.78-1.92-1.52-2.87-2.26-2.84-2.23-5.57-4.39-8.17-6.45-2.23-1.79-4.36-3.48-6.38-5.1-4.22-3.41-8.04-6.52-11.45-9.28-1.28-1.05-2.46-2.06-3.61-2.97-6.48-5.33-11.04-9.18-13.23-11.07-.34-.27-.57-.51-.81-.68.07-.07.1-.13.13-.2.1-.2.24-.41.34-.61.03-.07.03-.1.07-.13,1.15-2.13,2.33-4.19,3.54-6.25l21.37-2.09,11.78,23.36,38.22-10.91,6.55,8.34,2.94-27.31,11.78-15.23,3.92,6.62c2.09-1.49,4.52-2.5,7.16-3,1.25-.24,2.5-.3,3.71-.27h.07c.57,0,1.11.03,1.69.14.54.07,1.08.17,1.62.27,1.55.34,3.07.91,4.49,1.65.44.24.91.47,1.32.78,1.01.64,1.99,1.42,2.87,2.26h.03l49.83,17.42s12.19-16.95,12.12-16.07c0,1.05,14.28,40.95,14.28,40.95l35.65-23.43,28.73-12.66,13.5,15.43,21-11.99s17.79-11.48,19.51-11.48,8.88,13.67,8.88,13.67c-7.73,10.84-12.9,30.66-12.9,53.28,0,34.27,11.85,62.05,26.47,62.05,4.86,0,9.42-3.07,13.34-8.44-.95.88-1.89,1.32-2.9,1.32-7.02,0-12.73-22.32-12.73-49.83s5.71-49.87,12.73-49.87c.24,0,.47.03.68.07.2.03.44.1.61.2.2.07.41.17.61.27.24.14.44.3.68.47.2.17.44.37.64.61.27.24.51.54.74.84.27.34.51.68.74,1.08.27.37.51.78.71,1.22.24.41.44.81.64,1.25.95,1.99,1.82,4.42,2.57,7.23.2.68.37,1.38.54,2.09.51,2.06.98,4.29,1.38,6.65.03.13.07.3.07.44.24,1.18.41,2.43.57,3.68.07.47.13.95.2,1.45.51,3.78.84,7.87,1.08,12.12,0,.17.03.34.03.51.07,1.45.13,2.9.17,4.39.03,1.76.07,3.51.07,5.3,0,17.46-2.3,32.78-5.77,41.7,5.57-11.38,9.08-28.12,9.08-46.79,0-21.68-4.73-40.75-11.92-51.82l24.78,5.27-5.17-13.2,10.33-1.49c24.04,35.82,38.05,78.9,38.05,125.26Z"/>
            <path class="cls-14" d="M1613.35,1245.08c-.17.06-.34.09-.52.11v-.03c.17,0,.34-.03.52-.09Z"/>
            <path class="cls-10" d="M1428.05,874.96c-.03.07-.07.14-.13.2-.37-.34-.61-.54-.71-.61l.84.41Z"/>
            <path class="cls-1" d="M1613.35,1245.08c-.17.06-.34.09-.52.11v-.03c.17,0,.34-.03.52-.09Z"/>
            <path class="cls-1" d="M1613.35,1245.08c-.17.06-.34.09-.52.11v-.03c.17,0,.34-.03.52-.09Z"/>
            <path class="cls-1" d="M1690.05,960.58c.2,1.79-1.89,2.87-3.21,1.65-6.45-5.87-11.85-12.86-15.67-20.7-.17-.34-.34-.74-.54-1.15-.24-.57-.57-1.11-.95-1.59-4.36-5.57-10.74-8.47-17.22-8.47-4.93,0-9.93,1.72-14.08,5.23-3.58,3.04-6.41,6.79-8.31,10.94-1.96,4.15-2.97,8.68-2.97,13.37v131.27l-9.52-11.82-2.63-3.28-2.13,1.55v-1.49l5.6-4.12-5.6-6.92v-104.26c0-15.97,6.99-31.13,19.08-41.56,6.41-5.47,14.38-8.27,22.42-8.27,3.44,0,6.92.51,10.26,1.55,3.92,1.22,7.43,3.48,10.43,6.31l4.36,4.05c1.08,1.01,2.09,2.16,2.84,3.48,4.25,7.73,5.87,18.64,7.06,28.12l.78,6.08Z"/>
            <path class="cls-10" d="M1632.71,1106.84c0,2.47-.37,4.88-1.06,7.27-.92,3.04-2.44,5.89-4.54,8.44-1.44,1.81-3.19,3.42-5.2,4.83-2.84,1.92-5.92,3.19-9.08,3.85-8.96,1.84-18.61-1.41-24.59-9.05l-13.15-16.86,10.89-8.01,26.22-19.24.63-.46,2.13-1.55,2.64,3.27,9.51,11.8.11.14c3.7,4.62,5.49,10.14,5.49,15.57Z"/>
            <path class="cls-12" d="M1785.36,965.14c3.48-8.91,5.77-24.24,5.77-41.7,0-27.55-5.71-49.87-12.73-49.87s-12.73,22.32-12.73,49.87,5.71,49.83,12.73,49.83c1.01,0,1.96-.44,2.9-1.32-3.92,5.37-8.47,8.44-13.34,8.44-14.62,0-26.47-27.79-26.47-62.05,0-22.62,5.17-42.44,12.9-53.28,3.58-5.03,7.73-8.14,12.19-8.71h.03c.44-.03.88-.07,1.35-.07,4.02,0,7.87,2.09,11.28,5.87l3.24,4.32.03.03c7.19,11.07,11.92,30.15,11.92,51.82,0,18.67-3.51,35.42-9.08,46.79Z"/>
            <path class="cls-12" d="M1782.49,866.49l-3.24-4.32c1.11,1.25,2.23,2.7,3.24,4.32Z"/>
            <path class="cls-12" d="M1791.13,923.45c0,17.46-2.3,32.78-5.77,41.7,0,.03,0,.07-.03.07-1.25,2.53-2.57,4.83-4.02,6.75-.95.88-1.89,1.32-2.9,1.32-7.02,0-12.73-22.32-12.73-49.83s5.71-49.87,12.73-49.87,12.73,22.32,12.73,49.87Z"/>
            <path class="cls-8" d="M1791.13,923.45c0,17.46-2.3,32.78-5.77,41.7,0,.03,0,.07-.03.07-1.22,3.11-2.57,5.44-4.02,6.75-.95.88-1.89,1.32-2.9,1.32-7.02,0-12.73-22.32-12.73-49.83s5.71-49.87,12.73-49.87,12.73,22.32,12.73,49.87Z"/>
            <circle class="cls-5" cx="1780.69" cy="905.62" r="12.73"/>
            <path class="cls-6" d="M1691.9,1441.49v6.46c-18.64,21.02-42.33-6.38-42.33-6.46l4.51-134.1h24.15l8.97,65.82,4.71,68.28Z"/>
            <path class="cls-7" d="M1878.84,840.19h-378.24c-10.13,0-20.26-.95-30.25-2.84l-14.48-2.73-9.82-1.86-26.91-5.06,80.86-38.76c5.71-2.73,9.69-8.27,10.6-14.69l8.44-60.47c1.22-8.54,8.91-14.42,17.12-13.1l110.23,17.59c2.23.37,4.46.64,6.72.81,4.32.34,8.71.37,13.03.07l85.92-6.04c9.55-.68,17.89,6.69,18.74,16.54l6.21,71.14c.41,4.59,3.44,8.51,7.73,9.82l94.09,29.58Z"/>
            <path class="cls-2" d="M1653.24,719.06s-45.27,16.75-57.28,8.65"/>
            <path class="cls-10" d="M1538.01,942.93l-19.68-34.5c-3.44-6.08-4.59-13.23-3.14-20.09l5.44-25.9c.78-3.58,2.57-6.75,5.1-9.22.68-.68,1.42-1.28,2.19-1.82,2.09-1.49,4.52-2.5,7.16-3,1.25-.24,2.5-.3,3.71-.27h.07c.57,0,1.11.03,1.69.14.54.07,1.08.17,1.62.27,1.55.34,3.07.91,4.49,1.65.44.24.91.47,1.32.78,1.01.64,1.99,1.42,2.87,2.26h.03c1.59,1.55,2.94,3.41,3.88,5.54l8.31,18.43"/>
            <path class="cls-10" d="M1533.11,866.52l6.31,2.16c2.9.99,4.84,3.71,4.84,6.78v49.77"/>
            <path class="cls-10" d="M1544.27,900.57l-9.49-1.09c-2.41-.28-4.17-2.4-4.01-4.82l.55-8.19c.18-2.72,2.44-4.83,5.16-4.83h7.78v18.92Z"/>
            <polygon class="cls-9" points="1405.63 1030 1406.38 1030.17 1406.38 1030.27 1405.63 1030"/>
            <path class="cls-9" d="M1809.14,1123.9v.06c-18.01,67.41-81.34,178.56-131.43,190.39-.2.09-.43.14-.63.17-13.38,3.19-27.17,5.11-41.33,5.72-.2,0-.43.03-.63.03-2.64.14-5.34.2-8.01.2v-197.92c2.1-2.56,3.62-5.4,4.54-8.44h85.5v-48.28l.34.11c5.97,2.38,11.86,4.54,17.63,6.49v41.67l74.01,9.79Z"/>
            <path class="cls-9" d="M1735.12,1072.4v.03c-5.77-1.96-11.65-4.12-17.62-6.48l17.62,6.45Z"/>
            <polyline class="cls-3" points="1509.28 1054.43 1559.33 1114.1 1619.97 1071.96 1575.09 1014.03"/>
            <path class="cls-2" d="M1845.42,1032.46c-.2.2-.44.44-.64.61"/>
            <path class="cls-12" d="M1812.47,857.1l-10.33,1.49,5.17,13.2-24.78-5.27-.03-.03c-1.01-1.62-2.13-3.07-3.24-4.32-3.41-3.78-7.26-5.87-11.28-5.87-.47,0-.91.03-1.35.07h-.03c-4.46.57-8.61,3.68-12.19,8.71,0,0-7.16-13.67-8.88-13.67s-19.51,11.48-19.51,11.48l-21,11.99-13.5-15.43-28.73,12.66-35.65,23.43s-14.28-39.91-14.28-40.95c.07-.88-12.12,16.07-12.12,16.07l-49.83-17.42h-.03c-.88-.84-1.86-1.62-2.87-2.26-.41-.3-.88-.54-1.32-.78-1.42-.74-2.94-1.32-4.49-1.65-.54-.14-1.08-.24-1.62-.27-.57-.1-1.11-.14-1.69-.14h-.07c-1.22-.07-2.46.03-3.71.27-2.63.51-5.06,1.52-7.16,3l-3.92-6.62-11.78,15.23-2.94,27.31-6.55-8.34-38.22,10.91-11.78-23.36-21.37,2.09-17.69,1.76,20.09-20.7-8.61-9.49,20.9-7.43,9.82,1.86,14.48,2.73c9.99,1.89,20.12,2.84,30.25,2.84h310.71l6.89,16.1-5.74.81Z"/>
            <circle class="cls-13" cx="1747.03" cy="1137.26" r="5.53"/>
            <path class="cls-11" d="M1823.1,1014.03l-34.77,5.2-4.86,17.22h8.04l-1.15,18.97h13.2l-5.74,22.99,19.55-5.67,3.61,16.58-17.69,38.13,28.2,29.33v39.96l-30.07,32.77,23.85,29.56,10.25,22.37v17.46l-6.23,3.8,11.73,26.4-8.8,12.16,1.47,16.5,18.33,33.37,8.8-29.4,37.03-4.4,1.83-32.47-2.93-25.96s2.57-27.3,2.93-29.13-23.1-38.5-23.1-38.5l2.2-20.53-4.4-28.6,25.67-32.8s-21.27-23.66-22.73-27.33,2.2-22.37,2.2-22.37c0,0-15.03-15.78-11.73-20.9s-7.7-26.4-7.7-26.4l1.1-28.3-38.08-10.02Z"/>
            <path class="cls-10" d="M1619.95,1454.57v6.46c-18.64,21.02-42.33-6.38-42.33-6.46l4.51-134.1,30.7,4.39v129.7h7.12Z"/>
            <path class="cls-14" d="M1717.15,1490.57v28.97c0,5.51-1.67,10.89-4.79,15.44l-3.84,5.6c-4.27,6.21-11.32,9.92-18.85,9.92h-92.93c-8.74,0-16.51-5.55-19.34-13.82l-1.08-3.16c-.81-2.35-1.18-4.83-1.09-7.31l2.4-71.64c0,.09,23.69,27.49,42.33,6.46v12.24l76.37-2.77c2.89-.1,5.77.42,8.45,1.53h0c7.49,3.12,12.37,10.43,12.37,18.55Z"/>
            <path class="cls-2" d="M1796.53,1020.34s25.69,34.37,48.25,12.76"/>
            <path class="cls-1" d="M1627.11,1122.55v427.95h-14.27v-416.77c3.16-.85,6.23-2.48,9.08-4.96,2.01-1.81,3.76-3.89,5.2-6.22Z"/>
          </g>
          <g>
            <path class="cls-4" d="M454.44,1422.75v28.97c0,5.51-1.67,10.89-4.79,15.44l-3.84,5.6c-4.27,6.21-11.32,9.92-18.85,9.92h-92.93c-8.74,0-16.51-5.55-19.34-13.82l-1.08-3.16c-.81-2.35-1.18-4.83-1.09-7.31l2.4-71.64c0,.09,23.69,27.49,42.33,6.46v12.24l76.37-2.77c2.89-.1,5.77.42,8.45,1.53h0c7.49,3.12,12.37,10.43,12.37,18.55Z"/>
            <path class="cls-3" d="M335.12,1114.1v-41.66c8.2,2.77,16.24,5.1,24,6.92,1.28.3,2.57.61,3.85.88,1.82.41,3.65.78,5.44,1.11,1.22.2,2.46.44,3.68.64,1.49.24,2.97.47,4.42.68,1.49.2,2.94.41,4.39.57,10.03,1.11,19.51,1.18,28.26,0,.81-.1,1.65-.24,2.46-.37,1.15-.17,2.26-.37,3.38-.64.74-.13,1.33-.26,2.07-.46.68-.13,1.54-.35,2.22-.55l1.69,7.8-2.88,9.65c-5.66,15.44-5.03,17.09-10.45,28.48"/>
            <path class="cls-3" d="M317.16,1065.82v48.28h-85.52c.71-2.36,1.08-4.79,1.08-7.26,0-5.44-1.79-10.94-5.5-15.56l-.1-.13v-70.87c15.13,8.98,30.39,17.49,45.48,25.19,3.78,1.92,7.53,3.78,11.28,5.6.34.17.68.34,1.01.51,1.55.74,3.07,1.45,4.63,2.19,3.34,1.59,6.69,3.11,9.99,4.59.37.2.78.37,1.15.51,1.65.74,3.31,1.45,4.93,2.16,2.06.88,4.09,1.76,6.11,2.57,1.82.78,3.65,1.52,5.47,2.23Z"/>
            <path class="cls-3" d="M212.83,1011.64v53.45l-38.42-47.54-62.8,37.51-.34.2,17.86,21.1-123.4-45.44v-.1c-3.44-15.6-5.23-31.8-5.23-48.45,0-38.56,9.69-74.85,26.77-106.55.24.17.47.41.81.68,2.19,1.89,6.75,5.74,13.23,11.07,1.15.91,2.33,1.92,3.61,2.97,3.41,2.77,7.23,5.87,11.45,9.28,2.03,1.62,4.15,3.31,6.38,5.1,2.6,2.06,5.33,4.22,8.17,6.45.95.74,1.89,1.49,2.87,2.26,1.59,1.28,3.24,2.57,4.9,3.85,7.93,6.14,16.58,12.8,25.79,19.72,1.45,1.08,2.94,2.19,4.42,3.31,2.97,2.19,6.01,4.46,9.08,6.72,1.86,1.35,3.71,2.73,5.6,4.12,11.72,8.54,24.14,17.35,37,26.2,2.3,1.59,4.63,3.17,6.96,4.76,12.19,8.27,24.78,16.51,37.58,24.55,1.86,1.18,3.71,2.33,5.57,3.48.71.44,1.42.88,2.13,1.32Z"/>
            <path class="cls-9" d="M212.83,1131.23v193.64l-30.7-4.39-6.4-.92-.63-.09v-4.62c-84.41-19.33-150.73-199.27-169.37-283.94,0,0,5.69,2.1,14.73,5.43.95.37,1.92.72,2.96,1.09.52.2,1.03.4,1.55.57,1.06.4,2.15.8,3.27,1.21,4.48,1.64,9.42,3.48,14.68,5.4.78.29,1.55.57,2.35.86.78.29,1.58.6,2.38.92,1.61.57,3.22,1.18,4.88,1.78,1.64.6,3.3,1.21,4.94,1.81,1.69.66,3.36,1.26,5.08,1.87,1.69.63,3.36,1.29,5.08,1.9,4.25,1.58,8.5,3.13,12.78,4.68,1.67.66,3.33,1.26,5.03,1.87,1.64.63,3.3,1.23,4.97,1.81,1.61.63,3.27,1.23,4.85,1.81.8.29,1.58.6,2.36.86,1.98.75,3.91,1.44,5.8,2.13.95.34,1.9.69,2.81,1.03s1.81.69,2.7,1.01c.72.26,1.41.55,2.1.78,1.38.52,2.73,1.01,4.05,1.49.57.2,1.12.4,1.69.6.55.23,1.09.4,1.64.6,1.06.4,2.1.78,3.1,1.15,1.49.55,2.9,1.06,4.22,1.55.32.11.69.26,1.01.37.09,0,.14.03.2.06l.06.03c.55.2,2.13.78,2.13.78l31.31,36.99.63.78,24.9-16.8-10.89,8.01,13.15,16.86c5.97,7.64,15.62,10.89,24.59,9.05Z"/>
            <path class="cls-10" d="M382.49,866.49l-3.24-4.32c1.11,1.25,2.23,2.7,3.24,4.32Z"/>
            <path class="cls-10" d="M450.52,982.36c0,12.8-1.08,25.29-3.14,37.51l-24.28-6.14-34.78,5.2-4.86,17.22h8.04l-1.15,18.97h13.2l-5.74,22.99,19.55-5.67,1.92,8.78c-.68.2-1.38.37-2.06.51-.74.2-1.49.37-2.23.51-1.11.27-2.23.47-3.38.64-.81.13-1.65.27-2.46.37-8.74,1.18-18.23,1.11-28.26,0-1.45-.17-2.9-.37-4.39-.57-1.45-.2-2.94-.44-4.42-.68-1.22-.2-2.46-.44-3.68-.64-1.79-.34-3.61-.71-5.44-1.11-1.28-.27-2.57-.57-3.85-.88-7.77-1.82-15.8-4.15-24-6.92-5.77-1.96-11.65-4.12-17.62-6.48l-.34-.13c-1.82-.71-3.65-1.45-5.47-2.23-2.03-.81-4.05-1.69-6.11-2.57-1.62-.71-3.27-1.42-4.93-2.16-.37-.14-.78-.3-1.15-.51-3.31-1.49-6.65-3-9.99-4.59-1.55-.74-3.07-1.45-4.63-2.19-.34-.17-.68-.34-1.01-.51-3.75-1.82-7.5-3.68-11.28-5.6-15.09-7.7-30.35-16.21-45.48-25.19v-60.4c0-4.69,1.01-9.22,2.97-13.37,1.89-4.15,4.73-7.9,8.31-10.94,4.15-3.51,9.15-5.23,14.08-5.23,6.48,0,12.86,2.9,17.22,8.47.37.47.71,1.01.95,1.59.2.41.37.81.54,1.15,3.82,7.83,9.22,14.82,15.67,20.7,1.32,1.22,3.41.13,3.21-1.65l-.78-6.08c-1.18-9.49-2.8-20.39-7.06-28.12-.74-1.32-1.76-2.46-2.84-3.48l-4.36-4.05c-3-2.84-6.52-5.1-10.43-6.31-3.34-1.05-6.82-1.55-10.26-1.55-8.04,0-16,2.8-22.42,8.27-12.09,10.43-19.08,25.59-19.08,41.56v50.81c-.71-.44-1.42-.88-2.13-1.32-1.86-1.15-3.71-2.3-5.57-3.48-12.8-8.04-25.39-16.27-37.58-24.55-2.33-1.59-4.66-3.17-6.96-4.76-12.86-8.85-25.29-17.66-37-26.2-1.89-1.38-3.75-2.77-5.6-4.12-3.07-2.26-6.11-4.52-9.08-6.72-1.49-1.11-2.97-2.23-4.42-3.31-9.22-6.92-17.86-13.57-25.79-19.72-1.65-1.32-3.31-2.6-4.9-3.85-.98-.78-1.92-1.52-2.87-2.26-2.84-2.23-5.57-4.39-8.17-6.45-2.23-1.79-4.36-3.48-6.38-5.1-4.22-3.41-8.04-6.52-11.45-9.28-1.28-1.05-2.46-2.06-3.61-2.97-6.48-5.33-11.04-9.18-13.23-11.07-.34-.27-.57-.51-.81-.68.07-.07.1-.13.13-.2.1-.2.24-.41.34-.61.03-.07.03-.1.07-.13,1.15-2.13,2.33-4.19,3.54-6.25l21.37-2.09,11.78,23.36,38.22-10.91,6.55,8.34,2.94-27.31,11.78-15.23,3.92,6.62c2.09-1.49,4.52-2.5,7.16-3,1.25-.24,2.5-.3,3.71-.27h.07c.57,0,1.11.03,1.69.14.54.07,1.08.17,1.62.27,1.55.34,3.07.91,4.49,1.65.44.24.91.47,1.32.78,1.01.64,1.99,1.42,2.87,2.26h.03l49.83,17.42s12.19-16.95,12.12-16.07c0,1.05,14.28,40.95,14.28,40.95l35.65-23.43,28.73-12.66,13.5,15.43,21-11.99s17.79-11.48,19.51-11.48,8.88,13.67,8.88,13.67c-7.73,10.84-12.9,30.66-12.9,53.28,0,34.27,11.85,62.06,26.47,62.06,4.86,0,9.42-3.07,13.34-8.44-.95.88-1.89,1.32-2.9,1.32-7.02,0-12.73-22.32-12.73-49.83s5.71-49.87,12.73-49.87c.24,0,.47.03.68.07.2.03.44.1.61.2.2.07.41.17.61.27.24.14.44.3.68.47.2.17.44.37.64.61.27.24.51.54.74.84.27.34.51.68.74,1.08.27.37.51.78.71,1.22.24.41.44.81.64,1.25.95,1.99,1.82,4.42,2.57,7.23.2.68.37,1.38.54,2.09.51,2.06.98,4.29,1.38,6.65.03.13.07.3.07.44.24,1.18.41,2.43.57,3.68.07.47.13.95.2,1.45.51,3.78.84,7.87,1.08,12.12,0,.17.03.34.03.51.07,1.45.13,2.9.17,4.39.03,1.76.07,3.51.07,5.3,0,17.46-2.3,32.78-5.77,41.7,5.57-11.38,9.08-28.12,9.08-46.79,0-21.68-4.73-40.75-11.92-51.83l24.78,5.27-5.17-13.2,10.33-1.49c24.04,35.82,38.05,78.9,38.05,125.26Z"/>
            <path class="cls-14" d="M213.35,1245.08c-.17.06-.34.09-.52.11v-.03c.17,0,.34-.03.52-.09Z"/>
            <path class="cls-10" d="M28.05,874.97c-.03.07-.07.14-.13.2-.37-.34-.61-.54-.71-.61l.84.41Z"/>
            <path class="cls-1" d="M213.35,1245.08c-.17.06-.34.09-.52.11v-.03c.17,0,.34-.03.52-.09Z"/>
            <path class="cls-1" d="M213.35,1245.08c-.17.06-.34.09-.52.11v-.03c.17,0,.34-.03.52-.09Z"/>
            <path class="cls-1" d="M290.05,960.59c.2,1.79-1.89,2.87-3.21,1.65-6.45-5.87-11.85-12.86-15.67-20.7-.17-.34-.34-.74-.54-1.15-.24-.57-.57-1.11-.95-1.59-4.36-5.57-10.74-8.47-17.22-8.47-4.93,0-9.93,1.72-14.08,5.23-3.58,3.04-6.41,6.79-8.31,10.94-1.96,4.15-2.97,8.68-2.97,13.37v131.27l-9.52-11.82-2.63-3.28-2.13,1.55v-1.49l5.6-4.12-5.6-6.92v-104.26c0-15.97,6.99-31.13,19.08-41.56,6.41-5.47,14.38-8.27,22.42-8.27,3.44,0,6.92.51,10.26,1.55,3.92,1.22,7.43,3.48,10.43,6.31l4.36,4.05c1.08,1.01,2.09,2.16,2.84,3.48,4.25,7.73,5.87,18.64,7.06,28.12l.78,6.08Z"/>
            <path class="cls-10" d="M232.71,1106.85c0,2.47-.37,4.88-1.06,7.27-.92,3.04-2.44,5.89-4.54,8.44-1.44,1.81-3.19,3.42-5.2,4.83-2.84,1.92-5.92,3.19-9.08,3.85-8.96,1.84-18.61-1.41-24.59-9.05l-13.15-16.86,10.89-8.01,26.22-19.24.63-.46,2.13-1.55,2.64,3.27,9.51,11.8.11.14c3.7,4.62,5.49,10.14,5.49,15.57Z"/>
            <path class="cls-12" d="M385.36,965.14c3.48-8.91,5.77-24.24,5.77-41.7,0-27.55-5.71-49.87-12.73-49.87s-12.73,22.32-12.73,49.87,5.71,49.83,12.73,49.83c1.01,0,1.96-.44,2.9-1.32-3.92,5.37-8.47,8.44-13.34,8.44-14.62,0-26.47-27.79-26.47-62.06,0-22.62,5.17-42.44,12.9-53.28,3.58-5.03,7.73-8.14,12.19-8.71h.03c.44-.03.88-.07,1.35-.07,4.02,0,7.87,2.09,11.28,5.87l3.24,4.32.03.03c7.19,11.07,11.92,30.15,11.92,51.83,0,18.67-3.51,35.42-9.08,46.79Z"/>
            <path class="cls-12" d="M382.49,866.49l-3.24-4.32c1.11,1.25,2.23,2.7,3.24,4.32Z"/>
            <path class="cls-12" d="M391.13,923.45c0,17.46-2.3,32.78-5.77,41.7,0,.03,0,.07-.03.07-1.25,2.53-2.57,4.83-4.02,6.75-.95.88-1.89,1.32-2.9,1.32-7.02,0-12.73-22.32-12.73-49.83s5.71-49.87,12.73-49.87,12.73,22.32,12.73,49.87Z"/>
            <path class="cls-8" d="M391.13,923.45c0,17.46-2.3,32.78-5.77,41.7,0,.03,0,.07-.03.07-1.22,3.11-2.57,5.44-4.02,6.75-.95.88-1.89,1.32-2.9,1.32-7.02,0-12.73-22.32-12.73-49.83s5.71-49.87,12.73-49.87,12.73,22.32,12.73,49.87Z"/>
            <circle class="cls-5" cx="380.69" cy="905.62" r="12.73"/>
            <path class="cls-6" d="M357.24,1386.74v6.46c-18.64,21.02-42.33-6.38-42.33-6.46l-9.25-41.06-66.67-28.35,39.24-9.93,63.92,21.66,15.1,57.69Z"/>
            <path class="cls-7" d="M478.84,840.19H100.61c-10.13,0-20.26-.95-30.25-2.84l-14.48-2.73-9.82-1.86-26.91-5.06,80.86-38.76c5.71-2.73,9.69-8.27,10.6-14.69l8.44-60.47c1.22-8.54,8.91-14.42,17.12-13.1l110.23,17.59c2.23.37,4.46.64,6.72.81,4.32.34,8.71.37,13.03.07l85.93-6.04c9.55-.68,17.89,6.69,18.74,16.54l6.21,71.14c.41,4.59,3.44,8.51,7.73,9.82l94.1,29.58Z"/>
            <path class="cls-2" d="M253.24,719.06s-45.27,16.75-57.28,8.65"/>
            <path class="cls-10" d="M138.01,942.93l-19.68-34.5c-3.44-6.08-4.59-13.23-3.14-20.09l5.44-25.9c.78-3.58,2.57-6.75,5.1-9.22.68-.68,1.42-1.28,2.19-1.82,2.09-1.49,4.52-2.5,7.16-3,1.25-.24,2.5-.3,3.71-.27h.07c.57,0,1.11.03,1.69.14.54.07,1.08.17,1.62.27,1.55.34,3.07.91,4.49,1.65.44.24.91.47,1.32.78,1.01.64,1.99,1.42,2.87,2.26h.03c1.59,1.55,2.94,3.41,3.88,5.54l8.31,18.43"/>
            <path class="cls-10" d="M133.11,866.52l6.31,2.16c2.9.99,4.84,3.71,4.84,6.78v49.77"/>
            <path class="cls-10" d="M144.26,900.57l-9.49-1.09c-2.41-.28-4.17-2.4-4.01-4.82l.55-8.19c.18-2.72,2.44-4.83,5.16-4.83h7.78v18.92Z"/>
            <polygon class="cls-9" points="5.63 1030 6.37 1030.17 6.37 1030.27 5.63 1030"/>
            <path class="cls-9" d="M409.14,1123.91v.06c-18.01,67.41-81.34,178.56-131.43,190.39-.2.09-.43.14-.63.17-13.38,3.19-27.17,5.11-41.33,5.72-.2,0-.43.03-.63.03-2.64.14-5.34.2-8.01.2v-197.92c2.1-2.56,3.62-5.4,4.54-8.44h85.5v-48.28l.34.11c5.97,2.38,11.86,4.54,17.63,6.49v41.67l74.01,9.79Z"/>
            <path class="cls-9" d="M335.12,1072.41v.03c-5.77-1.96-11.65-4.12-17.62-6.48l17.62,6.45Z"/>
            <polyline class="cls-3" points="109.28 1054.43 159.33 1114.1 219.97 1071.96 175.08 1014.03"/>
            <path class="cls-2" d="M445.42,1032.47c-.2.2-.44.44-.64.61"/>
            <path class="cls-12" d="M412.47,857.11l-10.33,1.49,5.17,13.2-24.78-5.27-.03-.03c-1.01-1.62-2.13-3.07-3.24-4.32-3.41-3.78-7.26-5.87-11.28-5.87-.47,0-.91.03-1.35.07h-.03c-4.46.57-8.61,3.68-12.19,8.71,0,0-7.16-13.67-8.88-13.67s-19.51,11.48-19.51,11.48l-21,11.99-13.5-15.43-28.73,12.66-35.65,23.43s-14.28-39.91-14.28-40.95c.07-.88-12.12,16.07-12.12,16.07l-49.83-17.42h-.03c-.88-.84-1.86-1.62-2.87-2.26-.41-.3-.88-.54-1.32-.78-1.42-.74-2.94-1.32-4.49-1.65-.54-.14-1.08-.24-1.62-.27-.57-.1-1.11-.14-1.69-.14h-.07c-1.22-.07-2.46.03-3.71.27-2.63.51-5.06,1.52-7.16,3l-3.92-6.62-11.78,15.23-2.94,27.31-6.55-8.34-38.22,10.91-11.78-23.36-21.37,2.09-17.69,1.76,20.09-20.7-8.61-9.49,20.9-7.43,9.82,1.86,14.48,2.73c9.99,1.89,20.12,2.84,30.25,2.84h310.71l6.89,16.1-5.74.81Z"/>
            <circle class="cls-13" cx="347.03" cy="1137.27" r="5.53"/>
            <path class="cls-11" d="M423.1,1014.03l-34.78,5.2-4.86,17.22h8.04l-1.15,18.97h13.2l-5.74,22.99,19.55-5.67,3.61,16.58-17.69,38.13,28.2,29.33v39.97l-30.07,32.77,23.85,29.56,10.25,22.37v17.46l-6.23,3.8,11.73,26.4-8.8,12.16,1.47,16.5,18.33,33.37,8.8-29.4,37.03-4.4,1.83-32.47-2.93-25.96s2.57-27.3,2.93-29.13-23.1-38.5-23.1-38.5l2.2-20.53-4.4-28.6,25.67-32.8s-21.27-23.66-22.73-27.33,2.2-22.37,2.2-22.37c0,0-15.03-15.78-11.73-20.9s-7.7-26.4-7.7-26.4l1.1-28.3-38.08-10.02Z"/>
            <path class="cls-10" d="M219.95,1454.57v6.46c-18.64,21.02-42.33-6.38-42.33-6.46l4.51-134.1,30.7,4.39v129.7h7.12Z"/>
            <path class="cls-14" d="M317.15,1490.58v28.97c0,5.51-1.67,10.89-4.79,15.44l-3.84,5.6c-4.27,6.21-11.32,9.92-18.85,9.92h-92.93c-8.74,0-16.51-5.55-19.34-13.82l-1.08-3.16c-.81-2.35-1.18-4.83-1.09-7.31l2.4-71.64c0,.09,23.69,27.49,42.33,6.46v12.24l76.37-2.77c2.89-.1,5.77.42,8.45,1.53h0c7.49,3.12,12.37,10.43,12.37,18.55Z"/>
            <path class="cls-1" d="M227.11,1122.56v427.72h-14.27v-416.54c3.16-.85,6.23-2.48,9.08-4.96,2.01-1.81,3.76-3.88,5.2-6.22Z"/>
            <path class="cls-2" d="M396.53,1020.35s25.69,34.37,48.25,12.76"/>
          </g>
          <g>
            <path class="cls-3" d="M1120.98,389.02l-.03.11-.2.69-2.64,8.85c-5.08,13.84-5.08,16.6-8.96,25.25-.43.98-.95,2.04-1.49,3.22l-3.91-.69-68.01-12.24-.6-.11v-41.65c8.19,2.76,16.23,5.08,24.01,6.92,1.26.29,2.56.6,3.85.86,1.81.4,3.62.78,5.43,1.12,1.21.2,2.47.43,3.68.63,1.49.26,2.96.49,4.42.69,1.49.2,2.93.4,4.39.57,10.02,1.12,19.5,1.18,28.26,0,.8-.11,1.64-.23,2.44-.37,1.15-.17,2.27-.37,3.39-.63.17-.03.37-.06.55-.11.49-.09.98-.2,1.52-.34.34-.06.72-.17,1.12-.26.34-.11.72-.2,1.03-.29t.06-.03l1.69,7.81Z"/>
            <path class="cls-3" d="M1017.15,365.81v48.28h-85.5c.69-2.38,1.06-4.77,1.06-7.24,0-5.43-1.78-10.94-5.49-15.57l-.11-.14v-70.85c15.14,8.96,30.39,17.49,45.49,25.19,3.76,1.92,7.52,3.76,11.26,5.6.34.17.69.32,1.03.49,1.55.75,3.07,1.46,4.62,2.21,3.33,1.58,6.66,3.1,9.99,4.6.34.2.78.37,1.15.49,1.64.75,3.3,1.46,4.91,2.15,2.07.89,4.08,1.78,6.12,2.58,1.81.78,3.65,1.52,5.46,2.21Z"/>
            <path class="cls-3" d="M912.84,311.64v53.45l-38.43-47.56-62.78,37.51-.34.2,17.86,21.11s-1.58-.57-2.13-.78l-.06-.03c-.06-.03-.11-.06-.2-.06-.32-.11-.69-.26-1.01-.37-1.32-.49-2.73-1.01-4.22-1.55-1.01-.37-2.04-.75-3.1-1.15l-1.64-.6-10.54-3.88c-.92-.34-1.87-.69-2.81-1.03l-13.01-4.8-9.99-3.68-17.86-6.58-5.08-1.87-12.21-4.51c-.8-.29-1.58-.57-2.36-.86-5.26-1.92-10.2-3.76-14.68-5.4-1.12-.4-2.21-.8-3.27-1.21-.52-.17-1.03-.37-1.55-.57l-2.96-1.09c-.57-.2-1.12-.4-1.67-.6l-4.45-1.64c-5.43-2.01-8.62-3.19-8.62-3.19v-.11c-3.45-15.6-5.23-31.79-5.23-48.45,0-38.54,9.68-74.85,26.77-106.53.26.14.49.4.83.66,2.18,1.9,6.75,5.74,13.21,11.09,1.15.89,2.33,1.92,3.62,2.96,3.42,2.76,7.24,5.89,11.46,9.28,2.01,1.64,4.14,3.33,6.38,5.11,2.58,2.07,5.34,4.22,8.16,6.43.95.75,1.9,1.49,2.87,2.27,1.58,1.29,3.25,2.56,4.91,3.85,7.93,6.15,16.57,12.81,25.79,19.73,1.44,1.06,2.93,2.18,4.42,3.3,2.96,2.18,6,4.45,9.08,6.72,1.87,1.35,3.7,2.73,5.6,4.11,11.72,8.56,24.15,17.35,36.99,26.19,2.3,1.61,4.62,3.19,6.98,4.77,12.18,8.27,24.76,16.51,37.57,24.56,1.87,1.18,3.7,2.33,5.57,3.48.72.43,1.41.86,2.13,1.32Z"/>
            <path class="cls-9" d="M912.84,431.23v193.64l-30.7-4.39-6.4-.92-.63-.09v-4.62c-84.41-19.33-150.73-199.27-169.37-283.93,0,0,5.69,2.1,14.73,5.43.95.37,1.92.72,2.96,1.09.52.2,1.03.4,1.55.57,1.06.4,2.15.8,3.27,1.21,4.48,1.64,9.42,3.48,14.68,5.4.78.29,1.55.57,2.35.86.78.29,1.58.6,2.38.92,1.61.57,3.22,1.18,4.88,1.78,1.64.6,3.3,1.21,4.94,1.81,1.69.66,3.36,1.26,5.08,1.87,1.69.63,3.36,1.29,5.08,1.9,4.25,1.58,8.5,3.13,12.78,4.68,1.67.66,3.33,1.26,5.03,1.87,1.64.63,3.3,1.23,4.97,1.81,1.61.63,3.27,1.23,4.85,1.81.8.29,1.58.6,2.36.86,1.98.75,3.91,1.44,5.8,2.13.95.34,1.9.69,2.81,1.03s1.81.69,2.7,1.01c.72.26,1.41.55,2.1.78,1.38.52,2.73,1.01,4.05,1.49.57.2,1.12.4,1.69.6.55.23,1.09.4,1.64.6,1.06.4,2.1.78,3.1,1.15,1.49.55,2.9,1.06,4.22,1.55.32.11.69.26,1.01.37.09,0,.14.03.2.06l.06.03c.55.2,2.13.78,2.13.78l31.31,36.99.63.78,24.9-16.8-10.89,8.01,13.15,16.86c5.97,7.64,15.62,10.89,24.59,9.05Z"/>
            <path class="cls-10" d="M1082.49,166.49l-3.25-4.31c1.12,1.23,2.24,2.7,3.25,4.31Z"/>
            <path class="cls-10" d="M1150.53,282.35c0,12.81-1.09,25.3-3.16,37.51l-24.27-6.12-34.78,5.2-4.85,17.2h.09l-.09.32h8.01l-1.12,18.67h.03l-.03.29h13.15l-5.69,22.69.09-.03-.09.34,19.53-5.69,1.87,8.5c-.32.09-.69.17-1.03.29-.32.06-.63.14-.95.2-.06.03-.11.03-.17.06-.52.11-1.01.23-1.52.34-.17.06-.37.09-.55.11-1.12.26-2.24.46-3.39.63-.8.14-1.64.26-2.44.37-8.76,1.18-18.24,1.12-28.26,0-1.46-.17-2.9-.37-4.39-.57-1.46-.2-2.93-.43-4.42-.69-1.21-.2-2.47-.43-3.68-.63-1.81-.34-3.62-.72-5.43-1.12-1.29-.26-2.58-.57-3.85-.86-7.78-1.84-15.83-4.16-24.01-6.92v-.03l-17.63-6.46-.34-.14c-1.81-.69-3.65-1.44-5.46-2.21-2.04-.8-4.05-1.69-6.12-2.58-1.61-.69-3.27-1.41-4.91-2.15-.37-.11-.8-.29-1.15-.49-3.33-1.49-6.66-3.02-9.99-4.6-1.55-.75-3.07-1.46-4.62-2.21-.34-.17-.69-.32-1.03-.49-3.73-1.84-7.5-3.68-11.26-5.6-15.11-7.7-30.36-16.23-45.49-25.19v-60.4c0-4.71,1.01-9.22,2.99-13.38,1.87-4.16,4.71-7.9,8.3-10.94,4.14-3.5,9.13-5.23,14.07-5.23,6.49,0,12.87,2.9,17.23,8.47.34.49.69,1.01.92,1.58.23.4.37.83.55,1.15,3.82,7.84,9.22,14.82,15.68,20.71,1.32,1.21,3.39.14,3.19-1.67l-.78-6.06c-1.18-9.51-2.79-20.39-7.04-28.15-.75-1.29-1.75-2.44-2.84-3.48l-4.37-4.05c-2.99-2.81-6.52-5.08-10.43-6.32-3.33-1.03-6.81-1.55-10.25-1.55-8.04,0-16.03,2.81-22.43,8.27-12.09,10.45-19.07,25.59-19.07,41.56v50.84c-.72-.46-1.41-.89-2.13-1.32-1.87-1.15-3.71-2.3-5.57-3.48-12.81-8.04-25.39-16.28-37.57-24.56-2.36-1.58-4.68-3.16-6.98-4.77-12.84-8.85-25.27-17.63-36.99-26.19-1.9-1.38-3.73-2.76-5.6-4.11-3.07-2.27-6.12-4.54-9.08-6.72-1.49-1.12-2.99-2.24-4.42-3.3-9.22-6.92-17.86-13.58-25.79-19.73-1.67-1.32-3.33-2.58-4.91-3.85-.98-.78-1.92-1.52-2.87-2.27-2.81-2.21-5.57-4.37-8.16-6.43-2.24-1.78-4.37-3.48-6.38-5.11-4.22-3.39-8.04-6.52-11.46-9.28-1.29-1.03-2.47-2.07-3.62-2.96-6.46-5.34-11.03-9.19-13.21-11.09-.34-.26-.57-.52-.83-.66.09-.09.11-.14.14-.23.11-.2.23-.4.34-.6l.17.17c.06-.06.09-.14.11-.2l-.23-.11c1.15-2.13,2.33-4.16,3.56-6.23l21.37-2.1,11.78,23.38,38.23-10.91,6.55,8.33,2.93-27.31,11.78-15.22,3.93,6.63c-.78.52-1.52,1.15-2.21,1.81-2.53,2.47-4.31,5.63-5.08,9.22l-5.46,25.91c-1.44,6.84-.29,13.99,3.16,20.08l19.67,34.49,25.04-65.71-8.3-18.44c-.95-2.13-2.3-3.99-3.88-5.54l49.83,17.43s12.18-16.95,12.12-16.08c0,1.06,14.27,40.96,14.27,40.96l35.67-23.44,28.72-12.67,13.5,15.45,20.99-12.01s17.81-11.46,19.53-11.46,8.87,13.67,8.87,13.67c3.59-5.03,7.73-8.16,12.18-8.73h.03c.46-.03.89-.06,1.38-.06,3.99,0,7.84,2.1,11.26,5.89l3.25,4.31.03.03,24.79,5.28-5.17-13.21,10.34-1.49c24.04,35.84,38.06,78.9,38.06,125.25Z"/>
            <path class="cls-10" d="M727.82,174.85l.23.11c-.03.06-.06.14-.11.2l-.17-.17c.03-.06.03-.09.06-.11v-.03Z"/>
            <path class="cls-10" d="M839.86,246.14l-21.51-37.72c-3.45-6.09-4.6-13.24-3.16-20.08l5.46-25.91c.78-3.59,2.56-6.75,5.08-9.22.69-.66,1.44-1.29,2.21-1.81,2.07-1.49,4.51-2.5,7.15-3.02,1.23-.23,2.5-.34,3.7-.26h.06c.57,0,1.12.03,1.69.11.55.09,1.09.17,1.64.29,1.55.32,3.07.89,4.48,1.64.43.26.92.49,1.32.78,1.01.66,1.98,1.44,2.87,2.27h.03c1.58,1.55,2.93,3.42,3.88,5.54l11.6,20.13"/>
            <path class="cls-10" d="M1017.49,365.95l17.63,6.46v.03c-1.44-.49-2.9-1.01-4.34-1.49-4.39-1.55-8.82-3.25-13.3-5Z"/>
            <polygon class="cls-10" points="1091.48 336.46 1083.47 336.46 1083.55 336.14 1091.51 336.14 1091.48 336.46"/>
            <polygon class="cls-10" points="1103.51 355.41 1090.36 355.41 1090.39 355.13 1103.57 355.13 1103.51 355.41"/>
            <path class="cls-10" d="M1119.28,381.21s-.03,0-.06.03l-1.87-8.5-19.53,5.69.09-.34,19.44-5.63,1.92,8.76Z"/>
            <path class="cls-14" d="M913.35,545.08c-.17.06-.34.09-.52.11v-.03c.17,0,.34-.03.52-.09Z"/>
            <path class="cls-10" d="M728.05,174.96c-.03.06-.06.14-.11.2l-.17-.17c-.2-.17-.34-.29-.46-.37l.52.23.23.11Z"/>
            <path class="cls-1" d="M913.35,545.08c-.17.06-.34.09-.52.11v-.03c.17,0,.34-.03.52-.09Z"/>
            <path class="cls-1" d="M913.35,545.08c-.17.06-.34.09-.52.11v-.03c.17,0,.34-.03.52-.09Z"/>
            <path class="cls-1" d="M990.04,260.58c.2,1.81-1.87,2.87-3.19,1.67-6.46-5.89-11.86-12.87-15.68-20.71-.17-.32-.32-.75-.55-1.15-.23-.57-.57-1.09-.92-1.58-4.37-5.57-10.74-8.47-17.23-8.47-4.94,0-9.94,1.72-14.07,5.23-3.59,3.04-6.43,6.78-8.3,10.94-1.98,4.16-2.99,8.67-2.99,13.38v131.25l-9.51-11.8-2.64-3.27-2.13,1.55v-1.49l5.6-4.14-5.6-6.89v-104.29c0-15.97,6.98-31.1,19.07-41.56,6.4-5.46,14.39-8.27,22.43-8.27,3.45,0,6.92.52,10.25,1.55,3.91,1.24,7.44,3.5,10.43,6.32l4.37,4.05c1.09,1.03,2.1,2.18,2.84,3.48,4.25,7.75,5.86,18.64,7.04,28.15l.78,6.06Z"/>
            <path class="cls-10" d="M932.71,406.84c0,2.47-.37,4.88-1.06,7.27-.92,3.04-2.44,5.89-4.54,8.44-1.44,1.81-3.19,3.42-5.2,4.83-2.84,1.92-5.92,3.19-9.08,3.85-8.96,1.84-18.61-1.41-24.59-9.05l-13.15-16.86,10.89-8.01,26.22-19.24.63-.46,2.13-1.55,2.64,3.27,9.51,11.8.11.14c3.7,4.62,5.49,10.14,5.49,15.57Z"/>
            <path class="cls-12" d="M1082.49,166.49l-3.25-4.31c1.12,1.23,2.24,2.7,3.25,4.31Z"/>
            <path class="cls-7" d="M1178.85,140.19h-378.24c-10.13,0-20.26-.95-30.25-2.84l-14.48-2.73-9.82-1.86-26.91-5.06,80.86-38.76c5.71-2.73,9.69-8.27,10.6-14.69l8.44-60.47c1.22-8.54,8.91-14.42,17.12-13.1l110.23,17.59c2.23.37,4.46.64,6.72.81,4.32.34,8.71.37,13.03.07l85.92-6.04c9.55-.68,17.89,6.69,18.74,16.54l6.21,71.14c.41,4.59,3.44,8.51,7.73,9.82l94.09,29.58Z"/>
            <path class="cls-2" d="M953.24,19.06s-45.27,16.75-57.28,8.65"/>
            <path class="cls-10" d="M833.12,166.52l6.31,2.16c2.9.99,4.84,3.71,4.84,6.78v49.77"/>
            <path class="cls-10" d="M844.27,200.57l-9.49-1.09c-2.41-.28-4.17-2.4-4.01-4.82l.55-8.19c.18-2.72,2.44-4.83,5.16-4.83h7.78v18.92Z"/>
            <polygon class="cls-9" points="705.64 330 706.38 330.17 706.38 330.27 705.64 330"/>
            <path class="cls-6" d="M1071.5,682.84v6.46c-18.64,21.02-42.33-6.38-42.33-6.46l-9.25-41.06-66.67-28.35,39.24-9.93,63.92,21.66,15.1,57.69Z"/>
            <path class="cls-9" d="M1109.14,423.9v.06c-18.01,67.41-81.34,178.56-131.43,190.39-.2.09-.43.14-.63.17-13.38,3.19-27.17,5.11-41.33,5.72-.2,0-.43.03-.63.03-2.64.14-5.34.2-8.01.2v-197.92c2.1-2.56,3.62-5.4,4.54-8.44h85.5v-48.28l.34.11c5.97,2.38,11.86,4.54,17.63,6.49v41.67l74.01,9.79Z"/>
            <path class="cls-9" d="M1035.13,372.42v.03c-1.44-.49-2.9-1.01-4.34-1.49-4.39-1.55-8.82-3.25-13.3-5l17.63,6.46Z"/>
            <polyline class="cls-3" points="809.28 354.43 859.34 414.1 919.97 371.96 875.09 314.03"/>
            <path class="cls-2" d="M1145.42,332.46c-.2.2-.44.44-.64.61"/>
            <path class="cls-12" d="M1112.47,157.1l-10.34,1.49,5.17,13.21-24.79-5.28-.03-.03c-1.01-1.61-2.13-3.07-3.25-4.31-3.42-3.79-7.27-5.89-11.26-5.89-.49,0-.92.03-1.38.06h-.03c-4.45.57-8.59,3.71-12.18,8.73,0,0-7.15-13.67-8.87-13.67s-19.53,11.46-19.53,11.46l-20.99,12.01-13.5-15.45-28.72,12.67-35.67,23.44s-14.27-39.89-14.27-40.96c.06-.86-12.12,16.08-12.12,16.08l-49.83-17.43h-.03c-.89-.83-1.87-1.61-2.87-2.27-.4-.29-.89-.52-1.32-.78-1.41-.75-2.93-1.32-4.48-1.64-.55-.14-1.09-.26-1.64-.29-.57-.09-1.12-.11-1.69-.11h-.06c-1.21-.09-2.47.03-3.7.26-2.64.52-5.08,1.52-7.15,3.02l-3.93-6.63-11.78,15.22-2.93,27.31-6.55-8.33-38.23,10.91-11.78-23.38-21.37,2.1-17.69,1.75,20.08-20.68-8.62-9.51,20.91-7.41,9.82,1.84,14.48,2.76c9.99,1.87,20.13,2.81,30.27,2.81h310.7l6.89,16.11-5.74.8Z"/>
            <circle class="cls-13" cx="1047.04" cy="437.26" r="5.53"/>
            <path class="cls-11" d="M1199.67,569.76c-.34,1.84-2.93,29.15-2.93,29.15l2.93,25.96-1.81,32.45-37.05,4.39-8.79,29.41-18.32-33.37-1.49-16.49,8.82-12.18-11.75-26.39,6.23-3.79v-17.46l-10.25-22.37-23.84-29.55,30.07-32.77v-39.98l-24.44-25.42-3.76-3.91.46-1.01,1.44-3.04,15.57-33.57.23-.52-.03-.17-1.72-7.9-1.87-8.5-19.53,5.69.09-.34,5.66-22.66h-13.21l.03-.29,1.12-18.67h-8.04l.09-.32,4.77-16.92,34.78-5.2,38.08,10.02-1.09,28.29s11,21.28,7.7,26.39c-3.3,5.14,11.72,20.91,11.72,20.91,0,0-3.65,18.7-2.18,22.37,1.46,3.65,22.72,27.31,22.72,27.31l-25.65,32.8,4.39,28.61-2.21,20.54s23.47,36.68,23.09,38.49Z"/>
            <path class="cls-1" d="M927.11,422.55v427.95h-14.27v-416.77c3.16-.85,6.23-2.48,9.08-4.96,2.01-1.81,3.76-3.89,5.2-6.22Z"/>
            <path class="cls-10" d="M805.33,673.93l-13.69,13.16c-18.7,16.6-42.88-3.97-42.88-4.06l75.14-51.19,50.69-12.5,34.03,5.52-72.14,26.34-31.17,22.73Z"/>
            <path class="cls-14" d="M887.81,719.14v28.97c0,5.51-1.67,10.89-4.79,15.44l-3.84,5.6c-4.27,6.21-11.32,9.92-18.85,9.92h-92.93c-8.74,0-16.51-5.55-19.34-13.82l-1.08-3.16c-.81-2.35-1.18-4.83-1.09-7.31l2.91-72.24c0,.09,22.6,19.38,41.85,6.99l-.02,12.31,76.37-2.77c2.89-.1,5.77.42,8.45,1.53h0c7.49,3.12,12.37,10.43,12.37,18.55Z"/>
            <path class="cls-4" d="M1168.69,718.84v28.97c0,5.51-1.67,10.89-4.79,15.44l-3.84,5.6c-4.27,6.21-11.32,9.92-18.85,9.92h-92.93c-8.74,0-16.51-5.55-19.34-13.82l-1.08-3.16c-.81-2.35-1.18-4.83-1.09-7.31l2.4-71.64c0,.09,23.69,27.49,42.33,6.46v12.24l76.37-2.77c2.89-.1,5.77.42,8.45,1.53h0c7.49,3.12,12.37,10.43,12.37,18.55Z"/>
            <ellipse cx="1121.03" cy="339.05" rx="12.58" ry="18.77"/>
            <path class="cls-10" d="M1038.93,247.83s40.32-74.26,75.29,2.93"/>
          </g>
        </g>
      </g>
    </g>
  </g>
</svg>