<?xml version="1.0" encoding="UTF-8"?>
<svg id="Calque_2" xmlns="http://www.w3.org/2000/svg" viewBox="0 0 591.86 731">
  <defs>
    <style>
      .cls-1 {
        fill: #93855d;
      }

      .cls-1, .cls-2, .cls-3, .cls-4, .cls-5, .cls-6, .cls-7, .cls-8, .cls-9, .cls-10, .cls-11, .cls-12, .cls-13, .cls-14 {
        stroke-miterlimit: 10;
      }

      .cls-1, .cls-2, .cls-3, .cls-4, .cls-5, .cls-6, .cls-7, .cls-8, .cls-9, .cls-10, .cls-12, .cls-13, .cls-14 {
        stroke: #000;
      }

      .cls-2 {
        fill: none;
      }

      .cls-3 {
        fill: gray;
      }

      .cls-4 {
        fill: #333;
      }

      .cls-5, .cls-11 {
        fill: #fff;
      }

      .cls-6 {
        fill: #a49a79;
      }

      .cls-7 {
        fill: #2d2828;
      }

      .cls-9 {
        fill: #7498d1;
      }

      .cls-10 {
        fill: #e0d0a3;
      }

      .cls-11 {
        stroke: #1d1d1b;
      }

      .cls-12 {
        fill: #f2f2f2;
      }

      .cls-13 {
        fill: #607ba6;
      }

      .cls-14 {
        fill: #4d4d4d;
      }
    </style>
  </defs>
  <g id="berger">
    <g>
      <path class="cls-4" d="M419.74,682.27v11.95c0,5.77-2.28,11.29-6.35,15.36-4.07,4.07-9.59,6.35-15.36,6.35h-53.67c1.04-2.49,1.54-5.19,1.54-7.93v-12c0-11.87-9.51-21.54-21.42-21.71l-34.74-.46v-25.74s41.18,27.69,51.6,3.49c0,4.57,3.61,8.22,8.18,8.3l48.81.66c11.87.17,21.42,9.84,21.42,21.71Z"/>
      <path class="cls-6" d="M341.33,616.14v35.45c-10.42,24.2-51.6-3.49-51.6-3.49v-24.74c17.39-.75,34.37-3.11,50.81-7.02.25-.04.54-.12.79-.21Z"/>
      <path class="cls-3" d="M519.36,480.74c-7.26,13.2-15.65,25.74-24.91,37.48h-.04l-82.52-9.21v-51.22c10.09,3.4,19.97,6.27,29.51,8.51,1.58.37,3.15.75,4.73,1.08,2.24.5,4.48.95,6.68,1.37,1.49.25,3.03.54,4.52.79,1.83.29,3.65.58,5.44.83,1.83.25,3.61.5,5.4.71,12.33,1.37,23.99,1.45,34.74,0,1-.12,2.03-.29,3.03-.46,1.41-.21,2.78-.46,4.15-.79.91-.17,1.83-.37,2.74-.62.83-.17,1.7-.37,2.53-.62l2.08,9.59,1.91,2.57Z"/>
      <path class="cls-3" d="M389.81,449.65v59.36h-105.14c.87-2.91,1.33-5.89,1.33-8.92,0-6.68-2.2-13.45-6.77-19.14l-.12-.17v-87.13c18.6,11.04,37.36,21.5,55.91,30.97,4.65,2.37,9.26,4.65,13.86,6.89.41.21.83.41,1.25.62,1.91.91,3.78,1.78,5.69,2.7,4.11,1.95,8.22,3.82,12.29,5.65.46.25.95.46,1.41.62,2.03.91,4.07,1.78,6.06,2.66,2.53,1.08,5.02,2.16,7.51,3.15,2.24.95,4.48,1.87,6.72,2.74Z"/>
      <path class="cls-3" d="M261.55,383.03v65.71l-47.24-58.44-77.21,46.12-.41.25,21.96,25.94L6.93,406.73v-.12c-4.23-19.18-6.43-39.1-6.43-59.57,0-47.4,11.91-92.03,32.92-131,.29.21.58.5,1,.83,2.7,2.32,8.3,7.06,16.27,13.62,1.41,1.12,2.86,2.37,4.44,3.65,4.19,3.4,8.88,7.22,14.07,11.42,2.49,1.99,5.11,4.07,7.85,6.27,3.2,2.53,6.56,5.19,10.05,7.93,1.16.91,2.32,1.83,3.53,2.78,1.95,1.58,3.98,3.15,6.02,4.73,9.75,7.55,20.38,15.73,31.71,24.24,1.78,1.33,3.61,2.7,5.44,4.07,3.65,2.7,7.39,5.48,11.17,8.26,2.28,1.66,4.57,3.36,6.89,5.06,14.4,10.5,29.68,21.34,45.49,32.21,2.82,1.95,5.69,3.9,8.55,5.85,14.99,10.17,30.47,20.3,46.2,30.18,2.28,1.45,4.57,2.86,6.85,4.28.87.54,1.74,1.08,2.62,1.62Z"/>
      <path class="cls-9" d="M261.55,530.05v99l-45.62-6.52-.79-.12v-5.69c-103.77-23.74-185.3-105.89-208.21-210,0,0,19.88,7.35,45.7,16.85,1.91.71,3.86,1.41,5.85,2.16,1.95.71,3.94,1.45,5.98,2.2,2.03.75,4.07,1.49,6.1,2.24,2.08.79,4.11,1.54,6.23,2.28,2.08.79,4.15,1.58,6.27,2.32,5.23,1.95,10.46,3.86,15.69,5.77,2.08.79,4.11,1.54,6.18,2.28,2.03.79,4.07,1.54,6.1,2.24,1.99.75,4.03,1.49,5.98,2.2,1,.37,1.95.75,2.91,1.08,4.86,1.78,9.51,3.49,13.91,5.11.87.33,1.74.66,2.57.95,1.7.62,3.36,1.25,4.98,1.83,5.6,2.08,10.58,3.9,14.65,5.4.66.25,2.62.95,2.62.95l38.48,45.45.79.95,30.63-20.63-13.41,9.84,16.19,20.71c7.35,9.42,19.22,13.41,30.22,11.12Z"/>
      <path class="cls-10" d="M262.17,670.02c-.21.08-.41.12-.62.17-.33.08-.66.17-1,.21-.54.08-1.12.17-1.74.21-.62.04-1.25.08-1.87.08-15.28,0-41.01-12.33-41.01-12.33v-36.74l45.62,6.52v42.01c.21,0,.41-.04.62-.12Z"/>
      <path class="cls-10" d="M470.14,204.58l-3.98-5.31c1.37,1.54,2.74,3.32,3.98,5.31Z"/>
      <path class="cls-10" d="M553.78,347.04c0,15.73-1.33,31.09-3.86,46.12l-29.85-7.55-42.75,6.39-5.98,21.17h9.88l-1.41,23.33h16.23l-7.06,28.27,24.03-6.97,2.37,10.79c-.83.25-1.7.46-2.53.62-.91.25-1.83.46-2.74.62-1.37.33-2.74.58-4.15.79-1,.17-2.03.33-3.03.46-10.75,1.45-22.41,1.37-34.74,0-1.78-.21-3.57-.46-5.4-.71-1.78-.25-3.61-.54-5.44-.83-1.49-.25-3.03-.54-4.52-.79-2.2-.41-4.44-.87-6.68-1.37-1.58-.33-3.15-.71-4.73-1.08-9.55-2.24-19.43-5.11-29.51-8.51-7.1-2.41-14.32-5.06-21.67-7.97l-.42-.17c-2.24-.87-4.48-1.78-6.72-2.74-2.49-1-4.98-2.08-7.51-3.15-1.99-.87-4.03-1.74-6.06-2.66-.46-.17-.95-.37-1.41-.62-4.07-1.83-8.18-3.69-12.29-5.65-1.91-.91-3.78-1.78-5.69-2.7-.41-.21-.83-.41-1.25-.62-4.61-2.24-9.21-4.52-13.86-6.89-18.55-9.46-37.32-19.92-55.91-30.97v-74.26c0-5.77,1.25-11.33,3.65-16.44,2.32-5.11,5.81-9.71,10.21-13.45,5.11-4.32,11.25-6.43,17.31-6.43,7.97,0,15.81,3.57,21.17,10.42.46.58.87,1.25,1.16,1.95.25.5.46,1,.66,1.41,4.69,9.63,11.33,18.22,19.26,25.45,1.62,1.49,4.19.17,3.94-2.03l-.95-7.47c-1.45-11.66-3.45-25.07-8.68-34.58-.91-1.62-2.16-3.03-3.49-4.28l-5.35-4.98c-3.69-3.49-8.01-6.27-12.83-7.76-4.11-1.29-8.38-1.91-12.62-1.91-9.88,0-19.68,3.45-27.56,10.17-14.86,12.83-23.45,31.46-23.45,51.1v62.47c-.87-.54-1.74-1.08-2.62-1.62-2.28-1.41-4.57-2.82-6.85-4.28-15.73-9.88-31.21-20.01-46.2-30.18-2.86-1.95-5.73-3.9-8.55-5.85-15.81-10.88-31.09-21.71-45.49-32.21-2.32-1.7-4.61-3.4-6.89-5.06-3.78-2.78-7.51-5.56-11.17-8.26-1.83-1.37-3.65-2.74-5.44-4.07-11.33-8.51-21.96-16.69-31.71-24.24-2.03-1.62-4.07-3.2-6.02-4.73-1.2-.95-2.37-1.87-3.53-2.78-3.49-2.74-6.85-5.4-10.05-7.93-2.74-2.2-5.35-4.28-7.85-6.27-5.19-4.19-9.88-8.01-14.07-11.42-1.58-1.29-3.03-2.53-4.44-3.65-7.97-6.56-13.57-11.29-16.27-13.62-.41-.33-.71-.62-1-.83.08-.08.12-.17.17-.25.12-.25.29-.5.42-.75.04-.08.04-.12.08-.17,1.41-2.62,2.86-5.15,4.36-7.68l26.28-2.57,14.49,28.72,46.99-13.41,8.05,10.25,3.61-33.58,14.49-18.72,4.81,8.14c2.57-1.83,5.56-3.07,8.8-3.69,1.54-.29,3.07-.37,4.57-.33h.08c.71,0,1.37.04,2.08.17.66.08,1.33.21,1.99.33,1.91.41,3.78,1.12,5.52,2.03.54.29,1.12.58,1.62.95,1.25.79,2.45,1.74,3.53,2.78h.04l61.27,21.42s14.98-20.84,14.9-19.76c0,1.29,17.56,50.35,17.56,50.35l43.83-28.81,35.32-15.57,16.6,18.97,25.82-14.74s21.88-14.11,23.99-14.11,10.92,16.81,10.92,16.81c-9.51,13.32-15.86,37.69-15.86,65.5,0,42.13,14.57,76.29,32.54,76.29,5.98,0,11.58-3.78,16.4-10.38-1.16,1.08-2.32,1.62-3.57,1.62-8.63,0-15.65-27.44-15.65-61.27s7.02-61.31,15.65-61.31c.29,0,.58.04.83.08.25.04.54.12.75.25.25.08.5.21.75.33.29.17.54.37.83.58.25.21.54.46.79.75.33.29.62.66.91,1.04.33.42.62.83.91,1.33.33.46.62.95.87,1.49.29.5.54,1,.79,1.54,1.16,2.45,2.24,5.44,3.15,8.88.25.83.46,1.7.66,2.57.62,2.53,1.2,5.27,1.7,8.18.04.17.08.37.08.54.29,1.45.5,2.99.71,4.52.08.58.17,1.16.25,1.78.62,4.65,1.04,9.67,1.33,14.9,0,.21.04.41.04.62.08,1.79.17,3.57.21,5.4.04,2.16.08,4.32.08,6.52,0,21.46-2.82,40.31-7.1,51.26,6.85-13.99,11.17-34.58,11.17-57.53,0-26.65-5.81-50.1-14.65-63.72l30.47,6.48-6.35-16.23,12.7-1.83c29.55,44.04,46.78,97.01,46.78,154Z"/>
      <path class="cls-14" d="M261.55,670.19v59.52h-25.4c-6.97,0-13.12-4.57-15.15-11.29l-3.15-10.58c-1.29-4.23-1.91-8.63-1.91-13.08v-36.4s25.74,12.33,41.01,12.33c.62,0,1.25-.04,1.87-.08.62-.04,1.2-.12,1.74-.21.33-.04.66-.12,1-.21Z"/>
      <path class="cls-14" d="M262.17,670.02c-.21.08-.41.12-.62.17v-.04c.21,0,.41-.04.62-.12Z"/>
      <path class="cls-14" d="M345.9,696.01v12c0,2.74-.5,5.44-1.54,7.93-1.04,2.78-2.7,5.31-4.82,7.43-4.07,4.07-9.59,6.35-15.36,6.35h-45.08v-56.04l10.63.17,34.74.46c11.91.17,21.42,9.84,21.42,21.71Z"/>
      <path class="cls-10" d="M34.37,215c-.04.08-.08.17-.17.25-.46-.41-.75-.66-.87-.75l1.04.5Z"/>
      <path class="cls-1" d="M262.17,670.02c-.21.08-.41.12-.62.17v-.04c.21,0,.41-.04.62-.12Z"/>
      <rect class="cls-1" x="261.55" y="729.71" width="17.56" height=".79"/>
      <polyline class="cls-1" points="261.55 530.05 261.55 729.71 279.11 729.71 279.11 519.38"/>
      <path class="cls-1" d="M356.48,320.26c.25,2.2-2.32,3.53-3.94,2.03-7.93-7.22-14.57-15.81-19.26-25.45-.21-.42-.41-.91-.66-1.41-.29-.71-.71-1.37-1.16-1.95-5.35-6.85-13.2-10.42-21.17-10.42-6.06,0-12.2,2.12-17.31,6.43-4.4,3.74-7.89,8.34-10.21,13.45-2.41,5.11-3.65,10.67-3.65,16.44v161.39l-11.71-14.53-3.24-4.03-2.62,1.91v-1.83l6.89-5.06-6.89-8.51v-128.18c0-19.63,8.59-38.27,23.45-51.1,7.89-6.72,17.68-10.17,27.56-10.17,4.23,0,8.51.62,12.62,1.91,4.82,1.49,9.13,4.28,12.83,7.76l5.35,4.98c1.33,1.25,2.57,2.66,3.49,4.28,5.23,9.51,7.22,22.91,8.68,34.58l.95,7.47Z"/>
      <path class="cls-10" d="M286,500.08c0,3.03-.46,6.02-1.33,8.92-1.12,3.74-2.99,7.26-5.56,10.38-1.78,2.24-3.94,4.23-6.39,5.94-3.49,2.37-7.26,3.94-11.17,4.73-11,2.28-22.87-1.7-30.22-11.12l-16.19-20.71,13.41-9.84,32.21-23.66.79-.58,2.62-1.91,3.24,4.03,11.71,14.53.12.17c4.57,5.69,6.77,12.45,6.77,19.14Z"/>
      <path class="cls-12" d="M473.66,325.87c4.28-10.96,7.1-29.8,7.1-51.26,0-33.87-7.02-61.31-15.65-61.31s-15.65,27.44-15.65,61.31,7.02,61.27,15.65,61.27c1.25,0,2.41-.54,3.57-1.62-4.81,6.6-10.42,10.38-16.4,10.38-17.97,0-32.54-34.16-32.54-76.29,0-27.81,6.35-52.18,15.86-65.5,4.4-6.18,9.51-10,14.98-10.71h.04c.54-.04,1.08-.08,1.66-.08,4.94,0,9.67,2.57,13.86,7.22l3.98,5.31.04.04c8.84,13.62,14.65,37.07,14.65,63.72,0,22.95-4.32,43.54-11.17,57.53Z"/>
      <path class="cls-12" d="M470.14,204.58l-3.98-5.31c1.37,1.54,2.74,3.32,3.98,5.31Z"/>
      <path class="cls-12" d="M480.76,274.6c0,21.46-2.82,40.31-7.1,51.26,0,.04,0,.08-.04.08-1.54,3.11-3.15,5.94-4.94,8.3-1.16,1.08-2.32,1.62-3.57,1.62-8.63,0-15.65-27.44-15.65-61.27s7.02-61.31,15.65-61.31,15.65,27.44,15.65,61.31Z"/>
      <path class="cls-8" d="M480.76,274.6c0,21.46-2.82,40.31-7.1,51.26,0,.04,0,.08-.04.08-1.49,3.82-3.15,6.68-4.94,8.3-1.16,1.08-2.32,1.62-3.57,1.62-8.63,0-15.65-27.44-15.65-61.27s7.02-61.31,15.65-61.31,15.65,27.44,15.65,61.31Z"/>
      <circle class="cls-5" cx="467.93" cy="252.68" r="15.65"/>
      <path class="cls-7" d="M588.6,172.24H123.57c-12.45,0-24.91-1.16-37.19-3.49l-17.81-3.36-12.08-2.28-33.08-6.23,99.41-47.65c7.02-3.36,11.91-10.17,13.03-18.06l10.38-74.34c1.49-10.5,10.96-17.72,21.05-16.11l135.53,21.63c2.74.46,5.48.79,8.26,1,5.31.41,10.71.46,16.02.08l105.64-7.43c11.75-.83,22,8.22,23.04,20.34l7.64,87.46c.5,5.65,4.23,10.46,9.51,12.08l115.69,36.36Z"/>
      <path class="cls-2" d="M311.23,23.32s-55.66,20.6-70.42,10.64"/>
      <path class="cls-10" d="M169.57,298.56l-24.2-42.42c-4.23-7.47-5.65-16.27-3.86-24.7l6.68-31.84c.95-4.4,3.15-8.3,6.27-11.33.83-.83,1.74-1.58,2.7-2.24,2.57-1.83,5.56-3.07,8.8-3.69,1.54-.29,3.07-.37,4.57-.33h.08c.71,0,1.37.04,2.08.17.66.08,1.33.21,1.99.33,1.91.41,3.78,1.12,5.52,2.03.54.29,1.12.58,1.62.95,1.25.79,2.45,1.74,3.53,2.78h.04c1.95,1.91,3.61,4.19,4.77,6.81l10.21,22.66"/>
      <path class="cls-10" d="M163.54,204.62l7.76,2.65c3.56,1.22,5.95,4.57,5.95,8.33v61.19"/>
      <path class="cls-10" d="M177.25,246.48l-11.67-1.34c-2.96-.34-5.13-2.95-4.93-5.92l.68-10.07c.23-3.34,3-5.93,6.35-5.93h9.57v23.27Z"/>
      <polygon class="cls-9" points="6.81 405.61 7.72 405.82 7.72 405.94 6.81 405.61"/>
      <path class="cls-9" d="M494.42,518.22c-37.94,48.15-91.53,83.35-153.09,97.92-.25.08-.54.17-.79.21-16.44,3.9-33.41,6.27-50.81,7.02-.25,0-.54.04-.79.04-3.24.17-6.56.25-9.84.25v-104.27c2.57-3.11,4.44-6.64,5.56-10.38h105.14v-59.36l.42.17c7.35,2.91,14.57,5.56,21.67,7.97v51.22l82.52,9.21Z"/>
      <path class="cls-9" d="M411.9,457.74v.04c-7.1-2.41-14.32-5.06-21.67-7.97l21.67,7.93Z"/>
      <polyline class="cls-3" points="134.24 435.65 195.78 509.01 270.32 457.2 215.14 385.97"/>
      <polygon class="cls-11" points="574.12 472.15 547.51 482.77 545.14 514.9 519.36 480.74 517.46 478.17 515.38 468.58 513.01 457.78 488.98 464.76 496.04 436.49 479.81 436.49 481.22 413.16 471.34 413.16 477.32 391.99 520.07 385.6 549.92 393.15 557.89 395.15 559.63 405.94 553.78 424.12 561.41 443.21 574.12 472.15"/>
      <path class="cls-2" d="M547.51,408.64c-.25.25-.54.54-.79.75"/>
      <path class="cls-2" d="M487.4,393.74s31.59,42.26,59.32,15.69"/>
      <path class="cls-12" d="M507,193.04l-12.7,1.83,6.35,16.23-30.47-6.48-.04-.04c-1.25-1.99-2.62-3.78-3.98-5.31-4.19-4.65-8.92-7.22-13.86-7.22-.58,0-1.12.04-1.66.08h-.04c-5.48.71-10.58,4.52-14.98,10.71,0,0-8.8-16.81-10.92-16.81s-23.99,14.11-23.99,14.11l-25.82,14.74-16.6-18.97-35.32,15.57-43.83,28.81s-17.56-49.06-17.56-50.35c.08-1.08-14.9,19.76-14.9,19.76l-61.27-21.42h-.04c-1.08-1.04-2.28-1.99-3.53-2.78-.5-.37-1.08-.66-1.62-.95-1.74-.91-3.61-1.62-5.52-2.03-.66-.17-1.33-.29-1.99-.33-.71-.12-1.37-.17-2.08-.17h-.08c-1.49-.08-3.03.04-4.57.33-3.24.62-6.23,1.87-8.8,3.69l-4.81-8.14-14.49,18.72-3.61,33.58-8.05-10.25-46.99,13.41-14.49-28.72-26.28,2.57-21.75,2.16,24.7-25.45-10.58-11.66,25.69-9.13,12.08,2.28,17.81,3.36c12.29,2.32,24.74,3.49,37.19,3.49h382.01l8.47,19.8-7.06,1Z"/>
      <circle class="cls-13" cx="426.55" cy="537.48" r="6.8"/>
    </g>
  </g>
</svg>