<?xml version="1.0" encoding="UTF-8"?>
<svg id="Calque_2" xmlns="http://www.w3.org/2000/svg" viewBox="0 0 500.7 851">
  <defs>
    <style>
      .cls-1 {
        fill: #93855d;
      }

      .cls-1, .cls-2, .cls-3, .cls-4, .cls-5, .cls-6, .cls-7, .cls-8, .cls-9, .cls-10, .cls-11, .cls-12 {
        stroke-miterlimit: 10;
      }

      .cls-1, .cls-2, .cls-3, .cls-4, .cls-5, .cls-6, .cls-7, .cls-8, .cls-10, .cls-11, .cls-12 {
        stroke: #000;
      }

      .cls-2 {
        fill: none;
      }

      .cls-3 {
        fill: gray;
      }

      .cls-4 {
        fill: #333;
      }

      .cls-5 {
        fill: #a49a79;
      }

      .cls-6 {
        fill: #2d2828;
      }

      .cls-7 {
        fill: #7498d1;
      }

      .cls-8 {
        fill: #e0d0a3;
      }

      .cls-9 {
        fill: #fff;
        stroke: #1d1d1b;
      }

      .cls-10 {
        fill: #f2f2f2;
      }

      .cls-11 {
        fill: #607ba6;
      }

      .cls-12 {
        fill: #4d4d4d;
      }
    </style>
  </defs>
  <g id="berger_évolué_saute">
    <g>
      <path class="cls-3" d="M420.97,389.02l-.03.11-.2.69-2.64,8.85c-5.08,13.84-5.08,16.6-8.96,25.25-.43.98-.95,2.04-1.49,3.22l-3.91-.69-68.01-12.24-.6-.11v-41.65c8.19,2.76,16.23,5.08,24.01,6.92,1.26.29,2.56.6,3.85.86,1.81.4,3.62.78,5.43,1.12,1.21.2,2.47.43,3.68.63,1.49.26,2.96.49,4.42.69,1.49.2,2.93.4,4.39.57,10.02,1.12,19.5,1.18,28.26,0,.8-.11,1.64-.23,2.44-.37,1.15-.17,2.27-.37,3.39-.63.17-.03.37-.06.55-.11.49-.09.98-.2,1.52-.34.34-.06.72-.17,1.12-.26.34-.11.72-.2,1.03-.29t.06-.03l1.69,7.81Z"/>
      <path class="cls-3" d="M317.15,365.81v48.28h-85.5c.69-2.38,1.06-4.77,1.06-7.24,0-5.43-1.78-10.94-5.49-15.57l-.11-.14v-70.85c15.14,8.96,30.39,17.49,45.49,25.19,3.76,1.92,7.52,3.76,11.26,5.6.34.17.69.32,1.03.49,1.55.75,3.07,1.46,4.62,2.21,3.33,1.58,6.66,3.1,9.99,4.6.34.2.78.37,1.15.49,1.64.75,3.3,1.46,4.91,2.15,2.07.89,4.08,1.78,6.12,2.58,1.81.78,3.65,1.52,5.46,2.21Z"/>
      <path class="cls-3" d="M212.83,311.64v53.45l-38.43-47.56-62.78,37.51-.34.2,17.86,21.11s-1.58-.57-2.13-.78l-.06-.03c-.06-.03-.11-.06-.2-.06-.32-.11-.69-.26-1.01-.37-1.32-.49-2.73-1.01-4.22-1.55-1.01-.37-2.04-.75-3.1-1.15l-1.64-.6-10.54-3.88c-.92-.34-1.87-.69-2.81-1.03l-13.01-4.8-9.99-3.68-17.86-6.58-5.08-1.87-12.21-4.51c-.8-.29-1.58-.57-2.36-.86-5.26-1.92-10.2-3.76-14.68-5.4-1.12-.4-2.21-.8-3.27-1.21-.52-.17-1.03-.37-1.55-.57l-2.96-1.09c-.57-.2-1.12-.4-1.67-.6l-4.45-1.64c-5.43-2.01-8.62-3.19-8.62-3.19v-.11c-3.45-15.6-5.23-31.79-5.23-48.45,0-38.54,9.68-74.85,26.77-106.53.26.14.49.4.83.66,2.18,1.9,6.75,5.74,13.21,11.09,1.15.89,2.33,1.92,3.62,2.96,3.42,2.76,7.24,5.89,11.46,9.28,2.01,1.64,4.14,3.33,6.38,5.11,2.58,2.07,5.34,4.22,8.16,6.43.95.75,1.9,1.49,2.87,2.27,1.58,1.29,3.25,2.56,4.91,3.85,7.93,6.15,16.57,12.81,25.79,19.73,1.44,1.06,2.93,2.18,4.42,3.3,2.96,2.18,6,4.45,9.08,6.72,1.87,1.35,3.7,2.73,5.6,4.11,11.72,8.56,24.15,17.35,36.99,26.19,2.3,1.61,4.62,3.19,6.98,4.77,12.18,8.27,24.76,16.51,37.57,24.56,1.87,1.18,3.7,2.33,5.57,3.48.72.43,1.41.86,2.13,1.32Z"/>
      <path class="cls-7" d="M212.83,431.23v193.64l-30.7-4.39-6.4-.92-.63-.09v-4.62C90.68,595.51,24.37,415.57,5.73,330.9c0,0,5.69,2.1,14.73,5.43.95.37,1.92.72,2.96,1.09.52.2,1.03.4,1.55.57,1.06.4,2.15.8,3.27,1.21,4.48,1.64,9.42,3.48,14.68,5.4.78.29,1.55.57,2.35.86.78.29,1.58.6,2.38.92,1.61.57,3.22,1.18,4.88,1.78,1.64.6,3.3,1.21,4.94,1.81,1.69.66,3.36,1.26,5.08,1.87,1.69.63,3.36,1.29,5.08,1.9,4.25,1.58,8.5,3.13,12.78,4.68,1.67.66,3.33,1.26,5.03,1.87,1.64.63,3.3,1.23,4.97,1.81,1.61.63,3.27,1.23,4.85,1.81.8.29,1.58.6,2.36.86,1.98.75,3.91,1.44,5.8,2.13.95.34,1.9.69,2.81,1.03s1.81.69,2.7,1.01c.72.26,1.41.55,2.1.78,1.38.52,2.73,1.01,4.05,1.49.57.2,1.12.4,1.69.6.55.23,1.09.4,1.64.6,1.06.4,2.1.78,3.1,1.15,1.49.55,2.9,1.06,4.22,1.55.32.11.69.26,1.01.37.09,0,.14.03.2.06l.06.03c.55.2,2.13.78,2.13.78l31.31,36.99.63.78,24.9-16.8-10.89,8.01,13.15,16.86c5.97,7.64,15.62,10.89,24.59,9.05Z"/>
      <path class="cls-8" d="M382.49,166.49l-3.25-4.31c1.12,1.23,2.24,2.7,3.25,4.31Z"/>
      <path class="cls-8" d="M450.53,282.35c0,12.81-1.09,25.3-3.16,37.51l-24.27-6.12-34.78,5.2-4.85,17.2h.09l-.09.32h8.01l-1.12,18.67h.03l-.03.29h13.15l-5.69,22.69.09-.03-.09.34,19.53-5.69,1.87,8.5c-.32.09-.69.17-1.03.29-.32.06-.63.14-.95.2-.06.03-.11.03-.17.06-.52.11-1.01.23-1.52.34-.17.06-.37.09-.55.11-1.12.26-2.24.46-3.39.63-.8.14-1.64.26-2.44.37-8.76,1.18-18.24,1.12-28.26,0-1.46-.17-2.9-.37-4.39-.57-1.46-.2-2.93-.43-4.42-.69-1.21-.2-2.47-.43-3.68-.63-1.81-.34-3.62-.72-5.43-1.12-1.29-.26-2.58-.57-3.85-.86-7.78-1.84-15.83-4.16-24.01-6.92v-.03l-17.63-6.46-.34-.14c-1.81-.69-3.65-1.44-5.46-2.21-2.04-.8-4.05-1.69-6.12-2.58-1.61-.69-3.27-1.41-4.91-2.15-.37-.11-.8-.29-1.15-.49-3.33-1.49-6.66-3.02-9.99-4.6-1.55-.75-3.07-1.46-4.62-2.21-.34-.17-.69-.32-1.03-.49-3.73-1.84-7.5-3.68-11.26-5.6-15.11-7.7-30.36-16.23-45.49-25.19v-60.4c0-4.71,1.01-9.22,2.99-13.38,1.87-4.16,4.71-7.9,8.3-10.94,4.14-3.5,9.13-5.23,14.07-5.23,6.49,0,12.87,2.9,17.23,8.47.34.49.69,1.01.92,1.58.23.4.37.83.55,1.15,3.82,7.84,9.22,14.82,15.68,20.71,1.32,1.21,3.39.14,3.19-1.67l-.78-6.06c-1.18-9.51-2.79-20.39-7.04-28.15-.75-1.29-1.75-2.44-2.84-3.48l-4.37-4.05c-2.99-2.81-6.52-5.08-10.43-6.32-3.33-1.03-6.81-1.55-10.25-1.55-8.04,0-16.03,2.81-22.43,8.27-12.09,10.45-19.07,25.59-19.07,41.56v50.84c-.72-.46-1.41-.89-2.13-1.32-1.87-1.15-3.71-2.3-5.57-3.48-12.81-8.04-25.39-16.28-37.57-24.56-2.36-1.58-4.68-3.16-6.98-4.77-12.84-8.85-25.27-17.63-36.99-26.19-1.9-1.38-3.73-2.76-5.6-4.11-3.07-2.27-6.12-4.54-9.08-6.72-1.49-1.12-2.99-2.24-4.42-3.3-9.22-6.92-17.86-13.58-25.79-19.73-1.67-1.32-3.33-2.58-4.91-3.85-.98-.78-1.92-1.52-2.87-2.27-2.81-2.21-5.57-4.37-8.16-6.43-2.24-1.78-4.37-3.48-6.38-5.11-4.22-3.39-8.04-6.52-11.46-9.28-1.29-1.03-2.47-2.07-3.62-2.96-6.46-5.34-11.03-9.19-13.21-11.09-.34-.26-.57-.52-.83-.66.09-.09.11-.14.14-.23.11-.2.23-.4.34-.6l.17.17c.06-.06.09-.14.11-.2l-.23-.11c1.15-2.13,2.33-4.16,3.56-6.23l21.37-2.1,11.78,23.38,38.23-10.91,6.55,8.33,2.93-27.31,11.78-15.22,3.93,6.63c-.78.52-1.52,1.15-2.21,1.81-2.53,2.47-4.31,5.63-5.08,9.22l-5.46,25.91c-1.44,6.84-.29,13.99,3.16,20.08l19.67,34.49,25.04-65.71-8.3-18.44c-.95-2.13-2.3-3.99-3.88-5.54l49.83,17.43s12.18-16.95,12.12-16.08c0,1.06,14.27,40.96,14.27,40.96l35.67-23.44,28.72-12.67,13.5,15.45,20.99-12.01s17.81-11.46,19.53-11.46,8.87,13.67,8.87,13.67c3.59-5.03,7.73-8.16,12.18-8.73h.03c.46-.03.89-.06,1.38-.06,3.99,0,7.84,2.1,11.26,5.89l3.25,4.31.03.03,24.79,5.28-5.17-13.21,10.34-1.49c24.04,35.84,38.06,78.9,38.06,125.25Z"/>
      <path class="cls-8" d="M27.81,174.85l.23.11c-.03.06-.06.14-.11.2l-.17-.17c.03-.06.03-.09.06-.11v-.03Z"/>
      <path class="cls-8" d="M139.85,246.14l-21.51-37.72c-3.45-6.09-4.6-13.24-3.16-20.08l5.46-25.91c.78-3.59,2.56-6.75,5.08-9.22.69-.66,1.44-1.29,2.21-1.81,2.07-1.49,4.51-2.5,7.15-3.02,1.23-.23,2.5-.34,3.7-.26h.06c.57,0,1.12.03,1.69.11.55.09,1.09.17,1.64.29,1.55.32,3.07.89,4.48,1.64.43.26.92.49,1.32.78,1.01.66,1.98,1.44,2.87,2.27h.03c1.58,1.55,2.93,3.42,3.88,5.54l11.6,20.13"/>
      <path class="cls-8" d="M317.49,365.95l17.63,6.46v.03c-1.44-.49-2.9-1.01-4.34-1.49-4.39-1.55-8.82-3.25-13.3-5Z"/>
      <polygon class="cls-8" points="391.48 336.46 383.46 336.46 383.55 336.14 391.51 336.14 391.48 336.46"/>
      <polygon class="cls-8" points="403.51 355.41 390.36 355.41 390.39 355.13 403.57 355.13 403.51 355.41"/>
      <path class="cls-8" d="M419.28,381.21s-.03,0-.06.03l-1.87-8.5-19.53,5.69.09-.34,19.44-5.63,1.92,8.76Z"/>
      <path class="cls-12" d="M213.35,545.08c-.17.06-.34.09-.52.11v-.03c.17,0,.34-.03.52-.09Z"/>
      <path class="cls-8" d="M28.04,174.96c-.03.06-.06.14-.11.2l-.17-.17c-.2-.17-.34-.29-.46-.37l.52.23.23.11Z"/>
      <path class="cls-1" d="M213.35,545.08c-.17.06-.34.09-.52.11v-.03c.17,0,.34-.03.52-.09Z"/>
      <path class="cls-1" d="M213.35,545.08c-.17.06-.34.09-.52.11v-.03c.17,0,.34-.03.52-.09Z"/>
      <path class="cls-1" d="M290.04,260.58c.2,1.81-1.87,2.87-3.19,1.67-6.46-5.89-11.86-12.87-15.68-20.71-.17-.32-.32-.75-.55-1.15-.23-.57-.57-1.09-.92-1.58-4.37-5.57-10.74-8.47-17.23-8.47-4.94,0-9.94,1.72-14.07,5.23-3.59,3.04-6.43,6.78-8.3,10.94-1.98,4.16-2.99,8.67-2.99,13.38v131.25l-9.51-11.8-2.64-3.27-2.13,1.55v-1.49l5.6-4.14-5.6-6.89v-104.29c0-15.97,6.98-31.1,19.07-41.56,6.4-5.46,14.39-8.27,22.43-8.27,3.45,0,6.92.52,10.25,1.55,3.91,1.24,7.44,3.5,10.43,6.32l4.37,4.05c1.09,1.03,2.1,2.18,2.84,3.48,4.25,7.75,5.86,18.64,7.04,28.15l.78,6.06Z"/>
      <path class="cls-8" d="M232.71,406.84c0,2.47-.37,4.88-1.06,7.27-.92,3.04-2.44,5.89-4.54,8.44-1.44,1.81-3.19,3.42-5.2,4.83-2.84,1.92-5.92,3.19-9.08,3.85-8.96,1.84-18.61-1.41-24.59-9.05l-13.15-16.86,10.89-8.01,26.22-19.24.63-.46,2.13-1.55,2.64,3.27,9.51,11.8.11.14c3.7,4.62,5.49,10.14,5.49,15.57Z"/>
      <path class="cls-10" d="M382.49,166.49l-3.25-4.31c1.12,1.23,2.24,2.7,3.25,4.31Z"/>
      <path class="cls-6" d="M478.84,140.19H100.61c-10.13,0-20.26-.95-30.25-2.84l-14.48-2.73-9.82-1.86-26.91-5.06,80.86-38.76c5.71-2.73,9.69-8.27,10.6-14.69l8.44-60.47c1.22-8.54,8.91-14.42,17.12-13.1l110.23,17.59c2.23.37,4.46.64,6.72.81,4.32.34,8.71.37,13.03.07l85.92-6.04c9.55-.68,17.89,6.69,18.74,16.54l6.21,71.14c.41,4.59,3.44,8.51,7.73,9.82l94.09,29.58Z"/>
      <path class="cls-2" d="M253.24,19.06s-45.27,16.75-57.28,8.65"/>
      <path class="cls-8" d="M133.11,166.52l6.31,2.16c2.9.99,4.84,3.71,4.84,6.78v49.77"/>
      <path class="cls-8" d="M144.27,200.57l-9.49-1.09c-2.41-.28-4.17-2.4-4.01-4.82l.55-8.19c.18-2.72,2.44-4.83,5.16-4.83h7.78v18.92Z"/>
      <polygon class="cls-7" points="5.64 330 6.38 330.17 6.38 330.27 5.64 330"/>
      <path class="cls-5" d="M371.5,682.84v6.46c-18.64,21.02-42.33-6.38-42.33-6.46l-9.25-41.06-66.67-28.35,39.24-9.93,63.92,21.66,15.1,57.69Z"/>
      <path class="cls-7" d="M409.14,423.9v.06c-18.01,67.41-81.34,178.56-131.43,190.39-.2.09-.43.14-.63.17-13.38,3.19-27.17,5.11-41.33,5.72-.2,0-.43.03-.63.03-2.64.14-5.34.2-8.01.2v-197.92c2.1-2.56,3.62-5.4,4.54-8.44h85.5v-48.28l.34.11c5.97,2.38,11.86,4.54,17.63,6.49v41.67l74.01,9.79Z"/>
      <path class="cls-7" d="M335.13,372.42v.03c-1.44-.49-2.9-1.01-4.34-1.49-4.39-1.55-8.82-3.25-13.3-5l17.63,6.46Z"/>
      <polyline class="cls-3" points="109.28 354.43 159.33 414.1 219.97 371.96 175.09 314.03"/>
      <path class="cls-2" d="M445.42,332.46c-.2.2-.44.44-.64.61"/>
      <path class="cls-10" d="M412.47,157.1l-10.34,1.49,5.17,13.21-24.79-5.28-.03-.03c-1.01-1.61-2.13-3.07-3.25-4.31-3.42-3.79-7.27-5.89-11.26-5.89-.49,0-.92.03-1.38.06h-.03c-4.45.57-8.59,3.71-12.18,8.73,0,0-7.15-13.67-8.87-13.67s-19.53,11.46-19.53,11.46l-20.99,12.01-13.5-15.45-28.72,12.67-35.67,23.44s-14.27-39.89-14.27-40.96c.06-.86-12.12,16.08-12.12,16.08l-49.83-17.43h-.03c-.89-.83-1.87-1.61-2.87-2.27-.4-.29-.89-.52-1.32-.78-1.41-.75-2.93-1.32-4.48-1.64-.55-.14-1.09-.26-1.64-.29-.57-.09-1.12-.11-1.69-.11h-.06c-1.21-.09-2.47.03-3.7.26-2.64.52-5.08,1.52-7.15,3.02l-3.93-6.63-11.78,15.22-2.93,27.31-6.55-8.33-38.23,10.91-11.78-23.38-21.37,2.1-17.69,1.75,20.08-20.68-8.62-9.51,20.91-7.41,9.82,1.84,14.48,2.76c9.99,1.87,20.13,2.81,30.27,2.81h310.7l6.89,16.11-5.74.8Z"/>
      <circle class="cls-11" cx="347.03" cy="437.26" r="5.53"/>
      <path class="cls-9" d="M499.67,569.76c-.34,1.84-2.93,29.15-2.93,29.15l2.93,25.96-1.81,32.45-37.05,4.39-8.79,29.41-18.32-33.37-1.49-16.49,8.82-12.18-11.75-26.39,6.23-3.79v-17.46l-10.25-22.37-23.84-29.55,30.07-32.77v-39.98l-24.44-25.42-3.76-3.91.46-1.01,1.44-3.04,15.57-33.57.23-.52-.03-.17-1.72-7.9-1.87-8.5-19.53,5.69.09-.34,5.66-22.66h-13.21l.03-.29,1.12-18.67h-8.04l.09-.32,4.77-16.92,34.78-5.2,38.08,10.02-1.09,28.29s11,21.28,7.7,26.39c-3.3,5.14,11.72,20.91,11.72,20.91,0,0-3.65,18.7-2.18,22.37,1.46,3.65,22.72,27.31,22.72,27.31l-25.65,32.8,4.39,28.61-2.21,20.54s23.47,36.68,23.09,38.49Z"/>
      <path class="cls-1" d="M227.11,422.55v427.95h-14.27v-416.77c3.16-.85,6.23-2.48,9.08-4.96,2.01-1.81,3.76-3.89,5.2-6.22Z"/>
      <path class="cls-8" d="M105.33,673.93l-13.69,13.16c-18.7,16.6-42.88-3.97-42.88-4.06l75.14-51.19,50.69-12.5,34.03,5.52-72.14,26.34-31.17,22.73Z"/>
      <path class="cls-12" d="M187.8,719.14v28.97c0,5.51-1.67,10.89-4.79,15.44l-3.84,5.6c-4.27,6.21-11.32,9.92-18.85,9.92h-92.93c-8.74,0-16.51-5.55-19.34-13.82l-1.08-3.16c-.81-2.35-1.18-4.83-1.09-7.31l2.91-72.24c0,.09,22.6,19.38,41.85,6.99l-.02,12.31,76.37-2.77c2.89-.1,5.77.42,8.45,1.53h0c7.49,3.12,12.37,10.43,12.37,18.55Z"/>
      <path class="cls-4" d="M468.69,718.84v28.97c0,5.51-1.67,10.89-4.79,15.44l-3.84,5.6c-4.27,6.21-11.32,9.92-18.85,9.92h-92.93c-8.74,0-16.51-5.55-19.34-13.82l-1.08-3.16c-.81-2.35-1.18-4.83-1.09-7.31l2.4-71.64c0,.09,23.69,27.49,42.33,6.46v12.24l76.37-2.77c2.89-.1,5.77.42,8.45,1.53h0c7.49,3.12,12.37,10.43,12.37,18.55Z"/>
      <ellipse cx="421.02" cy="339.05" rx="12.58" ry="18.77"/>
      <path class="cls-8" d="M338.93,247.83s40.32-74.26,75.29,2.93"/>
    </g>
  </g>
</svg>