<?xml version="1.0" encoding="UTF-8"?>
<svg id="Calque_2" data-name="Calque 2" xmlns="http://www.w3.org/2000/svg" xmlns:xlink="http://www.w3.org/1999/xlink" viewBox="0 0 419.19 215.56">
  <defs>
    <style>
      .cls-1 {
        stroke: url(#Dégradé_sans_nom_11-22);
      }

      .cls-1, .cls-2, .cls-3, .cls-4, .cls-5, .cls-6, .cls-7, .cls-8, .cls-9, .cls-10, .cls-11, .cls-12, .cls-13 {
        fill: none;
        stroke-miterlimit: 10;
      }

      .cls-14 {
        fill: url(#Dégradé_sans_nom_11-3);
      }

      .cls-14, .cls-15, .cls-16, .cls-17, .cls-18, .cls-19, .cls-20, .cls-21, .cls-22, .cls-23, .cls-24, .cls-25, .cls-26, .cls-27, .cls-28, .cls-29 {
        stroke-width: 0px;
      }

      .cls-15 {
        fill: url(#Dégradé_sans_nom_11-8);
      }

      .cls-2 {
        stroke: url(#Dégradé_sans_nom_11-28);
      }

      .cls-16 {
        fill: url(#Dégradé_sans_nom_11-16);
      }

      .cls-3 {
        stroke: url(#Dégradé_sans_nom_11-20);
      }

      .cls-17 {
        fill: url(#Dégradé_sans_nom_11-15);
      }

      .cls-18 {
        fill: url(#Dégradé_sans_nom_11-11);
      }

      .cls-4 {
        stroke: url(#Dégradé_sans_nom_11-23);
      }

      .cls-19 {
        fill: url(#Dégradé_sans_nom_11-5);
      }

      .cls-20 {
        fill: url(#Dégradé_sans_nom_11-6);
      }

      .cls-5 {
        stroke: url(#Dégradé_sans_nom_11-29);
      }

      .cls-21 {
        fill: url(#Dégradé_sans_nom_11-13);
      }

      .cls-22 {
        fill: url(#Dégradé_sans_nom_11-2);
      }

      .cls-23 {
        fill: url(#Dégradé_sans_nom_11-4);
      }

      .cls-6 {
        stroke: url(#Dégradé_sans_nom_11-17);
      }

      .cls-7 {
        stroke: url(#Dégradé_sans_nom_11-19);
      }

      .cls-24 {
        fill: url(#Dégradé_sans_nom_11-10);
      }

      .cls-25 {
        fill: url(#Dégradé_sans_nom_11);
      }

      .cls-26 {
        fill: url(#Dégradé_sans_nom_11-12);
      }

      .cls-8 {
        stroke: url(#Dégradé_sans_nom_11-18);
      }

      .cls-9 {
        stroke: url(#Dégradé_sans_nom_11-26);
      }

      .cls-27 {
        fill: url(#Dégradé_sans_nom_11-9);
      }

      .cls-28 {
        fill: url(#Dégradé_sans_nom_11-14);
      }

      .cls-10 {
        stroke: url(#Dégradé_sans_nom_11-27);
      }

      .cls-11 {
        stroke: url(#Dégradé_sans_nom_11-25);
      }

      .cls-12 {
        stroke: url(#Dégradé_sans_nom_11-24);
      }

      .cls-29 {
        fill: url(#Dégradé_sans_nom_11-7);
      }

      .cls-13 {
        stroke: url(#Dégradé_sans_nom_11-21);
      }
    </style>
    <linearGradient id="Dégradé_sans_nom_11" data-name="Dégradé sans nom 11" x1="110.75" y1="149.35" x2="110.75" y2="194.97" gradientUnits="userSpaceOnUse">
      <stop offset="0" stop-color="#ff006e"/>
      <stop offset=".09" stop-color="#ff2a57"/>
      <stop offset=".23" stop-color="#ff6936"/>
      <stop offset=".35" stop-color="#ff971f"/>
      <stop offset=".44" stop-color="#ffb310"/>
      <stop offset=".49" stop-color="#ffbe0b"/>
      <stop offset=".67" stop-color="#cd8864"/>
      <stop offset=".82" stop-color="#a55dad"/>
      <stop offset=".94" stop-color="#8c42da"/>
      <stop offset=".99" stop-color="#8338ec"/>
    </linearGradient>
    <linearGradient id="Dégradé_sans_nom_11-2" data-name="Dégradé sans nom 11" x1="150.97" y1="137.12" x2="150.97" y2="167.33" xlink:href="#Dégradé_sans_nom_11"/>
    <linearGradient id="Dégradé_sans_nom_11-3" data-name="Dégradé sans nom 11" x1="202.72" y1="122.55" x2="202.72" y2="152.34" xlink:href="#Dégradé_sans_nom_11"/>
    <linearGradient id="Dégradé_sans_nom_11-4" data-name="Dégradé sans nom 11" x1="241.07" y1="117.85" x2="241.07" y2="152.28" xlink:href="#Dégradé_sans_nom_11"/>
    <linearGradient id="Dégradé_sans_nom_11-5" data-name="Dégradé sans nom 11" x1="279.53" y1="133.49" x2="279.53" y2="161.99" xlink:href="#Dégradé_sans_nom_11"/>
    <linearGradient id="Dégradé_sans_nom_11-6" data-name="Dégradé sans nom 11" x1="321.37" y1="142.31" x2="321.37" y2="189.57" xlink:href="#Dégradé_sans_nom_11"/>
    <linearGradient id="Dégradé_sans_nom_11-7" data-name="Dégradé sans nom 11" x1="174.11" y1="126.96" x2="174.11" y2="156.76" xlink:href="#Dégradé_sans_nom_11"/>
    <linearGradient id="Dégradé_sans_nom_11-8" data-name="Dégradé sans nom 11" x1="167.77" y1="112.89" x2="167.77" y2="128.04" xlink:href="#Dégradé_sans_nom_11"/>
    <linearGradient id="Dégradé_sans_nom_11-9" data-name="Dégradé sans nom 11" x1="57.97" y1="60.84" x2="57.97" y2="155.16" xlink:href="#Dégradé_sans_nom_11"/>
    <linearGradient id="Dégradé_sans_nom_11-10" data-name="Dégradé sans nom 11" x1="124.86" y1="45.26" x2="124.86" y2="106.33" xlink:href="#Dégradé_sans_nom_11"/>
    <linearGradient id="Dégradé_sans_nom_11-11" data-name="Dégradé sans nom 11" x1="179.54" y1="32.12" x2="179.54" y2="88.36" xlink:href="#Dégradé_sans_nom_11"/>
    <linearGradient id="Dégradé_sans_nom_11-12" data-name="Dégradé sans nom 11" x1="295.1" y1="38.74" x2="295.1" y2="111.12" xlink:href="#Dégradé_sans_nom_11"/>
    <linearGradient id="Dégradé_sans_nom_11-13" data-name="Dégradé sans nom 11" x1="369.36" y1="73.99" x2="369.36" y2="168.04" xlink:href="#Dégradé_sans_nom_11"/>
    <linearGradient id="Dégradé_sans_nom_11-14" data-name="Dégradé sans nom 11" x1="108.33" y1="20.6" x2="108.33" y2="49.22" xlink:href="#Dégradé_sans_nom_11"/>
    <linearGradient id="Dégradé_sans_nom_11-15" data-name="Dégradé sans nom 11" x1="232.88" y1="31.15" x2="232.88" y2="85.73" xlink:href="#Dégradé_sans_nom_11"/>
    <linearGradient id="Dégradé_sans_nom_11-16" data-name="Dégradé sans nom 11" x1="235.09" y1="0" x2="235.09" y2="30.52" xlink:href="#Dégradé_sans_nom_11"/>
    <linearGradient id="Dégradé_sans_nom_11-17" data-name="Dégradé sans nom 11" x1="136.12" y1="202.08" x2="151.21" y2="202.08" xlink:href="#Dégradé_sans_nom_11"/>
    <linearGradient id="Dégradé_sans_nom_11-18" data-name="Dégradé sans nom 11" x1="154.68" y1="203.97" x2="169.55" y2="203.97" xlink:href="#Dégradé_sans_nom_11"/>
    <linearGradient id="Dégradé_sans_nom_11-19" data-name="Dégradé sans nom 11" x1="169.15" y1="203.9" x2="184.05" y2="203.9" xlink:href="#Dégradé_sans_nom_11"/>
    <linearGradient id="Dégradé_sans_nom_11-20" data-name="Dégradé sans nom 11" x1="183.75" y1="200.75" x2="191.72" y2="200.75" xlink:href="#Dégradé_sans_nom_11"/>
    <linearGradient id="Dégradé_sans_nom_11-21" data-name="Dégradé sans nom 11" x1="191.59" y1="203.97" x2="202.1" y2="203.97" xlink:href="#Dégradé_sans_nom_11"/>
    <linearGradient id="Dégradé_sans_nom_11-22" data-name="Dégradé sans nom 11" x1="201.99" y1="203.97" x2="214.72" y2="203.97" xlink:href="#Dégradé_sans_nom_11"/>
    <linearGradient id="Dégradé_sans_nom_11-23" data-name="Dégradé sans nom 11" x1="214.89" y1="203.9" x2="226.1" y2="203.9" xlink:href="#Dégradé_sans_nom_11"/>
    <linearGradient id="Dégradé_sans_nom_11-24" data-name="Dégradé sans nom 11" x1="225.98" y1="203.9" x2="240.88" y2="203.9" xlink:href="#Dégradé_sans_nom_11"/>
    <linearGradient id="Dégradé_sans_nom_11-25" data-name="Dégradé sans nom 11" x1="244.72" y1="203.97" x2="255.31" y2="203.97" xlink:href="#Dégradé_sans_nom_11"/>
    <linearGradient id="Dégradé_sans_nom_11-26" data-name="Dégradé sans nom 11" x1="254.58" y1="202.66" x2="264.38" y2="202.66" xlink:href="#Dégradé_sans_nom_11"/>
    <linearGradient id="Dégradé_sans_nom_11-27" data-name="Dégradé sans nom 11" x1="264.19" y1="203.97" x2="276.93" y2="203.97" xlink:href="#Dégradé_sans_nom_11"/>
    <linearGradient id="Dégradé_sans_nom_11-28" data-name="Dégradé sans nom 11" x1="277.1" y1="203.9" x2="288.31" y2="203.9" xlink:href="#Dégradé_sans_nom_11"/>
    <linearGradient id="Dégradé_sans_nom_11-29" data-name="Dégradé sans nom 11" x1="287.74" y1="206.4" x2="301.51" y2="206.4" xlink:href="#Dégradé_sans_nom_11"/>
  </defs>
  <g id="Calque_1-2" data-name="Calque 1">
    <g>
      <g>
        <path class="cls-25" d="M126.9,163.75c1.68.69,3.61,2.12,5.82,4.26,2.21,2.14,3.88,3.07,5.06,2.81-7.25,4.28-10.77,6.68-17.51,12.01.98-1.09.76-2.59-.65-4.52-.54-.74-1.69-2.24-3.48-4.45-1.77-2.19-3.48-2.48-5.02-.79,2.21,2.81,3.32,4.22,5.53,7.03,1.19,1.8,2.72,2.43,4.58,1.97-6.11,4.73-9.06,7.31-14.68,12.89.47-1,.52-1.94.19-2.8-.33-.86-.86-1.66-1.59-2.38-6.07-6.29-9.11-9.44-15.18-15.73-1.02-1.17-2-2-2.95-2.51-.95-.51-2.05-.22-3.31.86,4.67-4.66,7.09-6.87,12.06-11.04,1.39-1.21,2.09-1.8,3.5-2.97,6.48-5.33,11.37-8.04,14.18-8.71,2.82-.68,5.17-.3,7.01,1.04,1.84,1.34,2.56,3.54,2.32,6.53-.24,3.02-2.05,5.74-5.41,8.38,3.18-2.55,6.43-3.15,9.53-1.9ZM108.56,169.91c1.37-.45,1.95-1.44,1.74-2.93-.21-1.5-1.33-3.45-3.4-5.76-2.08-2.32-4.11-2.64-6-.87.32.39.66.83,1.08,1.35.32.39.66.86,1.04,1.34,2.22,2.74,3.32,4.12,5.54,6.86Z"/>
        <path class="cls-22" d="M166.13,152.85c1.43,1.98,2.58,3.25,4.36,3.53-5.41,1.68-8.09,2.64-13.37,4.82-1.51.62-3-.24-4.55-2.61-.4,3.23-2.27,5.57-5.67,7.23-1.87.92-3.7,1.4-5.54,1.5-1.88.1-3.59-.21-5.17-.9-1.58-.69-2.84-1.75-3.72-3.21-.87-1.44-1.2-3.07-.96-4.81.24-1.77.97-3.48,2.2-5.09,1.21-1.6,2.88-2.94,4.94-3.97,1.62-.81,3.3-1.3,5.06-1.48-2.78-3.19-10.95-.52-11.83,3.57-.64-12.05,15.85-18.14,24.7-11.7,3.97,5.17,5.88,7.8,9.54,13.13ZM146.17,150.88c-.92-.54-1.76-.69-2.42-.39-.63.29-.88.93-.8,1.82.08.89.5,1.91,1.25,2.94.77,1.05,1.64,1.88,2.55,2.4.94.53,1.75.68,2.34.44.61-.25.89-.89.82-1.78-.07-.88-.45-1.94-1.18-3.01-.73-1.08-1.63-1.88-2.56-2.43Z"/>
        <path class="cls-14" d="M198.15,124.13c.87.44,1.51,1.1,1.86,1.97,1.72-1.34,3.48-2.27,5.28-2.8,1.78-.52,3.48-.79,5.08-.75,1.59.03,3,.59,4.18,1.63,1.19,1.05,2.06,2.47,2.63,4.26,1.72,6.41,2.5,9.63,3.9,16.07.71,2.94,1.59,4.61,2.65,5.04-4.8-.22-7.2-.24-12-.09-1.37.03-2.4-.09-3.06-.4s-1.13-.73-1.38-1.28c-.25-.55-.4-1.17-.53-1.79-.04-.21-.11-.43-.16-.64-1.44-5.94-2.2-8.9-3.83-14.8-.17-.46-.41-.74-.78-.88s-.79-.15-1.3-.07c.57,6.23.86,9.34,1.43,15.57.02.2.05.37.07.54.13.98.25,1.9.57,2.54.31.62,1.05,1.14,2.21,1.57-7.43.56-11.14,1.06-18.48,2.51.62-.51,1.08-1.15,1.34-1.95.25-.78.24-1.91-.05-3.36-.92-5.05-1.39-7.57-2.31-12.61-.17-1.64-.55-2.71-1.11-3.22-.55-.51-1.46-.76-2.66-.68,4.55-2.8,6.9-4.13,11.74-6.62.36-.06.7-.13,1.02-.16,1.57-.18,2.82-.03,3.69.4Z"/>
        <path class="cls-23" d="M241.07,119.15c.75.6,1.23,1.39,1.39,2.32.16.92.12,1.97-.06,3.12-.15,1.08-.23,1.62-.38,2.7,4.61-1.94,9.18-1.28,13.11,1.9,3.93,3.18,5.33,7.29,4.29,11.92-1.02,4.5-3,7.63-5.59,9.32-2.61,1.7-5.21,2.22-7.93,1.63-2.72-.6-4.93-2.31-6.74-5.24-.21.74-.54,1.42-.99,2.03-.45.6-1.08,1.06-1.91,1.33-.83.28-1.91.28-3.26.03-4.23-.42-6.35-.56-10.6-.7.63-.21,1.22-.65,1.75-1.32.52-.66.84-1.35.92-2.05.41-8,.62-12.01,1.04-20.01,0-1.01-.09-1.79-.29-2.34-.2-.55-.5-.98-.92-1.31-.42-.33-.94-.64-1.6-.97,5.15-1.65,7.79-2.38,13.18-3.66.36,0,.71.04,1.04.08,1.59.18,2.8.62,3.57,1.23ZM240.22,139.95c-.35,2.34.14,3.28,1.47,2.88,1.34-.4,2.27-2.14,2.74-5.15.47-3.04.35-5.02-.37-5.92-.71-.89-1.6-1.01-2.63-.32-.48,3.41-.72,5.11-1.21,8.52Z"/>
        <path class="cls-19" d="M291.05,139.11c1.88,1.61,3.37,3.39,4.41,5.26,1.05,1.88,1.63,3.81,1.74,5.7.11,1.9-.27,3.69-1.14,5.33-.88,1.66-2.12,2.98-3.7,4.01-1.55,1.02-3.34,1.74-5.3,2.16-1.95.41-4.02.51-6.18.32-2.16-.19-4.28-.72-6.43-1.57-2.16-.86-4.06-1.93-5.75-3.26-1.69-1.33-3.11-2.82-4.22-4.45-1.12-1.64-1.9-3.38-2.32-5.19-.43-1.82-.42-3.65.09-5.45.51-1.79,1.45-3.38,2.82-4.68,1.36-1.29,3.08-2.29,5.12-2.95,2.02-.66,4.3-.94,6.76-.83,2.46.11,4.97.66,7.51,1.66,2.51,1,4.73,2.33,6.61,3.94ZM276.68,138.28c-.32.74-.52,1.85-.54,3.29-.03,1.45.08,3.12.32,5.02.4,2.92.94,5.44,1.65,7.59.71,2.13,1.44,3.45,2.21,3.81.5.24.97-.03,1.34-.76.37-.74.63-1.84.78-3.26.15-1.42.17-3.11-.02-5.03-.28-2.91-.86-5.5-1.71-7.65-.85-2.17-1.79-3.52-2.67-3.86-.55-.21-1.04.1-1.36.83Z"/>
        <path class="cls-20" d="M306.78,177.81c-.33-.23-.49-.35-.82-.58-.56-.37-1.24-.83-2.05-1.38-.81-.55-1.63-1.08-2.46-1.62-.84-.54-1.56-1.03-2.15-1.39-.69-.42-1.23-.93-1.58-1.58-.34-.65-.52-1.35-.58-2.09-.06-.73-.05-1.45.07-2.11.53-2.17.79-3.26,1.28-5.44.08-.42.12-.63.2-1.05-.03-.02-.04-.03-.07-.06.29-1.21.43-1.81.7-3.02.51-2.65.76-3.97,1.21-6.64.18-1.14.34-2.4.45-3.79.11-1.39-.31-2.98-1.34-4.74,4.16,2.1,6.22,3.22,10.27,5.6.31.17.63.33.91.5,1.39.84,2.39,1.79,3.02,2.79.63,1,.97,2.08,1.05,3.18.07,1.1-.04,2.28-.32,3.5-1.17,4.6-1.81,6.88-3.16,11.4,2.43-1.87,3.66-2.79,6.15-4.6.42-1.36.62-2.04,1.02-3.41.55-1.86.87-3.26.96-4.15.09-.9-.32-2.24-1.25-3.99,4.05,2.74,6.04,4.18,9.94,7.22,2.01,1.55,3.34,3.2,3.93,4.86.59,1.67.47,3.57-.41,5.64-1.66,4.34-2.53,6.49-4.36,10.73,4.34-2.63,7.5-4.82,9.28-6.73,1.79-1.91,2.13-4.21.93-6.85,2.59,2.22,3.86,3.37,6.37,5.73.8.77,1.31,1.45,1.53,2,.22.55.1,1.02-.37,1.39-.47.37-1.09.74-1.87,1.11-8.95,4.17-13.29,6.44-21.68,11.34-.3-.27-.45-.4-.75-.67-.53-.45-1.15-1-1.89-1.64-.76-.65-1.52-1.3-2.28-1.94-.78-.65-1.46-1.22-2.01-1.67-.96-.78-1.55-1.7-1.68-2.82-.14-1.13-.08-2.2.22-3.19.78-2.08,1.16-3.13,1.9-5.23.13-.4.2-.6.33-.99-3.53,2.49-5.26,3.77-8.66,6.38Z"/>
        <path class="cls-29" d="M172.34,127.5c1.82-.55,3.29-.67,4.34-.41,1.07.26,1.87.83,2.38,1.68.52.85.89,1.91,1.11,3.18,1.37,6.48,2.05,9.72,3.42,16.2.18,1.12.52,2,1.04,2.6.5.59,1.26,1.01,2.25,1.26-7.46,1.45-11.16,2.4-18.44,4.76.82-.68,1.27-1.5,1.34-2.41.08-.93-.04-1.89-.38-2.88-1.54-5.01-2.31-7.52-3.86-12.53-.03-.09-.05-.17-.07-.24-.25-.98-.51-1.73-.77-2.27-.26-.54-.64-.9-1.15-1.04-.49-.14-1.25-.12-2.24.13,4.24-3.34,6.44-4.94,11.02-8Z"/>
        <path class="cls-15" d="M169.72,128.04c-1.23-4.64-5.43-6.77-12.1-4.61,6.67-2.16,9.4-5.57,8.08-10.54,1.34,5.06,6.24,6.41,12.22,5.18-5.98,1.23-9.45,5.26-8.2,9.98Z"/>
      </g>
      <g>
        <path class="cls-27" d="M94.76,90.47c3.4,1.48,7.13,4.5,11.22,8.96s7.36,6.48,9.96,6.09c-14.2,6.43-27.69,14.49-40.39,23.49,2.31-2.25,2.2-5.29-.34-9.2-.97-1.5-3.07-4.54-6.33-9-3.24-4.44-6.83-4.99-10.53-1.42,4.05,5.68,6.08,8.51,10.15,14.19,2.12,3.63,5.22,4.86,9.25,3.89-11.77,8.61-22.61,17.67-33.2,27.7,1.11-2.15,1.37-4.11.81-5.86-.56-1.75-1.54-3.34-2.96-4.76-9.79-10.29-19.58-20.58-29.37-30.87-1.96-2.31-3.88-3.92-5.81-4.85-1.93-.93-4.34-.14-7.22,2.4,8.89-8.88,18.31-17.22,28.21-24.96,3.29-2.65,4.96-3.95,8.32-6.48,10.08-7.46,21.39-15.46,33.39-18.27,6.18-1.45,11.41-.44,14.99,2.37s4.42,7.29,2.95,13.3c-1.48,6.07-6.22,11.48-14.2,16.85,7.55-5.19,14.79-6.26,21.09-3.54ZM53.63,102.98c3.05-1.01,4.53-3.06,4.46-6.1-.07-3.07-1.97-7.04-5.82-11.7-3.88-4.69-8.19-5.26-12.73-1.47.58.8,1.22,1.68,1.99,2.73.58.8,1.2,1.74,1.9,2.7,4.08,5.53,6.13,8.3,10.21,13.84Z"/>
        <path class="cls-24" d="M119.34,47.35c4.08-1.62,7.42-2.27,9.82-2.05,2.45.23,4.33,1.15,5.57,2.67,1.24,1.53,2.19,3.53,2.79,5.96,3.04,10.32,6.09,20.64,9.13,30.96.5,2.16,1.35,3.79,2.55,4.86,1.17,1.05,2.88,1.69,5.09,1.97-13.75,4.06-26.8,8.83-39.93,14.59,1.69-1.64,2.54-3.4,2.58-5.23.03-1.85-.36-3.72-1.27-5.55-4.12-9.36-6.18-14.04-10.3-23.4-.07-.16-.14-.32-.2-.45-.7-1.84-1.37-3.24-2.03-4.22-.66-.98-1.55-1.54-2.71-1.64-1.12-.1-2.82.22-5.01,1.1,7.52-6.94,15.62-13.57,23.91-19.57Z"/>
        <path class="cls-18" d="M172.11,38.25c-3.15,1.43,1.28,5.33,18.62,12.01,8.42,2.9,24.98,7.56,21.26,19.74-5.14,10.07-17.87,14.98-28.34,16.32-9.9,1.27-20.98,3.2-31.04,1.13.52-7.11.86-10.67,1.7-17.8,5.36,3.7,33.29,14.2,34.21,9.47.5-2.55-16.48-9.46-22.31-11.3-20.84-6.59-19.07-13.44-19.68-16.37,2.65-12.19,18.31-16.45,28.7-18.12,9.3-1.5,20.4-1.7,29.85-.01-2.46,6.11-3.63,9.18-5.81,15.34-6.63-5.94-20.21-13.56-27.17-10.4Z"/>
        <path class="cls-26" d="M298.99,42.89c1.56,1.49,2.44,3.21,2.54,5.07,4.7-1.01,9.23-1.2,13.52-.61,4.24.59,8.1,1.61,11.53,3.12,3.39,1.49,6,3.8,7.69,6.74,1.71,2.98,2.45,6.34,2.25,10.06-1.3,10.85-2.82,21.55-4.59,32.33-.89,5.91-.43,9.72,1.41,11.51-9.7-5.08-14.66-7.34-24.76-11.27-2.87-1.15-4.92-2.23-6.07-3.35-1.15-1.12-1.79-2.27-1.9-3.46-.11-1.19.05-2.45.26-3.67.07-.4.1-.86.15-1.29,1.28-9.9,2.31-19.88,3.1-29.83-.02-.96-.33-1.69-1.01-2.23-.69-.54-1.59-.92-2.73-1.19-2.88,9.74-5.76,19.49-8.64,29.23-.11.37-.18.71-.26,1.02-.46,1.84-.89,3.63-.7,5.04.18,1.37,1.35,2.9,3.43,4.63-13.39-3.93-26.72-7.3-40.56-9.25,1.66-.51,3.07-1.38,4.17-2.65,1.08-1.25,1.84-3.34,2.26-6.19,1.6-9.87,2.4-14.81,4-24.68.81-3.11.74-5.33-.1-6.67-.83-1.31-2.63-2.4-5.28-3.09,9.93-1.76,20.18-2.94,30.25-3.5.83.16,1.62.32,2.34.5,3.54.89,6.14,2.17,7.7,3.66Z"/>
        <path class="cls-21" d="M348.92,111.36c-3.52-4.67-5.9-9.35-7.08-14.17-1.17-4.79-.88-9.24,1.16-13.29,2.02-4.02,5.45-6.94,10.36-8.54,4.88-1.6,10.63-1.84,17.08-.54,6.45,1.3,13.17,4.16,19.61,8.65,3.82,2.67,7.18,5.64,10.02,8.78.11.13,6.92,5.23,19.13,17.08-3.67.1-5.49.19-9.11.42.52,1.99.85,3.92.96,5.82.32,5.24-1.15,9.52-4.24,12.84-3.09,3.32-7.19,5.1-12.18,5.58-5.02.48-10.36-.21-16.04-1.98-4.65-1.45-9.29-4.01-13.55-6.29-4.57-2.45-9.05-3.34-11.85-3.4-3.56-.06-5.65.79-6.29,2.42-.65,1.63-.26,3.35,1.11,5.29,1.35,1.91,3.25,2.89,5.76,2.86,2.73-.04,5.37-.22,7.77-.55,2.22-.31,4.55-.41,6.93-.29,2.37.11,4.97.79,7.85,2.06,5.38,2.57,9.26,6.17,11.42,10.43,2.17,4.27,2.72,8.47,1.71,12.46-1.01,3.99-3.52,6.95-7.25,9-3.75,2.06-8.76,2.48-14.81,1.66-3.49-.67-6.7-2-9.79-4.03-3.1-2.03-5.66-4.35-7.79-7.04-2.13-2.68-3.5-5.37-4.02-8.1-.53-2.73.13-5.21,2.13-7.38-2.48,1.63-5.51,2.46-9,2.6-3.51.14-6.85-.52-10.12-2.04-3.27-1.52-6.14-4.11-7.98-7.69-1.4-2.71-1.61-5.77-.75-8.66.86-2.89,2.84-5.45,6.14-7.51,3.28-2.04,7.86-3.27,13.79-3.41,2.82.01,5.86.47,9.03,1.32,1.89.49,3.61,1.03,5.16,1.6-1.91-1.88-3.67-3.87-5.23-5.95ZM380.26,93.42c-1.1-4.42-2.67-7.46-4.37-8.54-1.58-1.01-3.09.04-4.13,2.96-1.05,2.95-1.53,7.19-1.59,12.62-.06,5.42.38,10.34,1.18,14.66.8,4.32,1.86,7.22,3.34,8.33,1.34,1.01,2.9.09,4.25-2.73,1.35-2.82,2.29-6.95,2.58-12.35.3-5.48-.16-10.51-1.27-14.95ZM355.09,139.18c-.18,3.89,8.95,3.89,15.17.35.74-.49.95-1.49-.28-1.84-2.63-.77-9.77.56-14.89,1.49Z"/>
        <path class="cls-28" d="M113.43,49.22c-4.38-11.69-19.3-9.43-28.01-4.79,9.25-4.21,21.47-11.91,17.26-23.82,4.68,11.15,19.23,9.72,28.54,6.63-9.45,2.41-21.63,10.53-17.8,21.98Z"/>
        <path class="cls-17" d="M240.42,31.15c4.34.13,7.63.86,9.73,2.02,2.14,1.18,3.49,2.77,4.01,4.66.52,1.9.59,4.11.18,6.57-1.32,10.68-2.64,21.35-3.97,32.03-.41,2.18-.27,4.02.39,5.47.65,1.43,1.96,2.7,3.86,3.83-14.06-1.71-27.77-2.53-41.93-2.5,2.16-.83,3.62-2.1,4.37-3.76.76-1.68,1.14-3.56,1.04-5.6-.03-10.22-.05-15.34-.08-25.56v-.49c.09-1.97.04-3.52-.17-4.68-.21-1.16-.79-2.03-1.8-2.59-.97-.54-2.62-.92-4.93-1,9.52-3.35,19.44-6.2,29.29-8.41Z"/>
        <path class="cls-16" d="M234.34,30.52c.67-12.34-13.57-16.32-23.38-15.57,10.11-.16,24.09-2.46,24.94-14.95-.19,12.04,13.56,16.55,23.3,17.41-9.61-1.55-23.85,1.14-24.87,13.11Z"/>
      </g>
      <g>
        <path class="cls-6" d="M137.76,207.95c.11-.83.26-1.72.43-2.66.18-.94.36-1.88.55-2.82.19-.94.39-1.84.6-2.72.21-.88.41-1.68.6-2.4l-1.63-1.51.53-1.7,5.71.34,2.71-.34c.58,2.56,1.08,4.93,1.5,7.12s.75,4.28.97,6.28l.79.67.14,1.68-5.93.22-.67-.31-.14-1.46.82-.26-.22-2.33h-2.47c-.02.22-.03.46-.04.7,0,.24-.01.47-.01.7l1.25,1.08.14,1.68-5.93.22-.67-.31-.14-1.46,1.1-.36ZM143.18,197.46c-.21.78-.39,1.63-.54,2.53-.15.9-.28,1.84-.4,2.8h1.99c-.13-1.09-.25-2.09-.36-3-.11-.91-.23-1.69-.36-2.33h-.34Z"/>
        <path class="cls-8" d="M160.94,200.53v5.16c0,.38.07.66.2.82.14.16.4.24.78.24.16,0,.34-.02.54-.05.2-.03.41-.09.64-.17v-4.82l-1.37-1.8-.02-1.51,4.32-.67.84.26.98,2.54v6l1.01,1.66.14,1.68-4.22.34-1.25-1.34-1.82,1.15c-.42.08-.84.13-1.26.16s-.82.04-1.19.04c-1.18,0-1.99-.31-2.42-.94-.43-.62-.65-1.51-.65-2.66v-4.9l-.98-1.8-.02-1.51,4.32-.67.84.26.6,2.54Z"/>
        <path class="cls-7" d="M177.62,202.84c0-.37-.08-.64-.25-.82s-.48-.26-.92-.26c-.22,0-.56.04-1.01.12v5.09l1.44,1.22.14,1.68-6.53.22-.67-.31-.14-1.46,1.01-.53v-6.07l-.98-1.8-.02-1.51,4.32-.67.84.26.31,1.34,2.21-1.37c.78-.16,1.55-.24,2.3-.24.53,0,.97.07,1.32.2.35.14.63.34.84.62.21.28.35.64.43,1.08.08.44.12.96.12,1.57v6.02l.98.96.14,1.68-5.35.22-.77-.43.24-1.32v-5.5Z"/>
        <path class="cls-3" d="M190.03,200.53v6.43l1.01,1.22.14,1.68-6.05.26-.72-.19-.14-1.63,1.01-.79v-5.81l-.98-1.8-.02-1.51,4.32-.67.84.26.6,2.54ZM184.78,192.32l4.08-.89.58.98.6,3.5-4.06.84-.58-1.01-.62-3.43Z"/>
        <path class="cls-13" d="M199.01,210.11c-.37.06-.98.1-1.85.1-.8,0-1.51-.1-2.14-.29-.62-.19-1.15-.51-1.58-.95-.43-.44-.76-1.02-1-1.75-.23-.73-.35-1.63-.35-2.7,0-2.16.44-3.83,1.33-5.02.89-1.18,2.35-1.78,4.38-1.78.59,0,1.15.04,1.67.12.52.08,1.04.2,1.55.36l.36,3.65-.89.82-1.85-1.46c-.06-.02-.13-.02-.19-.02h-.22c-.21,0-.43.02-.66.06-.23.04-.44.1-.61.18-.08.19-.15.51-.22.95-.06.44-.1.95-.1,1.52,0,.43.02.83.07,1.19.05.36.14.67.29.92.14.26.36.45.64.59.28.14.65.2,1.12.2.34,0,.69-.03,1.07-.1.38-.06.75-.17,1.12-.31l.58,2.86-2.52.86Z"/>
        <path class="cls-1" d="M212.66,208.5c-.18.22-.4.44-.66.64-.26.2-.58.38-.96.54-.38.16-.81.29-1.31.38-.5.1-1.07.14-1.73.14-.91,0-1.71-.1-2.4-.3-.69-.2-1.26-.52-1.73-.96-.46-.44-.81-1.02-1.04-1.74-.23-.72-.35-1.6-.35-2.64,0-.69.05-1.31.14-1.86.1-.55.23-1.04.4-1.48.17-.43.36-.81.58-1.14.22-.33.44-.61.68-.85.46-.5,1.07-.87,1.82-1.13s1.69-.38,2.81-.38c1.79,0,3.12.46,4,1.39.87.93,1.31,2.38,1.31,4.37,0,.66-.04,1.24-.12,1.75-.08.51-.19.96-.34,1.36-.14.39-.31.74-.5,1.06-.19.31-.39.6-.6.85ZM209.78,206.65c.05-.35.09-.79.13-1.31.04-.52.06-1.06.06-1.62,0-.35-.02-.69-.07-1.01-.05-.32-.13-.6-.25-.85-.12-.25-.29-.44-.5-.59s-.48-.22-.8-.22c-.18,0-.36.02-.56.07s-.39.11-.56.19c-.08.29-.14.66-.19,1.1-.05.45-.07,1-.07,1.66,0,.86.11,1.56.32,2.08.22.52.6.78,1.16.78.21,0,.43-.02.67-.07.24-.05.46-.12.67-.22Z"/>
        <path class="cls-4" d="M215.45,199.91v-1.51l4.3-.67.84.26.43,1.87.98-1.82c.38-.11.75-.19,1.09-.24.34-.05.71-.07,1.09-.07.18,0,.4.03.67.08.27.06.51.16.72.3l-.43,4.58-1.49.24c-.24-.22-.49-.42-.74-.58-.26-.16-.5-.24-.74-.24-.13.08-.28.22-.46.43-.18.21-.35.51-.53.91v3.26l2.69,1.46.14,1.68-7.78.22-.67-.31-.14-1.46,1.01-.53v-6.07l-.98-1.8Z"/>
        <path class="cls-12" d="M234.45,202.84c0-.37-.08-.64-.25-.82s-.48-.26-.92-.26c-.22,0-.56.04-1.01.12v5.09l1.44,1.22.14,1.68-6.53.22-.67-.31-.14-1.46,1.01-.53v-6.07l-.98-1.8-.02-1.51,4.32-.67.84.26.31,1.34,2.21-1.37c.78-.16,1.55-.24,2.3-.24.53,0,.97.07,1.32.2.35.14.63.34.84.62.21.28.35.64.43,1.08.08.44.12.96.12,1.57v6.02l.98.96.14,1.68-5.35.22-.77-.43.24-1.32v-5.5Z"/>
        <path class="cls-11" d="M254.18,202.07l-1.56.19-.86-1.27c-.35-.18-.78-.26-1.27-.26h-.17s-.11,0-.19.02c-.05.1-.07.18-.07.26s.02.18.05.3c.03.12.15.26.36.42.21.14.44.3.7.47s.52.34.79.5c.27.17.54.34.8.52.26.18.5.35.71.53.45.38.78.77,1.01,1.15.22.38.34.9.34,1.54,0,1.25-.35,2.18-1.06,2.81-.42.37-.94.62-1.58.74s-1.34.19-2.11.19c-.83,0-1.63-.08-2.4-.23-.77-.15-1.47-.35-2.11-.59l-.29-3.38,2.06-.65.62,1.58c.64.32,1.29.48,1.94.48h.17c.06,0,.14,0,.22-.02.03-.05.05-.09.06-.13,0-.04.01-.08.01-.11,0-.16-.04-.31-.12-.44-.08-.14-.22-.27-.43-.4-.27-.18-.54-.34-.8-.5-.26-.16-.53-.33-.8-.52-.27-.18-.55-.39-.84-.61-.29-.22-.59-.5-.91-.82-.64-.64-.96-1.42-.96-2.33,0-.74.11-1.32.34-1.75.22-.43.54-.8.96-1.1.42-.3.92-.53,1.52-.68s1.36-.23,2.27-.23c.7,0,1.37.06,1.99.19.62.13,1.27.33,1.94.6l-.31,3.53Z"/>
        <path class="cls-9" d="M255.36,197.97h1.42l-.36-1.78,4.15-1.03,1.03.19-.19,2.62h2.45l-.14,2.64-2.35.58.1,1.44v3.53c0,.46.14.77.43.92.29.15.71.26,1.27.32l.24,2.11-1.73.6c-.42.05-.86.07-1.34.07-1.06,0-1.92-.27-2.59-.8-.67-.54-1.01-1.4-1.01-2.6v-4.1l.17-1.61-1.78-1.3.24-1.8Z"/>
        <path class="cls-10" d="M274.87,208.5c-.18.22-.4.44-.66.64-.26.2-.58.38-.96.54-.38.16-.81.29-1.31.38-.5.1-1.07.14-1.73.14-.91,0-1.71-.1-2.4-.3-.69-.2-1.26-.52-1.73-.96-.46-.44-.81-1.02-1.04-1.74-.23-.72-.35-1.6-.35-2.64,0-.69.05-1.31.14-1.86.1-.55.23-1.04.4-1.48.17-.43.36-.81.58-1.14.22-.33.44-.61.68-.85.46-.5,1.07-.87,1.82-1.13s1.69-.38,2.81-.38c1.79,0,3.12.46,4,1.39.87.93,1.31,2.38,1.31,4.37,0,.66-.04,1.24-.12,1.75-.08.51-.19.96-.34,1.36-.14.39-.31.74-.5,1.06-.19.31-.39.6-.6.85ZM271.99,206.65c.05-.35.09-.79.13-1.31.04-.52.06-1.06.06-1.62,0-.35-.02-.69-.07-1.01-.05-.32-.13-.6-.25-.85-.12-.25-.29-.44-.5-.59s-.48-.22-.8-.22c-.18,0-.36.02-.56.07s-.39.11-.56.19c-.08.29-.14.66-.19,1.1-.05.45-.07,1-.07,1.66,0,.86.11,1.56.32,2.08.22.52.6.78,1.16.78.21,0,.43-.02.67-.07.24-.05.46-.12.67-.22Z"/>
        <path class="cls-2" d="M277.65,199.91v-1.51l4.3-.67.84.26.43,1.87.98-1.82c.38-.11.75-.19,1.09-.24.34-.05.71-.07,1.09-.07.18,0,.4.03.67.08.27.06.51.16.72.3l-.43,4.58-1.49.24c-.24-.22-.49-.42-.74-.58-.26-.16-.5-.24-.74-.24-.13.08-.28.22-.46.43-.18.21-.35.51-.53.91v3.26l2.69,1.46.14,1.68-7.78.22-.67-.31-.14-1.46,1.01-.53v-6.07l-.98-1.8Z"/>
        <path class="cls-5" d="M293.69,210.57c.27-.26.53-.55.77-.89h-1.34l-1.27-.36c-.78-1.36-1.36-2.81-1.74-4.34-.38-1.54-.63-3.03-.76-4.49l-.89-.7-.17-1.82,5.4-.22,1.32.22.1,1.78-1.06.7c.18,2.27.62,3.99,1.32,5.16h.53c.11-.72.2-1.52.28-2.4.07-.88.12-1.88.16-3l-.7-.46.26-1.8,1.34-.19,2.83.26.91,1.34-.67,3.26c-.4,1.81-.83,3.42-1.3,4.84-.46,1.42-1.03,2.64-1.69,3.66s-1.46,1.86-2.38,2.51-2.03,1.11-3.32,1.38l-1.8-2.57.38-1.3,3.48-.58Z"/>
      </g>
    </g>
  </g>
</svg>