<?xml version="1.0" encoding="UTF-8"?>
<svg id="Calque_2" xmlns="http://www.w3.org/2000/svg" viewBox="0 0 187.71 334.09">
  <defs>
    <style>
      .cls-1 {
        fill: none;
      }

      .cls-1, .cls-2, .cls-3, .cls-4, .cls-5, .cls-6 {
        stroke: #000;
        stroke-miterlimit: 10;
      }

      .cls-2 {
        fill: #fff;
      }

      .cls-3 {
        fill: #bf7394;
      }

      .cls-4 {
        fill: #864d66;
      }

      .cls-5 {
        fill: #1d1d1b;
      }

      .cls-6 {
        fill: #ffadd1;
      }
    </style>
  </defs>
  <g id="grodoudou_saut">
    <g>
      <path class="cls-6" d="M76.75,83.14C34.83,84.49.85,131.47.5,188.53c-.26,43.99,19.11,81.87,46.91,98.36l-1.89,6.11c-2.81,9.07-2.21,16.37,2.81,18.9l9.53,4.81c2.22,1.16,14.72,7.44,14.72,7.44l26.75,9.44c3.3,0,6.01-3.42,6.33-7.8,0-2.95-.97-5.76-2.65-7.63l-1.73-1.95c-.58-.64-3.54-3.87-6.35-6.94-.01-.01-.02-.01-.02-.01-1.89-2.07-3.71-4.06-4.71-5.14-.51-.56-.88-1.21-1.08-1.93l-3.69-12.63c.36.13,11.65.73,23.18-3.15,1.77-.59,3.55-1.3,5.29-2.12,19.96-13.76,35-38.85,40.52-69.07,0-.01,0-.02,0-.03.14-.76.27-1.51.4-2.27.13-.77.25-1.53.37-2.3.2-1.35.39-2.71.55-4.08.08-.62.15-1.24.21-1.87.08-.69.15-1.38.21-2.08.1-1.18.2-2.37.28-3.57.05-.63.09-1.26.11-1.9.02-.34.03-.68.05-1.02.1-2.21.15-4.44.15-6.68,0-59.57-36-107.68-80.01-106.28Z"/>
      <path class="cls-6" d="M57.87,94.51c-1.61-.86-2.44-3.11-2.65-6.38C53.82,66.73,78.62,1.86,78.62,1.86c0,0,4.48,25.24,8.6,50.02v.03h.01c.99,6.02,1.97,12.01,2.86,17.6,0,.02.01.03.01.05.48,3,.93,5.89,1.34,8.61.26,1.71.5,3.34.73,4.9.09.62.18,1.22.26,1.81.05.26.08.52.12.78.87,6.17,1.41,10.73,1.41,12.6"/>
      <path class="cls-5" d="M67.75,93.54c-2.03-5.13,9.17-70.23,9.17-70.23,0,0,12.55,66.12,8.36,70.23h-17.54Z"/>
      <path class="cls-6" d="M143.7,111.72l-1.29,2.78c-1.05,2.25-2.7,4.13-4.72,5.45-1.53,1-3.28,1.7-5.13,1.99l-3.14.5c-3.41.55-6.91-.01-9.99-1.58-2.12-1.08-3.93-2.63-5.3-4.5-1.36-1.88-2.3-4.06-2.69-6.42l-.48-2.84c-.55-3.32-.25-6.72.85-9.9l.61-1.75-19.87-9.79-1.48-.73c-.18-.09-.29-.25-.31-.43-.03-.2.04-.42.23-.56l1.18-.87,5.06-3.73c3.26-2.4,6.94-4.13,10.83-5.12,1.14-.29,2.29-.52,3.46-.68,1.42-.2,2.86-.3,4.31-.3h5.73c5.65,0,11.11,1.97,15.46,5.57,1.56,1.29,2.93,2.78,4.08,4.43,1.15,1.64,2.07,3.44,2.75,5.35l.84,2.39c2.39,6.78,2.04,14.22-.99,20.74Z"/>
      <path class="cls-6" d="M112.43,95.45h0c3.84,2.58,5.26,7.71,6.04,12.06l.39,2.19c.3,1.7-.02,3.46-.92,4.94h0"/>
      <path class="cls-6" d="M39.97,195.23s16.34,48.08,20.43,42.46c4.09-5.62,15.39-42.46,15.39-42.46"/>
      <path class="cls-2" d="M156.6,196.21c-1.89.7-14.13,5.42-26.81,13.65-.9.57-1.8,1.17-2.7,1.79-.05.03-.09.06-.14.1-.22.16-.44.31-.66.46-.45.3-.89.61-1.33.94-.4.28-.8.57-1.2.87-.04.03-.08.06-.12.09-.4.3-.8.6-1.2.9-.66.5-1.31,1.02-1.96,1.54-.21.17-.43.35-.64.52-.04.03-.08.06-.11.09-.35.29-.69.57-1.04.86-.68.59-1.36,1.18-2.03,1.78-1.01.91-1.99,1.84-2.94,2.79-10.58,10.58-17.66,24.08-12.86,40.08,0,0,0,.01,0,.02.2.63.41,1.27.63,1.91.35.98.74,1.96,1.18,2.95.45,1,.94,2.01,1.48,3.03.35.66.72,1.33,1.11,2,2.19,3.74,5.04,7.6,8.65,11.58,19.92-13.73,34.93-38.75,40.5-68.86.28-1.51.54-3.03.77-4.57.2-1.35.39-2.71.55-4.08.08-.62.15-1.24.21-1.87.08-.69.15-1.38.21-2.08.1-1.18.2-2.37.28-3.57.05-.63.09-1.26.11-1.9.02-.2.03-.41.04-.61.01-.11.01-.21.02-.32v-.09h-.01Z"/>
      <path class="cls-4" d="M153.64,210.74c-13.68,12.66-19.05.5-18.49-.26,4.68-6.23,21.73-2.75,18.49.26Z"/>
      <path class="cls-6" d="M91.44,78.17v.24s-1.31-8.59-1.31-8.59c-.01-.09-.02-.17-.03-.26.48,3,.93,5.89,1.34,8.61Z"/>
      <path class="cls-1" d="M92.45,87.08h0"/>
      <path class="cls-6" d="M93.62,98.41h-.03"/>
      <path class="cls-5" d="M108.06,75.98c-3.89.99-7.57,2.72-10.83,5.12l-5.06,3.73c-.23-1.56-.47-3.19-.73-4.9v-.17s3.64-58.92,3.64-58.92l.08-1.46,12.82,56.23h-.03s.11.37.11.37Z"/>
      <path class="cls-3" d="M111.52,73.54c-1.17.16-2.32.39-3.46.68l-.11-.36h.03s-12.82-56.24-12.82-56.24l-.08,1.46-3.63,58.92v.17c-.42-2.72-.87-5.61-1.35-8.61,0-.02-.01-.03-.01-.05-.89-5.59-1.87-11.58-2.86-17.6h-.01v-.03c.42-21.11,7.62-49.32,7.62-50.17.21,0,16.68,71.83,16.68,71.83Z"/>
      <polygon class="cls-6" points="108.06 74.22 107.95 73.86 107.98 73.85 108.06 74.22"/>
      <path class="cls-3" d="M118.27,318.51c-.31.38-.59.74-.85,1.05-.78.96-2.13,1.23-3.22.64-5.07-2.76-18.77-10.52-19.28-10.82-.01-.01-.02-.01-.02-.01-1.89-2.07-3.71-4.06-4.71-5.14-.51-.56-.88-1.21-1.08-1.93l-3.69-12.63c.36.13,11.65.73,23.18-3.15l1.49,5.3c.34,1.22.97,2.33,1.84,3.25l5.61,5.92c4.59,4.84,4.9,12.33.72,17.53Z"/>
      <path class="cls-3" d="M156.55,197.08s0-.02,0-.03c-.01-.01,0-.02,0-.03v.06s.01-.09.01-.09c-.01-.01,0-.02.01-.03.1-2.19.15-4.4.15-6.63l29.82,18.63c1.06.66.82,2.27-.39,2.6l-32.47,8.76-.12.03c1.08-5.01,1.9-10.17,2.43-15.46.02-.25.04-.5.06-.75.06-.61.11-1.23.17-1.85.07-1.06.15-2.13.22-3.2.02-.3.04-.6.06-.91.03-.35.04-.7.06-1.05,0,.01-.01.02-.02.02"/>
    </g>
  </g>
</svg>