<?xml version="1.0" encoding="UTF-8"?>
<svg id="Calque_2" xmlns="http://www.w3.org/2000/svg" viewBox="0 0 417.91 852.69">
  <defs>
    <style>
      .cls-1 {
        fill: #fff;
      }

      .cls-1, .cls-2, .cls-3, .cls-4, .cls-5, .cls-6, .cls-7 {
        stroke: #000;
        stroke-miterlimit: 10;
      }

      .cls-2 {
        fill: #bf7394;
      }

      .cls-3 {
        fill: #864d66;
      }

      .cls-4 {
        fill: #1a1a1a;
      }

      .cls-5 {
        fill: #4497ba;
      }

      .cls-6 {
        fill: #1d1d1b;
      }

      .cls-7 {
        fill: #ffadd1;
      }
    </style>
  </defs>
  <g id="grodoudou_pied_droit">
    <g>
      <path class="cls-7" d="M240.87,785.39c11.45-.67,23.91-2.61,34.66-4.67l-34.66,4.67ZM218.91,782.43c-.88-.27-1.73-.56-2.56-.91,3.52,1.55,7.79,2.88,13.31,4.06l-10.54-3.09-.21-.05ZM213.98,780.46c.67.35,1.33.67,2.03.93-.32-.13-.64-.29-.96-.45-.37-.13-.72-.29-1.07-.48ZM211.92,779.28c.67.43,1.33.83,2.05,1.17-.37-.19-.72-.37-1.07-.61-.35-.19-.67-.37-.99-.56Z"/>
      <path class="cls-7" d="M417.41,521.92c0,6-.13,11.98-.4,17.88-5.12,1.89-37.73,14.49-71.5,36.39-2.4,1.52-4.8,3.12-7.2,4.78-.13.08-.24.16-.37.27-.59.43-1.17.83-1.76,1.23-1.2.8-2.37,1.63-3.55,2.51-1.07.75-2.13,1.52-3.2,2.32-.11.08-.21.16-.32.24-1.07.8-2.13,1.6-3.2,2.4-1.76,1.33-3.5,2.72-5.23,4.11-.56.45-1.15.93-1.71,1.39-.11.08-.21.16-.29.24-.93.77-1.84,1.52-2.77,2.29-1.81,1.57-3.63,3.15-5.42,4.75-2.69,2.43-5.31,4.91-7.84,7.44-28.23,28.23-47.12,64.25-34.31,106.93,0,0,.03.03.03.05.53,1.68,1.09,3.39,1.68,5.1.93,2.61,1.97,5.23,3.15,7.87,1.2,2.67,2.51,5.36,3.95,8.08.93,1.76,1.92,3.55,2.96,5.34,5.84,9.98,13.45,20.28,23.08,30.9,0,0-.91.24-2.56.69-4.32,1.09-13.74,3.41-25.05,5.6h-.03l-34.66,4.67h-.05c-3.87.24-7.63.32-11.15.19l-10.54-3.09c-3.52-1.44-7.55-3.52-11.53-6.51,1.23,1.17,2.56,2.21,4,3.12,0,0,.03.03.05.03.08.05.16.11.27.16.67.43,1.33.83,2.05,1.17.67.35,1.33.67,2.03.93.11.05.24.11.35.13,3.52,1.55,7.79,2.88,13.31,4.06l4.24.75,11.69,2.45c5.23,1.07,9.74,3.87,12.99,7.68.16.16.29.32.43.48,3.28,4.06,5.23,9.23,5.23,14.78,0,2.67-.45,5.31-1.33,7.79l-1.17,3.34c-3.31,9.39-12.19,15.69-22.17,15.66-9.68,0-19.96-.05-19.96-.05,0,0-2.37-.03-6.14-.11-7.47-.13-20.36-.4-30.63-.91-11.37-.53-34.39-4.3-42.26-12.51l-.08-.08c-9.28-9.47-14.81-35.4-14.81-35.4l-.51-4.46-.56-3.68.8-15.07c.11-2.27.03-4.54-.27-6.78l-1.6-12.3,1.07,34.15C51.01,736.99-.19,636.33.51,519.52c.77-126.94,63.98-235.24,149.84-269.76,10.06-4.06,20.41-7.1,31.03-8.99,7.42-1.36,14.94-2.19,22.57-2.43,8.8-.27,17.48.19,25.99,1.36,3.84.51,7.66,1.17,11.42,2,1.92.37,3.82.83,5.71,1.31,47.41,11.9,89.19,45.65,119.5,93.25,31.7,49.76,50.85,114.67,50.85,185.67Z"/>
      <path class="cls-7" d="M125.16,759.46c.29,2.24.37,4.51.27,6.78l-.8,15.07-1.07-34.15,1.6,12.3Z"/>
      <path class="cls-1" d="M215.04,780.94c.32.16.64.32.96.45-.69-.27-1.36-.59-2.03-.93-.72-.35-1.39-.75-2.05-1.17.32.19.64.37.99.56.69.37,1.39.75,2.13,1.09Z"/>
      <path class="cls-1" d="M229.66,785.58c-5.52-1.17-9.79-2.51-13.31-4.06.83.35,1.68.64,2.56.91l.21.05,10.54,3.09Z"/>
      <path class="cls-7" d="M358.09,578.83h47.2c-36.1,34.23-45.84,2.11-47.2,0ZM345.51,576.19c-2.4,1.52-4.8,3.12-7.2,4.78-.13.08-.24.16-.37.27-.59.43-1.17.83-1.76,1.23-1.2.8-2.37,1.63-3.55,2.51-1.07.75-2.13,1.52-3.2,2.32-.11.08-.21.16-.32.24-1.07.8-2.13,1.6-3.2,2.4-1.76,1.33-3.5,2.72-5.23,4.11-.56.45-1.15.93-1.71,1.39-.11.08-.21.16-.29.24-.93.77-1.84,1.52-2.77,2.29-1.81,1.57-3.63,3.15-5.42,4.75-2.69,2.43-5.31,4.91-7.84,7.44-28.23,28.23-47.12,64.25-34.31,106.93,0,0,.03.03.03.05.53,1.68,1.09,3.39,1.68,5.1.93,2.61,1.97,5.23,3.15,7.87,1.2,2.67,2.51,5.36,3.95,8.08.93,1.76,1.92,3.55,2.96,5.34,5.84,9.98,13.45,20.28,23.08,30.9,0,0-.91.24-2.56.69l2.45-.11c50.03-34.44,88.45-95.57,105.15-169.58.53-2.37,1.04-4.8,1.55-7.2.51-2.51,1.01-5.02,1.47-7.52.32-1.76.64-3.5.93-5.26.19-1.04.35-2.11.51-3.15.56-3.47,1.07-6.94,1.52-10.43.35-2.64.67-5.28.96-7.92.85-7.95,1.49-16.01,1.87-24.15-5.12,1.89-37.73,14.49-71.5,36.39Z"/>
      <path class="cls-7" d="M153.62,268.39C132.13,251.05,219.33,2.19,219.33,2.19c0,0,30.57,249.64,30.57,276.2"/>
      <path class="cls-6" d="M179.96,265.78c-5.41-13.69,36.65-211.82,36.65-211.82,0,0,21.3,200.86,10.15,211.82h-46.79Z"/>
      <path class="cls-7" d="M248.07,239.52l10.56-11.61c14.38-10.58,31.76-16.29,49.61-16.29h15.29c15.06,0,29.65,5.26,41.25,14.87h0c8.32,6.89,14.61,15.91,18.21,26.09l2.25,6.38c6.39,18.08,5.44,37.95-2.65,55.34l-3.44,7.4c-4.92,10.58-14.77,18.02-26.29,19.86l-8.37,1.34c-9.1,1.45-18.43-.02-26.65-4.21h0c-11.33-5.78-19.25-16.59-21.33-29.14l-1.26-7.58c-1.47-8.86-.69-17.95,2.26-26.43l1.62-4.66-50.85-28.74c-1.04-.51-2.02-1-.23-2.63Z"/>
      <path class="cls-7" d="M299.16,270.89h0c10.24,6.9,14.04,20.57,16.11,32.18l1.04,5.84c.81,4.54-.06,9.23-2.44,13.18h0"/>
      <ellipse class="cls-1" cx="315.39" cy="451.08" rx="60.42" ry="64.9"/>
      <circle class="cls-5" cx="321.24" cy="451.08" r="45.22"/>
      <circle class="cls-1" cx="328.28" cy="430.28" r="16.12"/>
      <path class="cls-7" d="M105.83,544.11s43.6,128.27,54.5,113.29c10.9-14.99,41.07-113.29,41.07-113.29"/>
      <path class="cls-1" d="M358.09,578.83h47.2c-36.1,34.23-45.84,2.11-47.2,0ZM417.01,539.8c-5.12,1.89-37.73,14.49-71.5,36.39-2.4,1.52-4.8,3.12-7.2,4.78-.13.08-.24.16-.37.27-.59.43-1.17.83-1.76,1.23-1.2.8-2.37,1.63-3.55,2.51-1.07.75-2.13,1.52-3.2,2.32-.11.08-.21.16-.32.24-1.07.8-2.13,1.6-3.2,2.4-1.76,1.33-3.5,2.72-5.23,4.11-.56.45-1.15.93-1.71,1.39-.11.08-.21.16-.29.24-.93.77-1.84,1.52-2.77,2.29-1.81,1.57-3.63,3.15-5.42,4.75-2.69,2.43-5.31,4.91-7.84,7.44-28.23,28.23-47.12,64.25-34.31,106.93,0,0,.03.03.03.05.53,1.68,1.09,3.39,1.68,5.1.93,2.61,1.97,5.23,3.15,7.87,1.2,2.67,2.51,5.36,3.95,8.08.93,1.76,1.92,3.55,2.96,5.34,5.84,9.98,13.45,20.28,23.08,30.9,49.87-34.36,88.18-95.25,105.04-168.99.53-2.37,1.04-4.8,1.55-7.2.51-2.51,1.01-5.02,1.47-7.52.32-1.76.64-3.5.93-5.26.19-1.04.35-2.11.51-3.15.56-3.47,1.07-6.94,1.52-10.43.35-2.64.67-5.28.96-7.92.85-7.6,1.49-15.31,1.87-23.08.03-.29.03-.56.05-.85v-.24s-.03,0-.05.03Z"/>
      <path class="cls-3" d="M405.29,578.83c-36.1,34.23-45.84,2.11-47.2,0h47.2Z"/>
      <path class="cls-1" d="M358.09,578.83h-.16c.03-.16.08-.13.16,0Z"/>
      <path class="cls-7" d="M125.42,766.23l-.8,15.07-1.07-34.15,1.6,12.3c.29,2.24.37,4.51.27,6.78Z"/>
      <path class="cls-2" d="M298.01,212.72l-1.36.77c-2.85.4-5.68.91-8.48,1.57l-30.92-150.74-12.41,160.59-.08,1.09,1.36,11.87c.13,1.47.29,2.91.43,4.32.08.64.13,1.28.19,1.92.08.8.13,1.57.24,2.35v.03c1.52,16.33,2.45,28.23,2.45,32.98h-.08c-.27-5.95-1.12-16.57-2.37-30.28v-.03c-.11-.77-.16-1.55-.24-2.37-.05-.64-.11-1.28-.19-1.92-.13-1.44-.29-2.91-.43-4.38-1.04-10.97-2.32-23.43-3.71-36.77-1.39-13.39-2.91-27.67-4.48-42.18-.19-1.6-.35-3.25-.53-4.91-.05-.37-.08-.77-.13-1.15-.03-.16-.03-.32-.05-.48v-.08c2.32-56.38,21.16-131.24,21.16-133.29.56-.03,39.65,191.08,39.65,191.08Z"/>
      <path class="cls-4" d="M288.17,215.07l-.08.03c-10.73,2.59-20.92,7.28-29.91,13.93l-12.06,8.86-1.36-11.87.08-1.09,12.41-160.59,30.92,150.74Z"/>
      <path class="cls-2" d="M336.88,826.26h0c0,14.32-11.61,25.92-25.92,25.92h-76.25c-3.41,0-6.73-1.15-9.4-3.28l-12.25-9.72.19-.16c3.76.08,6.14.11,6.14.11,0,0,10.27.05,19.96.05,9.98.03,18.86-6.27,22.17-15.66l1.17-3.34c.88-2.48,1.33-5.12,1.33-7.79,0-5.55-1.95-10.73-5.23-14.78-.13-.16-.27-.32-.43-.48-3.25-3.82-7.76-6.62-12.99-7.68l-11.69-2.45-4.24-.75c3.52.13,7.28.05,11.15-.19h.05c11.45-.67,23.91-2.61,34.66-4.67h.03l20.25,5.24c10.72,2.77,20.51,8.32,28.41,16.08l5.15,5.06c4.96,4.87,7.75,11.54,7.75,18.49Z"/>
      <path class="cls-1" d="M275.3,781.4c-10.75,2.05-23.21,4-34.66,4.67l34.66-4.67Z"/>
    </g>
  </g>
</svg>