<?xml version="1.0" encoding="UTF-8"?>
<svg id="Calque_2" xmlns="http://www.w3.org/2000/svg" viewBox="0 0 499.38 852.63">
  <defs>
    <style>
      .cls-1 {
        fill: none;
      }

      .cls-1, .cls-2, .cls-3, .cls-4, .cls-5, .cls-6, .cls-7 {
        stroke: #000;
        stroke-miterlimit: 10;
      }

      .cls-2 {
        fill: #fff;
      }

      .cls-3 {
        fill: #bf7394;
      }

      .cls-4 {
        fill: #864d66;
      }

      .cls-5 {
        fill: #4497ba;
      }

      .cls-6 {
        fill: #1d1d1b;
      }

      .cls-7 {
        fill: #ffadd1;
      }
    </style>
  </defs>
  <g id="grodoudou_pied_gauche">
    <g>
      <path class="cls-7" d="M113.42,537.34s43.61,128.31,54.52,113.31c10.89-14.97,41.07-113.31,41.07-113.31h-95.59ZM245.28,276.74c-.11-5.31-1.01-16.71-2.43-31.97v-.03c-.11-.77-.16-1.55-.24-2.35,0-.13-.03-.29-.05-.43-.08-.05-.19-.05-.27-.08.05.43.11.85.13,1.25.08.64.13,1.28.19,1.92.08.83.13,1.6.24,2.38v.03c1.17,12.97,2,23.16,2.32,29.25.03.37.03.72.05,1.04h.08c0-.32,0-.64-.03-1.01ZM334.49,748.4s0,.03-.03.05c.11-.11.21-.21.32-.32-.08.08-.19.16-.29.27ZM363.29,576.46c.03.05.05.11.08.16.08.13.16.32.24.53.35.75.88,1.95,1.63,3.39.13.27.29.53.45.83.4.67.83,1.39,1.31,2.13.16.21.29.4.45.61.51.72,1.07,1.41,1.68,2.11.19.21.4.45.61.67.24.21.45.45.69.67.21.21.45.43.69.61.27.21.51.43.77.61.24.19.51.4.77.56.29.21.56.37.85.53.19.13.4.24.61.35,1.63.88,3.47,1.52,5.58,1.79.67.08,1.39.13,2.13.13,5.58.03,12.73-2.54,21.83-9.77,1.41-1.12,2.86-2.35,4.35-3.68.75-.64,1.49-1.33,2.27-2.08.05-.05.13-.11.19-.16h-47.21ZM306.28,386.21c-33.39,0-60.45,29.06-60.45,64.93s27.06,64.93,60.45,64.93,60.42-29.09,60.42-64.93-27.06-64.93-60.42-64.93ZM415.73,558.82c-.05.67-.11,1.33-.16,2,.08-.72.13-1.44.21-2.16.16-1.57.29-3.18.4-4.78-.16,1.65-.29,3.31-.45,4.94ZM416.77,545.34c-.19,2.86-.4,5.71-.59,8.54.03-.05.03-.11.03-.16.21-2.83.43-5.68.61-8.54.05-.75.08-1.52.11-2.27-.05.83-.11,1.63-.16,2.43ZM282.19,635.54h.03c.85-1.28,1.71-2.54,2.59-3.79-.91,1.25-1.76,2.51-2.62,3.79ZM417.06,540.01c-.4.16-.91.35-1.49.59-8.81,3.39-38.75,15.64-69.63,35.68-2.4,1.52-4.8,3.12-7.21,4.78-.13.08-.24.16-.37.27-.59.43-1.17.83-1.76,1.23-1.2.8-2.38,1.63-3.55,2.51-1.07.75-2.13,1.52-3.2,2.32-.11.08-.21.16-.32.24-1.07.8-2.13,1.6-3.2,2.4-1.76,1.33-3.5,2.72-5.23,4.11-.56.45-1.15.93-1.71,1.39-.11.08-.21.16-.29.24-.93.77-1.84,1.52-2.78,2.3-1.81,1.57-3.63,3.15-5.42,4.75-2.7,2.43-5.31,4.91-7.85,7.45-1.12,1.12-2.22,2.24-3.31,3.39-.72.77-1.44,1.55-2.16,2.32-.59.61-1.15,1.25-1.68,1.87-.08.05-.13.11-.16.16-1.81,2.03-3.58,4.11-5.26,6.19-.08.11-.16.21-.21.29-.45.56-.88,1.12-1.31,1.68,4.32-5.47,9.02-10.75,14.04-15.75,2.56-2.54,5.15-5.02,7.85-7.45,1.79-1.6,3.6-3.18,5.42-4.75.93-.77,1.84-1.52,2.78-2.3.08-.08.21-.16.29-.24.59-.45,1.15-.93,1.71-1.39,1.73-1.39,3.47-2.78,5.23-4.11,1.07-.8,2.16-1.6,3.2-2.4.13-.08.21-.16.32-.24,1.07-.8,2.16-1.57,3.2-2.32,1.17-.88,2.35-1.71,3.55-2.51.59-.4,1.17-.8,1.76-1.23.13-.11.24-.19.37-.27,2.43-1.65,4.8-3.26,7.21-4.78,30.93-20.04,60.87-32.29,69.65-35.68.59-.24,1.09-.43,1.49-.59.03,0,.05-.03.05-.05v-.11h-.03ZM284.8,631.73c.67-.93,1.36-1.87,2.05-2.8.69-.93,1.39-1.84,2.11-2.78-.48.59-.96,1.2-1.41,1.81-.96,1.23-1.87,2.48-2.75,3.76Z"/>
      <path class="cls-7" d="M334.49,748.4s0,.03-.03.05c.11-.11.21-.21.32-.32-.08.08-.19.16-.29.27Z"/>
      <path class="cls-7" d="M167.94,650.65c-10.91,15-54.52-113.31-54.52-113.31h95.59s-30.18,98.34-41.07,113.31ZM226.81,264.63h-46.81c-.99-2.51-.83-11.16.13-23.62,4.24-55.59,23.88-187.1,23.88-187.1,0,0,21.99,129.43,24.74,185.63.69,13.64.24,22.95-1.95,25.09ZM319.89,762.01c-.37.32-.75.64-1.12.96-1.25,1.04-2.48,2.05-3.74,3.04-.69.59-1.41,1.15-2.13,1.68-.91.72-1.81,1.41-2.72,2.08-.8.61-1.57,1.2-2.38,1.76-1.39,1.04-2.8,2.03-4.22,3.02-.75-.8-1.47-1.63-2.16-2.43-8.62-9.77-15.53-19.27-20.92-28.47-1.04-1.79-2.03-3.58-2.96-5.34-1.44-2.72-2.75-5.42-3.95-8.09-1.17-2.64-2.22-5.26-3.15-7.87-.59-1.71-1.15-3.42-1.68-5.1,0-.03-.03-.05-.03-.05-3.47-11.53-4.62-22.6-3.87-33.14-.77,10.59.35,21.7,3.84,33.31,0,0,.03.03.03.05.51,1.68,1.07,3.39,1.65,5.1.93,2.62,2,5.23,3.18,7.87,1.17,2.67,2.51,5.36,3.92,8.09.93,1.76,1.92,3.55,2.96,5.34,5.39,9.21,12.28,18.65,20.87,28.39.72.83,1.47,1.68,2.22,2.51,1.41-.99,2.83-1.97,4.22-3.02.83-.56,1.57-1.15,2.38-1.76.91-.67,1.81-1.36,2.72-2.08.75-.53,1.44-1.09,2.13-1.68.56-.43,1.09-.85,1.63-1.28.08-.08.16-.16.27-.21,1.76-1.49,3.52-3.02,5.26-4.59-.75.64-1.49,1.28-2.24,1.92ZM306.28,386.21c-33.39,0-60.45,29.06-60.45,64.93s27.06,64.93,60.45,64.93,60.42-29.09,60.42-64.93-27.06-64.93-60.42-64.93Z"/>
      <path class="cls-7" d="M366.12,335.45c-3.95,2.48-8.41,4.22-13.16,4.96l-8.38,1.33c-9.1,1.47-18.41,0-26.63-4.19-5.66-2.91-10.49-7.05-14.14-12.04-3.66-5.02-6.16-10.83-7.21-17.13l-1.25-7.58c-1.47-8.86-.69-17.93,2.27-26.42l1.63-4.67-53.27-26.23-2.83-1.41h-.03c-.19-.05-.37-.08-.56-.11.03.13.05.29.05.43.08.8.13,1.57.24,2.35v.03c1.41,15.26,2.32,26.66,2.43,31.97.03.37.03.69.03,1.01h-.08c-.03-.32-.03-.67-.05-1.04-.32-6.08-1.15-16.28-2.32-29.25v-.03c-.11-.77-.16-1.55-.24-2.38-.05-.64-.11-1.28-.19-1.92-.03-.4-.08-.83-.13-1.25v-.24h-.03c-.08-.88-.16-1.76-.24-2.64,0-.08-.03-.16-.03-.24-1.04-10.97-2.32-23.43-3.71-36.77-.64-6.16-1.31-12.52-1.97-19C222.91,102.9,204.47,2.13,204.47,2.13c0,0-56.71,189.16-55.67,248.27C63.73,285.63,1.28,393.39.51,519.59c-.69,117.4,51,218.48,125.19,262.49l3.58,13.18c4.96,18.23,15.51,32.61,28.9,39.36l25.43,12.86c5.92,3.07,12.25,4.64,18.63,4.64h80.51c8.81,0,16.04-9.13,16.89-20.82,0-7.87-2.59-15.34-7.07-20.36l-4.62-5.2c-3.1-3.44-6.62-6.08-10.41-7.85l-21.24-9.77c.99.35,9.5,2.83,35.55-7.98h.03c3.44-1.44,7.18-3.1,11.26-5.02,4.62-3.18,9.1-6.59,13.48-10.25-.53.43-1.07.85-1.63,1.28-.69.59-1.39,1.15-2.13,1.68-.91.72-1.81,1.41-2.72,2.08-.8.61-1.55,1.2-2.38,1.76-1.39,1.04-2.8,2.03-4.22,3.02-.75-.83-1.49-1.68-2.22-2.51-8.59-9.74-15.48-19.19-20.87-28.39-1.04-1.79-2.03-3.58-2.96-5.34-1.41-2.72-2.75-5.42-3.92-8.09-1.17-2.64-2.24-5.26-3.18-7.87-.59-1.71-1.15-3.42-1.65-5.1,0-.03-.03-.05-.03-.05-3.5-11.61-4.62-22.71-3.84-33.31.05-.85.13-1.68.21-2.54.64-6.56,2-12.92,4-19.08.56-1.76,1.17-3.52,1.87-5.26,1.36-3.52,2.91-6.97,4.64-10.35,1.28-2.51,2.67-4.96,4.14-7.39.8-1.31,1.63-2.59,2.46-3.87v-.03c.85-1.28,1.71-2.54,2.62-3.79v-.03c.67-.96,1.33-1.89,2.05-2.8.21-.32.45-.64.69-.96.45-.61.93-1.23,1.41-1.81.43-.56.85-1.12,1.31-1.68.05-.08.13-.19.21-.29,1.68-2.08,3.44-4.16,5.26-6.19.03-.05.08-.11.16-.16.53-.61,1.09-1.25,1.68-1.87.72-.77,1.44-1.55,2.16-2.32,1.09-1.15,2.19-2.27,3.31-3.39,2.54-2.54,5.15-5.02,7.85-7.45,1.79-1.6,3.6-3.18,5.42-4.75.93-.77,1.84-1.52,2.78-2.3.08-.08.19-.16.29-.24.56-.45,1.15-.93,1.71-1.39,1.73-1.39,3.47-2.78,5.23-4.11,1.07-.8,2.14-1.6,3.2-2.4.11-.08.21-.16.32-.24,1.07-.8,2.14-1.57,3.2-2.32,1.17-.88,2.35-1.71,3.55-2.51.59-.4,1.17-.8,1.76-1.23.13-.11.24-.19.37-.27,2.4-1.65,4.8-3.26,7.21-4.78,30.88-20.04,60.82-32.29,69.63-35.68.59-.24,1.09-.43,1.49-.59,0-.03-.03-.05-.03-.08-.03-.03,0-.05.03-.08l.03.16v-.24s0-.05.03-.08c.27-5.84.4-11.74.4-17.69,0-71.41-19.4-136.66-51.4-186.54ZM306.28,516.07c-33.39,0-60.45-29.09-60.45-64.93s27.06-64.93,60.45-64.93,60.42,29.06,60.42,64.93-27.06,64.93-60.42,64.93Z"/>
      <path class="cls-7" d="M284.8,631.75c-.88,1.25-1.73,2.51-2.59,3.79,0,.03-.03.03-.03.03v-.03c.85-1.28,1.71-2.54,2.62-3.79Z"/>
      <path class="cls-7" d="M366.7,451.14c0,35.84-27.06,64.93-60.42,64.93s-60.45-29.09-60.45-64.93,27.06-64.93,60.45-64.93,60.42,29.06,60.42,64.93Z"/>
      <path class="cls-7" d="M417.09,540.01h-.03s-.03-.05-.03-.08c-.03-.03,0-.05.03-.08l.03.16Z"/>
      <path class="cls-7" d="M245.28,276.74l-.11-.03c-.32-6.08-1.15-16.28-2.32-29.25v-.03c-.11-.77-.16-1.55-.24-2.38-.05-.64-.11-1.28-.19-1.92-.03-.4-.08-.83-.13-1.25v-.24h-.03c-.08-.88-.16-1.76-.24-2.64l.24-.19c.05.56.11,1.09.16,1.65.05.43.11.88.13,1.31l.56.29c-.19-.05-.37-.08-.56-.11.03.13.05.29.05.43.08.8.13,1.57.24,2.35v.03c1.41,15.26,2.32,26.66,2.43,31.97Z"/>
      <path class="cls-6" d="M226.81,264.63h-46.81c-.99-2.51-.83-11.16.13-23.62,4.24-55.59,23.88-187.1,23.88-187.1,0,0,21.99,129.43,24.74,185.63.69,13.64.24,22.95-1.95,25.09Z"/>
      <path class="cls-7" d="M242.56,241.78l-.27-.13h-.03c-.08-.88-.16-1.76-.24-2.64l.24-.19c.05.56.11,1.09.16,1.65.05.43.11.88.13,1.31Z"/>
      <path class="cls-2" d="M366.7,451.14c0,35.84-27.06,64.93-60.42,64.93s-60.45-29.09-60.45-64.93,27.06-64.93,60.45-64.93,60.42,29.06,60.42,64.93Z"/>
      <circle class="cls-5" cx="312.13" cy="451.14" r="45.23"/>
      <circle class="cls-2" cx="319.17" cy="430.33" r="16.12"/>
      <path class="cls-7" d="M209.01,537.34s-30.18,98.34-41.07,113.31c-10.91,15-54.52-113.31-54.52-113.31"/>
      <path class="cls-2" d="M363.23,576.62c1.39,2.11,11.1,34.24,47.21,0h-47.21ZM417.06,539.85s-.05.05-.03.08c0,.03.03.05.03.08s.03.08.03.11v-.11l-.03-.16ZM417.09,540.11c-.05.93-.08,1.87-.16,2.8.05-.59.08-1.17.13-1.76,0-.03.03-.48.05-.77l-.03-.27ZM409.08,602.08c-4.86,22.52-11.74,43.9-20.31,63.7-.72,1.68-1.47,3.34-2.22,4.99-.24.56-.51,1.09-.75,1.63-.37.83-.77,1.65-1.17,2.48-.67,1.49-1.39,2.96-2.11,4.43-.29.64-.61,1.31-.96,1.95-.77,1.55-1.57,3.1-2.38,4.62-.4.77-.8,1.55-1.23,2.32-.51,1.01-1.04,2-1.6,2.99-.53.99-1.07,1.97-1.63,2.96-.67,1.2-1.36,2.38-2.03,3.55-.77,1.36-1.57,2.72-2.4,4.06-.85,1.47-1.76,2.91-2.67,4.32-.91,1.49-1.87,2.99-2.83,4.46-2.56,3.95-5.23,7.77-7.98,11.5-1.15,1.57-2.3,3.1-3.47,4.62-.05.05-.11.13-.13.19-1.2,1.55-2.4,3.07-3.6,4.56-.16.16-.29.32-.4.48-.11.13-.21.24-.32.37-.77.93-1.52,1.89-2.3,2.8-.88,1.04-1.76,2.08-2.64,3.1-1.57,1.79-3.15,3.58-4.72,5.31-.8.83-1.57,1.68-2.38,2.51-.61.64-1.23,1.28-1.81,1.89-.08.08-.19.19-.27.27-.08.08-.19.16-.29.27,0,0,0,.03-.03.05-.8.83-1.63,1.63-2.43,2.43-.16.16-.32.29-.48.45-.32.32-.67.64-.99.96-.32.35-.64.64-.99.96-.48.45-.96.93-1.44,1.36-.48.48-.99.93-1.47,1.36-.77.75-1.52,1.44-2.3,2.11-.75.67-1.49,1.36-2.24,2-.75.64-1.49,1.28-2.24,1.92-.37.32-.75.64-1.12.96-1.25,1.04-2.48,2.05-3.74,3.04-.69.59-1.41,1.15-2.13,1.68-.91.72-1.81,1.41-2.72,2.08-.8.61-1.57,1.2-2.38,1.76-1.39,1.04-2.8,2.03-4.22,3.02-.75-.8-1.47-1.63-2.16-2.43-8.62-9.77-15.53-19.27-20.92-28.47-1.04-1.79-2.03-3.58-2.96-5.34-1.44-2.72-2.75-5.42-3.95-8.09-1.17-2.64-2.22-5.26-3.15-7.87-.59-1.71-1.15-3.42-1.68-5.1,0-.03-.03-.05-.03-.05-3.47-11.53-4.62-22.6-3.87-33.14-.77,10.59.35,21.7,3.84,33.31,0,0,.03.03.03.05.51,1.68,1.07,3.39,1.65,5.1.93,2.62,2,5.23,3.18,7.87,1.17,2.67,2.51,5.36,3.92,8.09.93,1.76,1.92,3.55,2.96,5.34,5.39,9.21,12.28,18.65,20.87,28.39.72.83,1.47,1.68,2.22,2.51,1.41-.99,2.83-1.97,4.22-3.02.83-.56,1.57-1.15,2.38-1.76.91-.67,1.81-1.36,2.72-2.08.75-.53,1.44-1.09,2.13-1.68.56-.43,1.09-.85,1.63-1.28.08-.08.16-.16.27-.21.61-.51,1.23-1.01,1.87-1.55.35-.32.72-.64,1.09-.96,1.49-1.25,2.99-2.56,4.48-3.92.77-.67,1.52-1.36,2.3-2.11.48-.43.99-.88,1.49-1.36.48-.43.93-.91,1.41-1.36.35-.32.67-.61.99-.96,1.31-1.25,2.62-2.56,3.92-3.9,1.6-1.6,3.18-3.26,4.75-4.94,1.6-1.73,3.15-3.52,4.75-5.31.85-1.01,1.73-2.05,2.62-3.1.91-1.04,1.73-2.11,2.62-3.18.13-.16.27-.32.43-.48,1.2-1.49,2.38-3.02,3.58-4.56.03-.05.11-.13.13-.19,1.17-1.52,2.32-3.04,3.5-4.62,2.72-3.74,5.39-7.55,7.98-11.5.93-1.47,1.89-2.96,2.8-4.46.91-1.41,1.81-2.86,2.67-4.32.83-1.33,1.63-2.7,2.4-4.06.67-1.17,1.36-2.35,2.03-3.55.56-.99,1.12-1.97,1.63-2.96.56-.99,1.09-1.97,1.6-2.99.43-.77.83-1.55,1.23-2.32.83-1.52,1.6-3.07,2.38-4.62.35-.64.67-1.31.96-1.95,1.12-2.27,2.22-4.59,3.31-6.91,10.14-21.72,18.15-45.39,23.62-70.56.77-3.66,1.52-7.34,2.22-11.05,1.84-9.87,3.04-19.91,3.95-30.13-1.41,14.12-3.6,27.89-6.48,41.26Z"/>
      <path class="cls-2" d="M417.03,540.17c-.4.16-.91.35-1.49.59-8.78,3.39-38.72,15.64-69.65,35.68-2.4,1.52-4.78,3.12-7.21,4.78-.13.08-.24.16-.37.27-.59.43-1.17.83-1.76,1.23-1.2.8-2.38,1.63-3.55,2.51-1.04.75-2.13,1.52-3.2,2.32-.11.08-.19.16-.32.24-1.04.8-2.14,1.6-3.2,2.4-1.76,1.33-3.5,2.72-5.23,4.11-.56.45-1.12.93-1.71,1.39-.08.08-.21.16-.29.24-.93.77-1.84,1.52-2.78,2.3-1.81,1.57-3.63,3.15-5.42,4.75-2.7,2.43-5.28,4.91-7.85,7.45-5.02,4.99-9.71,10.27-14.04,15.75-.72.93-1.41,1.84-2.11,2.78-.69.93-1.39,1.87-2.05,2.8v.03c-.88,1.25-1.73,2.51-2.59,3.79,0,.03-.03.03-.03.03-.83,1.28-1.65,2.56-2.46,3.87-1.47,2.43-2.86,4.88-4.14,7.39-1.73,3.39-3.28,6.83-4.64,10.35-.67,1.73-1.28,3.47-1.87,5.26-2,6.16-3.36,12.52-4,19.08-.08.85-.16,1.68-.21,2.54-.75,10.54.4,21.62,3.87,33.14,0,0,.03.03.03.05.53,1.68,1.09,3.39,1.68,5.1.93,2.62,1.97,5.23,3.15,7.87,1.2,2.67,2.51,5.36,3.95,8.09.93,1.76,1.92,3.55,2.96,5.34,5.39,9.21,12.3,18.71,20.92,28.47.69.8,1.41,1.63,2.16,2.43,1.41-.99,2.83-1.97,4.22-3.02.8-.56,1.57-1.15,2.38-1.76.91-.67,1.81-1.36,2.72-2.08.72-.53,1.44-1.09,2.13-1.68,1.25-.99,2.48-2,3.74-3.04.37-.32.75-.64,1.12-.96.75-.64,1.49-1.28,2.24-1.92.75-.64,1.49-1.33,2.24-2,.77-.67,1.52-1.36,2.3-2.11.48-.43.99-.88,1.47-1.36.48-.43.96-.91,1.44-1.36.35-.32.67-.61.99-.96.32-.32.67-.64.99-.96.16-.16.32-.29.48-.45.8-.8,1.63-1.6,2.43-2.43.03-.03.03-.05.03-.05.11-.11.21-.19.29-.27.08-.08.19-.19.27-.27.59-.61,1.2-1.25,1.81-1.89.8-.83,1.57-1.68,2.38-2.51,1.57-1.73,3.15-3.52,4.72-5.31.88-1.01,1.76-2.05,2.64-3.1.77-.91,1.52-1.87,2.3-2.8.11-.13.21-.24.32-.37.11-.16.24-.32.4-.48,1.2-1.49,2.4-3.02,3.6-4.56.03-.05.08-.13.13-.19,1.17-1.52,2.32-3.04,3.47-4.62,2.75-3.74,5.42-7.55,7.98-11.5.96-1.47,1.92-2.96,2.83-4.46.91-1.41,1.81-2.86,2.67-4.32.83-1.33,1.63-2.7,2.4-4.06.67-1.17,1.36-2.35,2.03-3.55.56-.99,1.09-1.97,1.63-2.96.56-.99,1.09-1.97,1.6-2.99.43-.77.83-1.55,1.23-2.32.8-1.52,1.6-3.07,2.38-4.62.35-.64.67-1.31.96-1.95.72-1.47,1.44-2.94,2.11-4.43.4-.83.8-1.65,1.17-2.48.24-.53.51-1.07.75-1.63.75-1.65,1.49-3.31,2.22-4.99,8.57-19.8,15.45-41.18,20.31-63.7,2.88-13.37,5.07-27.14,6.48-41.26.05-.67.11-1.33.16-2,.16-1.63.29-3.28.45-4.94.19-2.83.4-5.68.59-8.54.05-.8.11-1.6.16-2.43.08-.93.11-1.87.16-2.8,0,.03-.03.05-.05.05ZM363.23,576.62h.13c-.03-.05-.05-.11-.08-.16h-.16c.03-.16.08-.13.16,0h47.21c-.05.05-.13.11-.19.16h.13c-36.11,34.24-45.82,2.11-47.21,0Z"/>
      <path class="cls-2" d="M282.19,635.54h.03s-.03.03-.03.03v-.03Z"/>
      <path class="cls-2" d="M363.29,576.46h-.16c.03-.16.08-.13.16,0Z"/>
      <path class="cls-2" d="M410.31,576.62h.13c-36.11,34.24-45.82,2.11-47.21,0h.13c-.03-.05-.05-.11-.08-.16h47.21c-.05.05-.13.11-.19.16Z"/>
      <path class="cls-4" d="M410.5,576.46c-.05.05-.13.11-.19.16-.77.75-1.52,1.44-2.27,2.08-1.49,1.36-2.96,2.59-4.35,3.68-9.1,7.23-16.25,9.79-21.83,9.77-.75,0-1.47-.05-2.13-.13-2.11-.27-3.95-.91-5.58-1.79-.21-.11-.43-.21-.61-.35-.29-.16-.56-.32-.85-.53-.27-.16-.53-.37-.77-.56-.27-.19-.51-.4-.77-.61-.24-.19-.48-.4-.69-.61-.24-.21-.45-.45-.69-.67-.21-.21-.43-.45-.61-.67-.61-.69-1.17-1.39-1.68-2.11-.16-.21-.29-.4-.45-.61-.48-.75-.91-1.47-1.31-2.13-.16-.29-.29-.56-.45-.83-.75-1.44-1.28-2.64-1.63-3.39-.08-.21-.16-.4-.24-.53-.03-.05-.05-.11-.08-.16h47.21Z"/>
      <path class="cls-2" d="M363.29,576.46h-.16c.03-.16.08-.13.16,0Z"/>
      <path class="cls-3" d="M497.08,571.71c2.83,1.77,2.19,6.06-1.03,6.93l-86.65,23.36-.32.08c2.88-13.37,5.07-27.14,6.48-41.26.05-.67.11-1.33.16-2,.16-1.63.29-3.28.45-4.94.19-2.83.4-5.68.59-8.54.05-.8.11-1.6.16-2.43.08-.93.11-1.87.16-2.8,0,.03-.03.05-.05.05-.4.16-.91.35-1.49.59l.03-.16c.59-.24,1.09-.43,1.49-.59,0-.03-.03-.05-.03-.08-.03-.03,0-.05.03-.08l.03.16v-.24s0-.05.03-.08c.27-5.84.4-11.74.4-17.69l79.57,49.72Z"/>
      <path class="cls-3" d="M294.65,211.57l-2.27.43c-2.86.4-5.52.67-8.33,1.33l-30.93-150.78-11.72,151.58v.03l-.69,9.02-.08,1.09,1.36,11.88c.08.91.19,1.79.27,2.67l-.24.19c0-.08-.03-.16-.03-.24-1.04-10.97-2.32-23.43-3.71-36.77-.64-6.16-1.31-12.52-1.97-19-.83-7.58-1.65-15.34-2.51-23.19-.19-1.6-.35-3.26-.53-4.91-.05-.37-.08-.77-.13-1.15-.03-.16-.03-.32-.05-.48v-.08c2.32-56.39,21.16-131.27,21.16-133.33.56-.03,40.4,191.72,40.4,191.72Z"/>
      <path class="cls-7" d="M245.3,277.75h-.08c-.03-.32-.03-.67-.05-1.04-.32-6.08-1.15-16.28-2.32-29.25v-.03c-.11-.77-.16-1.55-.24-2.38-.05-.64-.11-1.28-.19-1.92-.03-.4-.08-.83-.13-1.25v-.24h-.03c-.08-.88-.16-1.76-.24-2.64l.24-.19c.05.56.11,1.09.16,1.65.05.43.11.88.13,1.31v.19c.03.13.05.29.05.43.08.8.13,1.57.24,2.35v.03c1.41,15.26,2.32,26.66,2.43,31.97.03.37.03.69.03,1.01Z"/>
      <path class="cls-7" d="M382.69,313.14l-3.44,7.42c-2.88,6.22-7.47,11.34-13.13,14.89-3.95,2.48-8.41,4.22-13.16,4.96l-8.38,1.33c-9.1,1.47-18.41,0-26.63-4.19-5.66-2.91-10.49-7.05-14.14-12.04-3.66-5.02-6.16-10.83-7.21-17.13l-1.25-7.58c-1.47-8.86-.69-17.93,2.27-26.42l1.63-4.67-53.27-26.23-2.83-1.41h-.03l-.56-.29c-.03-.43-.08-.88-.13-1.31-.05-.56-.11-1.09-.16-1.65-.08-.88-.19-1.76-.27-2.67l2.59-1.89v-.03l9.47-6.94c8.99-6.65,19.19-11.34,29.92-13.93l.08-.03c2.8-.67,5.47-.93,8.33-1.33,5.23-1.01,10.57-1.55,15.96-1.55h15.29c15.05,0,29.65,5.26,41.26,14.86,4.16,3.44,7.82,7.42,10.86,11.82,3.07,4.38,5.55,9.18,7.34,14.28l2.27,6.38c6.38,18.09,5.42,37.98-2.67,55.35Z"/>
      <path class="cls-6" d="M284.05,213.33l-.08.03c-10.73,2.59-20.92,7.29-29.92,13.93l-9.47,6.94v.03l-2.59,1.89-1.36-11.88.08-1.09.69-9.02v-.03l11.72-151.58,30.93,150.78Z"/>
      <path class="cls-1" d="M148.81,250.4l1.06,6.79c1.12,7.14,4.85,13.61,10.47,18.15l7.57,6.12"/>
      <path class="cls-3" d="M379.34,760.94l-.16,1.91c-.84,9.79-9.03,17.31-18.86,17.31h-68.44c3.44-1.44,7.18-3.1,11.26-5.02,4.62-3.18,9.1-6.59,13.48-10.25.08-.08.16-.16.27-.21.61-.51,1.23-1.01,1.87-1.55.35-.32.72-.64,1.09-.96,1.49-1.25,2.99-2.56,4.48-3.92.77-.67,1.52-1.36,2.3-2.11.48-.43.99-.88,1.49-1.36.48-.43.93-.91,1.41-1.36.35-.32.67-.61.99-.96,1.31-1.25,2.62-2.56,3.92-3.9,1.6-1.6,3.18-3.26,4.75-4.94,1.6-1.73,3.15-3.52,4.75-5.31.85-1.01,1.73-2.05,2.62-3.1.91-1.04,1.73-2.11,2.62-3.18l10.19,5.26,9.98,5.29c6.71,3.56,10.64,10.78,9.99,18.35Z"/>
      <path class="cls-7" d="M349.17,732.04c-.88,1.07-1.71,2.13-2.62,3.18-.88,1.04-1.76,2.08-2.62,3.1-1.6,1.79-3.15,3.58-4.75,5.31-1.57,1.68-3.15,3.34-4.75,4.94-1.31,1.33-2.62,2.64-3.92,3.9-.32.35-.64.64-.99.96-.48.45-.93.93-1.41,1.36-.51.48-1.01.93-1.49,1.36-.77.75-1.52,1.44-2.3,2.11-1.49,1.36-2.99,2.67-4.48,3.92-.37.32-.75.64-1.09.96-.64.53-1.25,1.04-1.87,1.55-.11.05-.19.13-.27.21-.53.43-1.07.85-1.63,1.28-.69.59-1.39,1.15-2.13,1.68-.91.72-1.81,1.41-2.72,2.08-.8.61-1.55,1.2-2.38,1.76-1.39,1.04-2.8,2.03-4.22,3.02-.75-.83-1.49-1.68-2.22-2.51l.11-.08c.69.8,1.41,1.63,2.16,2.43,1.41-.99,2.83-1.97,4.22-3.02.8-.56,1.57-1.15,2.38-1.76.91-.67,1.81-1.36,2.72-2.08.72-.53,1.44-1.09,2.13-1.68,1.25-.99,2.48-2,3.74-3.04.37-.32.75-.64,1.12-.96.75-.64,1.49-1.28,2.24-1.92.75-.64,1.49-1.33,2.24-2,.77-.67,1.52-1.36,2.3-2.11.48-.43.99-.88,1.47-1.36.48-.43.96-.91,1.44-1.36.35-.32.67-.61.99-.96.32-.32.67-.64.99-.96.16-.16.32-.29.48-.45.8-.8,1.63-1.6,2.43-2.43.03-.03.03-.05.03-.05.11-.11.21-.19.29-.27.08-.08.19-.19.27-.27.59-.61,1.2-1.25,1.81-1.89.8-.83,1.57-1.68,2.38-2.51,1.57-1.73,3.15-3.52,4.72-5.31.88-1.01,1.76-2.05,2.64-3.1.77-.91,1.52-1.87,2.3-2.8l.27-.21Z"/>
      <path class="cls-7" d="M299.24,269.72l4.57,4.98c7,7.62,12.51,16.5,16.23,26.15h0c2.78,7.2,2.46,15.22-.87,22.18h0"/>
    </g>
  </g>
</svg>