<?xml version="1.0" encoding="UTF-8"?>
<svg id="Calque_2" xmlns="http://www.w3.org/2000/svg" viewBox="0 0 2658.7 852.69">
  <defs>
    <style>
      .cls-1 {
        fill: none;
      }

      .cls-1, .cls-2, .cls-3, .cls-4, .cls-5, .cls-6, .cls-7, .cls-8, .cls-9 {
        stroke-miterlimit: 10;
      }

      .cls-1, .cls-2, .cls-3, .cls-4, .cls-5, .cls-7, .cls-8, .cls-9 {
        stroke: #000;
      }

      .cls-2, .cls-6 {
        fill: #fff;
      }

      .cls-3 {
        fill: #bf7394;
      }

      .cls-4 {
        fill: #864d66;
      }

      .cls-5 {
        fill: #1a1a1a;
      }

      .cls-6 {
        stroke: #1d1d1b;
      }

      .cls-7 {
        fill: #4497ba;
      }

      .cls-8 {
        fill: #1d1d1b;
      }

      .cls-9 {
        fill: #ffadd1;
      }
    </style>
  </defs>
  <g id="personnages">
    <g id="rondoudou">
      <g id="grodoudou_marche">
        <g>
          <g>
            <path class="cls-6" d="M359.19,578.99h47.21c-36.11,34.24-45.85,2.11-47.21,0ZM345.5,576.93c-2.4,1.52-4.8,3.12-7.21,4.78-.13.08-.24.16-.37.27-.59.43-1.17.83-1.76,1.23-1.2.8-2.38,1.63-3.55,2.51-1.07.75-2.13,1.52-3.2,2.32-.11.08-.21.16-.32.24-1.07.8-2.13,1.6-3.2,2.4-1.76,1.33-3.5,2.72-5.23,4.11-.56.45-1.15.93-1.71,1.39-.11.08-.21.16-.29.24-.93.77-1.84,1.52-2.78,2.3-1.81,1.57-3.63,3.15-5.42,4.75-2.7,2.43-5.31,4.91-7.85,7.45-2.05,2.05-4.08,4.16-6.03,6.32-.64.69-1.31,1.41-1.95,2.13v.03c-.21.24-.4.45-.59.69-.91,1.04-1.81,2.08-2.7,3.15-.48.56-.93,1.15-1.39,1.71-.29.37-.59.75-.88,1.12-.61.75-1.2,1.49-1.76,2.27-.59.75-1.15,1.52-1.71,2.3-.13.19-.29.4-.43.59-.69.96-1.39,1.95-2.05,2.91-.8,1.2-1.57,2.38-2.35,3.58-.51.8-1.01,1.6-1.49,2.4-.51.8-.99,1.63-1.44,2.43-.48.8-.93,1.63-1.39,2.43-.96,1.76-1.87,3.55-2.72,5.36-.29.61-.59,1.23-.88,1.87-.83,1.81-1.6,3.66-2.3,5.5-.35.85-.64,1.68-.96,2.54-.35.99-.69,2-1.01,3.02-.24.77-.51,1.6-.72,2.4-.53,1.79-1.01,3.58-1.41,5.42-.37,1.57-.69,3.2-.96,4.8-.11.59-.19,1.15-.27,1.71-.11.61-.19,1.2-.27,1.79-.13.93-.24,1.89-.32,2.83-.11.85-.19,1.73-.21,2.62-.03.08-.03.13-.03.21v.03c-.05.96-.11,1.89-.13,2.86-.03.96-.05,1.95-.05,2.91,0,1.12.03,2.27.05,3.44.05.91.11,1.81.16,2.72,0,.21.03.43.05.61.08,1.09.19,2.16.29,3.26.03.08.03.19.03.29l.4,2.96c.16,1.12.37,2.24.56,3.39.21,1.15.45,2.3.72,3.44.51,2.3,1.12,4.59,1.81,6.94,0,0,.03.03.03.05.53,1.68,1.09,3.39,1.68,5.1.93,2.62,1.97,5.23,3.15,7.87,1.2,2.67,2.51,5.36,3.95,8.09.93,1.76,1.92,3.55,2.96,5.34,5.84,9.98,13.45,20.28,23.08,30.9,53.16-36.64,93.22-103.41,108.08-183.77,2.99-16.12,4.96-32.77,5.79-49.85.03-.29.03-.56.05-.85v-.24c-4.96,1.84-37.68,14.44-71.58,36.43Z"/>
            <path class="cls-9" d="M302.6,610.91c-28.24,28.24-47.13,64.26-34.32,106.96-12.94-42.78,6.03-78.84,34.32-106.96Z"/>
            <path class="cls-9" d="M302.6,610.91c2.54-2.59,5.15-5.04,7.85-7.45-2.7,2.43-5.31,4.91-7.85,7.45Z"/>
            <path class="cls-9" d="M417.53,522.03c0,6.19-.16,12.36-.45,18.47-4.96,1.84-37.68,14.44-71.58,36.43-2.4,1.52-4.8,3.12-7.21,4.78-.13.08-.24.16-.37.27-.59.37-1.17.8-1.76,1.23-1.2.8-2.38,1.63-3.55,2.51-1.07.75-2.13,1.52-3.2,2.32-.11.08-.21.16-.32.24-1.07.8-2.13,1.6-3.2,2.4-1.76,1.33-3.5,2.72-5.23,4.11-.56.45-1.15.93-1.71,1.39-.11.08-.21.16-.29.24-.93.77-1.84,1.52-2.78,2.3-1.81,1.55-3.63,3.12-5.42,4.75-2.7,2.43-5.31,4.91-7.85,7.45-2.05,2.05-4.08,4.16-6.03,6.32-.64.69-1.31,1.41-1.95,2.13v.03c-.21.24-.4.45-.59.69-.91,1.04-1.81,2.08-2.7,3.15-.48.56-.93,1.15-1.39,1.71-.29.37-.59.75-.88,1.12-.61.75-1.2,1.49-1.76,2.27-.59.75-1.15,1.52-1.71,2.3-.13.19-.29.4-.43.59-.72.96-1.39,1.92-2.05,2.91-.83,1.2-1.6,2.38-2.35,3.58-.53.8-1.01,1.6-1.49,2.4-.51.8-.99,1.6-1.44,2.43-.48.8-.93,1.63-1.39,2.43-.96,1.76-1.87,3.55-2.72,5.36-.32.61-.61,1.25-.88,1.87-.83,1.81-1.6,3.66-2.3,5.5-.35.85-.64,1.68-.96,2.54-.35.99-.69,2-1.01,3.02-.24.77-.51,1.6-.72,2.4-.53,1.79-1.01,3.58-1.41,5.42-.37,1.57-.69,3.18-.96,4.8-.11.59-.19,1.15-.27,1.71-.11.59-.19,1.17-.27,1.79-.13.93-.24,1.87-.32,2.83-.08.85-.16,1.73-.21,2.62-.03.08-.03.13-.03.21v.03c-.05.93-.11,1.89-.13,2.86-.03.96-.05,1.92-.05,2.91,0,1.12.03,2.27.05,3.44.05.91.11,1.81.16,2.72,0,.21.03.43.05.61.05,1.09.16,2.16.29,3.26.03.08.03.19.03.29.11.99.24,1.97.4,2.96.16,1.12.37,2.24.56,3.39.21,1.15.45,2.3.72,3.44.51,2.3,1.12,4.59,1.81,6.94,0,0,.03.03.03.05.53,1.68,1.09,3.39,1.68,5.1.93,2.62,1.97,5.23,3.15,7.87,1.2,2.67,2.51,5.36,3.95,8.09.93,1.76,1.92,3.55,2.96,5.34,5.84,9.98,13.45,20.28,23.08,30.9-3.2,1.52-6.19,2.86-8.99,4.06h-.03v.03c-27.81,11.88-36.8,9.29-37.82,8.91l21.24,9.77c3.79,1.73,7.31,4.38,10.41,7.85l4.62,5.18c1.65,1.87,3.07,4.06,4.16,6.49,1.89,4.14,2.91,8.94,2.91,13.9-.19,2.59-.69,5.02-1.47,7.29-2.64,7.98-8.57,13.5-15.43,13.5h-80.52c-6.38,0-12.7-1.55-18.63-4.64l-25.43-12.86c-13.4-6.75-23.94-21.11-28.9-39.34l-3.58-13.18C51.51,738.12-.19,637.03.51,519.63c.77-125.19,62.21-232.18,146.22-268.26.03-.03.05-.05.08-.05.45,8.73,2.56,14.76,6.83,17.16l96.21,9.98h.08c0-4.75-.93-16.65-2.46-32.99l7.58,3.74,44.17,21.75-1.63,4.67c-.64,1.81-1.17,3.66-1.6,5.55-1.6,6.83-1.81,13.93-.67,20.9l1.25,7.58c1.04,6.27,3.55,12.12,7.21,17.11,3.66,4.99,8.46,9.13,14.14,12.04,8.19,4.19,17.53,5.66,26.63,4.19l8.38-1.33c4.99-.77,9.63-2.64,13.72-5.31,31.7,49.75,50.87,114.68,50.87,185.69Z"/>
            <path class="cls-9" d="M296.58,617.23c-.85.93-1.71,1.89-2.54,2.86.19-.24.37-.45.59-.69v-.03c.64-.72,1.31-1.44,1.95-2.13Z"/>
            <path class="cls-1" d="M417.01,541.61c.03-.29.03-.56.05-.85v-.24"/>
            <path class="cls-9" d="M249.85,280.73c-.27-6-1.12-16.71-2.38-30.54v-.03c-.11-.78-.16-1.56-.24-2.39-.05-.65-.11-1.29-.19-1.94-.13-1.45-.29-2.93-.43-4.41-1.04-11.06-2.32-23.63-3.71-37.08-1.39-13.51-2.91-27.9-4.48-42.54-.19-1.61-.35-3.28-.53-4.95-.05-.38-.08-.78-.13-1.16-.03-.16-.03-.32-.05-.48v-.08C229.7,80.73,220.65,2.19,220.65,2.19c0,0-74.81,186.9-73.92,251.24.03-.03.05-.05.08-.05.45,8.8,2.56,14.88,6.83,17.3M230.15,241.72c.03.91,0,1.8,0,2.66-.16,14.45-1.15,24.38-3.36,26.61h-46.81c-.4-1-.53-3.01-.43-5.84,0-.11-.03-.22,0-.32-.16-4.36.59-12.08,1.95-22.06,7.93-57.1,36.43-188.38,36.43-188.38,0,0,11.82,119.55,12.22,179.99.03,1.45.03,2.88.03,4.28,0,1.05,0,2.07-.03,3.07Z"/>
            <path class="cls-5" d="M230.18,236.72c0,1.04,0,2.05-.03,3.04.03.91,0,1.79,0,2.64-.16,14.33-1.15,24.18-3.36,26.39h-46.81c-.4-.99-.53-2.99-.43-5.79,0-.11-.03-.21,0-.32-.16-4.32.59-11.98,1.95-21.88,7.93-56.63,36.43-186.84,36.43-186.84,0,0,11.82,118.57,12.22,178.51.03,1.44.03,2.86.03,4.24Z"/>
            <path class="cls-9" d="M382.67,314.38l-3.44,7.42c-2.8,6-7.18,11-12.57,14.54-4.08,2.67-8.73,4.54-13.72,5.31l-8.38,1.33c-9.1,1.47-18.44,0-26.63-4.19-5.68-2.91-10.49-7.05-14.14-12.04-3.66-4.99-6.16-10.84-7.21-17.11l-1.25-7.58c-1.15-6.97-.93-14.06.67-20.9.43-1.89.96-3.74,1.6-5.55l1.63-4.67-44.17-21.75-7.58-3.74v-.03c-.11-.77-.16-1.55-.24-2.35-.05-.64-.11-1.28-.19-1.92-.13-1.41-.29-2.86-.43-4.32l12.06-8.86c8.99-6.65,19.19-11.34,29.92-13.93l.08-.03c2.8-.67,5.63-1.17,8.49-1.57,3.68-.53,7.39-.77,11.13-.77h15.32c15.05,0,29.65,5.26,41.26,14.87,4.16,3.44,7.82,7.45,10.86,11.82,3.07,4.4,5.52,9.18,7.34,14.28l2.27,6.38c6.38,18.09,5.42,37.98-2.67,55.35Z"/>
            <ellipse class="cls-2" cx="307.94" cy="455.89" rx="60.44" ry="64.92"/>
            <circle class="cls-7" cx="313.8" cy="455.89" r="45.23"/>
            <circle class="cls-2" cx="320.84" cy="435.08" r="16.13"/>
            <path class="cls-9" d="M106.19,545.27s43.61,128.31,54.51,113.32c10.9-14.99,41.08-113.32,41.08-113.32"/>
            <path class="cls-4" d="M406.4,578.99c-36.11,34.24-45.85,2.11-47.21,0h47.21Z"/>
            <path class="cls-2" d="M359.19,578.99h-.16c.03-.16.08-.13.16,0Z"/>
            <path class="cls-3" d="M330.58,795.71c6.26,6.43,9.3,15.3,8.6,24.24-.05.61-.09,1.21-.13,1.82-.61,9.51-8.5,16.91-18.03,16.91h-22.85c.77-2.27,1.28-4.7,1.47-7.29,0-4.96-1.01-9.77-2.91-13.9-1.09-2.43-2.51-4.62-4.16-6.49l-4.62-5.18c-3.1-3.47-6.62-6.11-10.41-7.85l-21.24-9.77c1.01.37,10.01,2.96,37.82-8.91v-.03h.03l22.36,7.02c4.14,1.3,7.93,3.51,11.1,6.48.95.89,1.96,1.89,2.97,2.93Z"/>
            <path class="cls-5" d="M288.68,214.03l-.08.03c-10.73,2.59-20.92,7.29-29.92,13.93l-12.06,8.86-1.36-11.88.08-1.09,12.41-160.63,30.93,150.78Z"/>
            <path class="cls-9" d="M299.22,270.96l13.89,4.67c5.45,1.83,10.17,5.37,13.46,10.09h0c3.63,5.21,5.05,11.64,3.94,17.89l-3.55,20.05"/>
            <path class="cls-3" d="M298.53,211.68l-1.36.77c-2.86.4-5.68.91-8.49,1.57l-30.93-150.78-12.41,160.63-.08,1.09,1.36,11.88c.13,1.47.29,2.91.43,4.32.08.64.13,1.28.19,1.92.08.8.13,1.57.24,2.35v.03c1.52,16.33,2.46,28.24,2.46,32.99h-.08c-.27-5.95-1.12-16.57-2.38-30.29v-.03c-.11-.77-.16-1.55-.24-2.38-.05-.64-.11-1.28-.19-1.92-.13-1.44-.29-2.91-.43-4.38-1.04-10.97-2.32-23.43-3.71-36.78-1.39-13.4-2.91-27.68-4.48-42.19-.19-1.6-.35-3.26-.53-4.91-.05-.37-.08-.77-.13-1.15-.03-.16-.03-.32-.05-.48v-.08c2.32-56.39,21.16-131.28,21.16-133.33.56-.03,39.66,191.14,39.66,191.14Z"/>
          </g>
          <g>
            <path class="cls-6" d="M1759.19,578.99h47.21c-36.11,34.24-45.85,2.11-47.21,0ZM1745.5,576.93c-2.4,1.52-4.8,3.12-7.21,4.78-.13.08-.24.16-.37.27-.59.43-1.17.83-1.76,1.23-1.2.8-2.38,1.63-3.55,2.51-1.07.75-2.13,1.52-3.2,2.32-.11.08-.21.16-.32.24-1.07.8-2.13,1.6-3.2,2.4-1.76,1.33-3.5,2.72-5.23,4.11-.56.45-1.15.93-1.71,1.39-.11.08-.21.16-.29.24-.93.77-1.84,1.52-2.78,2.3-1.81,1.57-3.63,3.15-5.42,4.75-2.7,2.43-5.31,4.91-7.85,7.45-2.05,2.05-4.08,4.16-6.03,6.32-.64.69-1.31,1.41-1.95,2.13v.03c-.21.24-.4.45-.59.69-.91,1.04-1.81,2.08-2.7,3.15-.48.56-.93,1.15-1.39,1.71-.29.37-.59.75-.88,1.12-.61.75-1.2,1.49-1.76,2.27-.59.75-1.15,1.52-1.71,2.3-.13.19-.29.4-.43.59-.69.96-1.39,1.95-2.05,2.91-.8,1.2-1.57,2.38-2.35,3.58-.51.8-1.01,1.6-1.49,2.4-.51.8-.99,1.63-1.44,2.43-.48.8-.93,1.63-1.39,2.43-.96,1.76-1.87,3.55-2.72,5.36-.29.61-.59,1.23-.88,1.87-.83,1.81-1.6,3.66-2.3,5.5-.35.85-.64,1.68-.96,2.54-.35.99-.69,2-1.01,3.02-.24.77-.51,1.6-.72,2.4-.53,1.79-1.01,3.58-1.41,5.42-.37,1.57-.69,3.2-.96,4.8-.11.59-.19,1.15-.27,1.71-.11.61-.19,1.2-.27,1.79-.13.93-.24,1.89-.32,2.83-.11.85-.19,1.73-.21,2.62-.03.08-.03.13-.03.21v.03c-.05.96-.11,1.89-.13,2.86-.03.96-.05,1.95-.05,2.91,0,1.12.03,2.27.05,3.44.05.91.11,1.81.16,2.72,0,.21.03.43.05.61.08,1.09.19,2.16.29,3.26.03.08.03.19.03.29l.4,2.96c.16,1.12.37,2.24.56,3.39.21,1.15.45,2.3.72,3.44.51,2.3,1.12,4.59,1.81,6.94,0,0,.03.03.03.05.53,1.68,1.09,3.39,1.68,5.1.93,2.62,1.97,5.23,3.15,7.87,1.2,2.67,2.51,5.36,3.95,8.09.93,1.76,1.92,3.55,2.96,5.34,5.84,9.98,13.45,20.28,23.08,30.9,53.16-36.64,93.22-103.41,108.08-183.77,2.99-16.12,4.96-32.77,5.79-49.85.03-.29.03-.56.05-.85v-.24c-4.96,1.84-37.68,14.44-71.58,36.43Z"/>
            <path class="cls-9" d="M1702.6,610.91c-28.24,28.24-47.13,64.26-34.32,106.96-12.94-42.78,6.03-78.84,34.32-106.96Z"/>
            <path class="cls-9" d="M1702.6,610.91c2.54-2.59,5.15-5.04,7.85-7.45-2.7,2.43-5.31,4.91-7.85,7.45Z"/>
            <path class="cls-9" d="M1817.53,522.03c0,6.19-.16,12.36-.45,18.47-4.96,1.84-37.68,14.44-71.58,36.43-2.4,1.52-4.8,3.12-7.21,4.78-.13.08-.24.16-.37.27-.59.37-1.17.8-1.76,1.23-1.2.8-2.38,1.63-3.55,2.51-1.07.75-2.13,1.52-3.2,2.32-.11.08-.21.16-.32.24-1.07.8-2.13,1.6-3.2,2.4-1.76,1.33-3.5,2.72-5.23,4.11-.56.45-1.15.93-1.71,1.39-.11.08-.21.16-.29.24-.93.77-1.84,1.52-2.78,2.3-1.81,1.55-3.63,3.12-5.42,4.75-2.7,2.43-5.31,4.91-7.85,7.45-2.05,2.05-4.08,4.16-6.03,6.32-.64.69-1.31,1.41-1.95,2.13v.03c-.21.24-.4.45-.59.69-.91,1.04-1.81,2.08-2.7,3.15-.48.56-.93,1.15-1.39,1.71-.29.37-.59.75-.88,1.12-.61.75-1.2,1.49-1.76,2.27-.59.75-1.15,1.52-1.71,2.3-.13.19-.29.4-.43.59-.72.96-1.39,1.92-2.05,2.91-.83,1.2-1.6,2.38-2.35,3.58-.53.8-1.01,1.6-1.49,2.4-.51.8-.99,1.6-1.44,2.43-.48.8-.93,1.63-1.39,2.43-.96,1.76-1.87,3.55-2.72,5.36-.32.61-.61,1.25-.88,1.87-.83,1.81-1.6,3.66-2.3,5.5-.35.85-.64,1.68-.96,2.54-.35.99-.69,2-1.01,3.02-.24.77-.51,1.6-.72,2.4-.53,1.79-1.01,3.58-1.41,5.42-.37,1.57-.69,3.18-.96,4.8-.11.59-.19,1.15-.27,1.71-.11.59-.19,1.17-.27,1.79-.13.93-.24,1.87-.32,2.83-.08.85-.16,1.73-.21,2.62-.03.08-.03.13-.03.21v.03c-.05.93-.11,1.89-.13,2.86-.03.96-.05,1.92-.05,2.91,0,1.12.03,2.27.05,3.44.05.91.11,1.81.16,2.72,0,.21.03.43.05.61.05,1.09.16,2.16.29,3.26.03.08.03.19.03.29.11.99.24,1.97.4,2.96.16,1.12.37,2.24.56,3.39.21,1.15.45,2.3.72,3.44.51,2.3,1.12,4.59,1.81,6.94,0,0,.03.03.03.05.53,1.68,1.09,3.39,1.68,5.1.93,2.62,1.97,5.23,3.15,7.87,1.2,2.67,2.51,5.36,3.95,8.09.93,1.76,1.92,3.55,2.96,5.34,5.84,9.98,13.45,20.28,23.08,30.9-3.2,1.52-6.19,2.86-8.99,4.06h-.03v.03c-27.81,11.88-36.8,9.29-37.82,8.91l21.24,9.77c3.79,1.73,7.31,4.38,10.41,7.85l4.62,5.18c1.65,1.87,3.07,4.06,4.16,6.49,1.89,4.14,2.91,8.94,2.91,13.9-.19,2.59-.69,5.02-1.47,7.29-2.64,7.98-8.57,13.5-15.43,13.5h-80.52c-6.38,0-12.7-1.55-18.63-4.64l-25.43-12.86c-13.4-6.75-23.94-21.11-28.9-39.34l-3.58-13.18c-74.19-44.03-125.89-145.13-125.19-262.53.77-125.19,62.21-232.18,146.22-268.26.03-.03.05-.05.08-.05.45,8.73,2.56,14.76,6.83,17.16l96.21,9.98h.08c0-4.75-.93-16.65-2.46-32.99l7.58,3.74,44.17,21.75-1.63,4.67c-.64,1.81-1.17,3.66-1.6,5.55-1.6,6.83-1.81,13.93-.67,20.9l1.25,7.58c1.04,6.27,3.55,12.12,7.21,17.11,3.66,4.99,8.46,9.13,14.14,12.04,8.19,4.19,17.53,5.66,26.63,4.19l8.38-1.33c4.99-.77,9.63-2.64,13.72-5.31,31.7,49.75,50.87,114.68,50.87,185.69Z"/>
            <path class="cls-9" d="M1696.58,617.23c-.85.93-1.71,1.89-2.54,2.86.19-.24.37-.45.59-.69v-.03c.64-.72,1.31-1.44,1.95-2.13Z"/>
            <path class="cls-1" d="M1817.01,541.61c.03-.29.03-.56.05-.85v-.24"/>
            <path class="cls-9" d="M1649.85,280.73c-.27-6-1.12-16.71-2.38-30.54v-.03c-.11-.78-.16-1.56-.24-2.39-.05-.65-.11-1.29-.19-1.94-.13-1.45-.29-2.93-.43-4.41-1.04-11.06-2.32-23.63-3.71-37.08-1.39-13.51-2.91-27.9-4.48-42.54-.19-1.61-.35-3.28-.53-4.95-.05-.38-.08-.78-.13-1.16-.03-.16-.03-.32-.05-.48v-.08c-8.01-74.4-17.05-152.94-17.05-152.94,0,0-74.81,186.9-73.92,251.24.03-.03.05-.05.08-.05.45,8.8,2.56,14.88,6.83,17.3M1630.15,241.72c.03.91,0,1.8,0,2.66-.16,14.45-1.15,24.38-3.36,26.61h-46.81c-.4-1-.53-3.01-.43-5.84,0-.11-.03-.22,0-.32-.16-4.36.59-12.08,1.95-22.06,7.93-57.1,36.43-188.38,36.43-188.38,0,0,11.82,119.55,12.22,179.99.03,1.45.03,2.88.03,4.28,0,1.05,0,2.07-.03,3.07Z"/>
            <path class="cls-5" d="M1630.18,236.72c0,1.04,0,2.05-.03,3.04.03.91,0,1.79,0,2.64-.16,14.33-1.15,24.18-3.36,26.39h-46.81c-.4-.99-.53-2.99-.43-5.79,0-.11-.03-.21,0-.32-.16-4.32.59-11.98,1.95-21.88,7.93-56.63,36.43-186.84,36.43-186.84,0,0,11.82,118.57,12.22,178.51.03,1.44.03,2.86.03,4.24Z"/>
            <path class="cls-9" d="M1782.67,314.38l-3.44,7.42c-2.8,6-7.18,11-12.57,14.54-4.08,2.67-8.73,4.54-13.72,5.31l-8.38,1.33c-9.1,1.47-18.44,0-26.63-4.19-5.68-2.91-10.49-7.05-14.14-12.04-3.66-4.99-6.16-10.84-7.21-17.11l-1.25-7.58c-1.15-6.97-.93-14.06.67-20.9.43-1.89.96-3.74,1.6-5.55l1.63-4.67-44.17-21.75-7.58-3.74v-.03c-.11-.77-.16-1.55-.24-2.35-.05-.64-.11-1.28-.19-1.92-.13-1.41-.29-2.86-.43-4.32l12.06-8.86c8.99-6.65,19.19-11.34,29.92-13.93l.08-.03c2.8-.67,5.63-1.17,8.49-1.57,3.68-.53,7.39-.77,11.13-.77h15.32c15.05,0,29.65,5.26,41.26,14.87,4.16,3.44,7.82,7.45,10.86,11.82,3.07,4.4,5.52,9.18,7.34,14.28l2.27,6.38c6.38,18.09,5.42,37.98-2.67,55.35Z"/>
            <ellipse class="cls-2" cx="1707.94" cy="455.89" rx="60.44" ry="64.92"/>
            <circle class="cls-7" cx="1713.8" cy="455.89" r="45.23"/>
            <circle class="cls-2" cx="1720.84" cy="435.08" r="16.13"/>
            <path class="cls-9" d="M1506.19,545.27s43.61,128.31,54.51,113.32c10.9-14.99,41.08-113.32,41.08-113.32"/>
            <path class="cls-4" d="M1806.4,578.99c-36.11,34.24-45.85,2.11-47.21,0h47.21Z"/>
            <path class="cls-2" d="M1759.19,578.99h-.16c.03-.16.08-.13.16,0Z"/>
            <path class="cls-3" d="M1730.58,795.71c6.26,6.43,9.3,15.3,8.6,24.24-.05.61-.09,1.21-.13,1.82-.61,9.51-8.5,16.91-18.03,16.91h-22.85c.77-2.27,1.28-4.7,1.47-7.29,0-4.96-1.01-9.77-2.91-13.9-1.09-2.43-2.51-4.62-4.16-6.49l-4.62-5.18c-3.1-3.47-6.62-6.11-10.41-7.85l-21.24-9.77c1.01.37,10.01,2.96,37.82-8.91v-.03h.03l22.36,7.02c4.14,1.3,7.93,3.51,11.1,6.48.95.89,1.96,1.89,2.97,2.93Z"/>
            <path class="cls-5" d="M1688.68,214.03l-.08.03c-10.73,2.59-20.92,7.29-29.92,13.93l-12.06,8.86-1.36-11.88.08-1.09,12.41-160.63,30.93,150.78Z"/>
            <path class="cls-9" d="M1699.22,270.96l13.89,4.67c5.45,1.83,10.17,5.37,13.46,10.09h0c3.63,5.21,5.05,11.64,3.94,17.89l-3.55,20.05"/>
            <path class="cls-3" d="M1698.53,211.68l-1.36.77c-2.86.4-5.68.91-8.49,1.57l-30.93-150.78-12.41,160.63-.08,1.09,1.36,11.88c.13,1.47.29,2.91.43,4.32.08.64.13,1.28.19,1.92.08.8.13,1.57.24,2.35v.03c1.52,16.33,2.46,28.24,2.46,32.99h-.08c-.27-5.95-1.12-16.57-2.38-30.29v-.03c-.11-.77-.16-1.55-.24-2.38-.05-.64-.11-1.28-.19-1.92-.13-1.44-.29-2.91-.43-4.38-1.04-10.97-2.32-23.43-3.71-36.78-1.39-13.4-2.91-27.68-4.48-42.19-.19-1.6-.35-3.26-.53-4.91-.05-.37-.08-.77-.13-1.15-.03-.16-.03-.32-.05-.48v-.08c2.32-56.39,21.16-131.28,21.16-133.33.56-.03,39.66,191.14,39.66,191.14Z"/>
          </g>
          <g>
            <path class="cls-9" d="M2272.74,537.39s43.61,128.31,54.52,113.31c10.89-14.97,41.07-113.31,41.07-113.31h-95.59ZM2404.6,276.79c-.11-5.31-1.01-16.71-2.43-31.97v-.03c-.11-.77-.16-1.55-.24-2.35,0-.13-.03-.29-.05-.43-.08-.05-.19-.05-.27-.08.05.43.11.85.13,1.25.08.64.13,1.28.19,1.92.08.83.13,1.6.24,2.38v.03c1.17,12.97,2,23.16,2.32,29.25.03.37.03.72.05,1.04h.08c0-.32,0-.64-.03-1.01ZM2493.82,748.45s0,.03-.03.05c.11-.11.21-.21.32-.32-.08.08-.19.16-.29.27ZM2522.61,576.51c.03.05.05.11.08.16.08.13.16.32.24.53.35.75.88,1.95,1.63,3.39.13.27.29.53.45.83.4.67.83,1.39,1.31,2.13.16.21.29.4.45.61.51.72,1.07,1.41,1.68,2.11.19.21.4.45.61.67.24.21.45.45.69.67.21.21.45.43.69.61.27.21.51.43.77.61.24.19.51.4.77.56.29.21.56.37.85.53.19.13.4.24.61.35,1.63.88,3.47,1.52,5.58,1.79.67.08,1.39.13,2.13.13,5.58.03,12.73-2.54,21.83-9.77,1.41-1.12,2.86-2.35,4.35-3.68.75-.64,1.49-1.33,2.27-2.08.05-.05.13-.11.19-.16h-47.21ZM2465.61,386.26c-33.39,0-60.45,29.06-60.45,64.93s27.06,64.93,60.45,64.93,60.42-29.09,60.42-64.93-27.06-64.93-60.42-64.93ZM2575.05,558.87c-.05.67-.11,1.33-.16,2,.08-.72.13-1.44.21-2.16.16-1.57.29-3.18.4-4.78-.16,1.65-.29,3.31-.45,4.94ZM2576.09,545.4c-.19,2.86-.4,5.71-.59,8.54.03-.05.03-.11.03-.16.21-2.83.43-5.68.61-8.54.05-.75.08-1.52.11-2.27-.05.83-.11,1.63-.16,2.43ZM2441.51,635.6h.03c.85-1.28,1.71-2.54,2.59-3.79-.91,1.25-1.76,2.51-2.62,3.79ZM2576.39,540.06c-.4.16-.91.35-1.49.59-8.81,3.39-38.75,15.64-69.63,35.68-2.4,1.52-4.8,3.12-7.21,4.78-.13.08-.24.16-.37.27-.59.43-1.17.83-1.76,1.23-1.2.8-2.38,1.63-3.55,2.51-1.07.75-2.13,1.52-3.2,2.32-.11.08-.21.16-.32.24-1.07.8-2.13,1.6-3.2,2.4-1.76,1.33-3.5,2.72-5.23,4.11-.56.45-1.15.93-1.71,1.39-.11.08-.21.16-.29.24-.93.77-1.84,1.52-2.78,2.3-1.81,1.57-3.63,3.15-5.42,4.75-2.7,2.43-5.31,4.91-7.85,7.45-1.12,1.12-2.22,2.24-3.31,3.39-.72.77-1.44,1.55-2.16,2.32-.59.61-1.15,1.25-1.68,1.87-.08.05-.13.11-.16.16-1.81,2.03-3.58,4.11-5.26,6.19-.08.11-.16.21-.21.29-.45.56-.88,1.12-1.31,1.68,4.32-5.47,9.02-10.75,14.04-15.75,2.56-2.54,5.15-5.02,7.85-7.45,1.79-1.6,3.6-3.18,5.42-4.75.93-.77,1.84-1.52,2.78-2.3.08-.08.21-.16.29-.24.59-.45,1.15-.93,1.71-1.39,1.73-1.39,3.47-2.78,5.23-4.11,1.07-.8,2.16-1.6,3.2-2.4.13-.08.21-.16.32-.24,1.07-.8,2.16-1.57,3.2-2.32,1.17-.88,2.35-1.71,3.55-2.51.59-.4,1.17-.8,1.76-1.23.13-.11.24-.19.37-.27,2.43-1.65,4.8-3.26,7.21-4.78,30.93-20.04,60.87-32.29,69.65-35.68.59-.24,1.09-.43,1.49-.59.03,0,.05-.03.05-.05v-.11h-.03ZM2444.13,631.78c.67-.93,1.36-1.87,2.05-2.8.69-.93,1.39-1.84,2.11-2.78-.48.59-.96,1.2-1.41,1.81-.96,1.23-1.87,2.48-2.75,3.76Z"/>
            <path class="cls-9" d="M2493.82,748.45s0,.03-.03.05c.11-.11.21-.21.32-.32-.08.08-.19.16-.29.27Z"/>
            <path class="cls-9" d="M2327.26,650.7c-10.91,15-54.52-113.31-54.52-113.31h95.59s-30.18,98.34-41.07,113.31ZM2386.14,264.68h-46.81c-.99-2.51-.83-11.16.13-23.62,4.24-55.59,23.88-187.1,23.88-187.1,0,0,21.99,129.43,24.74,185.63.69,13.64.24,22.95-1.95,25.09ZM2479.22,762.06c-.37.32-.75.64-1.12.96-1.25,1.04-2.48,2.05-3.74,3.04-.69.59-1.41,1.15-2.13,1.68-.91.72-1.81,1.41-2.72,2.08-.8.61-1.57,1.2-2.38,1.76-1.39,1.04-2.8,2.03-4.22,3.02-.75-.8-1.47-1.63-2.16-2.43-8.62-9.77-15.53-19.27-20.92-28.47-1.04-1.79-2.03-3.58-2.96-5.34-1.44-2.72-2.75-5.42-3.95-8.09-1.17-2.64-2.22-5.26-3.15-7.87-.59-1.71-1.15-3.42-1.68-5.1,0-.03-.03-.05-.03-.05-3.47-11.53-4.62-22.6-3.87-33.14-.77,10.59.35,21.7,3.84,33.31,0,0,.03.03.03.05.51,1.68,1.07,3.39,1.65,5.1.93,2.62,2,5.23,3.18,7.87,1.17,2.67,2.51,5.36,3.92,8.09.93,1.76,1.92,3.55,2.96,5.34,5.39,9.21,12.28,18.65,20.87,28.39.72.83,1.47,1.68,2.22,2.51,1.41-.99,2.83-1.97,4.22-3.02.83-.56,1.57-1.15,2.38-1.76.91-.67,1.81-1.36,2.72-2.08.75-.53,1.44-1.09,2.13-1.68.56-.43,1.09-.85,1.63-1.28.08-.08.16-.16.27-.21,1.76-1.49,3.52-3.02,5.26-4.59-.75.64-1.49,1.28-2.24,1.92ZM2465.61,386.26c-33.39,0-60.45,29.06-60.45,64.93s27.06,64.93,60.45,64.93,60.42-29.09,60.42-64.93-27.06-64.93-60.42-64.93Z"/>
            <path class="cls-9" d="M2525.44,335.5c-3.95,2.48-8.41,4.22-13.16,4.96l-8.38,1.33c-9.1,1.47-18.41,0-26.63-4.19-5.66-2.91-10.49-7.05-14.14-12.04-3.66-5.02-6.16-10.83-7.21-17.13l-1.25-7.58c-1.47-8.86-.69-17.93,2.27-26.42l1.63-4.67-53.27-26.23-2.83-1.41h-.03c-.19-.05-.37-.08-.56-.11.03.13.05.29.05.43.08.8.13,1.57.24,2.35v.03c1.41,15.26,2.32,26.66,2.43,31.97.03.37.03.69.03,1.01h-.08c-.03-.32-.03-.67-.05-1.04-.32-6.08-1.15-16.28-2.32-29.25v-.03c-.11-.77-.16-1.55-.24-2.38-.05-.64-.11-1.28-.19-1.92-.03-.4-.08-.83-.13-1.25v-.24h-.03c-.08-.88-.16-1.76-.24-2.64,0-.08-.03-.16-.03-.24-1.04-10.97-2.32-23.43-3.71-36.77-.64-6.16-1.31-12.52-1.97-19-13.4-80.09-31.84-180.86-31.84-180.86,0,0-56.71,189.16-55.67,248.27-85.08,35.23-147.52,142.99-148.3,269.19-.69,117.4,51,218.48,125.19,262.49l3.58,13.18c4.96,18.23,15.51,32.61,28.9,39.36l25.43,12.86c5.92,3.07,12.25,4.64,18.63,4.64h80.51c8.81,0,16.04-9.13,16.89-20.82,0-7.87-2.59-15.34-7.07-20.36l-4.62-5.2c-3.1-3.44-6.62-6.08-10.41-7.85l-21.24-9.77c.99.35,9.5,2.83,35.55-7.98h.03c3.44-1.44,7.18-3.1,11.26-5.02,4.62-3.18,9.1-6.59,13.48-10.25-.53.43-1.07.85-1.63,1.28-.69.59-1.39,1.15-2.13,1.68-.91.72-1.81,1.41-2.72,2.08-.8.61-1.55,1.2-2.38,1.76-1.39,1.04-2.8,2.03-4.22,3.02-.75-.83-1.49-1.68-2.22-2.51-8.59-9.74-15.48-19.19-20.87-28.39-1.04-1.79-2.03-3.58-2.96-5.34-1.41-2.72-2.75-5.42-3.92-8.09-1.17-2.64-2.24-5.26-3.18-7.87-.59-1.71-1.15-3.42-1.65-5.1,0-.03-.03-.05-.03-.05-3.5-11.61-4.62-22.71-3.84-33.31.05-.85.13-1.68.21-2.54.64-6.56,2-12.92,4-19.08.56-1.76,1.17-3.52,1.87-5.26,1.36-3.52,2.91-6.97,4.64-10.35,1.28-2.51,2.67-4.96,4.14-7.39.8-1.31,1.63-2.59,2.46-3.87v-.03c.85-1.28,1.71-2.54,2.62-3.79v-.03c.67-.96,1.33-1.89,2.05-2.8.21-.32.45-.64.69-.96.45-.61.93-1.23,1.41-1.81.43-.56.85-1.12,1.31-1.68.05-.08.13-.19.21-.29,1.68-2.08,3.44-4.16,5.26-6.19.03-.05.08-.11.16-.16.53-.61,1.09-1.25,1.68-1.87.72-.77,1.44-1.55,2.16-2.32,1.09-1.15,2.19-2.27,3.31-3.39,2.54-2.54,5.15-5.02,7.85-7.45,1.79-1.6,3.6-3.18,5.42-4.75.93-.77,1.84-1.52,2.78-2.3.08-.08.19-.16.29-.24.56-.45,1.15-.93,1.71-1.39,1.73-1.39,3.47-2.78,5.23-4.11,1.07-.8,2.14-1.6,3.2-2.4.11-.08.21-.16.32-.24,1.07-.8,2.14-1.57,3.2-2.32,1.17-.88,2.35-1.71,3.55-2.51.59-.4,1.17-.8,1.76-1.23.13-.11.24-.19.37-.27,2.4-1.65,4.8-3.26,7.21-4.78,30.88-20.04,60.82-32.29,69.63-35.68.59-.24,1.09-.43,1.49-.59,0-.03-.03-.05-.03-.08-.03-.03,0-.05.03-.08l.03.16v-.24s0-.05.03-.08c.27-5.84.4-11.74.4-17.69,0-71.41-19.4-136.66-51.4-186.54ZM2465.61,516.12c-33.39,0-60.45-29.09-60.45-64.93s27.06-64.93,60.45-64.93,60.42,29.06,60.42,64.93-27.06,64.93-60.42,64.93Z"/>
            <path class="cls-9" d="M2444.13,631.81c-.88,1.25-1.73,2.51-2.59,3.79,0,.03-.03.03-.03.03v-.03c.85-1.28,1.71-2.54,2.62-3.79Z"/>
            <path class="cls-9" d="M2526.03,451.19c0,35.84-27.06,64.93-60.42,64.93s-60.45-29.09-60.45-64.93,27.06-64.93,60.45-64.93,60.42,29.06,60.42,64.93Z"/>
            <path class="cls-9" d="M2576.41,540.06h-.03s-.03-.05-.03-.08c-.03-.03,0-.05.03-.08l.03.16Z"/>
            <path class="cls-9" d="M2404.6,276.79l-.11-.03c-.32-6.08-1.15-16.28-2.32-29.25v-.03c-.11-.77-.16-1.55-.24-2.38-.05-.64-.11-1.28-.19-1.92-.03-.4-.08-.83-.13-1.25v-.24h-.03c-.08-.88-.16-1.76-.24-2.64l.24-.19c.05.56.11,1.09.16,1.65.05.43.11.88.13,1.31l.56.29c-.19-.05-.37-.08-.56-.11.03.13.05.29.05.43.08.8.13,1.57.24,2.35v.03c1.41,15.26,2.32,26.66,2.43,31.97Z"/>
            <path class="cls-8" d="M2386.14,264.68h-46.81c-.99-2.51-.83-11.16.13-23.62,4.24-55.59,23.88-187.1,23.88-187.1,0,0,21.99,129.43,24.74,185.63.69,13.64.24,22.95-1.95,25.09Z"/>
            <path class="cls-9" d="M2401.88,241.83l-.27-.13h-.03c-.08-.88-.16-1.76-.24-2.64l.24-.19c.05.56.11,1.09.16,1.65.05.43.11.88.13,1.31Z"/>
            <path class="cls-2" d="M2526.03,451.19c0,35.84-27.06,64.93-60.42,64.93s-60.45-29.09-60.45-64.93,27.06-64.93,60.45-64.93,60.42,29.06,60.42,64.93Z"/>
            <circle class="cls-7" cx="2471.45" cy="451.19" r="45.23"/>
            <circle class="cls-2" cx="2478.49" cy="430.38" r="16.12"/>
            <path class="cls-9" d="M2368.34,537.39s-30.18,98.34-41.07,113.31c-10.91,15-54.52-113.31-54.52-113.31"/>
            <path class="cls-2" d="M2522.56,576.67c1.39,2.11,11.1,34.24,47.21,0h-47.21ZM2576.39,539.9s-.05.05-.03.08c0,.03.03.05.03.08s.03.08.03.11v-.11l-.03-.16ZM2576.41,540.16c-.05.93-.08,1.87-.16,2.8.05-.59.08-1.17.13-1.76,0-.03.03-.48.05-.77l-.03-.27ZM2568.41,602.13c-4.86,22.52-11.74,43.9-20.31,63.7-.72,1.68-1.47,3.34-2.22,4.99-.24.56-.51,1.09-.75,1.63-.37.83-.77,1.65-1.17,2.48-.67,1.49-1.39,2.96-2.11,4.43-.29.64-.61,1.31-.96,1.95-.77,1.55-1.57,3.1-2.38,4.62-.4.77-.8,1.55-1.23,2.32-.51,1.01-1.04,2-1.6,2.99-.53.99-1.07,1.97-1.63,2.96-.67,1.2-1.36,2.38-2.03,3.55-.77,1.36-1.57,2.72-2.4,4.06-.85,1.47-1.76,2.91-2.67,4.32-.91,1.49-1.87,2.99-2.83,4.46-2.56,3.95-5.23,7.77-7.98,11.5-1.15,1.57-2.3,3.1-3.47,4.62-.05.05-.11.13-.13.19-1.2,1.55-2.4,3.07-3.6,4.56-.16.16-.29.32-.4.48-.11.13-.21.24-.32.37-.77.93-1.52,1.89-2.3,2.8-.88,1.04-1.76,2.08-2.64,3.1-1.57,1.79-3.15,3.58-4.72,5.31-.8.83-1.57,1.68-2.38,2.51-.61.64-1.23,1.28-1.81,1.89-.08.08-.19.19-.27.27-.08.08-.19.16-.29.27,0,0,0,.03-.03.05-.8.83-1.63,1.63-2.43,2.43-.16.16-.32.29-.48.45-.32.32-.67.64-.99.96-.32.35-.64.64-.99.96-.48.45-.96.93-1.44,1.36-.48.48-.99.93-1.47,1.36-.77.75-1.52,1.44-2.3,2.11-.75.67-1.49,1.36-2.24,2-.75.64-1.49,1.28-2.24,1.92-.37.32-.75.64-1.12.96-1.25,1.04-2.48,2.05-3.74,3.04-.69.59-1.41,1.15-2.13,1.68-.91.72-1.81,1.41-2.72,2.08-.8.61-1.57,1.2-2.38,1.76-1.39,1.04-2.8,2.03-4.22,3.02-.75-.8-1.47-1.63-2.16-2.43-8.62-9.77-15.53-19.27-20.92-28.47-1.04-1.79-2.03-3.58-2.96-5.34-1.44-2.72-2.75-5.42-3.95-8.09-1.17-2.64-2.22-5.26-3.15-7.87-.59-1.71-1.15-3.42-1.68-5.1,0-.03-.03-.05-.03-.05-3.47-11.53-4.62-22.6-3.87-33.14-.77,10.59.35,21.7,3.84,33.31,0,0,.03.03.03.05.51,1.68,1.07,3.39,1.65,5.1.93,2.62,2,5.23,3.18,7.87,1.17,2.67,2.51,5.36,3.92,8.09.93,1.76,1.92,3.55,2.96,5.34,5.39,9.21,12.28,18.65,20.87,28.39.72.83,1.47,1.68,2.22,2.51,1.41-.99,2.83-1.97,4.22-3.02.83-.56,1.57-1.15,2.38-1.76.91-.67,1.81-1.36,2.72-2.08.75-.53,1.44-1.09,2.13-1.68.56-.43,1.09-.85,1.63-1.28.08-.08.16-.16.27-.21.61-.51,1.23-1.01,1.87-1.55.35-.32.72-.64,1.09-.96,1.49-1.25,2.99-2.56,4.48-3.92.77-.67,1.52-1.36,2.3-2.11.48-.43.99-.88,1.49-1.36.48-.43.93-.91,1.41-1.36.35-.32.67-.61.99-.96,1.31-1.25,2.62-2.56,3.92-3.9,1.6-1.6,3.18-3.26,4.75-4.94,1.6-1.73,3.15-3.52,4.75-5.31.85-1.01,1.73-2.05,2.62-3.1.91-1.04,1.73-2.11,2.62-3.18.13-.16.27-.32.43-.48,1.2-1.49,2.38-3.02,3.58-4.56.03-.05.11-.13.13-.19,1.17-1.52,2.32-3.04,3.5-4.62,2.72-3.74,5.39-7.55,7.98-11.5.93-1.47,1.89-2.96,2.8-4.46.91-1.41,1.81-2.86,2.67-4.32.83-1.33,1.63-2.7,2.4-4.06.67-1.17,1.36-2.35,2.03-3.55.56-.99,1.12-1.97,1.63-2.96.56-.99,1.09-1.97,1.6-2.99.43-.77.83-1.55,1.23-2.32.83-1.52,1.6-3.07,2.38-4.62.35-.64.67-1.31.96-1.95,1.12-2.27,2.22-4.59,3.31-6.91,10.14-21.72,18.15-45.39,23.62-70.56.77-3.66,1.52-7.34,2.22-11.05,1.84-9.87,3.04-19.91,3.95-30.13-1.41,14.12-3.6,27.89-6.48,41.26Z"/>
            <path class="cls-2" d="M2576.36,540.22c-.4.16-.91.35-1.49.59-8.78,3.39-38.72,15.64-69.65,35.68-2.4,1.52-4.78,3.12-7.21,4.78-.13.08-.24.16-.37.27-.59.43-1.17.83-1.76,1.23-1.2.8-2.38,1.63-3.55,2.51-1.04.75-2.13,1.52-3.2,2.32-.11.08-.19.16-.32.24-1.04.8-2.14,1.6-3.2,2.4-1.76,1.33-3.5,2.72-5.23,4.11-.56.45-1.12.93-1.71,1.39-.08.08-.21.16-.29.24-.93.77-1.84,1.52-2.78,2.3-1.81,1.57-3.63,3.15-5.42,4.75-2.7,2.43-5.28,4.91-7.85,7.45-5.02,4.99-9.71,10.27-14.04,15.75-.72.93-1.41,1.84-2.11,2.78-.69.93-1.39,1.87-2.05,2.8v.03c-.88,1.25-1.73,2.51-2.59,3.79,0,.03-.03.03-.03.03-.83,1.28-1.65,2.56-2.46,3.87-1.47,2.43-2.86,4.88-4.14,7.39-1.73,3.39-3.28,6.83-4.64,10.35-.67,1.73-1.28,3.47-1.87,5.26-2,6.16-3.36,12.52-4,19.08-.08.85-.16,1.68-.21,2.54-.75,10.54.4,21.62,3.87,33.14,0,0,.03.03.03.05.53,1.68,1.09,3.39,1.68,5.1.93,2.62,1.97,5.23,3.15,7.87,1.2,2.67,2.51,5.36,3.95,8.09.93,1.76,1.92,3.55,2.96,5.34,5.39,9.21,12.3,18.71,20.92,28.47.69.8,1.41,1.63,2.16,2.43,1.41-.99,2.83-1.97,4.22-3.02.8-.56,1.57-1.15,2.38-1.76.91-.67,1.81-1.36,2.72-2.08.72-.53,1.44-1.09,2.13-1.68,1.25-.99,2.48-2,3.74-3.04.37-.32.75-.64,1.12-.96.75-.64,1.49-1.28,2.24-1.92.75-.64,1.49-1.33,2.24-2,.77-.67,1.52-1.36,2.3-2.11.48-.43.99-.88,1.47-1.36.48-.43.96-.91,1.44-1.36.35-.32.67-.61.99-.96.32-.32.67-.64.99-.96.16-.16.32-.29.48-.45.8-.8,1.63-1.6,2.43-2.43.03-.03.03-.05.03-.05.11-.11.21-.19.29-.27.08-.08.19-.19.27-.27.59-.61,1.2-1.25,1.81-1.89.8-.83,1.57-1.68,2.38-2.51,1.57-1.73,3.15-3.52,4.72-5.31.88-1.01,1.76-2.05,2.64-3.1.77-.91,1.52-1.87,2.3-2.8.11-.13.21-.24.32-.37.11-.16.24-.32.4-.48,1.2-1.49,2.4-3.02,3.6-4.56.03-.05.08-.13.13-.19,1.17-1.52,2.32-3.04,3.47-4.62,2.75-3.74,5.42-7.55,7.98-11.5.96-1.47,1.92-2.96,2.83-4.46.91-1.41,1.81-2.86,2.67-4.32.83-1.33,1.63-2.7,2.4-4.06.67-1.17,1.36-2.35,2.03-3.55.56-.99,1.09-1.97,1.63-2.96.56-.99,1.09-1.97,1.6-2.99.43-.77.83-1.55,1.23-2.32.8-1.52,1.6-3.07,2.38-4.62.35-.64.67-1.31.96-1.95.72-1.47,1.44-2.94,2.11-4.43.4-.83.8-1.65,1.17-2.48.24-.53.51-1.07.75-1.63.75-1.65,1.49-3.31,2.22-4.99,8.57-19.8,15.45-41.18,20.31-63.7,2.88-13.37,5.07-27.14,6.48-41.26.05-.67.11-1.33.16-2,.16-1.63.29-3.28.45-4.94.19-2.83.4-5.68.59-8.54.05-.8.11-1.6.16-2.43.08-.93.11-1.87.16-2.8,0,.03-.03.05-.05.05ZM2522.56,576.67h.13c-.03-.05-.05-.11-.08-.16h-.16c.03-.16.08-.13.16,0h47.21c-.05.05-.13.11-.19.16h.13c-36.11,34.24-45.82,2.11-47.21,0Z"/>
            <path class="cls-2" d="M2441.51,635.6h.03s-.03.03-.03.03v-.03Z"/>
            <path class="cls-2" d="M2522.61,576.51h-.16c.03-.16.08-.13.16,0Z"/>
            <path class="cls-2" d="M2569.63,576.67h.13c-36.11,34.24-45.82,2.11-47.21,0h.13c-.03-.05-.05-.11-.08-.16h47.21c-.05.05-.13.11-.19.16Z"/>
            <path class="cls-4" d="M2569.82,576.51c-.05.05-.13.11-.19.16-.77.75-1.52,1.44-2.27,2.08-1.49,1.36-2.96,2.59-4.35,3.68-9.1,7.23-16.25,9.79-21.83,9.77-.75,0-1.47-.05-2.13-.13-2.11-.27-3.95-.91-5.58-1.79-.21-.11-.43-.21-.61-.35-.29-.16-.56-.32-.85-.53-.27-.16-.53-.37-.77-.56-.27-.19-.51-.4-.77-.61-.24-.19-.48-.4-.69-.61-.24-.21-.45-.45-.69-.67-.21-.21-.43-.45-.61-.67-.61-.69-1.17-1.39-1.68-2.11-.16-.21-.29-.4-.45-.61-.48-.75-.91-1.47-1.31-2.13-.16-.29-.29-.56-.45-.83-.75-1.44-1.28-2.64-1.63-3.39-.08-.21-.16-.4-.24-.53-.03-.05-.05-.11-.08-.16h47.21Z"/>
            <path class="cls-2" d="M2522.61,576.51h-.16c.03-.16.08-.13.16,0Z"/>
            <path class="cls-3" d="M2656.41,571.76c2.83,1.77,2.19,6.06-1.03,6.93l-86.65,23.36-.32.08c2.88-13.37,5.07-27.14,6.48-41.26.05-.67.11-1.33.16-2,.16-1.63.29-3.28.45-4.94.19-2.83.4-5.68.59-8.54.05-.8.11-1.6.16-2.43.08-.93.11-1.87.16-2.8,0,.03-.03.05-.05.05-.4.16-.91.35-1.49.59l.03-.16c.59-.24,1.09-.43,1.49-.59,0-.03-.03-.05-.03-.08-.03-.03,0-.05.03-.08l.03.16v-.24s0-.05.03-.08c.27-5.84.4-11.74.4-17.69l79.57,49.72Z"/>
            <path class="cls-3" d="M2453.97,211.62l-2.27.43c-2.86.4-5.52.67-8.33,1.33l-30.93-150.78-11.72,151.58v.03l-.69,9.02-.08,1.09,1.36,11.88c.08.91.19,1.79.27,2.67l-.24.19c0-.08-.03-.16-.03-.24-1.04-10.97-2.32-23.43-3.71-36.77-.64-6.16-1.31-12.52-1.97-19-.83-7.58-1.65-15.34-2.51-23.19-.19-1.6-.35-3.26-.53-4.91-.05-.37-.08-.77-.13-1.15-.03-.16-.03-.32-.05-.48v-.08c2.32-56.39,21.16-131.27,21.16-133.33.56-.03,40.4,191.72,40.4,191.72Z"/>
            <path class="cls-9" d="M2404.63,277.81h-.08c-.03-.32-.03-.67-.05-1.04-.32-6.08-1.15-16.28-2.32-29.25v-.03c-.11-.77-.16-1.55-.24-2.38-.05-.64-.11-1.28-.19-1.92-.03-.4-.08-.83-.13-1.25v-.24h-.03c-.08-.88-.16-1.76-.24-2.64l.24-.19c.05.56.11,1.09.16,1.65.05.43.11.88.13,1.31v.19c.03.13.05.29.05.43.08.8.13,1.57.24,2.35v.03c1.41,15.26,2.32,26.66,2.43,31.97.03.37.03.69.03,1.01Z"/>
            <path class="cls-9" d="M2542.01,313.19l-3.44,7.42c-2.88,6.22-7.47,11.34-13.13,14.89-3.95,2.48-8.41,4.22-13.16,4.96l-8.38,1.33c-9.1,1.47-18.41,0-26.63-4.19-5.66-2.91-10.49-7.05-14.14-12.04-3.66-5.02-6.16-10.83-7.21-17.13l-1.25-7.58c-1.47-8.86-.69-17.93,2.27-26.42l1.63-4.67-53.27-26.23-2.83-1.41h-.03l-.56-.29c-.03-.43-.08-.88-.13-1.31-.05-.56-.11-1.09-.16-1.65-.08-.88-.19-1.76-.27-2.67l2.59-1.89v-.03l9.47-6.94c8.99-6.65,19.19-11.34,29.92-13.93l.08-.03c2.8-.67,5.47-.93,8.33-1.33,5.23-1.01,10.57-1.55,15.96-1.55h15.29c15.05,0,29.65,5.26,41.26,14.86,4.16,3.44,7.82,7.42,10.86,11.82,3.07,4.38,5.55,9.18,7.34,14.28l2.27,6.38c6.38,18.09,5.42,37.98-2.67,55.35Z"/>
            <path class="cls-8" d="M2443.38,213.38l-.08.03c-10.73,2.59-20.92,7.29-29.92,13.93l-9.47,6.94v.03l-2.59,1.89-1.36-11.88.08-1.09.69-9.02v-.03l11.72-151.58,30.93,150.78Z"/>
            <path class="cls-1" d="M2308.13,250.45l1.06,6.79c1.12,7.14,4.85,13.61,10.47,18.15l7.57,6.12"/>
            <path class="cls-3" d="M2538.66,760.99l-.16,1.91c-.84,9.79-9.03,17.31-18.86,17.31h-68.44c3.44-1.44,7.18-3.1,11.26-5.02,4.62-3.18,9.1-6.59,13.48-10.25.08-.08.16-.16.27-.21.61-.51,1.23-1.01,1.87-1.55.35-.32.72-.64,1.09-.96,1.49-1.25,2.99-2.56,4.48-3.92.77-.67,1.52-1.36,2.3-2.11.48-.43.99-.88,1.49-1.36.48-.43.93-.91,1.41-1.36.35-.32.67-.61.99-.96,1.31-1.25,2.62-2.56,3.92-3.9,1.6-1.6,3.18-3.26,4.75-4.94,1.6-1.73,3.15-3.52,4.75-5.31.85-1.01,1.73-2.05,2.62-3.1.91-1.04,1.73-2.11,2.62-3.18l10.19,5.26,9.98,5.29c6.71,3.56,10.64,10.78,9.99,18.35Z"/>
            <path class="cls-9" d="M2508.49,732.1c-.88,1.07-1.71,2.13-2.62,3.18-.88,1.04-1.76,2.08-2.62,3.1-1.6,1.79-3.15,3.58-4.75,5.31-1.57,1.68-3.15,3.34-4.75,4.94-1.31,1.33-2.62,2.64-3.92,3.9-.32.35-.64.64-.99.96-.48.45-.93.93-1.41,1.36-.51.48-1.01.93-1.49,1.36-.77.75-1.52,1.44-2.3,2.11-1.49,1.36-2.99,2.67-4.48,3.92-.37.32-.75.64-1.09.96-.64.53-1.25,1.04-1.87,1.55-.11.05-.19.13-.27.21-.53.43-1.07.85-1.63,1.28-.69.59-1.39,1.15-2.13,1.68-.91.72-1.81,1.41-2.72,2.08-.8.61-1.55,1.2-2.38,1.76-1.39,1.04-2.8,2.03-4.22,3.02-.75-.83-1.49-1.68-2.22-2.51l.11-.08c.69.8,1.41,1.63,2.16,2.43,1.41-.99,2.83-1.97,4.22-3.02.8-.56,1.57-1.15,2.38-1.76.91-.67,1.81-1.36,2.72-2.08.72-.53,1.44-1.09,2.13-1.68,1.25-.99,2.48-2,3.74-3.04.37-.32.75-.64,1.12-.96.75-.64,1.49-1.28,2.24-1.92.75-.64,1.49-1.33,2.24-2,.77-.67,1.52-1.36,2.3-2.11.48-.43.99-.88,1.47-1.36.48-.43.96-.91,1.44-1.36.35-.32.67-.61.99-.96.32-.32.67-.64.99-.96.16-.16.32-.29.48-.45.8-.8,1.63-1.6,2.43-2.43.03-.03.03-.05.03-.05.11-.11.21-.19.29-.27.08-.08.19-.19.27-.27.59-.61,1.2-1.25,1.81-1.89.8-.83,1.57-1.68,2.38-2.51,1.57-1.73,3.15-3.52,4.72-5.31.88-1.01,1.76-2.05,2.64-3.1.77-.91,1.52-1.87,2.3-2.8l.27-.21Z"/>
            <path class="cls-9" d="M2458.56,269.77l4.57,4.98c7,7.62,12.51,16.5,16.23,26.15h0c2.78,7.2,2.46,15.22-.87,22.18h0"/>
          </g>
          <g>
            <path class="cls-9" d="M940.93,785.39c11.45-.67,23.91-2.61,34.66-4.67l-34.66,4.67ZM918.97,782.43c-.88-.27-1.73-.56-2.56-.91,3.52,1.55,7.79,2.88,13.31,4.06l-10.54-3.09-.21-.05ZM914.03,780.46c.67.35,1.33.67,2.03.93-.32-.13-.64-.29-.96-.45-.37-.13-.72-.29-1.07-.48ZM911.98,779.28c.67.43,1.33.83,2.05,1.17-.37-.19-.72-.37-1.07-.61-.35-.19-.67-.37-.99-.56Z"/>
            <path class="cls-9" d="M1117.47,521.92c0,6-.13,11.98-.4,17.88-5.12,1.89-37.73,14.49-71.5,36.39-2.4,1.52-4.8,3.12-7.2,4.78-.13.08-.24.16-.37.27-.59.43-1.17.83-1.76,1.23-1.2.8-2.37,1.63-3.55,2.51-1.07.75-2.13,1.52-3.2,2.32-.11.08-.21.16-.32.24-1.07.8-2.13,1.6-3.2,2.4-1.76,1.33-3.5,2.72-5.23,4.11-.56.45-1.15.93-1.71,1.39-.11.08-.21.16-.29.24-.93.77-1.84,1.52-2.77,2.29-1.81,1.57-3.63,3.15-5.42,4.75-2.69,2.43-5.31,4.91-7.84,7.44-28.23,28.23-47.12,64.25-34.31,106.93,0,0,.03.03.03.05.53,1.68,1.09,3.39,1.68,5.1.93,2.61,1.97,5.23,3.15,7.87,1.2,2.67,2.51,5.36,3.95,8.08.93,1.76,1.92,3.55,2.96,5.34,5.84,9.98,13.45,20.28,23.08,30.9,0,0-.91.24-2.56.69-4.32,1.09-13.74,3.41-25.05,5.6h-.03l-34.66,4.67h-.05c-3.87.24-7.63.32-11.15.19l-10.54-3.09c-3.52-1.44-7.55-3.52-11.53-6.51,1.23,1.17,2.56,2.21,4,3.12,0,0,.03.03.05.03.08.05.16.11.27.16.67.43,1.33.83,2.05,1.17.67.35,1.33.67,2.03.93.11.05.24.11.35.13,3.52,1.55,7.79,2.88,13.31,4.06l4.24.75,11.69,2.45c5.23,1.07,9.74,3.87,12.99,7.68.16.16.29.32.43.48,3.28,4.06,5.23,9.23,5.23,14.78,0,2.67-.45,5.31-1.33,7.79l-1.17,3.34c-3.31,9.39-12.19,15.69-22.17,15.66-9.68,0-19.96-.05-19.96-.05,0,0-2.37-.03-6.14-.11-7.47-.13-20.36-.4-30.63-.91-11.37-.53-34.39-4.3-42.26-12.51l-.08-.08c-9.28-9.47-14.81-35.4-14.81-35.4l-.51-4.46-.56-3.68.8-15.07c.11-2.27.03-4.54-.27-6.78l-1.6-12.3,1.07,34.15c-73.61-44.32-124.81-144.98-124.12-261.79.77-126.94,63.98-235.24,149.84-269.76,10.06-4.06,20.41-7.1,31.03-8.99,7.42-1.36,14.94-2.19,22.57-2.43,8.8-.27,17.48.19,25.99,1.36,3.84.51,7.66,1.17,11.42,2,1.92.37,3.82.83,5.71,1.31,47.41,11.9,89.19,45.65,119.5,93.25,31.7,49.76,50.85,114.67,50.85,185.67Z"/>
            <path class="cls-9" d="M825.21,759.46c.29,2.24.37,4.51.27,6.78l-.8,15.07-1.07-34.15,1.6,12.3Z"/>
            <path class="cls-2" d="M915.1,780.94c.32.16.64.32.96.45-.69-.27-1.36-.59-2.03-.93-.72-.35-1.39-.75-2.05-1.17.32.19.64.37.99.56.69.37,1.39.75,2.13,1.09Z"/>
            <path class="cls-2" d="M929.72,785.58c-5.52-1.17-9.79-2.51-13.31-4.06.83.35,1.68.64,2.56.91l.21.05,10.54,3.09Z"/>
            <path class="cls-9" d="M1058.14,578.83h47.2c-36.1,34.23-45.84,2.11-47.2,0ZM1045.57,576.19c-2.4,1.52-4.8,3.12-7.2,4.78-.13.08-.24.16-.37.27-.59.43-1.17.83-1.76,1.23-1.2.8-2.37,1.63-3.55,2.51-1.07.75-2.13,1.52-3.2,2.32-.11.08-.21.16-.32.24-1.07.8-2.13,1.6-3.2,2.4-1.76,1.33-3.5,2.72-5.23,4.11-.56.45-1.15.93-1.71,1.39-.11.08-.21.16-.29.24-.93.77-1.84,1.52-2.77,2.29-1.81,1.57-3.63,3.15-5.42,4.75-2.69,2.43-5.31,4.91-7.84,7.44-28.23,28.23-47.12,64.25-34.31,106.93,0,0,.03.03.03.05.53,1.68,1.09,3.39,1.68,5.1.93,2.61,1.97,5.23,3.15,7.87,1.2,2.67,2.51,5.36,3.95,8.08.93,1.76,1.92,3.55,2.96,5.34,5.84,9.98,13.45,20.28,23.08,30.9,0,0-.91.24-2.56.69l2.45-.11c50.03-34.44,88.45-95.57,105.15-169.58.53-2.37,1.04-4.8,1.55-7.2.51-2.51,1.01-5.02,1.47-7.52.32-1.76.64-3.5.93-5.26.19-1.04.35-2.11.51-3.15.56-3.47,1.07-6.94,1.52-10.43.35-2.64.67-5.28.96-7.92.85-7.95,1.49-16.01,1.87-24.15-5.12,1.89-37.73,14.49-71.5,36.39Z"/>
            <path class="cls-9" d="M853.67,268.39c-21.48-17.34,65.71-266.21,65.71-266.21,0,0,30.57,249.64,30.57,276.2"/>
            <path class="cls-8" d="M880.01,265.78c-5.41-13.69,36.65-211.82,36.65-211.82,0,0,21.3,200.86,10.15,211.82h-46.79Z"/>
            <path class="cls-9" d="M948.13,239.52l10.56-11.61c14.38-10.58,31.76-16.29,49.61-16.29h15.29c15.06,0,29.65,5.26,41.25,14.87h0c8.32,6.89,14.61,15.91,18.21,26.09l2.25,6.38c6.39,18.08,5.44,37.95-2.65,55.34l-3.44,7.4c-4.92,10.58-14.77,18.02-26.29,19.86l-8.37,1.34c-9.1,1.45-18.43-.02-26.65-4.21h0c-11.33-5.78-19.25-16.59-21.33-29.14l-1.26-7.58c-1.47-8.86-.69-17.95,2.26-26.43l1.62-4.66-50.85-28.74c-1.04-.51-2.02-1-.23-2.63Z"/>
            <path class="cls-9" d="M999.22,270.89h0c10.24,6.9,14.04,20.57,16.11,32.18l1.04,5.84c.81,4.54-.06,9.23-2.44,13.18h0"/>
            <ellipse class="cls-2" cx="1015.44" cy="451.08" rx="60.42" ry="64.9"/>
            <circle class="cls-7" cx="1021.3" cy="451.08" r="45.22"/>
            <circle class="cls-2" cx="1028.34" cy="430.28" r="16.12"/>
            <path class="cls-9" d="M805.89,544.11s43.6,128.27,54.5,113.29c10.9-14.99,41.07-113.29,41.07-113.29"/>
            <path class="cls-2" d="M1058.14,578.83h47.2c-36.1,34.23-45.84,2.11-47.2,0ZM1117.07,539.8c-5.12,1.89-37.73,14.49-71.5,36.39-2.4,1.52-4.8,3.12-7.2,4.78-.13.08-.24.16-.37.27-.59.43-1.17.83-1.76,1.23-1.2.8-2.37,1.63-3.55,2.51-1.07.75-2.13,1.52-3.2,2.32-.11.08-.21.16-.32.24-1.07.8-2.13,1.6-3.2,2.4-1.76,1.33-3.5,2.72-5.23,4.11-.56.45-1.15.93-1.71,1.39-.11.08-.21.16-.29.24-.93.77-1.84,1.52-2.77,2.29-1.81,1.57-3.63,3.15-5.42,4.75-2.69,2.43-5.31,4.91-7.84,7.44-28.23,28.23-47.12,64.25-34.31,106.93,0,0,.03.03.03.05.53,1.68,1.09,3.39,1.68,5.1.93,2.61,1.97,5.23,3.15,7.87,1.2,2.67,2.51,5.36,3.95,8.08.93,1.76,1.92,3.55,2.96,5.34,5.84,9.98,13.45,20.28,23.08,30.9,49.87-34.36,88.18-95.25,105.04-168.99.53-2.37,1.04-4.8,1.55-7.2.51-2.51,1.01-5.02,1.47-7.52.32-1.76.64-3.5.93-5.26.19-1.04.35-2.11.51-3.15.56-3.47,1.07-6.94,1.52-10.43.35-2.64.67-5.28.96-7.92.85-7.6,1.49-15.31,1.87-23.08.03-.29.03-.56.05-.85v-.24s-.03,0-.05.03Z"/>
            <path class="cls-4" d="M1105.34,578.83c-36.1,34.23-45.84,2.11-47.2,0h47.2Z"/>
            <path class="cls-2" d="M1058.14,578.83h-.16c.03-.16.08-.13.16,0Z"/>
            <path class="cls-9" d="M825.48,766.23l-.8,15.07-1.07-34.15,1.6,12.3c.29,2.24.37,4.51.27,6.78Z"/>
            <path class="cls-3" d="M998.07,212.72l-1.36.77c-2.85.4-5.68.91-8.48,1.57l-30.92-150.74-12.41,160.59-.08,1.09,1.36,11.87c.13,1.47.29,2.91.43,4.32.08.64.13,1.28.19,1.92.08.8.13,1.57.24,2.35v.03c1.52,16.33,2.45,28.23,2.45,32.98h-.08c-.27-5.95-1.12-16.57-2.37-30.28v-.03c-.11-.77-.16-1.55-.24-2.37-.05-.64-.11-1.28-.19-1.92-.13-1.44-.29-2.91-.43-4.38-1.04-10.97-2.32-23.43-3.71-36.77-1.39-13.39-2.91-27.67-4.48-42.18-.19-1.6-.35-3.25-.53-4.91-.05-.37-.08-.77-.13-1.15-.03-.16-.03-.32-.05-.48v-.08c2.32-56.38,21.16-131.24,21.16-133.29.56-.03,39.65,191.08,39.65,191.08Z"/>
            <path class="cls-5" d="M988.22,215.07l-.08.03c-10.73,2.59-20.92,7.28-29.91,13.93l-12.06,8.86-1.36-11.87.08-1.09,12.41-160.59,30.92,150.74Z"/>
            <path class="cls-3" d="M1036.94,826.26h0c0,14.32-11.61,25.92-25.92,25.92h-76.25c-3.41,0-6.73-1.15-9.4-3.28l-12.25-9.72.19-.16c3.76.08,6.14.11,6.14.11,0,0,10.27.05,19.96.05,9.98.03,18.86-6.27,22.17-15.66l1.17-3.34c.88-2.48,1.33-5.12,1.33-7.79,0-5.55-1.95-10.73-5.23-14.78-.13-.16-.27-.32-.43-.48-3.25-3.82-7.76-6.62-12.99-7.68l-11.69-2.45-4.24-.75c3.52.13,7.28.05,11.15-.19h.05c11.45-.67,23.91-2.61,34.66-4.67h.03l20.25,5.24c10.72,2.77,20.51,8.32,28.41,16.08l5.15,5.06c4.96,4.87,7.75,11.54,7.75,18.49Z"/>
            <path class="cls-2" d="M975.36,781.4c-10.75,2.05-23.21,4-34.66,4.67l34.66-4.67Z"/>
          </g>
        </g>
      </g>
    </g>
  </g>
</svg>