<?xml version="1.0" encoding="UTF-8"?>
<svg id="Calque_2" xmlns="http://www.w3.org/2000/svg" viewBox="0 0 479.19 851.98">
  <defs>
    <style>
      .cls-1 {
        fill: none;
      }

      .cls-1, .cls-2, .cls-3, .cls-4, .cls-5, .cls-6 {
        stroke: #000;
        stroke-miterlimit: 10;
      }

      .cls-2 {
        fill: #fff;
      }

      .cls-3 {
        fill: #bf7394;
      }

      .cls-4 {
        fill: #864d66;
      }

      .cls-5 {
        fill: #1d1d1b;
      }

      .cls-6 {
        fill: #ffadd1;
      }
    </style>
  </defs>
  <g id="grodoudou_saut">
    <g>
      <path class="cls-6" d="M195.8,210.03C88.43,213.49,1.4,333.82.51,479.96c-.67,112.67,48.94,209.68,120.14,251.92l-4.84,15.65c-7.2,23.23-5.66,41.93,7.2,48.41l24.41,12.32c5.69,2.97,37.7,19.06,37.7,19.06l68.51,24.18c8.45,0,15.39-8.76,16.21-19.98,0-7.56-2.48-14.75-6.79-19.54l-4.43-4.99c-1.49-1.64-9.07-9.91-16.26-17.77-.03-.03-.05-.03-.05-.03-4.84-5.3-9.5-10.4-12.06-13.16-1.31-1.43-2.25-3.1-2.77-4.94l-9.45-32.35c.92.33,29.84,1.87,59.37-8.07,4.53-1.51,9.09-3.33,13.55-5.43,51.13-35.24,89.63-99.51,103.79-176.89,0-.03.01-.06.02-.09.36-1.95.69-3.87,1.02-5.81.33-1.97.64-3.92.95-5.89.51-3.46,1-6.94,1.41-10.45.2-1.59.38-3.18.54-4.79.2-1.77.38-3.53.54-5.33.26-3.02.51-6.07.72-9.14.13-1.61.23-3.23.28-4.87.05-.87.08-1.74.13-2.61.26-5.66.38-11.37.38-17.11,0-152.57-92.2-275.79-204.92-272.2Z"/>
      <path class="cls-6" d="M147.45,239.16c-4.12-2.2-6.25-7.97-6.79-16.34C137.07,168.01,200.59,1.86,200.59,1.86c0,0,11.47,64.64,22.03,128.11v.08h.03c2.54,15.42,5.05,30.76,7.32,45.08,0,.05.03.08.03.13,1.23,7.68,2.38,15.09,3.43,22.05.67,4.38,1.28,8.55,1.87,12.55.23,1.59.46,3.12.67,4.64.13.67.2,1.33.31,2,2.23,15.8,3.61,27.48,3.61,32.27"/>
      <path class="cls-5" d="M172.73,236.66c-5.2-13.14,23.5-179.87,23.5-179.87,0,0,32.13,169.34,21.42,179.87h-44.92Z"/>
      <path class="cls-6" d="M367.27,283.23l-3.3,7.12c-2.69,5.76-6.92,10.58-12.09,13.96-3.92,2.56-8.4,4.35-13.14,5.1l-8.04,1.28c-8.73,1.41-17.7-.03-25.59-4.05-5.43-2.77-10.07-6.74-13.57-11.53-3.48-4.82-5.89-10.4-6.89-16.44l-1.23-7.27c-1.41-8.5-.64-17.21,2.18-25.36l1.56-4.48-50.89-25.07-3.79-1.87c-.46-.23-.74-.64-.79-1.1-.08-.51.1-1.08.59-1.43l3.02-2.23,12.96-9.55c8.35-6.15,17.77-10.58,27.74-13.11,2.92-.74,5.87-1.33,8.86-1.74,3.64-.51,7.32-.77,11.04-.77h14.68c14.47,0,28.45,5.05,39.6,14.27,4,3.3,7.5,7.12,10.45,11.35,2.95,4.2,5.3,8.81,7.04,13.7l2.15,6.12c6.12,17.36,5.22,36.42-2.54,53.12Z"/>
      <path class="cls-6" d="M287.16,241.57h0c9.83,6.62,13.48,19.74,15.47,30.89l1,5.61c.78,4.36-.06,8.86-2.34,12.65h0"/>
      <path class="cls-6" d="M101.58,497.1s41.85,123.14,52.31,108.75c10.46-14.39,39.43-108.75,39.43-108.75"/>
      <path class="cls-2" d="M400.31,499.63c-4.84,1.79-36.19,13.88-68.66,34.96-2.31,1.46-4.61,3-6.92,4.58-.13.08-.23.15-.36.26-.56.41-1.13.79-1.69,1.18-1.15.77-2.28,1.56-3.41,2.41-1.02.72-2.05,1.46-3.07,2.23-.1.08-.2.15-.31.23-1.02.77-2.05,1.54-3.07,2.31-1.69,1.28-3.36,2.61-5.02,3.94-.54.44-1.1.9-1.64,1.33-.1.08-.2.15-.28.23-.9.74-1.77,1.46-2.66,2.2-1.74,1.51-3.48,3.02-5.2,4.56-2.59,2.33-5.1,4.71-7.53,7.15-27.1,27.1-45.23,61.67-32.94,102.65,0,0,.03.03.03.05.51,1.61,1.05,3.25,1.61,4.89.9,2.51,1.9,5.02,3.02,7.56,1.15,2.56,2.41,5.15,3.79,7.76.9,1.69,1.84,3.41,2.84,5.12,5.61,9.58,12.91,19.46,22.15,29.66,51.02-35.16,89.46-99.25,103.73-176.36.72-3.87,1.38-7.76,1.97-11.7.51-3.46,1-6.94,1.41-10.45.2-1.59.38-3.18.54-4.79.2-1.77.38-3.53.54-5.33.26-3.02.51-6.07.72-9.14.13-1.61.23-3.23.28-4.87.05-.51.08-1.05.1-1.56.03-.28.03-.54.05-.82v-.23h-.03Z"/>
      <path class="cls-4" d="M392.72,536.83c-35.05,32.43-48.8,1.27-47.35-.65,11.98-15.96,55.66-7.03,47.35.65Z"/>
      <path class="cls-6" d="M233.42,197.31l-.03.61-3.33-22c-.03-.23-.05-.44-.08-.67,1.23,7.68,2.38,15.09,3.43,22.05Z"/>
      <path class="cls-1" d="M236,220.12v-.03"/>
      <path class="cls-6" d="M238.99,249.13h-.08"/>
      <path class="cls-5" d="M275.99,191.68c-9.96,2.54-19.39,6.97-27.74,13.11l-12.96,9.55c-.59-4-1.2-8.17-1.87-12.55l.03-.44,9.3-150.9.2-3.74,32.83,144.01-.08.03.28.92Z"/>
      <path class="cls-3" d="M284.85,185.45c-3,.41-5.94,1-8.86,1.74l-.28-.92.08-.03-32.83-144.01-.2,3.74-9.3,150.9-.03.44c-1.05-6.97-2.2-14.37-3.43-22.05,0-.05-.03-.08-.03-.13-2.28-14.32-4.79-29.66-7.32-45.08h-.03v-.08c1.08-54.07,19.52-126.32,19.52-128.49.54-.03,42.72,183.97,42.72,183.97Z"/>
      <polygon class="cls-6" points="275.99 187.19 275.71 186.27 275.79 186.24 275.99 187.19"/>
      <path class="cls-3" d="M302.14,812.85c-.78.98-1.52,1.89-2.18,2.7-2,2.46-5.46,3.15-8.25,1.63-13-7.06-48.07-26.95-49.37-27.71-.03-.03-.05-.03-.05-.03-4.84-5.3-9.5-10.4-12.06-13.16-1.31-1.43-2.25-3.1-2.77-4.94l-9.45-32.35c.92.33,29.84,1.87,59.37-8.07l3.82,13.57c.88,3.11,2.5,5.97,4.72,8.31l14.38,15.15c11.76,12.39,12.55,31.58,1.85,44.89Z"/>
      <path class="cls-3" d="M400.16,501.84s-.03-.05-.03-.08c-.03-.03,0-.05.03-.08l.03.15v-.23s0-.05.03-.08c.26-5.61.38-11.27.38-16.98l76.36,47.71c2.71,1.7,2.1,5.81-.99,6.65l-83.16,22.42-.31.08c2.77-12.83,4.87-26.05,6.22-39.6.05-.64.1-1.28.15-1.92.15-1.56.28-3.15.44-4.74.18-2.71.38-5.46.56-8.2.05-.77.1-1.54.15-2.33.08-.9.1-1.79.15-2.69,0,.03-.03.05-.05.05"/>
      <path class="cls-1" d="M253.63,437c.65,2.62,54.03-85.01,88.03-6.21"/>
    </g>
  </g>
</svg>