<?xml version="1.0" encoding="UTF-8"?>
<svg id="Calque_2" xmlns="http://www.w3.org/2000/svg" viewBox="0 0 418.03 852.52">
  <defs>
    <style>
      .cls-1 {
        fill: none;
      }

      .cls-1, .cls-2, .cls-3, .cls-4, .cls-5, .cls-6, .cls-7, .cls-8 {
        stroke-miterlimit: 10;
      }

      .cls-1, .cls-2, .cls-3, .cls-4, .cls-5, .cls-7, .cls-8 {
        stroke: #000;
      }

      .cls-2, .cls-6 {
        fill: #fff;
      }

      .cls-3 {
        fill: #bf7394;
      }

      .cls-4 {
        fill: #864d66;
      }

      .cls-5 {
        fill: #1a1a1a;
      }

      .cls-6 {
        stroke: #1d1d1b;
      }

      .cls-7 {
        fill: #4497ba;
      }

      .cls-8 {
        fill: #ffadd1;
      }
    </style>
  </defs>
  <g id="grodoudou">
    <g>
      <path class="cls-6" d="M359.19,578.82h47.21c-36.11,34.24-45.85,2.11-47.21,0ZM345.5,576.77c-2.4,1.52-4.8,3.12-7.21,4.78-.13.08-.24.16-.37.27-.59.43-1.17.83-1.76,1.23-1.2.8-2.38,1.63-3.55,2.51-1.07.75-2.13,1.52-3.2,2.32-.11.08-.21.16-.32.24-1.07.8-2.13,1.6-3.2,2.4-1.76,1.33-3.5,2.72-5.23,4.11-.56.45-1.15.93-1.71,1.39-.11.08-.21.16-.29.24-.93.77-1.84,1.52-2.78,2.3-1.81,1.57-3.63,3.15-5.42,4.75-2.7,2.43-5.31,4.91-7.85,7.45-2.05,2.05-4.08,4.16-6.03,6.32-.64.69-1.31,1.41-1.95,2.13v.03c-.21.24-.4.45-.59.69-.91,1.04-1.81,2.08-2.7,3.15-.48.56-.93,1.15-1.39,1.71-.29.37-.59.75-.88,1.12-.61.75-1.2,1.49-1.76,2.27-.59.75-1.15,1.52-1.71,2.3-.13.19-.29.4-.43.59-.69.96-1.39,1.95-2.05,2.91-.8,1.2-1.57,2.38-2.35,3.58-.51.8-1.01,1.6-1.49,2.4-.51.8-.99,1.63-1.44,2.43-.48.8-.93,1.63-1.39,2.43-.96,1.76-1.87,3.55-2.72,5.36-.29.61-.59,1.23-.88,1.87-.83,1.81-1.6,3.66-2.3,5.5-.35.85-.64,1.68-.96,2.54-.35.99-.69,2-1.01,3.02-.24.77-.51,1.6-.72,2.4-.53,1.79-1.01,3.58-1.41,5.42-.37,1.57-.69,3.2-.96,4.8-.11.59-.19,1.15-.27,1.71-.11.61-.19,1.2-.27,1.79-.13.93-.24,1.89-.32,2.83-.11.85-.19,1.73-.21,2.62-.03.08-.03.13-.03.21v.03c-.05.96-.11,1.89-.13,2.86-.03.96-.05,1.95-.05,2.91,0,1.12.03,2.27.05,3.44.05.91.11,1.81.16,2.72,0,.21.03.43.05.61.08,1.09.19,2.16.29,3.26.03.08.03.19.03.29l.4,2.96c.16,1.12.37,2.24.56,3.39.21,1.15.45,2.3.72,3.44.51,2.3,1.12,4.59,1.81,6.94,0,0,.03.03.03.05.53,1.68,1.09,3.39,1.68,5.1.93,2.62,1.97,5.23,3.15,7.87,1.2,2.67,2.51,5.36,3.95,8.09.93,1.76,1.92,3.55,2.96,5.34,5.84,9.98,13.45,20.28,23.08,30.9,53.16-36.64,93.22-103.41,108.08-183.77,2.99-16.12,4.96-32.77,5.79-49.85.03-.29.03-.56.05-.85v-.24c-4.96,1.84-37.68,14.44-71.58,36.43Z"/>
      <path class="cls-8" d="M302.6,610.75c-28.24,28.24-47.13,64.26-34.32,106.96-12.94-42.78,6.03-78.84,34.32-106.96Z"/>
      <path class="cls-8" d="M302.6,610.75c2.54-2.59,5.15-5.04,7.85-7.45-2.7,2.43-5.31,4.91-7.85,7.45Z"/>
      <path class="cls-8" d="M417.53,521.87c0,6.19-.16,12.36-.45,18.47-4.96,1.84-37.68,14.44-71.58,36.43-2.4,1.52-4.8,3.12-7.21,4.78-.13.08-.24.16-.37.27-.59.37-1.17.8-1.76,1.23-1.2.8-2.38,1.63-3.55,2.51-1.07.75-2.13,1.52-3.2,2.32-.11.08-.21.16-.32.24-1.07.8-2.13,1.6-3.2,2.4-1.76,1.33-3.5,2.72-5.23,4.11-.56.45-1.15.93-1.71,1.39-.11.08-.21.16-.29.24-.93.77-1.84,1.52-2.78,2.3-1.81,1.55-3.63,3.12-5.42,4.75-2.7,2.43-5.31,4.91-7.85,7.45-2.05,2.05-4.08,4.16-6.03,6.32-.64.69-1.31,1.41-1.95,2.13v.03c-.21.24-.4.45-.59.69-.91,1.04-1.81,2.08-2.7,3.15-.48.56-.93,1.15-1.39,1.71-.29.37-.59.75-.88,1.12-.61.75-1.2,1.49-1.76,2.27-.59.75-1.15,1.52-1.71,2.3-.13.19-.29.4-.43.59-.72.96-1.39,1.92-2.05,2.91-.83,1.2-1.6,2.38-2.35,3.58-.53.8-1.01,1.6-1.49,2.4-.51.8-.99,1.6-1.44,2.43-.48.8-.93,1.63-1.39,2.43-.96,1.76-1.87,3.55-2.72,5.36-.32.61-.61,1.25-.88,1.87-.83,1.81-1.6,3.66-2.3,5.5-.35.85-.64,1.68-.96,2.54-.35.99-.69,2-1.01,3.02-.24.77-.51,1.6-.72,2.4-.53,1.79-1.01,3.58-1.41,5.42-.37,1.57-.69,3.18-.96,4.8-.11.59-.19,1.15-.27,1.71-.11.59-.19,1.17-.27,1.79-.13.93-.24,1.87-.32,2.83-.08.85-.16,1.73-.21,2.62-.03.08-.03.13-.03.21v.03c-.05.93-.11,1.89-.13,2.86-.03.96-.05,1.92-.05,2.91,0,1.12.03,2.27.05,3.44.05.91.11,1.81.16,2.72,0,.21.03.43.05.61.05,1.09.16,2.16.29,3.26.03.08.03.19.03.29.11.99.24,1.97.4,2.96.16,1.12.37,2.24.56,3.39.21,1.15.45,2.3.72,3.44.51,2.3,1.12,4.59,1.81,6.94,0,0,.03.03.03.05.53,1.68,1.09,3.39,1.68,5.1.93,2.62,1.97,5.23,3.15,7.87,1.2,2.67,2.51,5.36,3.95,8.09.93,1.76,1.92,3.55,2.96,5.34,5.84,9.98,13.45,20.28,23.08,30.9-3.2,1.52-6.19,2.86-8.99,4.06h-.03v.03c-27.81,11.88-36.8,9.29-37.82,8.91l21.24,9.77c3.79,1.73,7.31,4.38,10.41,7.85l4.62,5.18c1.65,1.87,3.07,4.06,4.16,6.49,1.89,4.14,2.91,8.94,2.91,13.9-.19,2.59-.69,5.02-1.47,7.29-2.64,7.98-8.57,13.5-15.43,13.5h-80.52c-6.38,0-12.7-1.55-18.63-4.64l-25.43-12.86c-13.4-6.75-23.94-21.11-28.9-39.34l-3.58-13.18C51.51,737.96-.19,636.87.51,519.47c.77-125.19,62.21-232.18,146.22-268.26.03-.03.05-.05.08-.05.45,8.73,2.56,14.76,6.83,17.16l96.21,9.98h.08c0-4.75-.93-16.65-2.46-32.99l7.58,3.74,44.17,21.75-1.63,4.67c-.64,1.81-1.17,3.66-1.6,5.55-1.6,6.83-1.81,13.93-.67,20.9l1.25,7.58c1.04,6.27,3.55,12.12,7.21,17.11,3.66,4.99,8.46,9.13,14.14,12.04,8.19,4.19,17.53,5.66,26.63,4.19l8.38-1.33c4.99-.77,9.63-2.64,13.72-5.31,31.7,49.75,50.87,114.68,50.87,185.69Z"/>
      <path class="cls-8" d="M296.58,617.06c-.85.93-1.71,1.89-2.54,2.86.19-.24.37-.45.59-.69v-.03c.64-.72,1.31-1.44,1.95-2.13Z"/>
      <path class="cls-1" d="M417.01,541.44c.03-.29.03-.56.05-.85v-.24"/>
      <path class="cls-8" d="M249.85,280.57c-.27-6-1.12-16.71-2.38-30.54v-.03c-.11-.78-.16-1.56-.24-2.39-.05-.65-.11-1.29-.19-1.94-.13-1.45-.29-2.93-.43-4.41-1.04-11.06-2.32-23.63-3.71-37.08-1.39-13.51-2.91-27.9-4.48-42.54-.19-1.61-.35-3.28-.53-4.95-.05-.38-.08-.78-.13-1.16-.03-.16-.03-.32-.05-.48v-.08C229.7,80.56,220.65,2.02,220.65,2.02c0,0-74.81,186.9-73.92,251.24.03-.03.05-.05.08-.05.45,8.8,2.56,14.88,6.83,17.3M230.15,241.55c.03.91,0,1.8,0,2.66-.16,14.45-1.15,24.38-3.36,26.61h-46.81c-.4-1-.53-3.01-.43-5.84,0-.11-.03-.22,0-.32-.16-4.36.59-12.08,1.95-22.06,7.93-57.1,36.43-188.38,36.43-188.38,0,0,11.82,119.55,12.22,179.99.03,1.45.03,2.88.03,4.28,0,1.05,0,2.07-.03,3.07Z"/>
      <path class="cls-5" d="M230.18,236.55c0,1.04,0,2.05-.03,3.04.03.91,0,1.79,0,2.64-.16,14.33-1.15,24.18-3.36,26.39h-46.81c-.4-.99-.53-2.99-.43-5.79,0-.11-.03-.21,0-.32-.16-4.32.59-11.98,1.95-21.88,7.93-56.63,36.43-186.84,36.43-186.84,0,0,11.82,118.57,12.22,178.51.03,1.44.03,2.86.03,4.24Z"/>
      <path class="cls-8" d="M382.67,314.21l-3.44,7.42c-2.8,6-7.18,11-12.57,14.54-4.08,2.67-8.73,4.54-13.72,5.31l-8.38,1.33c-9.1,1.47-18.44,0-26.63-4.19-5.68-2.91-10.49-7.05-14.14-12.04-3.66-4.99-6.16-10.84-7.21-17.11l-1.25-7.58c-1.15-6.97-.93-14.06.67-20.9.43-1.89.96-3.74,1.6-5.55l1.63-4.67-44.17-21.75-7.58-3.74v-.03c-.11-.77-.16-1.55-.24-2.35-.05-.64-.11-1.28-.19-1.92-.13-1.41-.29-2.86-.43-4.32l12.06-8.86c8.99-6.65,19.19-11.34,29.92-13.93l.08-.03c2.8-.67,5.63-1.17,8.49-1.57,3.68-.53,7.39-.77,11.13-.77h15.32c15.05,0,29.65,5.26,41.26,14.87,4.16,3.44,7.82,7.45,10.86,11.82,3.07,4.4,5.52,9.18,7.34,14.28l2.27,6.38c6.38,18.09,5.42,37.98-2.67,55.35Z"/>
      <ellipse class="cls-2" cx="307.94" cy="455.72" rx="60.44" ry="64.92"/>
      <circle class="cls-7" cx="313.8" cy="455.72" r="45.23"/>
      <circle class="cls-2" cx="320.84" cy="434.91" r="16.13"/>
      <path class="cls-8" d="M106.19,545.1s43.61,128.31,54.51,113.32c10.9-14.99,41.08-113.32,41.08-113.32"/>
      <path class="cls-4" d="M406.4,578.82c-36.11,34.24-45.85,2.11-47.21,0h47.21Z"/>
      <path class="cls-2" d="M359.19,578.82h-.16c.03-.16.08-.13.16,0Z"/>
      <path class="cls-3" d="M330.58,795.54c6.26,6.43,9.3,15.3,8.6,24.24-.05.61-.09,1.21-.13,1.82-.61,9.51-8.5,16.91-18.03,16.91h-22.85c.77-2.27,1.28-4.7,1.47-7.29,0-4.96-1.01-9.77-2.91-13.9-1.09-2.43-2.51-4.62-4.16-6.49l-4.62-5.18c-3.1-3.47-6.62-6.11-10.41-7.85l-21.24-9.77c1.01.37,10.01,2.96,37.82-8.91v-.03h.03l22.36,7.02c4.14,1.3,7.93,3.51,11.1,6.48.95.89,1.96,1.89,2.97,2.93Z"/>
      <path class="cls-5" d="M288.68,213.87l-.08.03c-10.73,2.59-20.92,7.29-29.92,13.93l-12.06,8.86-1.36-11.88.08-1.09,12.41-160.63,30.93,150.78Z"/>
      <path class="cls-8" d="M299.22,270.79l13.89,4.67c5.45,1.83,10.17,5.37,13.46,10.09h0c3.63,5.21,5.05,11.64,3.94,17.89l-3.55,20.05"/>
      <path class="cls-3" d="M298.53,211.52l-1.36.77c-2.86.4-5.68.91-8.49,1.57l-30.93-150.78-12.41,160.63-.08,1.09,1.36,11.88c.13,1.47.29,2.91.43,4.32.08.64.13,1.28.19,1.92.08.8.13,1.57.24,2.35v.03c1.52,16.33,2.46,28.24,2.46,32.99h-.08c-.27-5.95-1.12-16.57-2.38-30.29v-.03c-.11-.77-.16-1.55-.24-2.38-.05-.64-.11-1.28-.19-1.92-.13-1.44-.29-2.91-.43-4.38-1.04-10.97-2.32-23.43-3.71-36.78-1.39-13.4-2.91-27.68-4.48-42.19-.19-1.6-.35-3.26-.53-4.91-.05-.37-.08-.77-.13-1.15-.03-.16-.03-.32-.05-.48v-.08c2.32-56.39,21.16-131.28,21.16-133.33.56-.03,39.66,191.14,39.66,191.14Z"/>
    </g>
  </g>
</svg>