<?xml version="1.0" encoding="UTF-8"?>
<svg id="Calque_2" xmlns="http://www.w3.org/2000/svg" viewBox="0 0 2032.41 1423.42">
  <defs>
    <style>
      .cls-1 {
        fill: #ff99c5;
      }

      .cls-1, .cls-2, .cls-3, .cls-4, .cls-5, .cls-6, .cls-7 {
        stroke: #000;
        stroke-miterlimit: 10;
      }

      .cls-2 {
        fill: #62c4f1;
      }

      .cls-3 {
        fill: #fff;
      }

      .cls-4 {
        fill: #bf7394;
      }

      .cls-5 {
        fill: #1d1d1b;
      }

      .cls-6 {
        fill: #804d63;
      }

      .cls-7 {
        fill: #ffadd1;
      }
    </style>
  </defs>
  <g id="personnages">
    <g id="rondoudou">
      <g id="Rondoudou_saute">
        <g>
          <g>
            <path class="cls-4" d="M1035.17,506.05l-15.63,39.6c-5.66,14.34-6.91,30.03-3.61,45.09l2.1,9.59c2.91,13.24,11.11,24.71,22.71,31.74l18.96,11.48,68.43,41.45,16.55,10.02c12,7.27,27.62,3.43,34.89-8.57h0c5.8-9.57,4.65-21.82-2.83-30.14l-23.62-26.28c-2.37-2.63-4.39-5.55-6.03-8.69l-30.87-59.05"/>
            <path class="cls-7" d="M928.44,579.43c-94.13-41.04-159.72-135.31-158.84-244.78,1.12-133.58,103.01-244.95,233.27-260.46,8.19-1.02,16.52-1.59,24.92-1.79,2.2-.07,4.4-.07,6.57-.07,15.27,0,30.27,1.32,44.83,3.83,6.13,1.05,12.16,2.3,18.12,3.79,1.59.37,3.18.78,4.77,1.19,66.16,17.54,122.14,60.04,157.25,116.79,24.96,40.4,39.38,87.97,39.38,138.97,0,21.23-2.51,41.89-7.25,61.66-18.22,76.32-92.43,196.4-243.44,186.06"/>
            <path class="cls-7" d="M949.69,367.99l18.28,74.33c3.2,11.34,14.94,45.41,26.42-6.18l13.56-71.61"/>
            <path class="cls-6" d="M1291.47,398.54s-13.93-17.83-53.27,0c0,0,24.45,30.26,37.58,40.53"/>
            <path class="cls-7" d="M987.77,112.66c0-33.05,70.5-111.81,70.5-111.81,0,0,51.69,90.79,51.69,124.49"/>
            <path class="cls-5" d="M1021.2,109.35c-6.87-17.37,39.36-73.36,39.36-73.36,0,0,34.19,59.44,20.03,73.36h-59.39Z"/>
            <path class="cls-7" d="M1099.9,76.87l21.15-15.57c18.25-13.43,40.31-20.68,62.97-20.68h19.41c19.12,0,37.64,6.67,52.36,18.87h0c10.56,8.75,18.54,20.19,23.11,33.12l2.86,8.09c8.11,22.95,6.9,48.16-3.36,70.23l-4.37,9.4c-6.24,13.42-18.74,22.87-33.36,25.2l-10.62,1.7c-11.55,1.84-23.4-.03-33.82-5.34h0c-14.38-7.33-24.43-21.06-27.07-36.98l-1.6-9.61c-1.87-11.25-.88-22.78,2.87-33.54l2.06-5.91-72.29-35.64c-1.32-.65-1.48-2.46-.3-3.34Z"/>
            <path class="cls-7" d="M1172.48,115.84h0c13,8.75,17.82,26.1,20.45,40.84l1.32,7.41c1.03,5.77-.07,11.71-3.1,16.73h0"/>
            <path class="cls-1" d="M928.45,579.42s52.79,12.93,70.27,9.89"/>
            <path class="cls-7" d="M933.14,556.19c-10.83,18.76-11.37,27.88-12.35,46.9l-.63,12.11c-.87,16.73,4.78,30.8,15.63,38.94l17.73,13.3,64,48.01,15.48,11.61c11.22,8.42,29.98,2.36,41.9-13.52h0c9.51-12.67,12.03-28.25,6.22-38.35l-18.35-31.89c-1.84-3.2-3.21-6.78-4.07-10.67l-12.77-57.48"/>
            <path class="cls-7" d="M1109.96,319.44s73.59-88.76,109.82,0"/>
          </g>
          <g>
            <path class="cls-4" d="M1907.94,1376.55c0,13.51-10.9,24.53-24.39,24.53l-19.97-.15c0-8.33-3.7-16.24-10.1-21.54l-6.59-5.49c-4.42-3.65-9.45-6.45-14.86-8.29l-30.34-10.33c1.6.42,17,3.72,66.88-13.74l25.95,13.09c8.16,4.11,13.41,12.67,13.41,21.92Z"/>
            <path class="cls-7" d="M2031.91,1073.9c0,116.89-66.43,218.2-163.34,267.64-49.89,17.47-65.28,14.17-66.88,13.74l30.34,10.33c5.41,1.84,10.44,4.65,14.86,8.29l6.59,5.49c6.4,5.3,10.1,13.21,10.1,21.54-1.22,12.36-11.55,22-24.12,22h-114.98c-9.11,0-18.14-1.65-26.6-4.91l-36.32-13.59c-19.13-7.14-34.19-22.34-41.27-41.61l-5.11-13.94c-105.95-46.53-179.77-153.4-178.78-277.51,1.33-160.96,130.83-293.52,290.59-297.32,167.72-3.95,304.92,131.79,304.92,299.85Z"/>
            <path class="cls-7" d="M1639.08,1109.15l20.57,84.27c3.6,12.85,16.82,51.48,29.73-7.01l15.26-81.18"/>
            <path class="cls-7" d="M1963.79,1143.78c22.22,31.53,59.96,0,59.96,0"/>
            <path class="cls-7" d="M1775.35,1343.65l21.42,9.71c1.56.73,3.16,1.34,4.76,1.88,0,0,.04,0,.15.04l30.34,10.33c5.41,1.84,10.44,4.65,14.86,8.29l6.59,5.49c6.4,5.3,10.1,13.21,10.1,21.54"/>
            <ellipse class="cls-3" cx="1907.47" cy="1024.15" rx="86.3" ry="93.39"/>
            <ellipse class="cls-2" cx="1915.83" cy="1024.15" rx="64.59" ry="65.06"/>
            <ellipse class="cls-3" cx="1925.88" cy="994.22" rx="23.03" ry="23.2"/>
            <path class="cls-7" d="M1681.94,819.69c0-37.46,79.35-126.76,79.35-126.76,0,0,58.18,102.93,58.18,141.14"/>
            <path class="cls-5" d="M1719.56,815.93c-7.73-19.7,44.3-83.16,44.3-83.16,0,0,38.48,67.39,22.54,83.16h-66.84Z"/>
            <path class="cls-7" d="M1808.14,779.1l23.81-17.65c20.54-15.23,45.37-23.44,70.87-23.44h21.84c21.52,0,42.36,7.57,58.93,21.4h0c11.88,9.92,20.87,22.89,26.01,37.54l3.22,9.18c9.12,26.02,7.77,54.6-3.78,79.63l-4.92,10.65c-7.02,15.22-21.1,25.93-37.55,28.57l-11.96,1.92c-13,2.09-26.33-.03-38.06-6.05h0c-16.19-8.31-27.49-23.87-30.47-41.93l-1.8-10.9c-2.1-12.75-.99-25.83,3.24-38.03l2.32-6.7-81.36-40.4c-1.48-.74-1.66-2.79-.33-3.78Z"/>
            <path class="cls-7" d="M1889.83,823.28h0c14.63,9.92,20.06,29.59,23.02,46.3l1.49,8.4c1.16,6.54-.08,13.28-3.49,18.96h0"/>
            <path class="cls-1" d="M1615.17,1348.85s59.42,14.66,79.09,11.21"/>
            <path class="cls-1" d="M1868.57,1341.54c-49.89,17.47-65.28,14.17-66.88,13.74-.11-.04-.15-.04-.15-.04"/>
          </g>
          <g>
            <path class="cls-4" d="M503.03,1277.99l29.96,6.65c16.09,3.57,27.74,17.57,28.32,34.05h0c.39,10.95-6.92,20.68-17.54,23.36h0c-3.3.84-21.92,1.73-26.58,1.58l-121.68-11.06,107.51-54.6Z"/>
            <path class="cls-4" d="M660.24,1189.92l-82.34-57.66-72.82-51.06-13.74-9.6-36.47-25.57,11.52,47.49,5.68,23.42,23.34,96.36,56.82-.69,98.47-1.19c17.43-2.27,23.19-11.9,9.56-21.5ZM576.78,1138.48l-2.8,13.21s-38.04,31.52-60.42,0l63.42-14.13-.19.92Z"/>
            <path class="cls-1" d="M594.96,1130.59c-.81,4.45-1.77,8.83-2.8,13.21l2.8-13.21Z"/>
            <path class="cls-7" d="M600.38,1073.89c0,17.2-1.46,34.09-4.3,50.48-.23,1.77-.58,3.53-.92,5.3l-63.42,14.13c22.38,31.52,60.42,0,60.42,0-5.07,21.27-12.44,41.69-21.77,60.92-13.7,28.25-31.75,54.01-53.25,76.43-21.15,22.15-45.68,41.04-72.79,55.89-2.8,1.54-5.64,3.03-8.52,4.49-34.78,15.74-52.59,17.08-60.96,15.93l24.18,8.14c5.41,1.84,10.48,4.65,14.93,8.29l6.68,5.49c6.41,5.3,10.13,13.21,10.13,21.54-1.23,12.36-11.63,22-24.3,22h-115.82c-9.18,0-18.27-1.65-26.8-4.91l-36.58-13.59c-19.27-7.14-34.43-22.34-41.58-41.61l-5.14-13.94C73.87,1302.34-.49,1195.47.51,1071.36c1.27-151.41,116.78-277.71,264.42-295.29,9.29-1.15,18.73-1.8,28.29-2.03,2.5-.08,4.95-.08,7.41-.08,17.35,0,34.36,1.5,50.87,4.34,6.95,1.19,13.82,2.61,20.58,4.3,1.84.42,3.69.88,5.53,1.42,74.94,19.85,138.35,68.03,178.12,132.33,28.29,45.8,44.65,99.73,44.65,157.55Z"/>
            <path class="cls-7" d="M204.66,1109.16l20.72,84.27c3.62,12.85,16.94,51.48,29.95-7.01l15.38-81.18"/>
            <path class="cls-7" d="M341.93,1343.66l21.57,9.71c1.57.73,3.19,1.34,4.8,1.88l.04.04,6.53,2.19,24.18,8.14c5.41,1.84,10.48,4.65,14.93,8.29l6.68,5.49c6.41,5.3,10.13,13.21,10.13,21.54"/>
            <ellipse class="cls-3" cx="445.87" cy="1026.28" rx="88.91" ry="95.51"/>
            <circle class="cls-2" cx="454.49" cy="1026.28" r="66.55"/>
            <circle class="cls-3" cx="464.84" cy="995.67" r="23.72"/>
            <path class="cls-7" d="M247.84,819.69c0-37.47,79.93-126.77,79.93-126.77,0,0,58.6,102.93,58.6,141.14"/>
            <path class="cls-5" d="M285.74,815.93c-7.79-19.7,44.62-83.16,44.62-83.16,0,0,38.76,67.39,22.71,83.16h-67.33Z"/>
            <path class="cls-7" d="M374.96,779.1l23.98-17.65c20.69-15.23,45.7-23.44,71.39-23.44h22c21.67,0,42.67,7.57,59.36,21.4h0c11.97,9.92,21.02,22.89,26.2,37.54l3.24,9.18c9.19,26.02,7.82,54.6-3.81,79.63l-4.95,10.65c-7.07,15.22-21.25,25.93-37.82,28.57l-12.04,1.92c-13.1,2.09-26.52-.03-38.34-6.05h0c-16.3-8.31-27.69-23.87-30.69-41.93l-1.81-10.9c-2.12-12.75-1-25.83,3.26-38.03l2.34-6.7-81.96-40.4c-1.49-.74-1.68-2.79-.33-3.78Z"/>
            <path class="cls-1" d="M457.25,823.29h0c14.74,9.92,20.21,29.59,23.18,46.3l1.5,8.4c1.16,6.54-.08,13.28-3.51,18.96h0"/>
            <path class="cls-1" d="M180.59,1348.86s59.85,14.66,79.66,11.21"/>
            <path class="cls-6" d="M595.15,1129.67c.04.23-.19.92-.19.92l-8.93,35.1s-24.73,35.51-54.3-21.9c0,0,54.56-60.7,63.42-14.13Z"/>
          </g>
        </g>
      </g>
    </g>
  </g>
</svg>