<?xml version="1.0" encoding="UTF-8"?>
<svg id="Calque_2" xmlns="http://www.w3.org/2000/svg" viewBox="0 0 596.53 731.36">
  <defs>
    <style>
      .cls-1 {
        fill: #ff99c5;
      }

      .cls-1, .cls-2, .cls-3, .cls-4, .cls-5, .cls-6 {
        stroke: #000;
        stroke-miterlimit: 10;
      }

      .cls-2 {
        fill: #62c4f1;
      }

      .cls-3 {
        fill: #fff;
      }

      .cls-4 {
        fill: #bf7394;
      }

      .cls-5 {
        fill: #1d1d1b;
      }

      .cls-6 {
        fill: #ffadd1;
      }
    </style>
  </defs>
  <g id="rondoudou">
    <g>
      <path class="cls-4" d="M472.05,684.48c0,13.51-10.9,24.53-24.39,24.53l-19.97-.15c0-8.33-3.7-16.24-10.1-21.54l-6.59-5.49c-4.42-3.65-9.45-6.45-14.86-8.29l-30.34-10.33c1.6.42,17,3.72,66.88-13.74l25.95,13.09c8.16,4.11,13.41,12.67,13.41,21.92Z"/>
      <path class="cls-6" d="M596.03,381.83c0,116.89-66.43,218.2-163.34,267.64-49.89,17.47-65.28,14.17-66.88,13.74l30.34,10.33c5.41,1.84,10.44,4.65,14.86,8.29l6.59,5.49c6.4,5.3,10.1,13.21,10.1,21.54-1.22,12.36-11.55,22-24.12,22h-114.98c-9.11,0-18.14-1.65-26.6-4.91l-36.32-13.59c-19.13-7.14-34.19-22.34-41.27-41.61l-5.11-13.94C73.34,610.28-.48,503.4.51,379.29,1.84,218.33,131.34,85.78,291.1,81.98c167.72-3.95,304.92,131.79,304.92,299.85Z"/>
      <path class="cls-6" d="M203.19,417.08l20.57,84.27c3.6,12.85,16.82,51.48,29.73-7.01l15.26-81.18"/>
      <path class="cls-6" d="M527.91,451.71c22.22,31.53,59.96,0,59.96,0"/>
      <path class="cls-6" d="M339.47,651.58l21.42,9.71c1.56.73,3.16,1.34,4.76,1.88,0,0,.04,0,.15.04l30.34,10.33c5.41,1.84,10.44,4.65,14.86,8.29l6.59,5.49c6.4,5.3,10.1,13.21,10.1,21.54"/>
      <ellipse class="cls-3" cx="471.58" cy="332.08" rx="86.3" ry="93.39"/>
      <ellipse class="cls-2" cx="479.95" cy="332.08" rx="64.59" ry="65.06"/>
      <ellipse class="cls-3" cx="490" cy="302.15" rx="23.03" ry="23.2"/>
      <path class="cls-6" d="M246.05,127.62C246.05,90.15,325.4.86,325.4.86c0,0,58.18,102.93,58.18,141.14"/>
      <path class="cls-5" d="M283.67,123.86c-7.73-19.7,44.3-83.16,44.3-83.16,0,0,38.48,67.39,22.54,83.16h-66.84Z"/>
      <path class="cls-6" d="M372.25,87.03l23.81-17.65c20.54-15.23,45.37-23.44,70.87-23.44h21.84c21.52,0,42.36,7.57,58.93,21.4h0c11.88,9.92,20.87,22.89,26.01,37.54l3.22,9.18c9.12,26.02,7.77,54.6-3.78,79.63l-4.92,10.65c-7.02,15.22-21.1,25.93-37.55,28.57l-11.96,1.92c-13,2.09-26.33-.03-38.06-6.05h0c-16.19-8.31-27.49-23.87-30.47-41.93l-1.8-10.9c-2.1-12.75-.99-25.83,3.24-38.03l2.32-6.7-81.36-40.4c-1.48-.74-1.66-2.79-.33-3.78Z"/>
      <path class="cls-6" d="M453.95,131.22h0c14.63,9.92,20.06,29.59,23.02,46.3l1.49,8.4c1.16,6.54-.08,13.28-3.49,18.96h0"/>
      <path class="cls-1" d="M179.29,656.79s59.42,14.66,79.09,11.21"/>
      <path class="cls-1" d="M432.68,649.47c-49.89,17.47-65.28,14.17-66.88,13.74-.11-.04-.15-.04-.15-.04"/>
    </g>
  </g>
</svg>