<?xml version="1.0" encoding="UTF-8"?>
<svg id="Calque_2" xmlns="http://www.w3.org/2000/svg" viewBox="0 0 668.3 731.35">
  <defs>
    <style>
      .cls-1 {
        fill: #ff99c5;
      }

      .cls-1, .cls-2, .cls-3, .cls-4, .cls-5, .cls-6, .cls-7, .cls-8, .cls-9 {
        stroke: #000;
        stroke-miterlimit: 10;
      }

      .cls-2 {
        fill: #62c4f1;
      }

      .cls-3 {
        fill: #fff;
      }

      .cls-4 {
        fill: #bf7394;
      }

      .cls-5 {
        fill: #1a1a1a;
      }

      .cls-6 {
        fill: #999;
      }

      .cls-7 {
        fill: #1d1d1b;
      }

      .cls-8 {
        fill: #804d63;
      }

      .cls-9 {
        fill: #ffadd1;
      }
    </style>
  </defs>
  <g id="rondoudou_chante">
    <g>
      <path class="cls-4" d="M503.03,585.92l29.96,6.65c16.09,3.57,27.74,17.57,28.32,34.05h0c.39,10.95-6.92,20.68-17.54,23.36h0c-3.3.84-21.92,1.73-26.58,1.58l-121.68-11.06,107.51-54.6Z"/>
      <path class="cls-4" d="M660.24,497.85l-82.34-57.66-72.82-51.06-13.74-9.6-36.47-25.57,11.52,47.49,5.68,23.42,23.34,96.36,56.82-.69,98.47-1.19c17.43-2.27,23.19-11.9,9.56-21.5ZM576.78,446.41l-2.8,13.21s-38.04,31.52-60.42,0l63.42-14.13-.19.92Z"/>
      <path class="cls-1" d="M594.96,438.52c-.81,4.45-1.77,8.83-2.8,13.21l2.8-13.21Z"/>
      <path class="cls-9" d="M600.38,381.82c0,17.2-1.46,34.09-4.3,50.48-.23,1.77-.58,3.53-.92,5.3l-63.42,14.13c22.38,31.52,60.42,0,60.42,0-5.07,21.27-12.44,41.69-21.77,60.92-13.7,28.25-31.75,54.01-53.25,76.43-21.15,22.15-45.68,41.04-72.79,55.89-2.8,1.54-5.64,3.03-8.52,4.49-34.78,15.74-52.59,17.08-60.96,15.93l24.18,8.14c5.41,1.84,10.48,4.65,14.93,8.29l6.68,5.49c6.41,5.3,10.13,13.21,10.13,21.54-1.23,12.36-11.63,22-24.3,22h-115.82c-9.18,0-18.27-1.65-26.8-4.91l-36.58-13.59c-19.27-7.14-34.43-22.34-41.58-41.61l-5.14-13.94C73.87,610.27-.49,503.4.51,379.29,1.78,227.88,117.29,101.58,264.93,84c9.29-1.15,18.73-1.8,28.29-2.03,2.5-.08,4.95-.08,7.41-.08,17.35,0,34.36,1.5,50.87,4.34,6.95,1.19,13.82,2.61,20.58,4.3,1.84.42,3.69.88,5.53,1.42,74.94,19.85,138.35,68.03,178.12,132.33,28.29,45.8,44.65,99.73,44.65,157.55Z"/>
      <path class="cls-9" d="M204.66,417.09l20.72,84.27c3.62,12.85,16.94,51.48,29.95-7.01l15.38-81.18"/>
      <path class="cls-9" d="M341.93,651.59l21.57,9.71c1.57.73,3.19,1.34,4.8,1.88l.04.04,6.53,2.19,24.18,8.14c5.41,1.84,10.48,4.65,14.93,8.29l6.68,5.49c6.41,5.3,10.13,13.21,10.13,21.54"/>
      <ellipse class="cls-3" cx="445.87" cy="334.21" rx="88.91" ry="95.51"/>
      <circle class="cls-2" cx="454.49" cy="334.21" r="66.55"/>
      <circle class="cls-3" cx="464.84" cy="303.59" r="23.72"/>
      <path class="cls-9" d="M247.84,127.62C247.84,90.15,327.77.85,327.77.85c0,0,58.6,102.93,58.6,141.14"/>
      <path class="cls-7" d="M285.74,123.86c-7.79-19.7,44.62-83.16,44.62-83.16,0,0,38.76,67.39,22.71,83.16h-67.33Z"/>
      <path class="cls-9" d="M374.96,87.03l23.98-17.65c20.69-15.23,45.7-23.44,71.39-23.44h22c21.67,0,42.67,7.57,59.36,21.4h0c11.97,9.92,21.02,22.89,26.2,37.54l3.24,9.18c9.19,26.02,7.82,54.6-3.81,79.63l-4.95,10.65c-7.07,15.22-21.25,25.93-37.82,28.57l-12.04,1.92c-13.1,2.09-26.52-.03-38.34-6.05h0c-16.3-8.31-27.69-23.87-30.69-41.93l-1.81-10.9c-2.12-12.75-1-25.83,3.26-38.03l2.34-6.7-81.96-40.4c-1.49-.74-1.68-2.79-.33-3.78Z"/>
      <path class="cls-1" d="M457.25,131.21h0c14.74,9.92,20.21,29.59,23.18,46.3l1.5,8.4c1.16,6.54-.08,13.28-3.51,18.96h0"/>
      <path class="cls-1" d="M180.59,656.79s59.85,14.66,79.66,11.21"/>
      <path class="cls-8" d="M595.15,437.6c.04.23-.19.92-.19.92l-8.93,35.1s-24.73,35.51-54.3-21.9c0,0,54.56-60.7,63.42-14.13Z"/>
      <path class="cls-5" d="M618.93,445.12l-2.28,106.91c-.1,4.64,2.99,8.74,7.48,9.92h0c5.83,1.53,11.69-2.39,12.49-8.36l14.17-105.1-31.85-3.36Z"/>
      <circle class="cls-6" cx="636.55" cy="441.56" r="28.39"/>
    </g>
  </g>
</svg>