<?xml version="1.0" encoding="UTF-8"?>
<svg id="Calque_2" xmlns="http://www.w3.org/2000/svg" viewBox="0 0 596.53 731.36">
  <defs>
    <style>
      .cls-1 {
        fill: #ff99c5;
      }

      .cls-1, .cls-2, .cls-3, .cls-4, .cls-5, .cls-6 {
        stroke: #000;
        stroke-miterlimit: 10;
      }

      .cls-2 {
        fill: #62c4f1;
      }

      .cls-3 {
        fill: #fff;
      }

      .cls-4 {
        fill: #bf7394;
      }

      .cls-5 {
        fill: #1d1d1b;
      }

      .cls-6 {
        fill: #ffadd1;
      }
    </style>
  </defs>
  <g id="Rondoudou_pied_droit">
    <g>
      <path class="cls-4" d="M268.77,611.78l8.05,47.64c2.91,17.25,10.85,33.23,22.81,45.9l7.62,8.07c10.52,11.15,25.11,17.46,40.37,17.46h136.76c15.79,0,28.59-12.91,28.59-28.84h0c0-12.71-8.25-23.92-20.3-27.6l-38.06-11.63c-3.81-1.17-7.47-2.81-10.87-4.89l-50.31-30.73"/>
      <path class="cls-6" d="M179.29,657.63C73.34,611.04-.48,504.03.51,379.76,1.77,228.13,116.44,101.71,263.05,84.1c9.22-1.15,18.6-1.81,28.05-2.04,2.48-.08,4.95-.08,7.39-.08,17.19,0,34.07,1.5,50.46,4.34,6.9,1.19,13.68,2.61,20.39,4.31,1.79.42,3.58.88,5.37,1.35,74.47,19.91,137.47,68.15,176.99,132.57,28.09,45.86,44.32,99.86,44.32,157.75,0,24.1-2.82,47.55-8.16,69.99-20.5,86.64-111.81,163.65-188.75,202.97"/>
      <path class="cls-6" d="M203.2,417.62l20.57,84.38c3.6,12.87,16.82,51.54,29.73-7.02l15.26-81.29"/>
      <path class="cls-6" d="M527.92,452.29c22.22,31.57,59.96,0,59.96,0"/>
      <ellipse class="cls-3" cx="471.6" cy="332.51" rx="86.3" ry="93.5"/>
      <ellipse class="cls-2" cx="479.96" cy="332.51" rx="64.59" ry="65.15"/>
      <ellipse class="cls-3" cx="490.01" cy="302.54" rx="23.03" ry="23.22"/>
      <path class="cls-6" d="M246.06,127.78C246.06,90.27,325.41.86,325.41.86c0,0,58.18,103.07,58.18,141.32"/>
      <path class="cls-5" d="M283.69,124.02c-7.73-19.72,44.3-83.27,44.3-83.27,0,0,38.48,67.48,22.54,83.27h-66.84Z"/>
      <path class="cls-6" d="M372.26,87.15l23.81-17.68c20.54-15.25,45.37-23.47,70.87-23.47h21.84c21.52,0,42.36,7.58,58.93,21.42h0c11.88,9.93,20.87,22.92,26.01,37.59l3.22,9.19c9.12,26.05,7.77,54.67-3.78,79.73l-4.92,10.67c-7.02,15.24-21.1,25.96-37.55,28.61l-11.96,1.92c-13,2.09-26.33-.03-38.06-6.06h0c-16.19-8.32-27.49-23.9-30.47-41.98l-1.8-10.91c-2.1-12.77-.99-25.86,3.24-38.08l2.32-6.71-81.36-40.45c-1.48-.74-1.66-2.8-.33-3.79Z"/>
      <path class="cls-6" d="M453.96,131.39h0c14.63,9.93,20.06,29.63,23.02,46.36l1.49,8.42c1.16,6.55-.08,13.29-3.49,18.99h0"/>
      <path class="cls-1" d="M179.3,657.63s59.42,14.68,79.09,11.23"/>
      <path class="cls-6" d="M154.92,574.44l8.05,47.64c2.91,17.25,10.85,33.23,22.81,45.9l7.62,8.07c10.52,11.15,25.11,17.46,40.37,17.46h136.76c15.79,0,28.59-12.91,28.59-28.84h0c0-12.71-8.25-23.92-20.3-27.6l-38.06-11.63c-3.81-1.17-7.47-2.81-10.87-4.89l-50.31-30.73"/>
    </g>
  </g>
</svg>