<?xml version="1.0" encoding="UTF-8"?>
<svg id="Calque_2" xmlns="http://www.w3.org/2000/svg" viewBox="0 0 145.44 186.67">
  <defs>
    <style>
      .cls-1 {
        fill: #93855d;
      }

      .cls-1, .cls-2, .cls-3, .cls-4, .cls-5, .cls-6, .cls-7, .cls-8, .cls-9, .cls-10, .cls-11, .cls-12, .cls-13, .cls-14 {
        stroke-miterlimit: 10;
      }

      .cls-1, .cls-2, .cls-3, .cls-4, .cls-5, .cls-6, .cls-7, .cls-8, .cls-9, .cls-10, .cls-12, .cls-13, .cls-14 {
        stroke: #000;
      }

      .cls-2 {
        fill: none;
      }

      .cls-3 {
        fill: gray;
      }

      .cls-4 {
        fill: #333;
      }

      .cls-5, .cls-11 {
        fill: #fff;
      }

      .cls-6 {
        fill: #a49a79;
      }

      .cls-7 {
        fill: #2d2828;
      }

      .cls-9 {
        fill: #7498d1;
      }

      .cls-10 {
        fill: #e0d0a3;
      }

      .cls-11 {
        stroke: #1d1d1b;
      }

      .cls-12 {
        fill: #f2f2f2;
      }

      .cls-13 {
        fill: #607ba6;
      }

      .cls-14 {
        fill: #4d4d4d;
      }
    </style>
  </defs>
  <g id="berger_pied_droit">
    <g>
      <path class="cls-4" d="M101.32,172.67c-.94,1.03-2.24,1.63-3.63,1.7l-22.9-1.92c-1.58-.4-2.78-1.71-3.03-3.32l-.59-3.68-.29-6.2s10.22,6.21,12.46.27c.05,1.1.96,1.94,2.06,1.91l11.75-.39c2.86-.1,5.27,2.13,5.4,4.98l.14,2.88c.07,1.39-.42,2.75-1.35,3.77Z"/>
      <path class="cls-6" d="M83.32,159.52c-2.23,5.94-12.45-.27-12.45-.27l-.66-8.7c4.18-.18,8.26-.75,12.21-1.69.06,0,.13-.03.19-.05.01,0,.02,0,.03-.01.15,1.23.27,2.19.29,2.19l.39,8.53Z"/>
      <path class="cls-3" d="M125.5,116.19c-1.75,3.18-3.77,6.2-6,9.03h-.01l-19.88-2.22v-12.34c2.43.82,4.81,1.51,7.11,2.05.38.09.76.18,1.14.26.54.12,1.08.23,1.61.33.36.06.73.13,1.09.19.44.07.88.14,1.31.2.44.06.87.12,1.3.17,2.97.33,5.78.35,8.37,0,.24-.03.49-.07.73-.11.34-.05.67-.11,1-.19.22-.04.44-.09.66-.15.2-.04.41-.09.61-.15l.5,2.31.46.62Z"/>
      <path class="cls-3" d="M94.29,108.7v14.3h-25.33c.21-.7.32-1.42.32-2.15,0-1.61-.53-3.24-1.63-4.61l-.03-.04v-20.99c4.48,2.66,9,5.18,13.47,7.46,1.12.57,2.23,1.12,3.34,1.66.1.05.2.1.3.15.46.22.91.43,1.37.65.99.47,1.98.92,2.96,1.36.11.06.23.11.34.15.49.22.98.43,1.46.64.61.26,1.21.52,1.81.76.54.23,1.08.45,1.62.66Z"/>
      <path class="cls-3" d="M63.39,92.65v15.83l-11.38-14.08-18.6,11.11-.1.06,5.29,6.25s-.47-.17-.63-.23c-.12-.05-.25-.09-.38-.14-.26-.09-.53-.19-.81-.3-.14-.05-.29-.1-.44-.16-.29-.11-.6-.22-.92-.34l-.98-.36c-.39-.14-.79-.29-1.2-.44-.2-.07-.41-.15-.62-.23-1.06-.39-2.18-.8-3.35-1.23-.23-.08-.46-.17-.7-.26l-1.44-.53c-.49-.17-.98-.35-1.47-.54-.5-.18-.99-.36-1.49-.55-1.26-.46-2.52-.92-3.78-1.39-.51-.18-1.01-.37-1.51-.56l-1.5-.55-1.47-.54c-.25-.09-.49-.18-.73-.27l-2.12-.78c-.46-.17-.91-.34-1.36-.5l-1.3-.48-1.24-.46c-4.21-1.55-7.11-2.62-7.11-2.62v-.03c-1.02-4.62-1.55-9.42-1.55-14.35,0-11.42,2.87-22.17,7.93-31.56.07.05.14.12.24.2.65.56,2,1.7,3.92,3.28.34.27.69.57,1.07.88,1.01.82,2.14,1.74,3.39,2.75.6.48,1.23.98,1.89,1.51.77.61,1.58,1.25,2.42,1.91.28.22.56.44.85.67.47.38.96.76,1.45,1.14,2.35,1.82,4.91,3.79,7.64,5.84.43.32.87.65,1.31.98.88.65,1.78,1.32,2.69,1.99.55.4,1.1.81,1.66,1.22,3.47,2.53,7.15,5.14,10.96,7.76.68.47,1.37.94,2.06,1.41,3.61,2.45,7.34,4.89,11.13,7.27.55.35,1.1.69,1.65,1.03.21.13.42.26.63.39Z"/>
      <path class="cls-9" d="M63.39,128.07v23.85l-1.12-.16-9.87-1.41-.19-.03-2.27-.36.27-.52.45-.86h0c-24.26-6.17-43.2-25.66-48.61-50.22,0,0,2.9,1.07,7.11,2.62.4.15.82.3,1.24.46.42.15.86.32,1.3.48.45.16.9.33,1.36.5.69.25,1.4.52,2.12.78.24.09.48.18.73.27l1.47.54c.5.19.99.37,1.5.55.5.19,1,.38,1.51.56,1.26.47,2.52.93,3.78,1.39.5.19.99.37,1.49.55.49.19.98.37,1.47.54.48.18.97.36,1.44.53.24.09.47.18.7.26,1.17.43,2.29.84,3.35,1.23.21.08.42.16.62.23.41.15.81.3,1.2.44.34.13.67.25.98.36.32.12.63.23.92.34.15.06.3.11.44.16.28.11.55.21.81.3.13.05.26.09.38.14.16.06.63.23.63.23l9.27,10.95.19.23,7.38-4.97-3.23,2.37,3.9,4.99c1.77,2.27,4.63,3.23,7.28,2.68Z"/>
      <path class="cls-10" d="M53.89,166.24s.09.03.15.03c-.06,0-.11-.01-.16-.02-.08-.02-.17-.03-.24-.06-.13-.04-.27-.08-.4-.14-.14-.05-.28-.11-.42-.18-.1-.05-.2-.11-.31-.17-.11-.06-.22-.13-.33-.21-.09-.06-.18-.12-.27-.19-3.01-2.2-6.15-7.28-6.15-7.28l4.18-8.06,2.27.36.19.03,9.87,1.41-8.38,14.48Z"/>
      <path class="cls-10" d="M113.64,49.66l-.96-1.28c.33.37.66.8.96,1.28Z"/>
      <path class="cls-10" d="M133.79,83.98c0,3.79-.32,7.49-.93,11.11l-7.19-1.82-10.3,1.54-1.44,5.1h2.38l-.34,5.62h3.91l-1.7,6.81,5.79-1.68.57,2.6c-.2.06-.41.11-.61.15-.22.06-.44.11-.66.15-.33.08-.66.14-1,.19-.24.04-.49.08-.73.11-2.59.35-5.4.33-8.37,0-.43-.05-.86-.11-1.3-.17-.43-.06-.87-.13-1.31-.2-.36-.06-.73-.13-1.09-.19-.53-.1-1.07-.21-1.61-.33-.38-.08-.76-.17-1.14-.26-2.3-.54-4.68-1.23-7.11-2.05h0s-5.22-1.92-5.22-1.92l-.1-.04c-.54-.21-1.08-.43-1.62-.66-.6-.24-1.2-.5-1.81-.76-.48-.21-.97-.42-1.46-.64-.11-.04-.23-.09-.34-.15-.98-.44-1.97-.89-2.96-1.36-.46-.22-.91-.43-1.37-.65-.1-.05-.2-.1-.3-.15-1.11-.54-2.22-1.09-3.34-1.66-4.47-2.28-8.99-4.8-13.47-7.46v-11.29c0-1.15.3-2.26.88-3.29.56-1.02,1.4-1.94,2.46-2.69,1.23-.86,2.71-1.28,4.17-1.28,1.92,0,3.81.71,5.1,2.08.11.12.21.25.28.39.06.1.11.2.16.28,1.13,1.93,2.73,3.65,4.64,5.09.39.3,1.01.04.95-.4l-.23-1.5c-.24-1.62-.55-3.41-1.15-4.99-.25-.69-.56-1.34-.94-1.92-.22-.33-.52-.61-.84-.86l-1.29-.99s-.05-.04-.08-.06c-.87-.67-1.88-1.21-3.01-1.5-.99-.25-2.02-.38-3.04-.38-2.38,0-4.74.69-6.64,2.03-.37.27-.73.55-1.07.85h0c-2.92,2.5-4.58,5.86-4.58,9.38v8.49c-.21-.13-.42-.26-.63-.39-.55-.34-1.1-.68-1.65-1.03-3.79-2.38-7.52-4.82-11.13-7.27-.69-.47-1.38-.94-2.06-1.41-3.81-2.62-7.49-5.23-10.96-7.76-.56-.41-1.11-.82-1.66-1.22-.91-.67-1.81-1.34-2.69-1.99-.44-.33-.88-.66-1.31-.98-2.73-2.05-5.29-4.02-7.64-5.84-.49-.39-.98-.77-1.45-1.14-.29-.23-.57-.45-.85-.67-.84-.66-1.65-1.3-2.42-1.91-.66-.53-1.29-1.03-1.89-1.51-1.25-1.01-2.38-1.93-3.39-2.75-.38-.31-.73-.61-1.07-.88-1.92-1.58-3.27-2.72-3.92-3.28-.1-.08-.17-.15-.24-.2.02-.02.03-.04.04-.06.03-.06.07-.12.1-.18l.05.05s.03-.04.04-.06l-.07-.03c.34-.63.69-1.24,1.05-1.85l6.33-.62,3.49,6.92,11.32-3.23,1.94,2.47.87-8.09,3.49-4.51,1.16,1.96c-.23.16-.45.34-.65.54-.75.73-1.28,1.67-1.51,2.73l-1.61,7.67c-.43,2.03-.09,4.15.93,5.95l5.83,10.22,7.42-19.47-2.46-5.46c-.28-.63-.68-1.18-1.15-1.64l14.76,5.16s3.61-5.02,3.59-4.76c0,.31,4.23,12.13,4.23,12.13l10.56-6.94,8.51-3.75,4,4.57,6.22-3.55s5.27-3.4,5.78-3.4,2.63,4.05,2.63,4.05c-2.29,3.21-3.82,9.08-3.82,15.78,0,10.15,3.51,18.38,7.84,18.38,1.44,0,2.79-.91,3.95-2.5.43-.39.83-1.08,1.19-2,.01,0,.01-.01.01-.02,1.65-3.37,2.69-8.33,2.69-13.86,0-6.42-1.4-12.07-3.53-15.35l7.34,1.56-1.53-3.91,3.06-.44c7.12,10.61,11.27,23.37,11.27,37.1Z"/>
      <path class="cls-10" d="M8.59,52.14l.07.03s-.02.04-.04.06l-.05-.05s.01-.03.02-.04Z"/>
      <path class="cls-10" d="M46.19,47.37l2.46,5.46-7.42,19.47-5.83-10.22c-1.02-1.8-1.36-3.92-.93-5.95l1.61-7.67c.23-1.06.76-2,1.51-2.73.2-.2.42-.38.65-.54.62-.44,1.34-.74,2.12-.89.37-.07.74-.09,1.1-.08h.02c.17,0,.33.01.5.04.16.02.32.05.48.08.46.1.91.27,1.33.49.13.07.27.14.39.23.3.19.59.42.85.67h.01c.47.46.87,1.01,1.15,1.64Z"/>
      <path class="cls-10" d="M86.03,82.6l.23,1.5c.06.44-.56.7-.95.4-1.91-1.44-3.51-3.16-4.64-5.09-.05-.08-.1-.18-.16-.28-.07-.14-.17-.27-.28-.39-1.29-1.37-3.18-2.08-5.1-2.08-1.46,0-2.94.42-4.17,1.28-1.06.75-1.9,1.67-2.46,2.69-.58,1.03-.88,2.14-.88,3.29v-6.6c0-.87.12-1.72.35-2.53h0c.34-.31.7-.59,1.07-.86,1.9-1.34,4.26-2.03,6.64-2.03,1.02,0,2.05.13,3.04.38,1.13.29,2.14.83,3.01,1.5.89,1.4,1.95,2.68,3.15,3.83.6,1.58.91,3.37,1.15,4.99Z"/>
      <path class="cls-10" d="M94.39,108.74l5.22,1.91h0c-1.71-.57-3.45-1.21-5.22-1.91Z"/>
      <path class="cls-10" d="M116.2,66.53c0,5.17-.68,9.71-1.71,12.35,0,.01,0,.02-.01.02-.36.92-.76,1.61-1.19,2-.28.26-.56.39-.86.39-2.08,0-3.77-6.61-3.77-14.76s1.69-14.77,3.77-14.77c.26,0,.51.1.76.3.06.05.13.11.19.18.05.04.08.08.11.12.04.04.07.08.11.13.08.1.15.2.22.32.08.11.15.23.21.36.07.12.13.24.19.37.05.11.11.23.16.35.09.21.17.42.25.64.06.18.12.36.18.55,0,.01,0,.03.02.05.05.18.1.36.15.55.06.2.11.41.16.62.08.3.15.62.22.95.06.33.13.67.19,1.02.01.04.02.08.02.12h0c.07.36.12.73.17,1.1.02.14.04.28.06.43.04.28.07.57.1.86.1.87.17,1.78.22,2.73,0,0,0,.01,0,.01.02.43.04.86.05,1.3.01.31.02.63.02.95,0,.25,0,.51,0,.76Z"/>
      <path class="cls-14" d="M63.54,161.79s-.1.03-.15.04h0c.05-.01.1-.02.15-.04Z"/>
      <path class="cls-14" d="M64.23,186.07c-1.6.28-3.4-.04-5.03-.88l-11.93-6.18-.74-.39-4.7-2.43c-1.49-.77-2.3-2.43-1.99-4.1l.5-2.61c.2-1.05.55-2.06,1.04-3.01l4.04-7.78s3.43,4.54,6.49,6.61c.09.07.18.13.27.19.11.08.22.15.33.21.11.06.21.12.31.17.14.07.28.13.41.19.14.06.27.11.4.15.08.03.16.04.24.06l-.22.43c-.29.57-.1,1.26.45,1.59l1.39.85,7.9,3.16v13.77h.84Z"/>
      <path class="cls-14" d="M69.04,181.15l-1.33,2.56s-.05.1-.09.15v-8.83c1.77,1.83,2.4,4.23,1.42,6.12Z"/>
      <path class="cls-10" d="M8.66,52.17s-.02.04-.04.06l-.05-.05c-.08-.07-.13-.11-.16-.13l.18.09.07.03Z"/>
      <path class="cls-1" d="M63.54,161.79s-.1.03-.15.04h0c.05-.01.1-.02.15-.04Z"/>
      <path class="cls-1" d="M67.62,125.5v60.57h-4.23v-24.24c.05-.01.1-.02.15-.04-.05.02-.1.03-.15.03v-33.25c.94-.23,1.85-.68,2.69-1.36.59-.49,1.11-1.06,1.54-1.71Z"/>
      <path class="cls-1" d="M63.54,161.79s-.1.03-.15.04h0c.05-.01.1-.02.15-.04Z"/>
      <path class="cls-1" d="M86.26,84.1c.06.44-.56.7-.95.4-1.91-1.44-3.51-3.16-4.64-5.09-.05-.08-.1-.18-.16-.28-.07-.14-.17-.27-.28-.39-1.29-1.37-3.18-2.08-5.1-2.08-1.46,0-2.94.42-4.17,1.28-1.06.75-1.9,1.67-2.46,2.69-.58,1.03-.88,2.14-.88,3.29v32.28l-2.82-2.9-.78-.81-.63.38v-.36l.84-.52.82-.5-.38-.39-1.28-1.31v-25.63c0-3.52,1.66-6.88,4.58-9.37h0c.34-.31.7-.59,1.07-.86,1.9-1.34,4.26-2.03,6.64-2.03,1.02,0,2.05.13,3.04.38,1.13.29,2.14.83,3.01,1.5.03.02.05.04.08.06l1.29.99c.32.25.62.53.84.86.38.58.69,1.23.94,1.92.6,1.58.91,3.37,1.15,4.99l.23,1.5Z"/>
      <path class="cls-10" d="M69.28,120.85c0,.73-.11,1.45-.32,2.15-.27.9-.72,1.75-1.34,2.5-.43.54-.95,1.02-1.54,1.43-.84.57-1.75.95-2.69,1.14-2.65.55-5.51-.41-7.28-2.68l-3.9-4.99,3.23-2.37,7.76-5.7.19-.14.63-.46.78.97,2.82,3.5.03.04c1.1,1.37,1.63,3,1.63,4.61Z"/>
      <path class="cls-5" d="M114.49,78.88c1.03-2.64,1.71-7.18,1.71-12.35,0-.25,0-.51,0-.76,0-.32-.01-.64-.02-.95-.01-.44-.03-.87-.05-1.3,0,0,0-.01,0-.01-.05-.95-.12-1.86-.22-2.73-.03-.29-.06-.58-.1-.86-.06-.53-.14-1.03-.22-1.52-.07-.4-.14-.78-.22-1.15-.16-.77-.34-1.48-.53-2.12-.01-.02-.01-.04-.02-.05-.06-.19-.12-.38-.18-.55-.08-.22-.16-.43-.25-.64-.24-.57-.5-1.05-.78-1.4-.03-.05-.07-.09-.11-.13-.03-.04-.06-.08-.11-.12-.06-.07-.12-.13-.19-.18-.25-.2-.5-.3-.76-.3-2.08,0-3.77,6.61-3.77,14.77s1.69,14.76,3.77,14.76c.3,0,.58-.13.86-.39-1.16,1.59-2.51,2.5-3.95,2.5-4.33,0-7.84-8.23-7.84-18.38,0-6.7,1.53-12.57,3.82-15.78,1.06-1.49,2.29-2.41,3.61-2.58h.01c.13-.01.26-.02.4-.02,1.19,0,2.33.62,3.34,1.74l.96,1.28h.01c2.13,3.29,3.53,8.94,3.53,15.36,0,5.53-1.04,10.49-2.69,13.86Z"/>
      <path class="cls-12" d="M113.64,49.66l-.96-1.28c.33.37.66.8.96,1.28Z"/>
      <path class="cls-12" d="M116.2,66.53c0,5.17-.68,9.71-1.71,12.35,0,.01,0,.02-.01.02-.37.75-.76,1.43-1.19,2-.28.26-.56.39-.86.39-2.08,0-3.77-6.61-3.77-14.76s1.69-14.77,3.77-14.77c.26,0,.51.1.76.3.06.05.13.11.19.18.05.04.08.08.11.12.04.04.07.08.11.13.08.1.15.2.22.32.03.04.05.09.08.14.07.11.14.23.2.36.04.07.08.15.12.23.05.11.11.23.16.35.09.21.17.42.25.64.06.18.12.36.18.55,0,.01,0,.03.02.05.19.64.37,1.35.53,2.12.08.37.15.75.22,1.15.05.29.09.59.13.89,0,.07.02.13.03.2.02.14.04.28.06.43.04.28.07.57.1.86.1.87.17,1.78.22,2.73,0,0,0,.01,0,.01.02.43.04.86.05,1.3.01.31.02.63.02.95,0,.25,0,.51,0,.76Z"/>
      <path class="cls-8" d="M116.2,66.53c0,5.17-.68,9.71-1.71,12.35,0,.01,0,.02-.01.02-.36.92-.76,1.61-1.19,2-.28.26-.56.39-.86.39-2.08,0-3.77-6.61-3.77-14.76s1.69-14.77,3.77-14.77c.26,0,.51.1.76.3.06.05.13.11.19.18.05.04.08.08.11.12.04.04.07.08.11.13.08.1.15.2.22.32.03.04.05.09.08.14.07.11.14.23.2.36.04.07.08.15.12.23.05.11.11.23.16.35.09.21.17.42.25.64.06.18.12.36.18.55,0,.01,0,.03.02.05.19.64.37,1.35.53,2.12.08.37.15.75.22,1.15.05.29.09.59.13.89,0,.07.02.13.03.2.02.14.04.28.06.43.04.28.07.57.1.86.1.87.17,1.78.22,2.73,0,0,0,.01,0,.01.02.43.04.86.05,1.3.01.31.02.63.02.95,0,.25,0,.51,0,.76Z"/>
      <circle class="cls-5" cx="113.11" cy="61.25" r="3.77"/>
      <path class="cls-7" d="M142.18,41.87H30.15c-3,0-6-.28-8.96-.84l-4.29-.81-2.91-.55-7.97-1.5,23.95-11.48c1.69-.81,2.87-2.45,3.14-4.35l2.5-17.91c.36-2.53,2.64-4.27,5.07-3.88l32.65,5.21c.66.11,1.32.19,1.99.24,1.28.1,2.58.11,3.86.02l25.45-1.79c2.83-.2,5.3,1.98,5.55,4.9l1.84,21.07c.12,1.36,1.02,2.52,2.29,2.91l27.87,8.76Z"/>
      <path class="cls-2" d="M75.36,6s-13.41,4.96-16.96,2.56"/>
      <path class="cls-10" d="M41.79,73.35l-6.39-11.27c-1.02-1.8-1.36-3.92-.93-5.95l1.61-7.67c.23-1.06.76-2,1.51-2.73.2-.2.42-.38.65-.54.62-.44,1.34-.74,2.12-.89.37-.07.74-.09,1.1-.08h.02c.17,0,.33.01.5.04.16.02.32.05.48.08.46.1.91.27,1.33.49.13.07.27.14.39.23.3.19.59.42.85.67h.01c.47.46.87,1.01,1.15,1.64l3.43,6.41"/>
      <path class="cls-10" d="M39.78,49.67l1.87.64c.86.29,1.43,1.1,1.43,2.01v14.74"/>
      <path class="cls-10" d="M43.08,59.76l-2.81-.32c-.71-.08-1.24-.71-1.19-1.43l.16-2.43c.05-.8.72-1.43,1.53-1.43h2.31v5.61Z"/>
      <polygon class="cls-9" points="2.02 98.09 2.24 98.14 2.24 98.17 2.02 98.09"/>
      <path class="cls-9" d="M119.49,125.22c-9.13,11.59-22.03,20.07-36.85,23.58-.01.01-.02.01-.03.01-.06.02-.13.04-.19.05-3.95.94-8.03,1.51-12.21,1.69h-.03c-.06,0-.13.01-.19.01-.78.04-1.58.06-2.37.06v-25.12c.62-.75,1.07-1.6,1.34-2.5h25.33v-14.3l.1.04c1.77.7,3.51,1.34,5.22,1.92v12.34l19.88,2.22Z"/>
      <path class="cls-9" d="M99.61,110.65h0c-1.71-.57-3.45-1.21-5.22-1.91l5.22,1.91Z"/>
      <polyline class="cls-3" points="32.72 105.33 47.54 123 65.5 110.52 52.21 93.36"/>
      <polygon class="cls-11" points="138.69 114.12 132.28 116.68 131.71 124.42 125.5 116.19 125.04 115.57 124.54 113.26 123.97 110.66 118.18 112.34 119.88 105.53 115.97 105.53 116.31 99.91 113.93 99.91 115.37 94.81 125.67 93.27 132.86 95.09 134.78 95.57 135.2 98.17 133.79 102.55 135.63 107.15 138.69 114.12"/>
      <path class="cls-2" d="M132.28,98.82c-.06.06-.13.13-.19.18"/>
      <path class="cls-2" d="M117.8,95.23s7.61,10.18,14.29,3.78"/>
      <path class="cls-5" d="M122.52,46.88l-3.06.44,1.53,3.91-7.34-1.56h-.01c-.3-.49-.63-.92-.96-1.29-1.01-1.12-2.15-1.74-3.34-1.74-.14,0-.27.01-.4.02h-.01c-1.32.17-2.55,1.09-3.61,2.58,0,0-2.12-4.05-2.63-4.05s-5.78,3.4-5.78,3.4l-6.22,3.55-4-4.57-8.51,3.75-10.56,6.94s-4.23-11.82-4.23-12.13c.02-.26-3.59,4.76-3.59,4.76l-14.76-5.16h-.01c-.26-.25-.55-.48-.85-.67-.12-.09-.26-.16-.39-.23-.42-.22-.87-.39-1.33-.49-.16-.04-.32-.07-.48-.08-.17-.03-.33-.04-.5-.04h-.02c-.36-.02-.73.01-1.1.08-.78.15-1.5.45-2.12.89l-1.16-1.96-3.49,4.51-.87,8.09-1.94-2.47-11.32,3.23-3.49-6.92-6.33.62-5.24.52,5.95-6.13-2.55-2.81,6.19-2.2,2.91.55,4.29.81c2.96.56,5.96.84,8.96.84h92.03l2.04,4.77-1.7.24Z"/>
      <circle class="cls-13" cx="103.14" cy="129.87" r="1.64"/>
    </g>
  </g>
</svg>