<?xml version="1.0" encoding="UTF-8"?>
<svg id="Calque_2" xmlns="http://www.w3.org/2000/svg" viewBox="0 0 175.08 296.95">
  <defs>
    <style>
      .cls-1 {
        fill: #93855d;
      }

      .cls-1, .cls-2, .cls-3, .cls-4, .cls-5, .cls-6, .cls-7, .cls-8, .cls-9, .cls-10, .cls-11, .cls-12, .cls-13, .cls-14 {
        stroke-miterlimit: 10;
      }

      .cls-1, .cls-2, .cls-3, .cls-4, .cls-5, .cls-6, .cls-7, .cls-8, .cls-9, .cls-10, .cls-12, .cls-13, .cls-14 {
        stroke: #000;
      }

      .cls-2 {
        fill: none;
      }

      .cls-3 {
        fill: gray;
      }

      .cls-4 {
        fill: #333;
      }

      .cls-5, .cls-11 {
        fill: #fff;
      }

      .cls-6 {
        fill: #a49a79;
      }

      .cls-7 {
        fill: #2d2828;
      }

      .cls-9 {
        fill: #7498d1;
      }

      .cls-10 {
        fill: #e0d0a3;
      }

      .cls-11 {
        stroke: #1d1d1b;
      }

      .cls-12 {
        fill: #f2f2f2;
      }

      .cls-13 {
        fill: #607ba6;
      }

      .cls-14 {
        fill: #4d4d4d;
      }
    </style>
  </defs>
  <g id="berger_évolué_droit">
    <g>
      <path class="cls-3" d="M117.01,144.51v-14.51c2.86.96,5.65,1.78,8.36,2.41.45.11.89.21,1.34.31.63.14,1.27.27,1.89.39.42.07.86.15,1.28.22.52.08,1.03.16,1.54.24.52.07,1.02.14,1.53.2,3.49.39,6.79.41,9.84,0,.28-.04.58-.08.86-.13.4-.06.79-.13,1.18-.22.26-.05.46-.09.72-.16.24-.05.54-.12.77-.19l.59,2.72-1,3.36c-1.97,5.37-1.75,5.95-3.64,9.91"/>
      <path class="cls-4" d="M135.8,271.03v10.09c0,1.92-.58,3.79-1.67,5.38l-1.34,1.95c-1.49,2.16-3.94,3.45-6.56,3.45h-32.36c-3.04,0-5.75-1.93-6.73-4.81l-.38-1.1c-.28-.82-.41-1.68-.38-2.55l.84-24.94s8.25,9.57,14.74,2.25v4.26l26.59-.96c1.01-.04,2.01.14,2.94.53h0c2.61,1.09,4.31,3.63,4.31,6.46Z"/>
      <path class="cls-3" d="M110.75,127.7v16.81h-29.78c.25-.82.38-1.67.38-2.53,0-1.89-.62-3.81-1.92-5.42l-.04-.05v-24.67c5.27,3.13,10.58,6.09,15.83,8.77,1.32.67,2.62,1.32,3.93,1.95.12.06.24.12.35.18.54.26,1.07.51,1.61.76,1.16.55,2.33,1.08,3.48,1.6.13.07.27.13.4.18.58.26,1.15.51,1.72.75.72.31,1.42.61,2.13.89.63.27,1.27.53,1.9.78Z"/>
      <path class="cls-3" d="M74.43,108.83v18.61l-13.38-16.55-21.86,13.06-.12.07,6.22,7.35L2.32,115.54v-.04c-1.2-5.43-1.82-11.07-1.82-16.87,0-13.42,3.37-26.06,9.32-37.1.08.06.16.14.28.24.76.66,2.35,2,4.61,3.86.4.32.81.67,1.26,1.03,1.19.96,2.52,2.05,3.99,3.23.71.56,1.45,1.15,2.22,1.78.91.72,1.86,1.47,2.84,2.25.33.26.66.52,1,.79.55.45,1.13.89,1.7,1.34,2.76,2.14,5.77,4.46,8.98,6.87.51.38,1.02.76,1.54,1.15,1.03.76,2.09,1.55,3.16,2.34.65.47,1.29.95,1.95,1.43,4.08,2.97,8.4,6.04,12.88,9.12.8.55,1.61,1.1,2.42,1.66,4.24,2.88,8.63,5.75,13.08,8.55.65.41,1.29.81,1.94,1.21.25.15.49.31.74.46Z"/>
      <path class="cls-9" d="M74.43,150.47v67.42l-10.69-1.53-2.23-.32-.22-.03v-1.61c-29.39-6.73-52.48-69.38-58.97-98.86,0,0,1.98.73,5.13,1.89.33.13.67.25,1.03.38.18.07.36.14.54.2.37.14.75.28,1.14.42,1.56.57,3.28,1.21,5.11,1.88.27.1.54.2.82.3.27.1.55.21.83.32.56.2,1.12.41,1.7.62.57.21,1.15.42,1.72.63.59.23,1.17.44,1.77.65.59.22,1.17.45,1.77.66,1.48.55,2.96,1.09,4.45,1.63.58.23,1.16.44,1.75.65.57.22,1.15.43,1.73.63.56.22,1.14.43,1.69.63.28.1.55.21.82.3.69.26,1.36.5,2.02.74.33.12.66.24.98.36s.63.24.94.35c.25.09.49.19.73.27.48.18.95.35,1.41.52.2.07.39.14.59.21.19.08.38.14.57.21.37.14.73.27,1.08.4.52.19,1.01.37,1.47.54.11.04.24.09.35.13.03,0,.05.01.07.02h.02c.19.08.74.28.74.28l10.9,12.88.22.27,8.67-5.85-3.79,2.79,4.58,5.87c2.08,2.66,5.44,3.79,8.56,3.15Z"/>
      <path class="cls-10" d="M133.5,58.29l-1.13-1.5c.39.43.78.94,1.13,1.5Z"/>
      <path class="cls-10" d="M157.19,98.64c0,4.46-.38,8.8-1.09,13.06l-8.45-2.14-12.11,1.81-1.69,6h2.8l-.4,6.61h4.6l-2,8.01,6.81-1.97.67,3.06c-.24.07-.48.13-.72.18-.26.07-.52.13-.78.18-.39.09-.78.16-1.18.22-.28.05-.58.09-.86.13-3.04.41-6.35.39-9.84,0-.51-.06-1.01-.13-1.53-.2-.51-.07-1.02-.15-1.54-.24-.42-.07-.86-.15-1.28-.22-.62-.12-1.26-.25-1.89-.39-.45-.09-.89-.2-1.34-.31-2.7-.63-5.5-1.45-8.36-2.41-2.01-.68-4.06-1.43-6.14-2.26l-.12-.05c-.63-.25-1.27-.51-1.9-.78-.71-.28-1.41-.59-2.13-.89-.56-.25-1.14-.49-1.72-.75-.13-.05-.27-.11-.4-.18-1.15-.52-2.32-1.05-3.48-1.6-.54-.26-1.07-.51-1.61-.76-.12-.06-.24-.12-.35-.18-1.3-.63-2.61-1.28-3.93-1.95-5.25-2.68-10.57-5.64-15.83-8.77v-21.03c0-1.63.35-3.21,1.03-4.66.66-1.45,1.65-2.75,2.89-3.81,1.45-1.22,3.19-1.82,4.9-1.82,2.26,0,4.48,1.01,6,2.95.13.16.25.35.33.55.07.14.13.28.19.4,1.33,2.73,3.21,5.16,5.45,7.21.46.42,1.19.05,1.12-.58l-.27-2.12c-.41-3.3-.98-7.1-2.46-9.79-.26-.46-.61-.86-.99-1.21l-1.52-1.41c-1.05-.99-2.27-1.78-3.63-2.2-1.16-.36-2.37-.54-3.57-.54-2.8,0-5.57.98-7.81,2.88-4.21,3.63-6.64,8.91-6.64,14.47v17.69c-.25-.15-.49-.31-.74-.46-.65-.4-1.29-.8-1.94-1.21-4.46-2.8-8.84-5.67-13.08-8.55-.81-.55-1.62-1.1-2.42-1.66-4.48-3.08-8.8-6.15-12.88-9.12-.66-.48-1.3-.96-1.95-1.43-1.07-.79-2.13-1.58-3.16-2.34-.52-.39-1.03-.78-1.54-1.15-3.21-2.41-6.22-4.73-8.98-6.87-.58-.46-1.15-.91-1.7-1.34-.34-.27-.67-.53-1-.79-.99-.78-1.94-1.53-2.84-2.25-.78-.62-1.52-1.21-2.22-1.78-1.47-1.19-2.8-2.27-3.99-3.23-.45-.36-.86-.72-1.26-1.03-2.26-1.86-3.84-3.2-4.61-3.86-.12-.09-.2-.18-.28-.24.02-.02.04-.05.05-.07.04-.07.08-.14.12-.21.01-.02.01-.04.02-.05.4-.74.81-1.46,1.23-2.17l7.44-.73,4.1,8.13,13.31-3.8,2.28,2.9,1.02-9.51,4.1-5.3,1.36,2.3c.73-.52,1.58-.87,2.49-1.05.43-.08.87-.11,1.29-.09h.02c.2,0,.39.01.59.05.19.02.38.06.56.09.54.12,1.07.32,1.56.58.15.08.32.16.46.27.35.22.69.49,1,.79h.01l17.35,6.07s4.24-5.9,4.22-5.6c0,.36,4.97,14.26,4.97,14.26l12.41-8.16,10-4.41,4.7,5.37,7.31-4.17s6.2-4,6.79-4,3.09,4.76,3.09,4.76c-2.69,3.77-4.49,10.67-4.49,18.55,0,11.93,4.13,21.61,9.22,21.61,1.69,0,3.28-1.07,4.64-2.94-.33.31-.66.46-1.01.46-2.45,0-4.43-7.77-4.43-17.35s1.99-17.36,4.43-17.36c.08,0,.16.01.24.02.07.01.15.04.21.07.07.02.14.06.21.09.08.05.15.11.24.16.07.06.15.13.22.21.09.08.18.19.26.29.09.12.18.24.26.38.09.13.18.27.25.42.08.14.15.28.22.43.33.69.63,1.54.89,2.52.07.24.13.48.19.73.18.72.34,1.49.48,2.32.01.05.02.11.02.15.08.41.14.85.2,1.28.02.16.05.33.07.51.18,1.32.29,2.74.38,4.22,0,.06.01.12.01.18.02.51.05,1.01.06,1.53.01.61.02,1.22.02,1.85,0,6.08-.8,11.41-2.01,14.52,1.94-3.96,3.16-9.79,3.16-16.29,0-7.55-1.65-14.19-4.15-18.04l8.63,1.83-1.8-4.6,3.6-.52c8.37,12.47,13.25,27.47,13.25,43.61Z"/>
      <path class="cls-14" d="M74.61,190.11c-.06.02-.12.03-.18.04h0c.06-.01.12-.02.18-.04Z"/>
      <path class="cls-10" d="M10.09,61.24s-.02.05-.05.07c-.13-.12-.21-.19-.25-.21l.29.14Z"/>
      <path class="cls-1" d="M74.61,190.11c-.06.02-.12.03-.18.04h0c.06-.01.12-.02.18-.04Z"/>
      <path class="cls-1" d="M74.61,190.11c-.06.02-.12.03-.18.04h0c.06-.01.12-.02.18-.04Z"/>
      <path class="cls-1" d="M101.31,91.06c.07.62-.66,1-1.12.58-2.25-2.05-4.13-4.48-5.45-7.21-.06-.12-.12-.26-.19-.4-.08-.2-.2-.39-.33-.55-1.52-1.94-3.74-2.95-6-2.95-1.72,0-3.46.6-4.9,1.82-1.25,1.06-2.23,2.36-2.89,3.81-.68,1.45-1.03,3.02-1.03,4.66v45.7l-3.31-4.11-.92-1.14-.74.54v-.52l1.95-1.43-1.95-2.41v-36.3c0-5.56,2.43-10.84,6.64-14.47,2.23-1.9,5.01-2.88,7.81-2.88,1.2,0,2.41.18,3.57.54,1.36.42,2.59,1.21,3.63,2.2l1.52,1.41c.38.35.73.75.99,1.21,1.48,2.69,2.05,6.49,2.46,9.79l.27,2.12Z"/>
      <path class="cls-10" d="M81.35,141.98c0,.86-.13,1.7-.37,2.53-.32,1.06-.85,2.05-1.58,2.94-.5.63-1.11,1.19-1.81,1.68-.99.67-2.06,1.11-3.16,1.34-3.12.64-6.48-.49-8.56-3.15l-4.58-5.87,3.79-2.79,9.13-6.7.22-.16.74-.54.92,1.14,3.31,4.11.04.05c1.29,1.61,1.91,3.53,1.91,5.42Z"/>
      <path class="cls-12" d="M134.5,92.64c1.21-3.1,2.01-8.44,2.01-14.52,0-9.59-1.99-17.36-4.43-17.36s-4.43,7.77-4.43,17.36,1.99,17.35,4.43,17.35c.35,0,.68-.15,1.01-.46-1.36,1.87-2.95,2.94-4.64,2.94-5.09,0-9.22-9.67-9.22-21.61,0-7.88,1.8-14.78,4.49-18.55,1.25-1.75,2.69-2.83,4.24-3.03h.01c.15-.01.31-.02.47-.02,1.4,0,2.74.73,3.93,2.05l1.13,1.5h.01c2.5,3.87,4.15,10.51,4.15,18.06,0,6.5-1.22,12.33-3.16,16.29Z"/>
      <path class="cls-12" d="M133.5,58.29l-1.13-1.5c.39.43.78.94,1.13,1.5Z"/>
      <path class="cls-12" d="M136.51,78.13c0,6.08-.8,11.41-2.01,14.52,0,.01,0,.02-.01.02-.43.88-.89,1.68-1.4,2.35-.33.31-.66.46-1.01.46-2.45,0-4.43-7.77-4.43-17.35s1.99-17.36,4.43-17.36,4.43,7.77,4.43,17.36Z"/>
      <path class="cls-8" d="M136.51,78.13c0,6.08-.8,11.41-2.01,14.52,0,.01,0,.02-.01.02-.42,1.08-.89,1.89-1.4,2.35-.33.31-.66.46-1.01.46-2.45,0-4.43-7.77-4.43-17.35s1.99-17.36,4.43-17.36,4.43,7.77,4.43,17.36Z"/>
      <circle class="cls-5" cx="132.87" cy="71.92" r="4.43"/>
      <path class="cls-6" d="M101.96,258.5v2.25c-6.49,7.32-14.74-2.22-14.74-2.25l1.57-46.69h8.41l3.12,22.92,1.64,23.77Z"/>
      <path class="cls-7" d="M167.05,49.14H35.35c-3.53,0-7.05-.33-10.53-.99l-5.04-.95-3.42-.65-9.37-1.76,28.15-13.49c1.99-.95,3.37-2.88,3.69-5.11l2.94-21.05c.42-2.97,3.1-5.02,5.96-4.56l38.38,6.12c.78.13,1.55.22,2.34.28,1.5.12,3.03.13,4.54.02l29.92-2.1c3.33-.24,6.23,2.33,6.52,5.76l2.16,24.77c.14,1.6,1.2,2.96,2.69,3.42l32.76,10.3Z"/>
      <path class="cls-2" d="M88.5,6.96s-15.76,5.83-19.94,3.01"/>
      <path class="cls-10" d="M48.38,84.91l-6.85-12.01c-1.2-2.12-1.6-4.61-1.09-6.99l1.89-9.02c.27-1.25.89-2.35,1.78-3.21.24-.24.49-.45.76-.63.73-.52,1.58-.87,2.49-1.05.43-.08.87-.11,1.29-.09h.02c.2,0,.39.01.59.05.19.02.38.06.56.09.54.12,1.07.32,1.56.58.15.08.32.16.46.27.35.22.69.49,1,.79h.01c.55.54,1.02,1.19,1.35,1.93l2.89,6.42"/>
      <path class="cls-10" d="M46.67,58.3l2.2.75c1.01.35,1.69,1.29,1.69,2.36v17.33"/>
      <path class="cls-10" d="M50.56,70.16l-3.3-.38c-.84-.1-1.45-.83-1.4-1.68l.19-2.85c.06-.95.85-1.68,1.8-1.68h2.71v6.59Z"/>
      <polygon class="cls-9" points="2.29 115.22 2.55 115.28 2.55 115.32 2.29 115.22"/>
      <path class="cls-9" d="M142.78,147.92v.02c-6.27,23.47-28.32,62.17-45.76,66.29-.07.03-.15.05-.22.06-4.66,1.11-9.46,1.78-14.39,1.99-.07,0-.15.01-.22.01-.92.05-1.86.07-2.79.07v-68.91c.73-.89,1.26-1.88,1.58-2.94h29.77v-16.81l.12.04c2.08.83,4.13,1.58,6.14,2.26v14.51l25.77,3.41Z"/>
      <path class="cls-9" d="M117.01,129.99h0c-2.01-.67-4.06-1.42-6.14-2.25l6.14,2.25Z"/>
      <polyline class="cls-3" points="38.37 123.73 55.8 144.51 76.91 129.83 61.29 109.66"/>
      <path class="cls-2" d="M155.41,116.08c-.07.07-.15.15-.22.21"/>
      <path class="cls-12" d="M143.94,55.03l-3.6.52,1.8,4.6-8.63-1.83h-.01c-.35-.58-.74-1.08-1.13-1.52-1.19-1.32-2.53-2.05-3.93-2.05-.16,0-.32.01-.47.02h-.01c-1.55.2-3,1.28-4.24,3.03,0,0-2.49-4.76-3.09-4.76s-6.79,4-6.79,4l-7.31,4.17-4.7-5.37-10,4.41-12.41,8.16s-4.97-13.89-4.97-14.26c.02-.31-4.22,5.6-4.22,5.6l-17.35-6.07h-.01c-.31-.29-.65-.56-1-.79-.14-.11-.31-.19-.46-.27-.49-.26-1.02-.46-1.56-.58-.19-.05-.38-.08-.56-.09-.2-.04-.39-.05-.59-.05h-.02c-.42-.02-.86.01-1.29.09-.92.18-1.76.53-2.49,1.05l-1.36-2.3-4.1,5.3-1.02,9.51-2.28-2.9-13.31,3.8-4.1-8.13-7.44.73-6.16.61,6.99-7.21-3-3.3,7.28-2.59,3.42.65,5.04.95c3.48.66,7.01.99,10.53.99h108.18l2.4,5.61-2,.28Z"/>
      <circle class="cls-13" cx="121.15" cy="152.57" r="1.93"/>
      <path class="cls-11" d="M147.64,109.66l-12.11,1.81-1.69,6h2.8l-.4,6.61h4.6l-2,8.01,6.81-1.97,1.26,5.77-6.16,13.27,9.82,10.21v13.91l-10.47,11.41,8.3,10.29,3.57,7.79v6.08l-2.17,1.32,4.09,9.19-3.06,4.24.51,5.74,6.38,11.62,3.06-10.24,12.89-1.53.64-11.31-1.02-9.04s.89-9.5,1.02-10.14-8.04-13.4-8.04-13.4l.77-7.15-1.53-9.96,8.94-11.42s-7.4-8.24-7.91-9.51.77-7.79.77-7.79c0,0-5.23-5.49-4.09-7.28s-2.68-9.19-2.68-9.19l.38-9.85-13.26-3.49Z"/>
      <path class="cls-10" d="M29.42,254.83h0c-6.49,7.32-14.74-2.22-14.74-2.25l32.97-23.01,14.5-13.21,10.69,1.53-13.96,18.66-29.46,18.28Z"/>
      <path class="cls-14" d="M63.08,265.33v10.09c0,1.92-.58,3.79-1.67,5.38l-1.34,1.95c-1.49,2.16-3.94,3.45-6.56,3.45H21.16c-3.04,0-5.75-1.93-6.73-4.81l-.38-1.1c-.28-.82-.41-1.68-.38-2.55l1.01-25.15s7.87,6.75,14.57,2.43v4.29s26.58-.96,26.58-.96c1.01-.04,2.01.14,2.94.53h0c2.61,1.09,4.31,3.63,4.31,6.46Z"/>
      <path class="cls-2" d="M138.39,111.86s8.95,11.97,16.8,4.44"/>
      <path class="cls-1" d="M79.4,147.45v149h-4.97v-145.11c1.1-.3,2.17-.86,3.16-1.73.7-.63,1.31-1.35,1.81-2.17Z"/>
    </g>
  </g>
</svg>