<?xml version="1.0" encoding="UTF-8"?>
<svg id="Calque_2" xmlns="http://www.w3.org/2000/svg" viewBox="0 0 328.98 254.97">
  <defs>
    <style>
      .cls-1 {
        fill: #1d1d1b;
      }

      .cls-1, .cls-2, .cls-3, .cls-4, .cls-5, .cls-6, .cls-7, .cls-8, .cls-9, .cls-10, .cls-11, .cls-12 {
        stroke: #000;
        stroke-miterlimit: 10;
        stroke-width: .25px;
      }

      .cls-2 {
        fill: #e6d7fb;
      }

      .cls-3 {
        fill: #8338ec;
      }

      .cls-4 {
        fill: #3a86ff;
      }

      .cls-5 {
        fill: #fb5607;
      }

      .cls-6 {
        fill: #feddcd;
      }

      .cls-7 {
        fill: #ffbe0b;
      }

      .cls-8 {
        fill: #d8e7ff;
      }

      .cls-9 {
        fill: #ff006e;
      }

      .cls-10 {
        fill: #ffcce2;
      }

      .cls-11 {
        fill: #fff;
      }

      .cls-12 {
        fill: #fff2ce;
      }
    </style>
  </defs>
  <g id="pièces">
    <g id="licorne">
      <g>
        <path class="cls-11" d="M328.55,175.83h0c.11.6.2,1.19.24,1.77.3,3.32-.34,6.69-1.9,9.73-.09.18-.18.37-.28.55l-2.63,4.73c-1.22,2.24-1.82,3.83-3.93,5.11-.28.21-.58.4-.88.58-.03.01-.04.03-.07.03h0c-1.46.87-3.14,1.39-4.88,1.49-.38.06-.8.13-1.19.17-.57.07-1.14.1-1.72.1h-16.64c-.53,0-1.04-.09-1.53-.24h-.58l-1.28.23s-.07.01-.1.03c-1.66.51-4.22,2-7.16,4.03-.03.01-.06.04-.09.06-4.61,3.49-10.04,8.42-14.1,12.25-1.31,1.25-2.83,2.22-4.44,2.87-.58.27-1.25.48-1.87.61-.06.01-.1.04-.14.06-1.82.91-4.16,1.52-6.29.87l-2.75-.87-18.84-5.88s-.07-.03-.11-.04c-4.77-1.53-8.51-5.23-10.1-9.98-.01-.03-.01-.04-.03-.07l-12.85-39.1c-1.06-3.22-3.42-5.85-6.5-7.26l-12.74-5.79c-4.06-1.85-7.3-5.17-9.03-9.29,0-.01-.01-.01-.01-.03l-22.69-54.11h-.01s-13.82-26.42-13.82-26.42c-.06-.1-.1-.2-.17-.3l-1.65-3.17c-.2-.28-.53-.75-.72-1.04l-1.89-2.04c-.26-.28-.5-.57-.75-.85-.3-.33-.61-.65-.92-1.01l-2.07-2.26c-.45-.5-.92-1.01-1.39-1.52l-4.27-4.69-1.16-1.26c-.18-.21-.37-.41-.55-.61l-1.06-1.16c-.17-.2-.34-.37-.51-.55l-.92-1.01c-.89-.97-1.59-1.73-2.02-2.2l-.31-.34-.1-.1c-3.78-.51-5.98-.67-8.66.26-.03,0-.07.01-.1,0-5.78-1.06-11.64-9.64-18.54-14-9.24-5.84-18.42-8.63-20.45-9.21-.07-.01-.46.29-.22.6,9.12,5.76,16.31,24.97,16.68,26.01.03.03.03.04.03.04l2.71,4.96c.34.4.65.82.92,1.29.04.06.09.13.11.18l.94,1.7c.09.17.17.33.26.5.62,1.33.89,2.77.8,4.19-.04,1.12-.33,2.23-.81,3.25-.13.28-.27.54-.43.81l-4.27,7.09c-.57.94-.95,1.95-1.14,3.01l-2.6,14.72c-.04.21-.09.43-.14.62-.51,2.07-1.76,3.88-3.51,5.07-.28.2-.57.37-.87.53l-8.32,4.42c-.28.16-.58.28-.88.4-.77.31-1.59.51-2.43.58-.26.03-.53.04-.8.04h-2.6c-.27,0-.55-.01-.82-.04-1.55-.14-3.01-.7-4.25-1.58-.2-.13-.38-.27-.57-.43-.97-.7-1.76-1.6-2.36-2.68l-.24-.44s-.03-.06-.06-.09l-1.93-3.46-3.52-.55-3.02-.48s-.09,0-.13.01c-.16-.03-.33-.06-.48-.1-2.68,3.18-5.48,6.43-8.29,9.71h-.01c-16.17,18.79-33.18,38.08-41.8,47.74-.01,0-.03.01-.03.03-14.11,23.19,4.83,39.02,9.81,41.32,12.08,5.55,21.11-.18,26.31-4.36,21.06-16.91,50.28-26.16,68.31-31.54,10.76-3.21,19.45-2.54,22.39-2.43,8.45.3,9.74,16.51,16.16,31.79l28.78,71.11,2.6,6.43"/>
        <path class="cls-4" d="M160.27,42.87s.03.01.03.03c.75.43,1.38,1.05,1.82,1.79.03.03.04.04.06.07l6.19,10.69c2.36,4.06,5.74,7.44,9.8,9.8l28.27,16.39.57.33.4.4s.04.04.07.06l28.47,28.13.78.77.38.98s.01.03.01.04l12.03,31.14c.55,1.45,1.75,2.56,3.22,3.01l52,16.16s.04.01.06.01c1.52.5,2.71,1.66,3.24,3.18l.41,1.15,10.28,29.58.55,1.35.18.43s.04-.01.07-.03c.3-.18.6-.37.88-.58,2.12-1.28,2.71-2.87,3.93-5.11l2.63-4.73c.1-.18.2-.37.28-.55,1.56-3.04,2.2-6.4,1.9-9.73-.04-.58-.13-1.18-.24-1.76h0c-.26-1.46-.7-2.88-1.33-4.25l-7.48-16.34c-2.51-5.48-6.74-10.01-12.04-12.89l-24.08-13.11c-2.9-1.59-5.61-3.51-8.05-5.75l-23.6-21.5c-.91-.84-1.73-1.75-2.47-2.73l-13.46-17.95c-3.25-4.33-7.82-7.5-13.02-9.02l-21.28-6.23c-4.37-1.28-8.51-3.24-12.25-5.79l-20.39-13.92c-2.46-1.68-5.94-2.81-8.8-3.51Z"/>
        <path class="cls-3" d="M155.75,42.18c4.33,2.3,2.77,15.36,3.39,16.83.72,1.69,22.72,15.46,23.93,15.7.03,0,.06.01.09.06.03.03.07.07.11.13h0c.04.07.09.14.13.21,2.02,3.18,10.29,24.58,12.37,30.87.01.04.01.07.03.1.34,1.02,1.09,1.85,2.09,2.27l.38.17,26.35,12.34c1.08.47,1.89,1.41,2.17,2.56l.16.62,8.19,32.81.21.87c.38,1.53,1.68,2.66,3.24,2.84l.89.1,8.19.95,24.93,2.9c2.71.31,4.67,2.71,4.49,5.41v.03l-.04.34-1.9,12.94c-.14,1.06.26,2.13,1.06,2.81l.71.6.13.11,14.31,12.15c.37.31.77.57,1.21.77.17.07.35.14.54.2.5.16,1.01.24,1.53.24h16.64c.58,0,1.15-.03,1.72-.1.4-.04.81-.11,1.19-.17,1.75-.1,3.42-.62,4.88-1.48h0s-.18-.44-.18-.44l-.55-1.35-10.28-29.58-.41-1.15c-.53-1.52-1.72-2.68-3.24-3.18-.01,0-.04-.01-.06-.01l-52-16.16c-1.48-.45-2.67-1.56-3.22-3.01l-12.03-31.14s-.01-.03-.01-.04c-.27-.67-.67-1.25-1.16-1.75l-28.47-28.13s-.04-.04-.07-.06c-.28-.28-.61-.53-.97-.72l-28.27-16.39c-4.06-2.36-7.44-5.74-9.8-9.8l-6.19-10.69s-.03-.04-.06-.07c-.44-.74-1.06-1.36-1.82-1.79,0-.01-.01-.01-.03-.03-.5-.27-1.04-.47-1.62-.55h-.03l-1.25-.17c-.57-.09-1.11-.07-1.62.03Z"/>
        <path class="cls-9" d="M136.32,39.39h0c.75.38,1.41.97,1.85,1.7l2.03,3.39.11.16,1.43,2.4c.33.53.74.98,1.24,1.33l8.25,5.92.18.13c.62.45,1.11,1.09,1.36,1.82l.07.21,6.63,18.8c.07.21.16.41.26.61.11.18.23.37.35.55.09.11.18.23.28.34.13.14.27.28.43.41l17.83,15.21.03.03c.13.11.26.24.37.35.33.31.58.71.77,1.14l.06.16,7.26,17.21,9.81,23.29c.41.98,1.22,1.73,2.23,2.09l.13.04c.06.03.11.06.17.07l17.17,6.08.34.11c1.14.4,2,1.32,2.36,2.47l.1.35,11.33,37.54s.01.04.01.06,0,.03.01.04c.06.18.1.38.11.58.03.17.04.34.04.51v4.12c0,2.09,1.69,3.78,3.78,3.78h16.57c1.58,0,2.98.97,3.54,2.44l.17.45.04.1,7.51,19.84c.54,1.43,1.83,2.33,3.19,2.46.99.11,2.03-.18,2.84-.95.01-.01.03-.03.04-.04,4.54-4.3,10.44-9.13,15.31-12.5.03-.01.06-.04.09-.06,2.94-2.03,5.5-3.52,7.16-4.03.03-.01.06-.01.1-.03l1.28-.23.24-.04-.2-.16c-.44-.2-.84-.45-1.21-.77l-14.31-12.15-.13-.11-.71-.6c-.81-.68-1.21-1.75-1.06-2.81l1.9-12.94.04-.34v-.03c.18-2.7-1.77-5.1-4.49-5.41l-24.93-2.9-8.19-.95-.89-.1c-1.56-.18-2.85-1.31-3.24-2.84l-.21-.87-8.19-32.81-.16-.62c-.28-1.15-1.09-2.09-2.17-2.56l-26.35-12.34-.38-.17c-.99-.43-1.75-1.25-2.09-2.27-.01-.03-.01-.06-.03-.1-2.07-6.29-10.35-27.69-12.37-30.87-.04-.07-.09-.14-.13-.2h0c-.04-.07-.09-.11-.11-.14-.03-.04-.06-.06-.09-.06-1.21-.24-23.2-14.01-23.93-15.7-.62-1.46.94-14.53-3.39-16.83,0-.01-.01-.01-.01-.01-.7-.37-11.46-1.87-12.24-1.99l-6.45-.91c-.43-.06-.65-.01-.74.13Z"/>
        <path class="cls-5" d="M127.04,37.85l.04.06.1.1.31.34c.43.47,1.12,1.24,2.02,2.2l.92,1.01c.17.18.34.35.51.55l1.06,1.16c.18.2.37.4.55.61l1.16,1.26,4.27,4.69c.47.51.94,1.02,1.39,1.52l2.07,2.26c.31.35.62.68.92,1.01.26.28.5.57.75.85l1.89,2.04c.2.28.53.75.72,1.04l1.65,3.17c.07.1.11.2.17.3l13.82,26.41h.01s22.69,54.13,22.69,54.13c0,.01.01.01.01.03,1.73,4.12,4.97,7.44,9.03,9.29l12.74,5.79c3.08,1.41,5.44,4.03,6.5,7.26l12.85,39.1s.01.04.03.07c1.59,4.76,5.32,8.45,10.1,9.98.04.01.07.03.11.04l18.84,5.88,2.75.87c2.13.65,4.47.04,6.29-.87.04-.01.09-.04.14-.06.62-.13,1.29-.34,1.87-.61,1.62-.65,3.14-1.62,4.44-2.87,4.06-3.83,9.49-8.76,14.1-12.25-4.87,3.37-10.76,8.19-15.31,12.5-.01.01-.03.03-.04.04-.81.77-1.85,1.06-2.84.95-1.36-.13-2.66-1.02-3.19-2.46l-7.51-19.84-.04-.1-.17-.45c-.55-1.48-1.96-2.44-3.54-2.44h-16.57c-2.09,0-3.78-1.69-3.78-3.78v-4c0-.21-.01-.43-.04-.62-.03-.2-.07-.4-.11-.58-.01-.01-.01-.03-.01-.04s-.01-.04-.01-.06l-11.33-37.54-.1-.35c-.35-1.15-1.22-2.07-2.36-2.47l-.34-.11-17.17-6.08c-.06-.01-.11-.04-.17-.07l-.13-.04c-1.01-.35-1.82-1.11-2.23-2.09l-9.81-23.29-7.26-17.21c-.2-.47-.48-.91-.82-1.29-.11-.11-.24-.24-.37-.35l-.03-.03-17.83-15.21c-.16-.13-.3-.27-.43-.41-.11-.1-.21-.21-.28-.34-.14-.17-.26-.35-.35-.55-.09-.14-.14-.3-.2-.44l-.06-.17-6.63-18.8c-.3-.87-.87-1.62-1.62-2.16l-8.25-5.92c-.5-.35-.91-.81-1.24-1.33l-1.43-2.4-.11-.16-2.03-3.39c-.44-.74-1.09-1.32-1.85-1.69h0c-.43-.23-.89-.37-1.38-.44l-6.25-.88-.98-.14-.67-.1Z"/>
        <path class="cls-11" d="M75.05,99.61c.1,1.97,1.72,3.55,3.72,3.55,1.87,0,3.44-1.38,3.71-3.18v-.03c-.04-.67-.11-1.32-.26-1.93,0-.01,0-.03-.01-.04-.18-.97-.51-1.85-1.01-2.56l-2.02-.41c-.09-.01-.17-.03-.26-.04-.17-.01-.33-.01-.5,0-.58.06-1.14.31-1.53.74-.07.04-.11.1-.16.16-.09.09-.16.2-.23.3-.06.11-.13.23-.17.34l-.07.16-1.22,2.95Z"/>
        <path class="cls-11" d="M81.61,108.07s-.01.06-.01.09l9.68-10.66-.3-.06-9.78-2.02c.5.71.82,1.59,1.01,2.56.01.01.01.03.01.04.14.61.21,1.26.26,1.93v.03c.2,3.55-.7,7.38-.87,8.09Z"/>
        <polygon class="cls-6" points="49.69 16.19 53.65 23.66 62.2 21.45 55.37 14.62 49.69 16.19"/>
        <polygon class="cls-10" points="53.65 23.66 59.03 33.83 70.72 29.96 62.2 21.45 53.65 23.66"/>
        <polygon class="cls-2" points="59.03 33.83 64.16 43.48 79.77 39.02 70.72 29.96 59.03 33.83"/>
        <path class="cls-8" d="M64.16,43.48l3.38,6.39,1.87-.55s.04-.01.07-.03l14.81-4.39-.2-1.56-4.32-4.32-15.62,4.46Z"/>
        <path class="cls-1" d="M78.79,15.56c.03.14.39.62.46.86.98,3.85,4.51,19.16,5.92,26.92.1.57.18,1.08.26,1.55l3.49-1.04c1.11-.33,2.23-.43,3.32-.33,1.26-.11,2.51.06,3.68.47.44.16.87.35,1.28.58l-.6-1.09-.91-1.65s0-.01-.03-.04c-.37-1.04-7.68-20.64-16.79-26.4-.06.06-.09.11-.09.17Z"/>
        <path class="cls-9" d="M62.55,86.24l1.93,3.46s.04.06.06.09l.24.44c.6,1.08,1.39,1.99,2.36,2.68.18.16.37.3.57.43,1.24.88,2.7,1.43,4.25,1.58.27.03.55.04.82.04h2.6c.27,0,.54-.01.8-.04.84-.07,1.66-.27,2.43-.58v-.38l.14-11.15c.01-1.49.45-2.95,1.29-4.2l5.67-8.56c.35-.54.6-1.15.7-1.77l.8-4.81c.33-2.02,1.68-3.72,3.56-4.52l10.44-4.36.37-.16c.1-1.42-.17-2.85-.8-4.19-.09-.17-.17-.33-.26-.5l-.94-1.7c-.03-.06-.07-.13-.11-.18-.27-.47-.58-.89-.92-1.29-.68-.81-1.51-1.48-2.41-1.97-.41-.23-.84-.43-1.28-.58l-.57.44-12.06,9.19c-.67.51-1.14,1.22-1.36,2.02l-2.14,7.8c-.28,1.04-.95,1.92-1.86,2.48l-5.28,3.32c-1.35.85-2.16,2.33-2.16,3.9v6.21c0,1.48-.74,2.85-1.96,3.68l-4.79,3.22h-.11Z"/>
        <path class="cls-7" d="M78.6,93.95v.38c.3-.11.6-.24.88-.4l8.32-4.42c.3-.16.58-.33.87-.53,1.75-1.19,3-3,3.51-5.07.06-.2.1-.41.14-.62l2.6-14.72c.18-1.06.57-2.07,1.14-3.01l4.27-7.09c.16-.27.3-.53.43-.81.48-1.02.77-2.13.81-3.25l-.37.16-10.44,4.36c-1.89.8-3.24,2.5-3.56,4.52l-.8,4.81c-.1.62-.34,1.24-.7,1.77l-5.67,8.56c-.84,1.25-1.28,2.71-1.29,4.2l-.14,11.15Z"/>
        <path class="cls-4" d="M55.39,85.11c.16.04.33.07.48.1.04-.01.09-.03.13-.01l3.02.48-.06-.2-2.67-9.77c-.24-.88-.23-1.82.03-2.7l1.82-6.36c.53-1.85,2.14-3.18,4.05-3.37l4.08-.37c1.69-.17,2.88-1.73,2.6-3.41l-.43-2.43c-.11-.65-.11-1.32-.01-1.97l.85-5.08c-.61.33-1.16.74-1.69,1.22l-7.24,6.65c-.45.41-.95.78-1.48,1.09l-5.01,2.95c-2.29,1.35-3.85,3.66-4.23,6.28l-1.04,7.09c-.67,4.57,2.34,8.86,6.8,9.81Z"/>
        <circle cx="8.04" cy="163.84" r="2.67"/>
        <path class="cls-4" d="M74.45,105.8l1.59,4.29c.5,1.36,2.27,1.7,3.24.64l2.3-2.54s1.12-4.27.89-8.21c-.27,1.8-1.83,3.18-3.71,3.18-2,0-3.62-1.58-3.72-3.55l-.5,1.22c-.67,1.58-.7,3.35-.1,4.97Z"/>
        <path class="cls-3" d="M56.3,75.71l2.67,9.77.06.2,3.52.55h.11s4.79-3.21,4.79-3.21c1.22-.82,1.96-2.2,1.96-3.68v-6.21c0-1.58.81-3.05,2.16-3.9l5.28-3.32c.91-.57,1.58-1.45,1.86-2.48l2.14-7.8c.23-.8.7-1.51,1.36-2.02l12.06-9.19.57-.44c-1.16-.41-2.41-.58-3.68-.47-1.09-.1-2.22,0-3.32.33l-3.49,1.04c-.07-.47-.16-.98-.26-1.55l.2,1.56-14.81,4.39s-.04.01-.07.03l-.11.71h-.01l-.85,5.08c-.1.65-.1,1.32.01,1.97l.43,2.43c.28,1.68-.91,3.24-2.6,3.41l-4.08.37c-1.9.18-3.52,1.52-4.05,3.37l-1.82,6.36c-.26.88-.27,1.82-.03,2.7Z"/>
        <polygon class="cls-12" points="41.47 .68 49.67 16.14 55.35 14.56 41.47 .68"/>
      </g>
    </g>
  </g>
</svg>