<?xml version="1.0" encoding="UTF-8"?>
<svg id="Calque_2" xmlns="http://www.w3.org/2000/svg" viewBox="0 0 145.44 176.86">
  <defs>
    <style>
      .cls-1 {
        fill: #93855d;
      }

      .cls-1, .cls-2, .cls-3, .cls-4, .cls-5, .cls-6, .cls-7, .cls-8, .cls-9, .cls-10, .cls-11, .cls-12, .cls-13, .cls-14 {
        stroke-miterlimit: 10;
      }

      .cls-1, .cls-2, .cls-3, .cls-4, .cls-5, .cls-6, .cls-7, .cls-8, .cls-9, .cls-10, .cls-12, .cls-13, .cls-14 {
        stroke: #000;
      }

      .cls-2 {
        fill: none;
      }

      .cls-3 {
        fill: gray;
      }

      .cls-4 {
        fill: #333;
      }

      .cls-5, .cls-11 {
        fill: #fff;
      }

      .cls-6 {
        fill: #a49a79;
      }

      .cls-7 {
        fill: #2d2828;
      }

      .cls-9 {
        fill: #7498d1;
      }

      .cls-10 {
        fill: #e0d0a3;
      }

      .cls-11 {
        stroke: #1d1d1b;
      }

      .cls-12 {
        fill: #f2f2f2;
      }

      .cls-13 {
        fill: #607ba6;
      }

      .cls-14 {
        fill: #4d4d4d;
      }
    </style>
  </defs>
  <g id="berger_pied_gauche">
    <g>
      <path class="cls-4" d="M116.38,160.13c-.5,1.3-1.49,2.34-2.76,2.91l-22.01,6.6c-1.62.21-3.21-.57-4.04-1.98l-1.9-3.21-2.54-5.66s11.78,2.04,11.69-4.31c.45,1,1.6,1.45,2.62,1.02l10.79-4.66c2.63-1.14,5.68.05,6.85,2.66l1.18,2.63c.57,1.27.61,2.71.12,4Z"/>
      <path class="cls-10" d="M135.95,130.54c0,.73-.11,1.45-.32,2.15-.27.9-.72,1.75-1.34,2.5-.43.54-.95,1.02-1.54,1.43-.84.57-1.75.95-2.69,1.14-2.65.55-5.51-.41-7.28-2.68l-3.9-4.99,3.23-2.37,7.76-5.7.19-.14.63-.46.78.97,2.82,3.5.03.04c1.1,1.37,1.63,3,1.63,4.61Z"/>
      <polyline class="cls-3" points="101.41 115.09 116.23 132.76 134.19 120.28 120.9 103.12"/>
      <path class="cls-6" d="M91.33,146.68l3.49,7.79c.09,6.35-11.69,4.31-11.69,4.31l-5.85-12.11c3.75-1.88,7.25-4.07,10.48-6.55.05-.03,3.52,6.59,3.57,6.55Z"/>
      <path class="cls-3" d="M125.5,116.19c-1.75,3.18-3.77,6.2-6,9.03h-.01l-19.88-2.22v-12.34c2.43.82,4.81,1.51,7.11,2.05.38.09.76.18,1.14.26.54.12,1.08.23,1.61.33.36.06.73.13,1.09.19.44.07.88.14,1.31.2.44.06.87.12,1.3.17,2.97.33,5.78.35,8.37,0,.24-.03.49-.07.73-.11.34-.05.67-.11,1-.19.22-.04.44-.09.66-.15.2-.04.41-.09.61-.15l.5,2.31.46.62Z"/>
      <path class="cls-3" d="M94.29,108.7v14.3h-25.33c.21-.7.32-1.42.32-2.15,0-1.61-.53-3.24-1.63-4.61l-.03-.04v-20.99c4.48,2.66,9,5.18,13.47,7.46,1.12.57,2.23,1.12,3.34,1.66.1.05.2.1.3.15.46.22.91.43,1.37.65.99.47,1.98.92,2.96,1.36.11.06.23.11.34.15.49.22.98.43,1.46.64.61.26,1.21.52,1.81.76.54.23,1.08.45,1.62.66Z"/>
      <path class="cls-3" d="M63.39,92.65v15.83l-11.38-14.08-18.6,11.11-.1.06,5.29,6.25L2.05,98.36v-.03c-1.02-4.62-1.55-9.42-1.55-14.35,0-11.42,2.87-22.17,7.93-31.56.07.05.14.12.24.2.65.56,2,1.7,3.92,3.28.34.27.69.57,1.07.88,1.01.82,2.14,1.74,3.39,2.75.6.48,1.23.98,1.89,1.51.77.61,1.58,1.25,2.42,1.91.28.22.56.44.85.67.47.38.96.76,1.45,1.14,2.35,1.82,4.91,3.79,7.64,5.84.43.32.87.65,1.31.98.88.65,1.78,1.32,2.69,1.99.55.4,1.1.81,1.66,1.22,3.47,2.53,7.15,5.14,10.96,7.76.68.47,1.37.94,2.06,1.41,3.61,2.45,7.34,4.89,11.13,7.27.55.35,1.1.69,1.65,1.03.21.13.42.26.63.39Z"/>
      <path class="cls-9" d="M63.39,128.07v23.85l-10.99-1.57-.19-.03v-1.37c-25-5.72-44.64-25.51-50.16-50.59,0,0,26.94,9.94,35.92,13.23.16.06.63.23.63.23l9.27,10.95.19.23,7.38-4.97-3.23,2.37,3.9,4.99c1.77,2.27,4.63,3.23,7.28,2.68Z"/>
      <path class="cls-10" d="M63.39,161.82s.1-.01.15-.03c-.05.02-.1.03-.15.04-.08.02-.16.04-.24.05-.13.02-.27.04-.42.05-.15.01-.3.02-.45.02-3.68,0-9.88-2.97-9.88-2.97v-8.85l10.99,1.57v10.12Z"/>
      <path class="cls-10" d="M113.64,49.66l-.96-1.28c.33.37.66.8.96,1.28Z"/>
      <path class="cls-10" d="M133.79,83.98c0,3.79-.32,7.49-.93,11.11l-7.19-1.82-10.3,1.54-1.44,5.1h2.38l-.34,5.62h3.91l-1.7,6.81,5.79-1.68.57,2.6c-.2.06-.41.11-.61.15-.22.06-.44.11-.66.15-.33.08-.66.14-1,.19-.24.04-.49.08-.73.11-2.59.35-5.4.33-8.37,0-.43-.05-.86-.11-1.3-.17-.43-.06-.87-.13-1.31-.2-.36-.06-.73-.13-1.09-.19-.53-.1-1.07-.21-1.61-.33-.38-.08-.76-.17-1.14-.26-2.3-.54-4.68-1.23-7.11-2.05-1.71-.58-3.45-1.22-5.22-1.92l-.1-.04c-.54-.21-1.08-.43-1.62-.66-.6-.24-1.2-.5-1.81-.76-.48-.21-.97-.42-1.46-.64-.11-.04-.23-.09-.34-.15-.98-.44-1.97-.89-2.96-1.36-.46-.22-.91-.43-1.37-.65-.1-.05-.2-.1-.3-.15-1.11-.54-2.22-1.09-3.34-1.66-4.47-2.28-8.99-4.8-13.47-7.46v-17.89c0-1.39.3-2.73.88-3.96.56-1.23,1.4-2.34,2.46-3.24,1.23-1.04,2.71-1.55,4.17-1.55,1.92,0,3.81.86,5.1,2.51.11.14.21.3.28.47.06.12.11.24.16.34,1.13,2.32,2.73,4.39,4.64,6.13.39.36,1.01.04.95-.49l-.23-1.8c-.35-2.81-.83-6.04-2.09-8.33-.22-.39-.52-.73-.84-1.03l-1.29-1.2c-.89-.84-1.93-1.51-3.09-1.87-.99-.31-2.02-.46-3.04-.46-2.38,0-4.74.83-6.64,2.45-3.58,3.09-5.65,7.58-5.65,12.31v15.05c-.21-.13-.42-.26-.63-.39-.55-.34-1.1-.68-1.65-1.03-3.79-2.38-7.52-4.82-11.13-7.27-.69-.47-1.38-.94-2.06-1.41-3.81-2.62-7.49-5.23-10.96-7.76-.56-.41-1.11-.82-1.66-1.22-.91-.67-1.81-1.34-2.69-1.99-.44-.33-.88-.66-1.31-.98-2.73-2.05-5.29-4.02-7.64-5.84-.49-.39-.98-.77-1.45-1.14-.29-.23-.57-.45-.85-.67-.84-.66-1.65-1.3-2.42-1.91-.66-.53-1.29-1.03-1.89-1.51-1.25-1.01-2.38-1.93-3.39-2.75-.38-.31-.73-.61-1.07-.88-1.92-1.58-3.27-2.72-3.92-3.28-.1-.08-.17-.15-.24-.2.02-.02.03-.04.04-.06.03-.06.07-.12.1-.18.01-.02.01-.03.02-.04.34-.63.69-1.24,1.05-1.85l6.33-.62,3.49,6.92,11.32-3.23,1.94,2.47.87-8.09,3.49-4.51,1.16,1.96c.62-.44,1.34-.74,2.12-.89.37-.07.74-.09,1.1-.08h.02c.17,0,.33.01.5.04.16.02.32.05.48.08.46.1.91.27,1.33.49.13.07.27.14.39.23.3.19.59.42.85.67h.01l14.76,5.16s3.61-5.02,3.59-4.76c0,.31,4.23,12.13,4.23,12.13l10.56-6.94,8.51-3.75,4,4.57,6.22-3.55s5.27-3.4,5.78-3.4,2.63,4.05,2.63,4.05c-2.29,3.21-3.82,9.08-3.82,15.78,0,10.15,3.51,18.38,7.84,18.38,1.44,0,2.79-.91,3.95-2.5-.28.26-.56.39-.86.39-2.08,0-3.77-6.61-3.77-14.76s1.69-14.77,3.77-14.77c.07,0,.14.01.2.02.06.01.13.03.18.06.06.02.12.05.18.08.07.04.13.09.2.14.06.05.13.11.19.18.08.07.15.16.22.25.08.1.15.2.22.32.08.11.15.23.21.36.07.12.13.24.19.37.28.59.54,1.31.76,2.14.06.2.11.41.16.62.15.61.29,1.27.41,1.97.01.04.02.09.02.13.07.35.12.72.17,1.09.02.14.04.28.06.43.15,1.12.25,2.33.32,3.59,0,.05.01.1.01.15.02.43.04.86.05,1.3.01.52.02,1.04.02,1.57,0,5.17-.68,9.71-1.71,12.35,1.65-3.37,2.69-8.33,2.69-13.86,0-6.42-1.4-12.07-3.53-15.35l7.34,1.56-1.53-3.91,3.06-.44c7.12,10.61,11.27,23.37,11.27,37.1Z"/>
      <path class="cls-14" d="M63.15,161.88c.08-.01.16-.03.24-.05v14.34h-6.12c-1.68,0-3.16-1.1-3.65-2.72l-.76-2.55c-.31-1.02-.46-2.08-.46-3.15v-8.77s6.2,2.97,9.88,2.97c.15,0,.3-.01.45-.02.15-.01.29-.03.42-.05Z"/>
      <path class="cls-14" d="M63.39,161.82s.1-.01.15-.03c-.05.02-.1.03-.15.04h0Z"/>
      <path class="cls-14" d="M83.71,168.05v2.89c0,.66-.12,1.31-.37,1.91-.25.67-.65,1.28-1.16,1.79-.98.98-2.31,1.53-3.7,1.53h-10.86v-13.5l2.56.04,8.37.11c2.87.04,5.16,2.37,5.16,5.23Z"/>
      <path class="cls-10" d="M8.66,52.17s-.02.04-.04.06c-.11-.1-.18-.16-.21-.18l.25.12Z"/>
      <path class="cls-1" d="M67.62,125.5v50.67h-4.23v-14.34s.1-.02.15-.04c-.05.02-.1.03-.15.03v-33.75c.94-.19,1.85-.57,2.69-1.14.59-.41,1.11-.89,1.54-1.43Z"/>
      <path class="cls-1" d="M63.54,161.79s-.1.03-.15.04h0s.1-.02.15-.04Z"/>
      <rect class="cls-1" x="63.39" y="176.17" width="4.23" height=".19"/>
      <path class="cls-1" d="M86.26,77.53c.06.53-.56.85-.95.49-1.91-1.74-3.51-3.81-4.64-6.13-.05-.1-.1-.22-.16-.34-.07-.17-.17-.33-.28-.47-1.29-1.65-3.18-2.51-5.1-2.51-1.46,0-2.94.51-4.17,1.55-1.06.9-1.9,2.01-2.46,3.24-.58,1.23-.88,2.57-.88,3.96v38.88l-2.82-3.5-.78-.97-.63.46v-.44l1.66-1.22-1.66-2.05v-30.88c0-4.73,2.07-9.22,5.65-12.31,1.9-1.62,4.26-2.45,6.64-2.45,1.02,0,2.05.15,3.04.46,1.16.36,2.2,1.03,3.09,1.87l1.29,1.2c.32.3.62.64.84,1.03,1.26,2.29,1.74,5.52,2.09,8.33l.23,1.8Z"/>
      <path class="cls-10" d="M69.28,120.85c0,.73-.11,1.45-.32,2.15-.27.9-.72,1.75-1.34,2.5-.43.54-.95,1.02-1.54,1.43-.84.57-1.75.95-2.69,1.14-2.65.55-5.51-.41-7.28-2.68l-3.9-4.99,3.23-2.37,7.76-5.7.19-.14.63-.46.78.97,2.82,3.5.03.04c1.1,1.37,1.63,3,1.63,4.61Z"/>
      <path class="cls-5" d="M114.49,78.88c1.03-2.64,1.71-7.18,1.71-12.35,0-8.16-1.69-14.77-3.77-14.77s-3.77,6.61-3.77,14.77,1.69,14.76,3.77,14.76c.3,0,.58-.13.86-.39-1.16,1.59-2.51,2.5-3.95,2.5-4.33,0-7.84-8.23-7.84-18.38,0-6.7,1.53-12.57,3.82-15.78,1.06-1.49,2.29-2.41,3.61-2.58h.01c.13,0,.26-.02.4-.02,1.19,0,2.33.62,3.34,1.74l.96,1.28h.01c2.13,3.29,3.53,8.94,3.53,15.36,0,5.53-1.04,10.49-2.69,13.86Z"/>
      <path class="cls-12" d="M113.64,49.66l-.96-1.28c.33.37.66.8.96,1.28Z"/>
      <path class="cls-12" d="M116.2,66.53c0,5.17-.68,9.71-1.71,12.35,0,.01,0,.02-.01.02-.37.75-.76,1.43-1.19,2-.28.26-.56.39-.86.39-2.08,0-3.77-6.61-3.77-14.76s1.69-14.77,3.77-14.77,3.77,6.61,3.77,14.77Z"/>
      <path class="cls-8" d="M116.2,66.53c0,5.17-.68,9.71-1.71,12.35,0,.01,0,.02-.01.02-.36.92-.76,1.61-1.19,2-.28.26-.56.39-.86.39-2.08,0-3.77-6.61-3.77-14.76s1.69-14.77,3.77-14.77,3.77,6.61,3.77,14.77Z"/>
      <circle class="cls-5" cx="113.11" cy="61.25" r="3.77"/>
      <path class="cls-7" d="M142.18,41.87H30.15c-3,0-6-.28-8.96-.84l-4.29-.81-2.91-.55-7.97-1.5,23.95-11.48c1.69-.81,2.87-2.45,3.14-4.35l2.5-17.91c.36-2.53,2.64-4.27,5.07-3.88l32.65,5.21c.66.11,1.32.19,1.99.24,1.28.1,2.58.11,3.86.02l25.45-1.79c2.83-.2,5.3,1.98,5.55,4.9l1.84,21.07c.12,1.36,1.02,2.52,2.29,2.91l27.87,8.76Z"/>
      <path class="cls-2" d="M75.36,6s-13.41,4.96-16.96,2.56"/>
      <path class="cls-10" d="M41.23,72.3l-5.83-10.22c-1.02-1.8-1.36-3.92-.93-5.95l1.61-7.67c.23-1.06.76-2,1.51-2.73.2-.2.42-.38.65-.54.62-.44,1.34-.74,2.12-.89.37-.07.74-.09,1.1-.08h.02c.17,0,.33.01.5.04.16.02.32.05.48.08.46.1.91.27,1.33.49.13.07.27.14.39.23.3.19.59.42.85.67h.01c.47.46.87,1.01,1.15,1.64l2.46,5.46"/>
      <path class="cls-10" d="M39.78,49.67l1.87.64c.86.29,1.43,1.1,1.43,2.01v14.74"/>
      <path class="cls-10" d="M43.08,59.76l-2.81-.32c-.71-.08-1.24-.71-1.19-1.43l.16-2.43c.05-.8.72-1.43,1.53-1.43h2.31v5.61Z"/>
      <polygon class="cls-9" points="2.02 98.09 2.24 98.14 2.24 98.17 2.02 98.09"/>
      <path class="cls-9" d="M119.49,125.22c-9.14,11.6-22.05,20.08-36.88,23.59-.06.02-.13.04-.19.05-3.96.94-8.05,1.51-12.24,1.69-.06,0-.13.01-.19.01-.78.04-1.58.06-2.37.06v-25.12c.62-.75,1.07-1.6,1.34-2.5h25.33v-14.3l.1.04c1.77.7,3.51,1.34,5.22,1.92v12.34l19.88,2.22Z"/>
      <path class="cls-9" d="M99.61,110.65h0c-1.71-.57-3.45-1.21-5.22-1.91l5.22,1.91Z"/>
      <polyline class="cls-3" points="32.72 105.33 47.54 123 65.5 110.52 52.21 93.36"/>
      <polygon class="cls-11" points="138.69 114.12 132.28 116.68 131.71 124.42 125.5 116.19 125.04 115.57 124.54 113.26 123.97 110.66 118.18 112.34 119.88 105.53 115.97 105.53 116.31 99.91 113.93 99.91 115.37 94.81 125.67 93.27 132.86 95.09 134.78 95.57 135.2 98.17 133.79 102.55 135.63 107.15 138.69 114.12"/>
      <path class="cls-2" d="M132.28,98.82c-.06.06-.13.13-.19.18"/>
      <path class="cls-5" d="M117.8,95.23s7.61,10.18,14.29,3.78"/>
      <path class="cls-5" d="M122.52,46.88l-3.06.44,1.53,3.91-7.34-1.56h-.01c-.3-.49-.63-.92-.96-1.29-1.01-1.12-2.15-1.74-3.34-1.74-.14,0-.27.01-.4.02h-.01c-1.32.17-2.55,1.09-3.61,2.58,0,0-2.12-4.05-2.63-4.05s-5.78,3.4-5.78,3.4l-6.22,3.55-4-4.57-8.51,3.75-10.56,6.94s-4.23-11.82-4.23-12.13c.02-.26-3.59,4.76-3.59,4.76l-14.76-5.16h-.01c-.26-.25-.55-.48-.85-.67-.12-.09-.26-.16-.39-.23-.42-.22-.87-.39-1.33-.49-.16-.04-.32-.07-.48-.08-.17-.03-.33-.04-.5-.04h-.02c-.36-.02-.73.01-1.1.08-.78.15-1.5.45-2.12.89l-1.16-1.96-3.49,4.51-.87,8.09-1.94-2.47-11.32,3.23-3.49-6.92-6.33.62-5.24.52,5.95-6.13-2.55-2.81,6.19-2.2,2.91.55,4.29.81c2.96.56,5.96.84,8.96.84h92.03l2.04,4.77-1.7.24Z"/>
      <circle class="cls-13" cx="103.14" cy="129.87" r="1.64"/>
    </g>
  </g>
</svg>