<?xml version="1.0" encoding="UTF-8"?>
<svg id="Calque_2" xmlns="http://www.w3.org/2000/svg" viewBox="0 0 632.43 529.66">
  <defs>
    <style>
      .cls-1 {
        fill: #fb5607;
      }

      .cls-1, .cls-2, .cls-3, .cls-4, .cls-5, .cls-6, .cls-7, .cls-8, .cls-9, .cls-10, .cls-11, .cls-12, .cls-13 {
        stroke: #000;
        stroke-miterlimit: 10;
      }

      .cls-2 {
        fill: none;
      }

      .cls-3 {
        fill: #ffcce2;
      }

      .cls-4 {
        fill: #fff;
      }

      .cls-5 {
        fill: #ffbe0b;
      }

      .cls-6 {
        fill: #3a86ff;
      }

      .cls-7 {
        fill: #e6d7fb;
      }

      .cls-8 {
        fill: #feddcd;
      }

      .cls-9 {
        fill: #fff2ce;
      }

      .cls-10 {
        fill: #1d1d1b;
      }

      .cls-11 {
        fill: #d8e7ff;
      }

      .cls-12 {
        fill: #ff006e;
      }

      .cls-13 {
        fill: #8338ec;
      }
    </style>
  </defs>
  <path class="cls-4" d="M499.18,319.01c-.06,3.44,1.16,6.77,3.43,9.37l10.41,11.92c.49.56.91,1.16,1.28,1.79,1.02,1.76,1.55,3.77,1.52,5.82-.07,6.76-.11,20.71-.16,35.74v.06c-.07,22.53-.17,47.46-.48,54.15-.06,1.25-2.09,7.25-3.17,10.37l5.88,3.35.77.44,4.49-6.11c1.64-2.24,2.59-4.9,2.72-7.67.63-13.15,2.46-53.95,2.46-80.72,0-5.99-.09-11.28-.31-15.4-.15-2.93-1.38-5.74-3.56-7.71-6.6-5.97-9.93-20.48-11.57-35.26l-1.35-41.06s-.01.02-.01.03c-.54,1.51-1.17,3-1.87,4.46-1.8,3.75-4.22,8.22-7.45,13.21-1.87,2.89-3.1,6.15-3.55,9.56-1.84,13.97.52,33.66.52,33.66Z"/>
  <path class="cls-4" d="M248.07,436.11l2.18,1.36.12.07,4.07,2.27s.07.07.2.21l8.98-6.4c2.24-1.59,3.56-4.18,3.53-6.92l-1.27-19.06c-.03-2.02-.42-6.94-.64-8.94-.72-6.46-.25-12.84-.64-19.99-.07-1.3.08-2.62.44-3.87,1.24-4.34,2.2-3.58,2.92-6.06,4.43-15.14,7-71.16,7-71.16h-.03c-.9.01-1.51.03-1.78.07-.02,0-.03,0-.04.01-1.68.94-13.67,3.04-13.76,6.88-.17,6.7,0,34.74-2.05,68.56-.45,7.43-4.87,11.35-5.61,18.12-1.2,10.97,1.44,32.9-.77,39.71-.4,1.22-1.58,3.2-2.85,5.14Z"/>
  <path class="cls-4" d="M89.39,161.95c8.51,3.91,14.87-.13,18.53-3.07,14.83-11.91,35.41-18.42,48.11-22.21,7.58-2.26,13.7-1.79,15.77-1.71,5.95.21,6.86,11.63,11.38,22.39l22.1,54.61s.02.04.02.06c-.09,1.59-3.12,62.05,18.22,71.12,6,2.55,14.25,97.88,13.7,136.17-.07,4.38-4.79,15.23-6.38,18.77l14.16,3.6s-.03-.1.01-.14c.32-.43,2.06-2.8,3.72-5.31.06-.1.13-.19.19-.29,1.27-1.94,2.45-3.92,2.85-5.14,2.21-6.81-.43-28.74.77-39.71.74-6.77,5.16-10.69,5.61-18.12,2.05-33.82,1.88-61.86,2.05-68.56.09-3.84,12.08-5.94,13.76-6.88.01,0,.02,0,.04,0,.27-.04.88-.06,1.78-.07h.03c14.19-.15,100.97,1.78,129.03-19.49,2.05-1.56,4.42-2.65,6.91-3.34,19.18-5.3,26.54,2.51,26.73,2.72t.01.02l64.67,100.55s.02.05.02.07c.09,1.51,3.1,48.76-.26,68.96l9.31,3.06s-.03-.07-.01-.11c.07-.19.31-.87.64-1.83,1.08-3.12,3.11-9.12,3.17-10.37.31-6.69.41-31.62.48-54.15v-.06c.05-15.03.09-28.98.16-35.74.03-2.05-.5-4.06-1.52-5.82-.37-.63-.79-1.23-1.28-1.79l-10.41-11.92c-2.27-2.6-3.49-5.93-3.43-9.37,0,0-2.36-19.69-.52-33.66.45-3.41,1.68-6.67,3.55-9.56,3.23-4.99,5.65-9.46,7.45-13.21.7-1.46,1.33-2.95,1.87-4.46,0-.01.01-.02.01-.03.29-.78.55-1.56.79-2.35h0c.63-2.06,1.13-4.15,1.49-6.26h0c.5-2.85.75-5.74.76-8.65.04-8.07-.17-20.26-1.35-32.15-.03-.36-.07-.71-.11-1.07-.03-.27-.06-.54-.09-.82-.1-.89-.21-1.78-.32-2.67-.04-.44-.1-.88-.16-1.32-.17-1.32-.36-2.63-.57-3.92-.07-.46-.14-.92-.22-1.37-.07-.46-.15-.91-.24-1.35-.12-.62-.23-1.24-.35-1.85-.23-1.14-.47-2.27-.72-3.36-.06-.3-.13-.6-.21-.88-.06-.23-.12-.46-.18-.68-.1-.41-.21-.81-.31-1.2-.23-.83-.46-1.63-.71-2.42-.33-1.05-.68-2.05-1.04-3.01-.19-.47-.38-.94-.57-1.39-.09-.22-.18-.44-.28-.65h0s-.01-.03-.01-.03h-.01c-.72-1.61-1.52-3.03-2.39-4.23-.57-.79-1.17-1.49-1.81-2.09-24.94-23.32-49.3-22.59-65.87-18.38-81.64,20.73-116.03,7.57-126.67,1.4l-1.07-.96h0c.08.42.14.84.17,1.25.21,2.34-.24,4.71-1.34,6.85-.06.13-.13.26-.2.39l-1.85,3.33c-.86,1.58-1.28,2.7-2.77,3.6-.2.15-.41.28-.62.41-.02.01-.03.02-.05.02h0c-1.03.61-2.21.98-3.44,1.05-.27.04-.56.09-.84.12-.4.05-.8.07-1.21.07h-11.72c-.37,0-.73-.06-1.08-.17h-.41l-.9.16s-.05.01-.07.02c-1.17.36-2.97,1.41-5.04,2.84-.02,0-.04.03-.06.04-3.25,2.46-7.07,5.93-9.93,8.63-.92.88-1.99,1.56-3.13,2.02-.41.19-.88.34-1.32.43-.04.01-.07.03-.1.04-1.28.64-2.93,1.07-4.43.61l-1.94-.61-13.27-4.14s-.05-.02-.08-.03c-3.36-1.08-5.99-3.68-7.11-7.03-.01-.02-.01-.03-.02-.05l-9.05-27.54c-.75-2.27-2.41-4.12-4.58-5.11l-8.97-4.08c-2.86-1.3-5.14-3.64-6.36-6.54,0,0,0,0,0-.02l-15.98-38.11h-.01s-9.73-18.61-9.73-18.61c-.04-.07-.07-.14-.12-.21l-1.16-2.23c-.14-.2-.37-.53-.51-.73l-1.33-1.44c-.18-.2-.35-.4-.53-.6-.21-.23-.43-.46-.65-.71l-1.46-1.59c-.32-.35-.65-.71-.98-1.07l-3.01-3.3-.82-.89c-.13-.15-.26-.29-.39-.43l-.75-.82c-.12-.14-.24-.26-.36-.39l-.65-.71c-.63-.68-1.12-1.22-1.42-1.55l-.22-.24-.07-.07c-2.66-.36-4.21-.47-6.1.18-.02,0-.05.01-.07,0-4.07-.75-8.2-6.79-13.06-9.86-6.51-4.11-12.97-6.08-14.4-6.49-.05-.01-.33.2-.15.42,6.42,4.06,11.49,17.58,11.75,18.31.02.02.02.03.02.03l1.91,3.49c.24.28.46.58.65.91.03.04.06.09.08.13l.66,1.2c.06.12.12.23.18.35.44.94.63,1.95.56,2.95-.03.79-.23,1.57-.57,2.29-.09.2-.19.38-.3.57l-3.01,4.99c-.4.66-.67,1.37-.8,2.12l-1.83,10.37c-.03.15-.06.3-.1.44-.36,1.46-1.24,2.73-2.47,3.57-.2.14-.4.26-.61.37l-5.86,3.11c-.2.11-.41.2-.62.28-.54.22-1.12.36-1.71.41-.18.02-.37.03-.56.03h-1.83c-.19,0-.39-.01-.58-.03-1.09-.1-2.12-.49-2.99-1.11-.14-.09-.27-.19-.4-.3-.68-.49-1.24-1.13-1.66-1.89l-.17-.31s-.02-.04-.04-.06l-1.36-2.44-2.48-.39-2.13-.34s-.06,0-.09.01c-.11-.02-.23-.04-.34-.07-1.89,2.24-3.86,4.53-5.84,6.84h-.01c-11.39,13.23-23.37,26.82-29.44,33.62,0,0-.02,0-.02.02-9.94,16.33,3.4,27.48,6.91,29.1Z"/>
  <path class="cls-5" d="M507.12,180.66v.02h0s.01.03.01.03h.01c.1.22.19.44.28.66.2.45.39.91.57,1.39.37.95.72,1.96,1.04,3.01.26.78.49,1.59.71,2.42.12.4.22.8.33,1.21l12.54,9.69c3.6,2.79,5.71,7.08,5.71,11.64v2.85c0,8.7,2.89,17.15,8.22,24.02l1.22,1.58c3.76,4.84,5.96,10.7,6.33,16.82l2.31,38.45c.13,2.1.58,4.17,1.35,6.13l9.21,23.61c.57,1.47.93,3.01,1.05,4.58l1.15,14.42c.24,3.08-.04,6.18-.85,9.17l-1.89,7.01c-1.09,4.07-1.23,8.33-.42,12.46l2.26,11.46,1.45-1.07c2.88-2.13,4.55-5.51,4.51-9.08-.08-5.44-.18-13.35-.24-17.22-.02-1.41.07-2.81.27-4.21.74-5.21,2.66-19.73,3.94-29.4.8-6.06.35-12.22-1.32-18.1l-18.23-64.24s-.01-.05-.02-.08l-6.23-28.13c-2.31-10.44-8.99-19.39-18.34-24.57l-15-8.31c-1.17-.65-2.49.56-1.94,1.78Z"/>
  <path class="cls-1" d="M510.08,189.4c.05.22.11.44.16.67.08.28.15.58.21.88.26,1.09.5,2.21.72,3.36.13.61.24,1.23.35,1.85.09.44.17.89.24,1.35.08.45.15.91.22,1.37.21,1.29.4,2.6.57,3.92.06.44.12.88.16,1.32.12.89.23,1.78.32,2.67.03.28.06.55.09.82.04.36.08.71.11,1.07.06.55.12,1.1.17,1.65l.57.33c3.28,1.86,5.17,5.48,4.81,9.24l-.65,6.8c-.03.33-.05.67-.05,1,0,4.54,2.96,8.61,7.38,9.97,1.74.53,2.78,2.12,2.78,3.77,0,.76-.23,1.54-.71,2.23-3.43,4.94-4.35,11.19-2.49,16.91l5.9,18.16,14.46,37.35c1.23,3.19,1.61,6.64,1.09,10.02l-2.73,17.72c-.37,2.42-.2,4.89.5,7.24l5.29,17.61c1.19,3.97,1.28,8.18.26,12.2l-2.7,10.66,11.16-8.25-2.26-11.46c-.81-4.13-.67-8.39.42-12.46l1.89-7.01c.81-2.99,1.09-6.09.85-9.17l-1.15-14.42c-.12-1.57-.48-3.11-1.05-4.58l-9.21-23.61c-.77-1.96-1.22-4.03-1.35-6.13l-2.31-38.45c-.37-6.12-2.57-11.98-6.33-16.82l-1.22-1.58c-5.33-6.87-8.22-15.32-8.22-24.02v-2.85c0-4.56-2.11-8.85-5.71-11.64l-12.54-9.69Z"/>
  <path class="cls-12" d="M513.84,249.51l-.27,13.91h0s8.41,13.69,8.41,13.69c2.32,3.77,3.8,7.98,4.37,12.37l1.25,9.77c.48,3.74,1.91,7.29,4.16,10.32l1.15,1.55c4.51,6.06,7.58,7.14,3.17,13.26l-.2.22c-2.28,2.47-3.51,5.72-3.5,9.08v19.52c0,3,.44,5.98,1.3,8.85l3.04,10.16c.7,2.33.79,4.8.25,7.17l-2.14,9.49c2.45,4.42,8.22,5.67,12.28,2.67l2.7-10.66c1.02-4.02.93-8.23-.26-12.2l-5.29-17.61c-.7-2.35-.87-4.82-.5-7.24l2.73-17.72c.52-3.38.14-6.83-1.09-10.02l-14.46-37.35-5.9-18.16c-1.86-5.72-.94-11.97,2.49-16.91.48-.69.71-1.47.71-2.23,0-1.65-1.04-3.24-2.78-3.77-4.42-1.36-7.38-5.43-7.38-9.97,0-.33.02-.67.05-1l.65-6.8c.36-3.76-1.53-7.38-4.81-9.24l-.57-.33c1.05,11.37,1.24,22.83,1.2,30.53-.01,2.91-.26,5.8-.76,8.64h0Z"/>
  <path class="cls-10" d="M244.15,441.85c.33.55,2.45,4.18,3.65,9.54h13.1c1.53-2.6-5.05-10.03-6.26-11.37-.13-.14-.2-.21-.2-.21l-4.07-2.27-.12-.07-2.18-1.36c-.06.1-.13.19-.19.29-1.66,2.51-3.4,4.88-3.72,5.31-.04.04-.04.09-.01.14Z"/>
  <path class="cls-6" d="M191.65,62.62s.02.01.02.02c.53.3.97.74,1.28,1.26.02.02.03.03.04.05l4.36,7.53c1.66,2.86,4.04,5.24,6.9,6.9l19.91,11.54.4.23.28.28s.03.03.05.04l20.05,19.81.55.54.27.69s.01.02.01.03l8.47,21.93c.39,1.02,1.23,1.8,2.27,2.12l36.62,11.38s.03.01.04.01c1.07.35,1.91,1.17,2.28,2.24l.29.81,7.24,20.83.39.95.13.3s.03-.01.05-.02c.21-.13.42-.26.62-.41,1.49-.9,1.91-2.02,2.77-3.6l1.85-3.33c.07-.13.14-.26.2-.39,1.1-2.14,1.55-4.51,1.34-6.85-.03-.41-.09-.83-.17-1.24h0c-.18-1.03-.49-2.03-.94-2.99l-5.27-11.51c-1.77-3.86-4.75-7.05-8.48-9.08l-16.96-9.23c-2.04-1.12-3.95-2.47-5.67-4.05l-16.62-15.14c-.64-.59-1.22-1.23-1.74-1.92l-9.48-12.64c-2.29-3.05-5.51-5.28-9.17-6.35l-14.99-4.39c-3.08-.9-5.99-2.28-8.63-4.08l-14.36-9.8c-1.73-1.18-4.18-1.98-6.2-2.47Z"/>
  <path class="cls-13" d="M188.47,62.13c3.05,1.62,1.95,10.82,2.39,11.85.51,1.19,16,10.89,16.85,11.06.02,0,.04.01.06.04.02.02.05.05.08.09h0s.06.1.09.15c1.42,2.24,7.25,17.31,8.71,21.74.01.03.01.05.02.07.24.72.77,1.3,1.47,1.6l.27.12,18.56,8.69c.76.33,1.33.99,1.53,1.8l.11.44,5.77,23.11.15.61c.27,1.08,1.18,1.87,2.28,2l.63.07,5.77.67,17.56,2.04c1.91.22,3.29,1.91,3.16,3.81v.02l-.03.24-1.34,9.11c-.1.75.18,1.5.75,1.98l.5.42.09.08,10.08,8.56c.26.22.54.4.85.54.12.05.25.1.38.14.35.11.71.17,1.08.17h11.72c.41,0,.81-.02,1.21-.07.28-.03.57-.08.84-.12,1.23-.07,2.41-.44,3.44-1.04h0s-.13-.31-.13-.31l-.39-.95-7.24-20.83-.29-.81c-.37-1.07-1.21-1.89-2.28-2.24-.01,0-.03-.01-.04-.01l-36.62-11.38c-1.04-.32-1.88-1.1-2.27-2.12l-8.47-21.93s-.01-.02-.01-.03c-.19-.47-.47-.88-.82-1.23l-20.05-19.81s-.03-.03-.05-.04c-.2-.2-.43-.37-.68-.51l-19.91-11.54c-2.86-1.66-5.24-4.04-6.9-6.9l-4.36-7.53s-.02-.03-.04-.05c-.31-.52-.75-.96-1.28-1.26,0-.01-.01-.01-.02-.02-.35-.19-.73-.33-1.14-.39h-.02l-.88-.12c-.4-.06-.78-.05-1.14.02Z"/>
  <path class="cls-4" d="M303.5,172.11h0s.03-.01.05-.02c-.02.01-.03.02-.05.02Z"/>
  <path class="cls-12" d="M174.78,60.17h0c.53.27.99.68,1.3,1.2l1.43,2.39.08.11,1.01,1.69c.23.37.52.69.87.94l5.81,4.17.13.09c.44.32.78.77.96,1.28l.05.15,4.67,13.24c.05.15.11.29.18.43.08.13.16.26.25.39.06.08.13.16.2.24.09.1.19.2.3.29l12.56,10.71.02.02c.09.08.18.17.26.25.23.22.41.5.54.8l.04.11,5.11,12.12,6.91,16.4c.29.69.86,1.22,1.57,1.47l.09.03s.08.04.12.05l12.09,4.28.24.08c.8.28,1.41.93,1.66,1.74l.07.25,7.98,26.44s.01.03.01.04,0,.02.01.03c.04.13.07.27.08.41.02.12.03.24.03.36v2.9c0,1.47,1.19,2.66,2.66,2.66h11.67c1.11,0,2.1.68,2.49,1.72l.12.32.03.07,5.29,13.97c.38,1.01,1.29,1.64,2.25,1.73.7.08,1.43-.13,2-.67.01-.01.02-.02.03-.03,3.2-3.03,7.35-6.43,10.78-8.8.02-.01.04-.03.06-.04,2.07-1.43,3.87-2.48,5.04-2.84.02-.01.04-.01.07-.02l.9-.16.17-.03-.14-.11c-.31-.14-.59-.32-.85-.54l-10.08-8.56-.09-.08-.5-.42c-.57-.48-.85-1.23-.75-1.98l1.34-9.11.03-.24v-.02c.13-1.9-1.25-3.59-3.16-3.81l-17.56-2.04-5.77-.67-.63-.07c-1.1-.13-2.01-.92-2.28-2l-.15-.61-5.77-23.11-.11-.44c-.2-.81-.77-1.47-1.53-1.8l-18.56-8.69-.27-.12c-.7-.3-1.23-.88-1.47-1.6-.01-.02-.01-.04-.02-.07-1.46-4.43-7.29-19.5-8.71-21.74-.03-.05-.06-.1-.09-.14h0s-.06-.08-.08-.1c-.02-.03-.04-.04-.06-.04-.85-.17-16.34-9.87-16.85-11.06-.44-1.03.66-10.23-2.39-11.85,0-.01-.01-.01-.01-.01-.49-.26-8.07-1.32-8.62-1.4l-4.54-.64c-.3-.04-.46-.01-.52.09Z"/>
  <path class="cls-12" d="M191.09,85.43l.04.12c.04.1.08.21.14.31-.07-.14-.13-.28-.18-.43Z"/>
  <path class="cls-1" d="M168.25,59.08l.03.04.07.07.22.24c.3.33.79.87,1.42,1.55l.65.71c.12.13.24.25.36.39l.75.82c.13.14.26.28.39.43l.82.89,3.01,3.3c.33.36.66.72.98,1.07l1.46,1.59c.22.25.44.48.65.71.18.2.35.4.53.6l1.33,1.44c.14.2.37.53.51.73l1.16,2.23c.05.07.08.14.12.21l9.73,18.6h.01s15.98,38.12,15.98,38.12c0,.01,0,.01,0,.02,1.22,2.9,3.5,5.24,6.36,6.54l8.97,4.08c2.17.99,3.83,2.84,4.58,5.11l9.05,27.54s.01.03.02.05c1.12,3.35,3.75,5.95,7.11,7.03.03.01.05.02.08.03l13.27,4.14,1.94.61c1.5.46,3.15.03,4.43-.61.03-.01.06-.03.1-.04.44-.09.91-.24,1.32-.43,1.14-.46,2.21-1.14,3.13-2.02,2.86-2.7,6.68-6.17,9.93-8.63-3.43,2.37-7.58,5.77-10.78,8.8-.01.01-.02.02-.03.03-.57.54-1.3.75-2,.67-.96-.09-1.87-.72-2.25-1.73l-5.29-13.97-.03-.07-.12-.32c-.39-1.04-1.38-1.72-2.49-1.72h-11.67c-1.47,0-2.66-1.19-2.66-2.66v-2.82c0-.15-.01-.3-.03-.44-.02-.14-.05-.28-.08-.41-.01-.01-.01-.02-.01-.03s-.01-.03-.01-.04l-7.98-26.44-.07-.25c-.25-.81-.86-1.46-1.66-1.74l-.24-.08-12.09-4.28s-.08-.03-.12-.05l-.09-.03c-.71-.25-1.28-.78-1.57-1.47l-6.91-16.4-5.11-12.12c-.14-.33-.34-.64-.58-.91-.08-.08-.17-.17-.26-.25l-.02-.02-12.56-10.71c-.11-.09-.21-.19-.3-.29-.08-.07-.15-.15-.2-.24-.1-.12-.18-.25-.25-.39-.06-.1-.1-.21-.14-.31l-.04-.12-4.67-13.24c-.21-.61-.61-1.14-1.14-1.52l-5.81-4.17c-.35-.25-.64-.57-.87-.94l-1.01-1.69-.08-.11-1.43-2.39c-.31-.52-.77-.93-1.3-1.19h0c-.3-.16-.63-.26-.97-.31l-4.4-.62-.69-.1-.47-.07Z"/>
  <path class="cls-1" d="M191.09,85.43l.04.12c.04.1.08.21.14.31-.07-.14-.13-.28-.18-.43Z"/>
  <path class="cls-4" d="M131.21,106.94l1.12,3.02c.35.96,1.6,1.2,2.28.45l1.62-1.79s.79-3.01.63-5.78c-.19,1.27-1.29,2.24-2.61,2.24-1.41,0-2.55-1.11-2.62-2.5l-.35.86c-.47,1.11-.49,2.36-.07,3.5Z"/>
  <path class="cls-4" d="M131.19,106.91l1.12,3.02c.35.96,1.6,1.2,2.28.45l1.62-1.79.04-.05s0,.04,0,.06l6.82-7.51-.21-.04s-.04-.04-.07-.05l-6.84-1.4-1.26-.26c-.11-.02-.22-.03-.32-.03-.12-.01-.23-.01-.35,0-.41.04-.8.22-1.08.52-.05.03-.08.07-.11.11-.06.06-.11.14-.16.21-.08.1-.14.2-.19.32l-.86,2.08-.35.86c-.47,1.11-.49,2.36-.07,3.5Z"/>
  <path class="cls-10" d="M217.35,459.84c-.06.1.02.23.13.23h30.99c.08,0,.15-.07.15-.15.12-3.02-.22-5.82-.76-8.27-.02-.09-.04-.18-.06-.26-1.2-5.36-3.32-8.99-3.65-9.54l-14.16-3.6c-.32.7-.51,1.11-.52,1.14h-.01l-12.11,20.45Z"/>
  <path class="cls-10" d="M489.43,470.8l28.47.1c.06,0,.11-.03.14-.07.73-1.07.73-2.81.32-4.84-.01-.01-.01-.02-.01-.03-1.3-6.2-6.53-15.06-6.97-15.79l-9.31-3.06c-.23,1.36-.48,2.6-.77,3.69-1.37,5.23-10.6,17.86-12,19.76-.07.1,0,.24.13.24Z"/>
  <path class="cls-4" d="M131.63,102.58c.07,1.39,1.21,2.5,2.62,2.5,1.32,0,2.42-.97,2.61-2.24v-.02c-.03-.47-.08-.93-.18-1.36,0,0,0-.02-.01-.03-.13-.68-.36-1.3-.71-1.8l-1.42-.29c-.06,0-.12-.02-.18-.03-.12-.01-.23-.01-.35,0-.41.04-.8.22-1.08.52-.05.03-.08.07-.11.11-.06.06-.11.14-.16.21-.04.08-.09.16-.12.24l-.05.11-.86,2.08Z"/>
  <path class="cls-4" d="M136.25,108.54s0,.04,0,.06l6.82-7.51-.21-.04-6.89-1.42c.35.5.58,1.12.71,1.8.01.01.01.02.01.03.1.43.15.89.18,1.36v.02c.14,2.5-.49,5.2-.61,5.7Z"/>
  <polygon class="cls-9" points="108 32.94 113.77 43.83 117.77 42.72 108 32.94"/>
  <polygon class="cls-8" points="113.77 43.83 116.56 49.09 122.58 47.53 117.77 42.72 113.77 43.83"/>
  <polygon class="cls-3" points="116.56 49.09 120.35 56.25 128.58 53.53 122.58 47.53 116.56 49.09"/>
  <polygon class="cls-7" points="120.35 56.25 123.96 63.05 134.96 59.91 128.58 53.53 120.35 56.25"/>
  <path class="cls-11" d="M123.96,63.05l2.38,4.5,1.32-.39s.03-.01.05-.02l10.43-3.09-.14-1.1-3.04-3.04-11,3.14Z"/>
  <path class="cls-10" d="M134.26,43.39c.02.1.28.43.33.6.69,2.71,3.18,13.49,4.17,18.96.07.4.13.76.18,1.09l2.46-.73c.78-.23,1.57-.3,2.34-.23.89-.08,1.77.04,2.59.33.31.11.61.25.9.41l-.42-.77-.64-1.16s0-.01-.02-.03c-.26-.73-5.41-14.53-11.83-18.59-.04.04-.06.08-.06.12Z"/>
  <path class="cls-12" d="M122.83,93.16l1.36,2.44s.03.04.04.06l.17.31c.42.76.98,1.4,1.66,1.89.13.11.26.21.4.3.87.62,1.9,1.01,2.99,1.11.19.02.39.03.58.03h1.83c.19,0,.38-.01.56-.03.59-.05,1.17-.19,1.71-.41v-.27l.1-7.85c.01-1.05.32-2.08.91-2.96l3.99-6.03c.25-.38.42-.81.49-1.25l.56-3.39c.23-1.42,1.18-2.62,2.51-3.18l7.35-3.07.26-.11c.07-1-.12-2.01-.56-2.95-.06-.12-.12-.23-.18-.35l-.66-1.2s-.05-.09-.08-.13c-.19-.33-.41-.63-.65-.91-.48-.57-1.06-1.04-1.7-1.39-.29-.16-.59-.3-.9-.41l-.4.31-8.49,6.47c-.47.36-.8.86-.96,1.42l-1.51,5.49c-.2.73-.67,1.35-1.31,1.75l-3.72,2.34c-.95.6-1.52,1.64-1.52,2.75v4.37c0,1.04-.52,2.01-1.38,2.59l-3.37,2.27h-.08Z"/>
  <path class="cls-5" d="M134.13,98.59v.27c.21-.08.42-.17.62-.28l5.86-3.11c.21-.11.41-.23.61-.37,1.23-.84,2.11-2.11,2.47-3.57.04-.14.07-.29.1-.44l1.83-10.37c.13-.75.4-1.46.8-2.12l3.01-4.99c.11-.19.21-.37.3-.57.34-.72.54-1.5.57-2.29l-.26.11-7.35,3.07c-1.33.56-2.28,1.76-2.51,3.18l-.56,3.39c-.07.44-.24.87-.49,1.25l-3.99,6.03c-.59.88-.9,1.91-.91,2.96l-.1,7.85Z"/>
  <path class="cls-6" d="M117.79,92.37c.11.03.23.05.34.07.03-.01.06-.02.09-.01l2.13.34-.04-.14-1.88-6.88c-.17-.62-.16-1.28.02-1.9l1.28-4.48c.37-1.3,1.51-2.24,2.85-2.37l2.87-.26c1.19-.12,2.03-1.22,1.83-2.4l-.3-1.71c-.08-.46-.08-.93-.01-1.39l.6-3.58c-.43.23-.82.52-1.19.86l-5.1,4.68c-.32.29-.67.55-1.04.77l-3.53,2.08c-1.61.95-2.71,2.58-2.98,4.42l-.73,4.99c-.47,3.22,1.65,6.24,4.79,6.91Z"/>
  <circle cx="84.44" cy="147.82" r="1.88"/>
  <path class="cls-10" d="M511.37,450.06s-.01.07,0,.11c.44.73,5.67,9.59,6.97,15.79,0,.01,0,.02.01.03l8.13.16c0-5.96-7.83-14.13-7.83-14.13l-.77-.44-5.88-3.35c-.33.96-.57,1.64-.64,1.83Z"/>
  <path class="cls-6" d="M131.21,106.94l1.12,3.02c.35.96,1.6,1.2,2.28.45l1.62-1.79s.79-3.01.63-5.78c-.19,1.27-1.29,2.24-2.61,2.24-1.41,0-2.55-1.11-2.62-2.5l-.35.86c-.47,1.11-.49,2.36-.07,3.5Z"/>
  <polyline class="cls-2" points="510.08 189.4 510.06 189.39 509.83 189.21"/>
  <line class="cls-2" x1="513.39" y1="210.33" x2="513.4" y2="210.33"/>
  <path class="cls-13" d="M513.42,270.8c-.12,5.87,1.3,11.67,4.11,16.83l2.6,4.77c.84,1.53,1.22,3.26,1.12,5l-1.1,17.95c-.19,3.17.78,6.3,2.73,8.81l1.56,2.01c2.52,3.24,3.89,7.23,3.89,11.34v39.25c0,.24.06.47.17.68l6.33,11.43,2.14-9.49c.54-2.37.45-4.84-.25-7.17l-3.04-10.16c-.86-2.87-1.3-5.85-1.3-8.85v-19.52c0-3.36,1.22-6.61,3.5-9.08l.2-.22c4.41-6.12,1.34-7.2-3.17-13.26l-1.15-1.55c-2.25-3.03-3.68-6.58-4.16-10.32l-1.25-9.77c-.57-4.39-2.05-8.6-4.37-12.37l-8.41-13.68-.15,7.37Z"/>
  <line class="cls-2" x1="513.56" y1="263.41" x2="513.57" y2="263.42"/>
  <line class="cls-2" x1="175.2" y1="59.91" x2="175.3" y2="60.08"/>
  <line class="cls-2" x1="150.3" y1="70.75" x2="150.32" y2="70.74"/>
  <path class="cls-13" d="M118.43,85.75l1.88,6.88.04.14,2.48.39h.08s3.37-2.26,3.37-2.26c.86-.58,1.38-1.55,1.38-2.59v-4.37c0-1.11.57-2.15,1.52-2.75l3.72-2.34c.64-.4,1.11-1.02,1.31-1.75l1.51-5.49c.16-.56.49-1.06.96-1.42l8.49-6.47.4-.31c-.82-.29-1.7-.41-2.59-.33-.77-.07-1.56,0-2.34.23l-2.46.73c-.05-.33-.11-.69-.18-1.09l.14,1.1-10.43,3.09s-.03,0-.05.02l-.08.5h-.01l-.6,3.58c-.07.46-.07.93.01,1.39l.3,1.71c.2,1.18-.64,2.28-1.83,2.4l-2.87.26c-1.34.13-2.48,1.07-2.85,2.37l-1.28,4.48c-.18.62-.19,1.28-.02,1.9Z"/>
</svg>